<svg height="28" viewBox="0 0 50 28" width="50" xmlns="http://www.w3.org/2000/svg"><g fill="none" fill-rule="evenodd"><rect fill="#fff" height="27" rx="3" stroke="#595959" width="49" x=".5" y=".5"/><g transform="translate(2.430556 8.04559)"><path d="m42.5920486.80168982 2.546875 4.6505787-5.3538194 4.65312498z" fill="#088b44"/><path d="m40.8286921.80168982 2.5427084 4.6505787-5.3496528 4.65312498z" fill="#f27921"/><g fill="#28377c"><path d="m0 8.41319444 2.53900463-8.41319444h4.05960648c1.26805556 0 2.11585648.18449074 2.54699074.56539352.42731482.3775463.51053241.99386574.2525463 1.86018518-.15613426.51018519-.39340278.93865741-.71886574 1.2769676-.32395834.33912037-.74965278.60729166-1.27465278.8042824.44513889.09849537.72881944.29398149.85555556.58726852.12662037.29305556.11180555.72071759-.04143519 1.28125l-.30891204 1.175-.00092592.03182871c-.08900463.32905092-.06284723.50532407.08206018.51944444l-.09351852.31157407h-2.74571759c.00902778-.19791666.02650463-.375.04467593-.52372685.0199074-.15196759.0443287-.26967592.06875-.35069444l.25590277-.84027778c.12928241-.43680556.1375-.74155093.01747686-.91701389-.12094908-.18055555-.39143519-.26909722-.81840278-.26909722h-1.15416667l-.87997685 2.90081018zm4.13715278-4.79675925h1.23611111c.43321759 0 .75289352-.05682871.94965278-.17453704.19791666-.11851852.34525463-.31886574.43148148-.60891204.08946759-.29479167.06701389-.50011574-.06041667-.61724537-.12847222-.11851852-.43402778-.17615741-.91574074-.17615741h-1.16493055z"/><path d="m16.9348495 2.20484954-1.871875 6.20833333h-2.2747685l.2799769-.90949074c-.400926.36157407-.8100695.63645833-1.2232639.81180556-.4096065.17881944-.8420139.26643518-1.2971065.26643518-.3760417 0-.69907407-.06261574-.95914352-.18703704-.26342592-.12453703-.45960648-.31319444-.59097222-.56215277-.11724537-.21805556-.16770833-.4869213-.14780093-.80844908.0207176-.31666667.14247686-.85034722.36770834-1.59791667l.96990743-3.22152777h2.4880787l-.9682871 3.20671296c-.1415509.46921296-.1755787.79918981-.1060185.97881944.0721065.18101852.2634259.27476852.5748843.27476852.3130787 0 .5763889-.10451389.7946759-.31747685.2207176-.21134259.3913195-.52627315.5188657-.94560185l.9599538-3.19722222z"/><path d="m16.0320833 8.41319444 2.5364584-8.41319444h3.4891203c.7697917 0 1.3657408.04166667 1.7909723.13368056.424074.08761574.75625.23043981 1.0030092.43171296.309838.26319444.4995371.58888889.5782408.97974537.0732638.39085648.0297453.84594907-.1309028 1.38055555-.2844908.940625-.7818287 1.6613426-1.4925926 2.1650463-.7122685.496875-1.5927083.74652778-2.6440972.74652778h-1.6329861l-.7752315 2.57592592zm4.1159723-4.63055555h.8770833c.5673611 0 .9662037-.06412037 1.1993055-.18877315.2261575-.12604167.3868056-.34988426.4854167-.6681713.0976852-.32222222.0724537-.54791666-.0753472-.67395833-.1429398-.12534722-.5069445-.18877315-1.0900463-.18877315h-.875463z"/><path d="m28.225625 8.41319444.0252315-.58958333c-.4009259.27627315-.8071759.48518519-1.2158565.61550926-.4065972.13275463-.8398148.20046296-1.3037037.20046296-.7048611 0-1.1959491-.17627314-1.4805556-.51701389-.2806713-.34166666-.3267361-.83206018-.1353009-1.4574074.1833333-.61747685.509375-1.07164352.9797454-1.36238426.4680555-.29386574 1.2490741-.50451389 2.3447917-.63900463.1391203-.02083334.3255787-.03738426.5586805-.06331019.8100695-.08611111 1.265162-.2849537 1.3628472-.60891203.0513889-.17708334.0202547-.30810186-.0994213-.38842593-.1153935-.08344907-.3320602-.1244213-.6435185-.1244213-.2583333 0-.4663194.04907408-.6372685.1519676-.1706019.10358796-.2978009.25486111-.383912.46770833h-2.4260417c.2190972-.69907407.6667824-1.22696759 1.3390046-1.58032407.66875-.35914352 1.5516204-.53194445 2.6449074-.53194445.5143519 0 .9748843.0443287 1.3815973.14027778.4075231.09201389.7056712.22303241.899074.38159722.2380787.19814815.3788195.42361111.4186343.67326389.046412.24907407-.0045139.60555556-.1461806 1.07256944l-1.0431713 3.46099537c-.0340277.11365741-.040162.21481482-.0223379.30659723.0223379.08784722.0637731.16284722.1375.21643518l-.0563658.17534722zm.6049769-2.77222222c-.2642362.09791667-.6078704.19131945-1.0344908.29398148-.6700231.16550926-1.046875.38587963-1.1288194.65914352-.0563658.17534722-.0335648.31064815.0604166.41342593.091088.09768518.2510417.14699074.4762732.14699074.4131944 0 .7445602-.09594908.9917824-.28553241.2480324-.19224537.4332176-.49363426.5627315-.90960648.0232639-.08854167.0431713-.15196759.0555555-.19976852z"/><path d="m30.7430671 10.8595718.5519676-1.83761578h.7119213c.2381945 0 .4248843-.04340278.5574074-.121875.1350695-.08182871.2266204-.21979167.2791667-.40497685.0265046-.08194445.0425926-.16805556.0538194-.26574074.0065973-.10358797.0065973-.21284723 0-.33993056l-.3797453-5.68460648h2.518287l-.0388889 3.76701389 2.1981482-3.76701389h2.3422453l-3.8869213 6.17824074c-.4414351.69074074-.762037 1.16516204-.9657407 1.42407407-.200463.2556713-.3909722.4543982-.5760417.5888889-.2398148.1862268-.5077546.318287-.796412.3949074-.2899306.0787037-.7313657.1179398-1.3243056.1179398-.1706018 0-.3670139-.0034722-.5790509-.0133102-.2111111-.0076389-.4364583-.0193287-.6658565-.0359953"/></g></g></g></svg>