<svg height="28" viewBox="0 0 50 28" width="50" xmlns="http://www.w3.org/2000/svg"><g fill="none" transform="translate(0 1)"><path d="m36.7021277 0h-23.4042554c-7.31382975 0-13.2978723 5.98404255-13.2978723 13.2978723 0 7.3138298 5.98404255 13.2978724 13.2978723 13.2978724h23.4042554c7.3138297 0 13.2978723-5.9840426 13.2978723-13.2978724 0-7.31382975-5.9840426-13.2978723-13.2978723-13.2978723z" fill="#fff"/><path d="m36.7021277 1.07712766c1.6422872 0 3.2380319.32579787 4.7406914.96409574 1.4561171.61835107 2.7593086 1.50265958 3.8896277 2.62632979 1.1236702 1.12367021 2.0079787 2.43351064 2.6263298 3.88962766.6382979 1.50265955.9640957 3.09840425.9640957 4.74069145 0 1.6422873-.3257978 3.238032-.9640957 4.7406915-.6183511 1.4561171-1.5026596 2.7593085-2.6263298 3.8896277-1.1236702 1.1236702-2.4335106 2.0079787-3.8896277 2.6263298-1.5026595.6382978-3.0984042.9640957-4.7406914.9640957h-23.4042554c-1.6422872 0-3.2380319-.3257979-4.74069145-.9640957-1.45611702-.6183511-2.75930851-1.5026596-3.88962766-2.6263298-1.12367021-1.1236702-2.00797872-2.4335106-2.62632979-3.8896277-.63829787-1.5026595-.96409574-3.0984042-.96409574-4.7406915 0-1.6422872.32579787-3.2380319.96409574-4.74069145.61835107-1.45611702 1.50265958-2.75930851 2.62632979-3.88962766 1.12367021-1.12367021 2.43351064-2.00797872 3.88962766-2.62632979 1.50265955-.63829787 3.09840425-.96409574 4.74069145-.96409574zm0-1.07712766h-23.4042554c-7.31382975 0-13.2978723 5.98404255-13.2978723 13.2978723 0 7.3138298 5.98404255 13.2978724 13.2978723 13.2978724h23.4042554c7.3138297 0 13.2978723-5.9840426 13.2978723-13.2978724 0-7.31382975-5.9840426-13.2978723-13.2978723-13.2978723z" fill="#3c4043"/><g fill="#3c4043" transform="translate(22.566489 8.331117)"><path d="m1.27659574 5.91090426v4.02260638h-1.27659574v-9.93351064h3.38430851c.85771277 0 1.58909575.28590426 2.1875.85771277.61170213.57180851.91755319 1.2699468.91755319 2.09441489 0 .84441489-.30585106 1.54255319-.91755319 2.10771277-.59175532.56515957-1.3231383.84441489-2.1875.84441489h-2.10771277zm0-4.6875v3.46409574h2.13430852c.50531914 0 .93085106-.17287234 1.26329787-.51196809.33909574-.33909574.51196808-.75132978.51196808-1.21675531 0-.4587766-.17287234-.86436171-.51196808-1.20345745-.33244681-.35239362-.75132979-.52526596-1.26329787-.52526596h-2.13430852z"/><path d="m9.82712766 2.91223404c.94414894 0 1.68882974.25265958 2.23404254.75797873.5452128.50531914.8178192 1.19680851.8178192 2.07446808v4.18882979h-1.2167554v-.94414894h-.0531914c-.525266.77792553-1.2300532 1.1635638-2.10771281 1.1635638-.75132979 0-1.37632979-.21941486-1.88164894-.66489359-.50531915-.44547872-.75797872-.99734042-.75797872-1.66223404 0-.70478723.26595744-1.26329787.79787234-1.67553191.53191489-.41888298 1.24335106-.625 2.12765957-.625.75797876 0 1.38297876.13962766 1.86835106.41888298v-.2925532c0-.44547872-.1728723-.81781914-.525266-1.13031914-.3523936-.3125-.7646276-.46542554-1.23670208-.46542554-.71143617 0-1.27659574.29920213-1.68882979.90425532l-1.12367021-.70478723c.61835107-.89760638 1.53590426-1.34308511 2.74601064-1.34308511zm-1.64893617 4.93351064c0 .33244681.13962766.61170213.42553191.83111702.27925532.2194149.61170213.33244681.99069149.33244681.53856381 0 1.01728721-.19946808 1.43617021-.59840425s.6316489-.86436171.6316489-1.40292554c-.3989361-.3125-.9507978-.47207446-1.662234-.47207446-.51861702 0-.95079787.12632978-1.29654255.37234042-.35239362.25930851-.52526596.57180851-.52526596.9375z"/><path d="m19.8204787 3.13164894-4.2553191 9.78723406h-1.3164894l1.5824468-3.42420215-2.805851-6.36303191h1.3896276l2.0212766 4.88031915h.0265958l1.9680851-4.88031915z"/></g><g transform="translate(7.613032 7.606383)"><path d="m11.1522606 5.82446809c0-.41622341-.037234-.81449469-.1063829-1.19747341h-5.35106387v2.19414894l3.08178191.00066489c-.125.73005319-.52726063 1.35239362-1.14361702 1.76728723v1.42353726h1.83444149c1.07114359-.9913564 1.68484039-2.45678194 1.68484039-4.18816491z" fill="#4285f4"/><path d="m7.63364362 8.58909574c-.5106383.3444149-1.16821809.54587766-1.9375.54587766-1.48603724 0-2.74667553-1.00132978-3.1981383-2.35106383h-1.89228723v1.46808511c.9375 1.86037232 2.8643617 3.13696812 5.09042553 3.13696812 1.53856383 0 2.83111702-.5059841 3.77194149-1.3769947z" fill="#34a853"/><path d="m2.31981383 5.69481383c0-.37898936.06316489-.74534574.17819149-1.08976064v-1.4680851h-1.89228723c-.38763298.76928191-.60571809 1.63763297-.60571809 2.55784574s.21875 1.78856383.60571809 2.55784574l1.89228723-1.4680851c-.1150266-.3444149-.17819149-.71077128-.17819149-1.08976064z" fill="#fabb05"/><path d="m5.69614362 2.25398936c.83976064 0 1.59175532.28922873 2.18550532.8543883l1.62566489-1.62433511c-.98736702-.91954787-2.27460106-1.48404255-3.81117021-1.48404255-2.22539894 0-4.15292553 1.27659574-5.09042553 3.13696809l1.89228723 1.4680851c.45146277-1.34973404 1.71210106-2.35106383 3.1981383-2.35106383z" fill="#e94235"/></g></g></svg>