<?xml version="1.0" encoding="UTF-8"?>
<svg width="50px" height="28px" viewBox="0 0 50 28" version="1.1" xmlns="http://www.w3.org/2000/svg" xmlns:xlink="http://www.w3.org/1999/xlink">
    <title>icon_applepay_50x28</title>
    <defs>
        <polygon id="path-1" points="0 0 43.7231786 0 43.7231786 28 0 28"></polygon>
    </defs>
    <g id="icon_applepay_50x28" stroke="none" stroke-width="1" fill="none" fill-rule="evenodd">
        <g id="apple" transform="translate(3.060000, 0.040000)">
            <g id="Group-3">
                <mask id="mask-2" fill="white">
                    <use xlink:href="#path-1"></use>
                </mask>
                <g id="Clip-2"></g>
                <path d="M39.806191,-0.0013212533 L3.9011325,-0.0013212533 C3.75156663,-0.0013212533 3.6017365,-0.0013212533 3.45243488,-0.000528501321 C3.32638732,0.000528501321 3.20033975,0.00184975462 3.07455644,0.00528501321 C2.8,0.0126840317 2.52306531,0.028803322 2.25220838,0.0776896942 C1.97659494,0.127104568 1.7202718,0.20796527 1.47029068,0.335334088 C1.22427331,0.460324651 0.999395998,0.62389581 0.804379011,0.818912797 C0.609097773,1.01419404 0.445526614,1.2388071 0.320536051,1.48482446 C0.193167233,1.73506984 0.112306531,1.99139298 0.0631559079,2.26700642 C0.014005285,2.53839185 -0.00211400529,2.81506229 -0.00951302378,3.08935447 C-0.0129482824,3.21540204 -0.0145337863,3.34118535 -0.0153265383,3.46696867 C-0.0158973197,3.61653454 -0.0158973197,3.76610042 -0.0158973197,3.91593054 L-0.0158973197,24.0830125 C-0.0158973197,24.2328426 -0.0158973197,24.38188 -0.0153265383,24.5319743 C-0.0145337863,24.6577576 -0.0129482824,24.7838052 -0.00951302378,24.9095885 C-0.00211400529,25.1838807 0.014005285,25.4602869 0.0631559079,25.7316723 C0.112306531,26.00755 0.193167233,26.2636089 0.320536051,26.5138543 C0.445526614,26.7598716 0.609097773,26.984749 0.804379011,27.1795017 C0.999395998,27.3753114 1.22427331,27.5386183 1.47029068,27.6633447 C1.7202718,27.7909777 1.97659494,27.8718384 2.25220838,27.9215176 C2.52306531,27.9698754 2.8,27.986259 3.07455644,27.993658 C3.20033975,27.9965647 3.32638732,27.9984145 3.45243488,27.998943 C3.6017365,28 3.75156663,28 3.9011325,28 L39.806191,28 C39.9554926,28 40.1053228,28 40.2546244,27.998943 C40.3804077,27.9984145 40.5064553,27.9965647 40.6327671,27.993658 C40.906795,27.986259 41.1834655,27.9698754 41.4553794,27.9215176 C41.7304643,27.8718384 41.9867875,27.7909777 42.2367686,27.6633447 C42.4830502,27.5386183 42.707399,27.3753114 42.9029445,27.1795017 C43.0976972,26.984749 43.2610042,26.7598716 43.3865232,26.5138543 C43.513892,26.2636089 43.595017,26.00755 43.6441676,25.7316723 C43.693054,25.4602869 43.708909,25.1838807 43.716308,24.9095885 C43.7197433,24.7838052 43.7215931,24.6577576 43.7221216,24.5319743 C43.7231786,24.38188 43.7231786,24.2328426 43.7231786,24.0830125 L43.7231786,3.91593054 C43.7231786,3.76610042 43.7231786,3.61653454 43.7221216,3.46696867 C43.7215931,3.34118535 43.7197433,3.21540204 43.716308,3.08935447 C43.708909,2.81506229 43.693054,2.53839185 43.6441676,2.26700642 C43.595017,1.99139298 43.513892,1.73506984 43.3865232,1.48482446 C43.2610042,1.2388071 43.0976972,1.01419404 42.9029445,0.818912797 C42.707399,0.62389581 42.4830502,0.460324651 42.2367686,0.335334088 C41.9867875,0.20796527 41.7304643,0.127104568 41.4553794,0.0776896942 C41.1834655,0.028803322 40.906795,0.0126840317 40.6327671,0.00528501321 C40.5064553,0.00184975462 40.3804077,0.000528501321 40.2546244,-0.000528501321 C40.1053228,-0.0013212533 39.9554926,-0.0013212533 39.806191,-0.0013212533" id="Fill-1" fill="#1A1919" mask="url(#mask-2)"></path>
            </g>
            <path d="M39.806191,0.93201208 L40.2477539,0.932804832 C40.3674594,0.933597584 40.487165,0.934918837 40.607399,0.938354096 C40.8166855,0.94390336 41.0616459,0.955266138 41.2899585,0.996224991 C41.4881465,1.03189883 41.6546244,1.08633447 41.8142318,1.16745942 C41.9719894,1.24752737 42.1162703,1.35243488 42.2423179,1.47848245 C42.3688939,1.60532276 42.4740657,1.74986787 42.5551906,1.90921102 C42.6360513,2.06776142 42.6899585,2.23318233 42.7256323,2.43295583 C42.7663269,2.65889015 42.7774254,2.90437901 42.7835032,3.11472254 C42.7866742,3.23389958 42.7879955,3.35254813 42.7887882,3.47436769 C42.7898452,3.62129105 42.7898452,3.76847867 42.7898452,3.91593054 L42.7898452,24.0830125 C42.7898452,24.2304643 42.7898452,24.3773877 42.788524,24.5274821 C42.7879955,24.6463949 42.7866742,24.7653077 42.7835032,24.8844847 C42.7774254,25.0948282 42.7663269,25.3397886 42.7251038,25.5683654 C42.6899585,25.7654964 42.6360513,25.9311816 42.5549264,26.0902605 C42.4738014,26.2493394 42.3688939,26.3938845 42.2428464,26.5196678 C42.116006,26.6465081 41.9722537,26.7511514 41.8126463,26.8320121 C41.6540959,26.9128728 41.4881465,26.9673084 41.291544,27.0024538 C41.0587391,27.0442054 40.8040015,27.0555681 40.611627,27.0605889 C40.4908645,27.0634957 40.3706304,27.0650812 40.2472254,27.0656097 C40.1005663,27.0669309 39.9531144,27.0669309 39.806191,27.0669309 L3.9011325,27.0669309 C3.89928275,27.0669309 3.89743299,27.0669309 3.89531899,27.0669309 C3.75024538,27.0669309 3.60464326,27.0669309 3.45692714,27.0656097 C3.33642884,27.0650812 3.21593054,27.0634957 3.09966025,27.0608532 C2.90332201,27.0555681 2.64805587,27.0442054 2.41710079,27.002718 C2.21917705,26.9673084 2.05296338,26.9128728 1.89229898,26.8309551 C1.73454134,26.7508871 1.59052473,26.6465081 1.46368441,26.5191393 C1.33790109,26.3936202 1.23325783,26.2496036 1.15239713,26.0902605 C1.07127218,25.9314458 1.01710079,25.7652322 0.981426954,25.5657229 C0.940468101,25.3379388 0.929105323,25.093507 0.923556059,24.8844847 C0.9201208,24.7650434 0.918799547,24.6453379 0.918006795,24.5264251 L0.917478294,24.1757644 L0.917478294,3.82317856 L0.918006795,3.47304643 C0.918799547,3.35360513 0.9201208,3.23416384 0.923556059,3.11445829 C0.929105323,2.90543601 0.940468101,2.66100415 0.981955455,2.43110608 C1.01710079,2.23344658 1.07127218,2.06749717 1.15266138,1.90762552 C1.23299358,1.74960362 1.33790109,1.60532276 1.46447716,1.4787467 C1.59052473,1.35269913 1.73480559,1.24779162 1.89362023,1.16719517 C2.05243488,1.08633447 2.2189128,1.03189883 2.41710079,0.996224991 C2.64541336,0.955266138 2.89037373,0.94390336 3.10018875,0.938354096 C3.21963005,0.934918837 3.3393356,0.933597584 3.45798414,0.932804832 L3.9011325,0.93201208 L39.806191,0.93201208" id="Fill-4" fill="#FFFFFE"></path>
            <path d="M11.9245753,9.41657229 C12.2992827,8.94832012 12.5532276,8.31940355 12.4863722,7.67674594 C11.9380521,7.70396376 11.2689694,8.03824085 10.881578,8.50702152 C10.5338241,8.90841827 10.2262363,9.56375991 10.3063043,10.1797282 C10.9217441,10.2328426 11.5366553,9.87214043 11.9245753,9.41657229" id="Fill-5" fill="#1A1919"></path>
            <path d="M12.4792374,10.299698 C11.5855417,10.2465836 10.8255568,10.8070593 10.398792,10.8070593 C9.97176293,10.8070593 9.31827105,10.3266516 8.61140053,10.3395998 C7.69127973,10.3530766 6.83748584,10.8733862 6.37081918,11.700755 C5.41026803,13.3557569 6.11713854,15.811174 7.05126463,17.1591166 C7.50445451,17.8260853 8.05118913,18.5601737 8.77127218,18.5340128 C9.45171763,18.5073235 9.71834655,18.093507 10.5454511,18.093507 C11.3720272,18.093507 11.612231,18.5340128 12.3325783,18.5208003 C13.0796149,18.5073235 13.5465459,17.8533031 14,17.185806 C14.5203096,16.4255568 14.7330313,15.6914685 14.7465081,15.6510381 C14.7330313,15.6375613 13.306342,15.0902982 13.2931295,13.4490374 C13.2793884,12.0746697 14.413288,11.4209136 14.4666667,11.3804832 C13.8263873,10.4334088 12.8261986,10.3266516 12.4792374,10.299698" id="Fill-6" fill="#1A1919"></path>
            <path d="M18.0617969,13.7262363 L19.8446961,13.7262363 C21.1976595,13.7262363 21.9674217,12.9979615 21.9674217,11.7353718 C21.9674217,10.4727822 21.1976595,9.75111363 19.8515666,9.75111363 L18.0617969,9.75111363 L18.0617969,13.7262363 Z M20.2611552,8.43990185 C22.2036618,8.43990185 23.5560966,9.77885995 23.5560966,11.7282371 C23.5560966,13.684749 22.1756512,15.0308418 20.2122688,15.0308418 L18.0617969,15.0308418 L18.0617969,18.4507739 L16.5077388,18.4507739 L16.5077388,8.43990185 L20.2611552,8.43990185 L20.2611552,8.43990185 Z" id="Fill-7" fill="#1A1919"></path>
            <path d="M28.6727822,15.717365 L28.6727822,15.1418271 L26.8761419,15.2528124 C25.981125,15.3151755 25.4745564,15.7104945 25.4745564,16.3349188 C25.4745564,16.9730842 26.0020008,17.389279 26.806644,17.389279 C27.8541336,17.389279 28.6727822,16.6678747 28.6727822,15.717365 Z M23.9622499,16.3764062 C23.9622499,15.0998112 24.9402416,14.3160438 26.6750472,14.2187995 L28.6727822,14.1009438 L28.6727822,13.5391468 C28.6727822,12.7273688 28.1247263,12.2419404 27.2090978,12.2419404 C26.3418271,12.2419404 25.8006418,12.6578709 25.6687807,13.3100415 L24.2537184,13.3100415 C24.3369573,11.9919592 25.4608154,11.0205738 27.2645904,11.0205738 C29.0337486,11.0205738 30.1644772,11.9573424 30.1644772,13.4210268 L30.1644772,18.4507739 L28.7282748,18.4507739 L28.7282748,17.2505474 L28.6939222,17.2505474 C28.2705927,18.0623254 27.3478294,18.5757644 26.3904492,18.5757644 C24.9613817,18.5757644 23.9622499,17.687618 23.9622499,16.3764062 L23.9622499,16.3764062 Z" id="Fill-8" fill="#1A1919"></path>
            <path d="M31.5203473,21.1358248 L31.5203473,19.9215931 C31.6310683,19.9493394 31.8807852,19.9493394 32.0057758,19.9493394 C32.6994337,19.9493394 33.0741412,19.6578709 33.3029823,18.9087203 C33.3029823,18.8949792 33.4348433,18.4647792 33.4348433,18.4576444 L30.7986787,11.1524349 L32.4219706,11.1524349 L34.2674972,17.0912042 L34.2952435,17.0912042 L36.1407701,11.1524349 L37.7225746,11.1524349 L34.9889015,18.8323518 C34.3644772,20.6017743 33.6430729,21.1704417 32.1307663,21.1704417 C32.0057758,21.1704417 31.6310683,21.1564364 31.5203473,21.1358248" id="Fill-9" fill="#1A1919"></path>
        </g>
    </g>
</svg>