<svg id="Offline_Bank_Transfer" data-name="Offline Bank Transfer" xmlns="http://www.w3.org/2000/svg" viewBox="0 0 50 28"><defs><style>.cls-2{fill:#fff;fill-rule:evenodd}</style></defs><rect width="50" height="28" rx="4" ry="4" fill="#006cb5"/><path class="cls-2" d="M14.64 5.33l-9.07 6.12V12H23.7v-.54zm3.17 4.76h-6.35V9.9l3.18-2.14 3.17 2.14zm5 9.78h-1V14h1v-1.15H6.47V14h1v5.85h-1V21h-.9v1.3H23.7V21h-.9zm-11.25 0H9.61V14h1.94zm4.06 0h-1.95V14h1.94zm4.05 0h-1.95V14h1.94z" id="Shape_2" data-name="Shape 2"/><path class="cls-2" d="M42.62 14.41a6.74 6.74 0 0 1-12.23 3.24l1.19-.82c.19-.14.16-.32-.08-.4l-3.43-1.26a.3.3 0 0 0-.42.3v3.64c0 .24.15.34.34.21l1-.68a8.48 8.48 0 0 0 15.37-4z" id="Shape_1" data-name="Shape 1"/><path class="cls-2" d="M43.81 8.29l-1 .68a8.48 8.48 0 0 0-15.37 4l1.72.21A6.75 6.75 0 0 1 41.42 10l-1.19.83c-.2.13-.16.31.08.39l3.42 1.26a.3.3 0 0 0 .43-.3V8.51c0-.25-.16-.35-.35-.22z" id="Shape_1_copy" data-name="Shape 1 copy"/></svg>