<svg xmlns="http://www.w3.org/2000/svg" viewBox="0 0 50 28"><defs><style>.cls-3{fill:#231f20;fill-rule:evenodd}</style></defs><g id="border"><rect x=".5" y=".5" width="49" height="27" rx="3.5" ry="3.5" fill="#fff"/><path d="M46 1a3 3 0 0 1 3 3v20a3 3 0 0 1-3 3H4a3 3 0 0 1-3-3V4a3 3 0 0 1 3-3h42m0-1H4a4 4 0 0 0-4 4v20a4 4 0 0 0 4 4h42a4 4 0 0 0 4-4V4a4 4 0 0 0-4-4z" fill="#dfe1dd"/></g><g id="Direct_Debit"><path class="cls-3" d="M23.85 10.34h2s2 0 2 1.78c0 1.35-1.94 1.56-1.94 1.56h-2.06v-3.34zm6 6.53c.06.27.25.56.89.59a2.44 2.44 0 0 0 1.33-.3v.62a8.36 8.36 0 0 1-1.37.23c-.47 0-1.84-.1-1.84-1.38 0-1 1.13-1.36 1.78-1.36 1.13.05 1.68.45 1.66 1.6h-2.45zm0-.5h1.56s0-.59-.75-.59a.71.71 0 0 0-.81.59zm4.91-.64A1.63 1.63 0 0 1 36 15.3a1.33 1.33 0 0 1 1.44 1.33A1.39 1.39 0 0 1 35.91 18a1.41 1.41 0 0 1-1.1-.42v.34h-1v-3.66h1v1.47zm.85 1.69a.87.87 0 0 0 .85-.77c0-.24-.14-.75-.89-.75a.8.8 0 0 0-.81.66v.26a.78.78 0 0 0 .85.6zm8.56-.1v.57a4.59 4.59 0 0 1-.76.1c-.31 0-1.1-.19-1.1-.95v-1.18h-.83v-.52h.83v-.63h1v.63h.83v.52h-.83v1s0 .51.41.51.42-.06.42-.06zm-3.07-6.44h1.17v2.82h1v-2.82h1.2v-.58h-3.32v.58zm-.41.15l.13-.59a3.84 3.84 0 0 0-1.4-.22c-.87 0-2.27.48-2.27 1.8s1.48 1.74 2.39 1.74a3.3 3.3 0 0 0 1.21-.14L40.7 13a4.16 4.16 0 0 1-1.09.12A1.37 1.37 0 0 1 38.25 12a1.38 1.38 0 0 1 1.42-1.12 3.09 3.09 0 0 1 1.07.19zm-8.94-.71s1.66-.08 1.66.89-1 .89-1 .89a.62.62 0 0 1 .38.22c.1.16.77 1.38.77 1.38h-1a4.19 4.19 0 0 1-.24-.35 4.77 4.77 0 0 0-.25-.44.69.69 0 0 0-.62-.51h-.37v1.3h-1v-3.38zm-.63 1.51h.53s.73 0 .77-.48-.71-.49-.71-.49h-.59v1zm4.07.53h1.62v-.63h-1.57V11H37v-.64h-2.75v3.34H37v-.61h-1.76v-.73zm4 2.64h1v-.69h-1V15zm0 3h1v-2.66h-1v2.57zm-10.81-4.3h1v-3.38h-1v3.38zm-4.53.85h2s2 0 2 1.78c0 1.35-1.94 1.56-1.94 1.56h-2.06v-3.34zm1 2.71h.65s1.33-.08 1.33-1.11S25.4 15 25.4 15h-.56v2.25zm0-4.21h.65s1.33-.1 1.33-1.11-1.43-1.14-1.43-1.14h-.56v2.25zM14.76 12.35v6.77s-3.93-.71-3.93-3.4c0-2.15 2.91-3.09 3.93-3.37zm0-.13c-2.36-.17-7.71.94-7.71 3.36 0 1.58 2.83 3.88 7.45 3.94a5.43 5.43 0 0 0 5.34-5.82C19.77 9 16.24 8.14 15.1 8v-.29c4.51.29 8.06 3 8.06 6.29 0 3.48-4 6.31-8.84 6.31S5.49 17.48 5.49 14s3.95-6.31 8.83-6.31h.44v4.53z"/></g></svg>