<svg xmlns="http://www.w3.org/2000/svg" viewBox="0 0 50 28"><defs><style>.cls-3{fill:#626262}</style></defs><g id="border"><rect x=".5" y=".5" width="49" height="27" rx="3.5" ry="3.5" fill="#fff"/><path d="M46 1a3 3 0 0 1 3 3v20a3 3 0 0 1-3 3H4a3 3 0 0 1-3-3V4a3 3 0 0 1 3-3h42m0-1H4a4 4 0 0 0-4 4v20a4 4 0 0 0 4 4h42a4 4 0 0 0 4-4V4a4 4 0 0 0-4-4z" fill="#dfe1dd"/></g><g id="Layer_23" data-name="Layer 23"><path class="cls-3" d="M25 8.62h9.81V6.47L25 1.64l-9.81 4.83v2.15H25M20.98 18.84v-.6l-.98-.73v-6.96l.98-.51v-.41h-4.43v.41l.98.51v6.96l-.98.73v.6h4.43zM27.37 18.84v-.6l-.98-.73v-6.96l.98-.51v-.41h-4.43v.41l.98.51v6.96l-.98.73v.6h4.43zM33.76 18.84v-.6l-.98-.73v-6.96l.98-.51v-.41h-4.43v.41l.98.51v6.96l-.98.73v.6h4.43zM15.35 19.6h19.31v.92H15.35zM14.01 21.57h21.98v1.07H14.01z"/><text transform="translate(18.15 25.78)" font-size="2.43" font-family="Arial-BoldMT,Arial" font-weight="700">Net Banking</text><path d="M19.87 2.89H31.3l-1.08 2H27.5v.85l.73 1.14h2.47v.6l-.78.78h-1.63l-.79 1.63-1.91 1.93s-1.19.63-1.29.63a8.61 8.61 0 0 0-1.83.47v.89l6.39 7.5v.54h-3.27L25 20.52l-5.76-7.42v-1.28h3.13l1.36-.73L25 9.79l.6-.57v-.66h-7V8l1.42-1.3h5.1v-.52l-1.77-1.26h-5.28z" fill="#faef7c" stroke="#454545" stroke-miterlimit="10" stroke-width=".08"/></g></svg>