<?xml version="1.0" encoding="utf-8"?>
<!-- Generator: Adobe Illustrator 22.1.0, SVG Export Plug-In . SVG Version: 6.00 Build 0)  -->
<svg version="1.1" id="Layer_1" xmlns="http://www.w3.org/2000/svg" xmlns:xlink="http://www.w3.org/1999/xlink" x="0px" y="0px"
	 viewBox="0 0 705.2 707.8" style="enable-background:new 0 0 705.2 707.8;" xml:space="preserve">
<style type="text/css">
	.st0{enable-background:new    ;}
	.st1{fill:#666766;}
</style>
<g class="st0">
	<path class="st1" d="M152.6,502.6c-1.9-2.1-3.3-4.3-4.3-6.8c-1-2.4-1.4-4.9-1.3-7.4c0.1-2.5,0.8-5,2-7.6c1.3-2.5,3.2-4.9,5.7-7.2
		c2.5-2.3,5.1-3.9,7.8-4.9s5.3-1.5,7.9-1.3c2.6,0.1,5.1,0.7,7.4,1.9c2.3,1.2,4.4,2.7,6.3,4.8c2,2.2,3.3,4.5,3.9,6.8
		c0.6,2.3,0.9,4.4,0.8,6.4l-7.6,0.4c0-1.4-0.2-2.7-0.5-4c-0.3-1.3-1.1-2.6-2.3-3.9c-1.1-1.2-2.3-2.1-3.6-2.6
		c-1.3-0.6-2.7-0.8-4.2-0.8c-1.5,0-3,0.4-4.6,1.1c-1.6,0.7-3.1,1.8-4.6,3.1c-3.1,2.8-4.9,5.8-5.4,8.7c-0.4,3,0.6,5.9,3.2,8.8
		c0.6,0.6,1.2,1.2,1.9,1.6c0.7,0.4,1.4,0.7,2,0.8l5.2-4.7l-4.6-5l5.6-5.1l10,11.1l-14,12.7c-2-0.1-4.1-0.7-6.4-1.8
		C156.7,506.3,154.6,504.7,152.6,502.6z"/>
</g>
<g class="st0">
	<path class="st1" d="M195.8,540.4c-4.4-3-6.8-6.7-7.3-10.8c-0.5-4.2,1.2-9.1,5.1-14.8l12.6-18.1l7.6,5.3l-13.1,18.9
		c-2.3,3.3-3.4,6-3.3,8c0.1,2,1.1,3.7,3,5c1.9,1.3,3.8,1.7,5.8,1.1c1.9-0.6,4.1-2.5,6.4-5.8l13.1-18.9l7.3,5.1l-12.6,18.1
		c-3.9,5.6-7.9,9-12,10C204.3,544.4,200.1,543.4,195.8,540.4z"/>
</g>
<g class="st0">
	<path class="st1" d="M228.9,560.2l27.8-32.8l10.3,4.3l-4.2,42.8l-9-3.8l1.5-10l-11.5-4.9l-6.1,8L228.9,560.2z M250.7,546.9
		l-2.4,3.1l8.1,3.4l0.6-3.8c0.3-2.1,0.6-4.4,1-6.7c0.4-2.3,0.8-4.6,1.1-6.8l-0.2-0.1c-1.3,1.8-2.7,3.7-4,5.6
		C253.4,543.4,252.1,545.2,250.7,546.9z"/>
</g>
<g class="st0">
	<path class="st1" d="M285.4,581.1l7.8-40.3l14.5,2.8c2.1,0.4,4.1,1,5.9,1.8c1.8,0.8,3.3,1.8,4.5,3c1.2,1.2,2.1,2.7,2.6,4.5
		c0.5,1.8,0.5,3.8,0.1,6.2c-0.6,3-1.7,5.3-3.4,6.9c-1.7,1.7-3.7,2.8-6,3.3l6,17.9l-10.2-2l-4.9-16l-5-1l-2.8,14.5L285.4,581.1z
		 M298.7,561.1l4.7,0.9c2.4,0.5,4.3,0.3,5.8-0.5c1.5-0.8,2.4-2.1,2.8-4.1c0.4-2,0-3.5-1.1-4.5c-1.1-1-2.8-1.8-5.2-2.2l-4.7-0.9
		L298.7,561.1z"/>
</g>
<g class="st0">
	<path class="st1" d="M336.9,588.8l11.9-41.4l11.1-0.3l13.8,40.8l-9.8,0.2l-2.7-9.7l-12.5,0.3l-2.3,9.8L336.9,588.8z M351.3,567.7
		l-0.9,3.8l8.8-0.2l-1-3.8c-0.6-2-1.3-4.2-1.9-6.5c-0.6-2.3-1.2-4.5-1.8-6.6l-0.3,0c-0.5,2.2-0.9,4.4-1.4,6.7
		C352.3,563.5,351.8,565.6,351.3,567.7z"/>
</g>
<g class="st0">
	<path class="st1" d="M397.1,584.7l-9.7-39.9l9.2-2.3l15.2,17.3l6.1,7.9l0.2-0.1c-0.7-2.1-1.5-4.4-2.4-6.9c-0.9-2.5-1.6-5-2.2-7.4
		l-3.4-14.1l8.6-2.1l9.7,39.9l-9.2,2.3L403.9,562l-6-7.7l-0.2,0.1c0.7,2.2,1.6,4.5,2.4,6.9c0.9,2.5,1.6,4.9,2.2,7.2l3.4,14.1
		L397.1,584.7z"/>
</g>
<g class="st0">
	<path class="st1" d="M462.2,563.7l-14.5-29.9l-10.1,4.9l-3.4-7l28.7-13.9l3.4,7l-10.1,4.9l14.5,29.9L462.2,563.7z"/>
</g>
<g class="st0">
	<path class="st1" d="M501.8,541.4l-25.1-32.9l20.6-15.7l4.8,6.2l-13.2,10l5,6.6l11.2-8.5l4.7,6.2l-11.2,8.5l5.8,7.6l13.7-10.4
		l4.8,6.2L501.8,541.4z"/>
</g>
<g class="st0">
	<path class="st1" d="M542.1,507.2l-30.8-27.1l17-19.3l5.9,5.2l-10.9,12.3l6.2,5.4l9.2-10.5l5.8,5.1l-9.2,10.5l7.1,6.2l11.3-12.8
		l5.9,5.2L542.1,507.2z"/>
</g>
<g class="st0">
	<path class="st1" d="M234.2,125.6c-1.7,1-3.5,1.6-5.5,1.8c-2,0.3-3.9,0-6-0.6c-2-0.7-4-1.9-6-3.6c-2-1.7-3.8-4.1-5.6-7.2
		c-1.9-3.2-3.1-6.3-3.7-9.1c-0.6-2.8-0.7-5.4-0.3-7.6c0.4-2.3,1.2-4.3,2.5-6c1.3-1.7,2.8-3.1,4.6-4.2c2.3-1.3,4.5-2.1,6.7-2.2
		c2.1-0.1,4.1,0,5.8,0.5l-1.4,7.2c-1-0.3-2.1-0.4-3.4-0.3c-1.3,0.1-2.4,0.4-3.4,1c-0.9,0.5-1.7,1.2-2.4,2.1s-1,1.9-1.2,3.1
		c-0.1,1.2,0,2.6,0.4,4.3c0.4,1.6,1.1,3.4,2.2,5.5c0.1-0.8,0.3-1.6,0.6-2.4c0.3-0.8,0.7-1.5,1.1-2.2c0.4-0.7,0.9-1.3,1.4-1.8
		c0.5-0.5,1.1-0.9,1.6-1.3c1.5-0.9,3-1.4,4.5-1.7c1.5-0.3,3-0.3,4.4,0.1s2.8,1,4.1,2.1c1.3,1.1,2.5,2.5,3.5,4.3
		c1,1.8,1.7,3.6,1.9,5.4c0.2,1.8,0.1,3.5-0.4,5.1s-1.2,3.1-2.3,4.4C237.1,123.6,235.8,124.7,234.2,125.6z M230.6,119.7
		c1.2-0.7,2-1.7,2.3-3.1c0.3-1.4-0.1-3.1-1.2-5c-1.1-1.9-2.2-2.9-3.5-3.2c-1.3-0.3-2.6,0-3.9,0.8c-0.9,0.5-1.7,1.3-2.3,2.4
		c-0.6,1.1-0.9,2.4-1,4.1c1,1.3,1.9,2.3,2.8,3c0.9,0.7,1.7,1.2,2.5,1.5c0.8,0.3,1.5,0.4,2.2,0.3C229.3,120.3,230,120,230.6,119.7z"
		/>
</g>
<g class="st0">
	<path class="st1" d="M276.8,106.7c-2,0.7-4,0.8-6,0.5c-2-0.3-3.8-1.1-5.5-2.4c-1.7-1.3-3.3-3.1-4.8-5.4c-1.5-2.3-2.7-5-3.7-8.3
		c-1-3.2-1.6-6.2-1.7-8.8c-0.1-2.6,0.1-5,0.8-7c0.6-2,1.7-3.7,3.1-5.1c1.4-1.4,3.1-2.4,5.2-3c2-0.7,4-0.8,6-0.6
		c1.9,0.3,3.8,1.1,5.5,2.3c1.7,1.3,3.3,3,4.7,5.3c1.4,2.2,2.7,5,3.7,8.2c1,3.2,1.6,6.2,1.8,8.9c0.1,2.7-0.1,5.1-0.8,7.1
		c-0.6,2.1-1.7,3.8-3.1,5.2C280.6,105,278.9,106.1,276.8,106.7z M274.6,99.9c0.8-0.2,1.4-0.7,1.9-1.2c0.5-0.6,0.9-1.5,1-2.6
		c0.2-1.2,0.1-2.6-0.2-4.4c-0.3-1.8-0.8-3.9-1.7-6.5c-0.8-2.6-1.7-4.7-2.4-6.3c-0.8-1.6-1.6-2.8-2.4-3.5c-0.8-0.8-1.6-1.3-2.3-1.4
		c-0.8-0.2-1.5-0.1-2.3,0.1c-0.7,0.2-1.3,0.6-1.9,1.2c-0.5,0.6-0.9,1.4-1.1,2.5c-0.2,1.1-0.1,2.5,0.1,4.3c0.3,1.7,0.8,3.9,1.6,6.5
		c0.8,2.6,1.7,4.7,2.5,6.3c0.8,1.6,1.6,2.8,2.4,3.7c0.8,0.8,1.6,1.4,2.3,1.5C273.2,100.1,273.9,100.1,274.6,99.9z"/>
</g>
<g class="st0">
	<path class="st1" d="M308.3,85.3l-0.8-6.5l15.4-1.9l0.8,6.5L308.3,85.3z"/>
</g>
<g class="st0">
	<path class="st1" d="M347.4,94.6l3.3-41.1l11.6,0.9c3.2,0.3,6,0.9,8.4,1.9c2.5,1,4.5,2.4,6.2,4.2c1.7,1.8,2.9,4,3.7,6.7
		c0.8,2.6,1,5.7,0.7,9.3c-0.3,3.5-1,6.6-2.2,9.1c-1.2,2.5-2.7,4.6-4.6,6.1c-1.9,1.6-4.1,2.7-6.6,3.3c-2.5,0.6-5.3,0.8-8.3,0.6
		L347.4,94.6z M357.3,87.9L359,88c1.8,0.1,3.4,0,4.8-0.3c1.5-0.3,2.7-1,3.8-1.9c1.1-0.9,2-2.2,2.7-3.9c0.7-1.6,1.2-3.7,1.4-6.2
		c0.2-2.4,0.1-4.5-0.4-6.2c-0.4-1.7-1.1-3.1-2-4.2c-0.9-1.1-2.1-1.9-3.5-2.4c-1.4-0.5-3-0.9-4.7-1l-1.8-0.1L357.3,87.9z"/>
</g>
<g class="st0">
	<path class="st1" d="M395.5,99.9l24.5-35.4l10.6,3.3l0,43l-9.4-2.9l0.5-10.1l-12-3.7l-5.3,8.6L395.5,99.9z M415.9,84.5l-2.1,3.3
		l8.4,2.6l0.2-3.9c0.1-2.1,0.2-4.4,0.3-6.8c0.2-2.4,0.3-4.7,0.4-6.9l-0.2-0.1c-1.1,1.9-2.3,3.9-3.5,5.9
		C418.3,80.8,417.1,82.7,415.9,84.5z"/>
</g>
<g class="st0">
	<path class="st1" d="M453,122.1l7.2-12.7l2.3-29.1l8.6,4.9l-1.5,10c-0.3,1.6-0.5,3.2-0.8,4.7s-0.5,3.1-0.8,4.8l0.2,0.1
		c1.3-1.1,2.6-2.1,3.8-3.1c1.2-1,2.5-2,3.7-3.1l7.9-6.4l8.4,4.8L468.2,114l-7.2,12.7L453,122.1z"/>
</g>
<g class="st0">
	<path class="st1" d="M8.5,352.7v-71.9h17.7l11.6,32c0.7,2.1,1.4,4.3,2.1,6.6c0.7,2.2,1.4,4.5,2.1,6.7h0.4c0.7-2.2,1.4-4.4,2-6.7
		c0.6-2.2,1.3-4.4,2-6.6l11.4-32h17.6v71.9H60.7v-26.3c0-1.8,0.1-3.7,0.2-5.8c0.1-2.1,0.3-4.3,0.6-6.4c0.2-2.2,0.4-4.3,0.7-6.4
		c0.2-2.1,0.4-4,0.7-5.8h-0.4L56.5,319l-10.3,27.4h-8.9L27.1,319l-5.7-17.1h-0.4c0.2,1.8,0.4,3.7,0.7,5.8c0.2,2.1,0.4,4.2,0.7,6.4
		c0.2,2.2,0.4,4.3,0.6,6.4c0.1,2.1,0.2,4.1,0.2,5.8v26.3H8.5z"/>
	<path class="st1" d="M129.4,354c-4.8,0-9.3-0.9-13.3-2.6c-4-1.7-7.4-4.2-10.3-7.4c-2.9-3.2-5.1-7.2-6.7-11.8
		c-1.6-4.6-2.4-9.9-2.4-15.8c0-5.9,0.8-11.1,2.4-15.7c1.6-4.6,3.8-8.4,6.7-11.6c2.9-3.1,6.3-5.5,10.3-7.2c4-1.7,8.4-2.5,13.3-2.5
		s9.3,0.8,13.3,2.5c4,1.7,7.4,4.1,10.3,7.2c2.9,3.2,5.1,7,6.7,11.6c1.6,4.6,2.4,9.8,2.4,15.6c0,5.9-0.8,11.1-2.4,15.8
		c-1.6,4.6-3.8,8.6-6.7,11.8c-2.9,3.2-6.3,5.7-10.3,7.4C138.7,353.2,134.2,354,129.4,354z M129.4,340c4.9,0,8.8-2.1,11.7-6.3
		c2.9-4.2,4.3-10,4.3-17.2c0-7.2-1.4-12.8-4.3-16.9c-2.9-4-6.8-6.1-11.7-6.1c-4.9,0-8.8,2-11.7,6.1c-2.9,4-4.3,9.7-4.3,16.9
		c0,7.3,1.4,13,4.3,17.2C120.6,337.9,124.5,340,129.4,340z"/>
	<path class="st1" d="M183.3,352.7v-71.9h16.6l18.7,35.7l7.1,15.9h0.4c-0.4-3.8-0.8-8.1-1.3-12.8c-0.5-4.7-0.7-9.2-0.7-13.4v-25.4
		h15.4v71.9H223l-18.7-35.8l-7.1-15.7h-0.4c0.4,4,0.8,8.2,1.3,12.8c0.5,4.6,0.7,9,0.7,13.2v25.5H183.3z"/>
	<path class="st1" d="M264.3,352.7v-71.9h45v13.7h-28.8V309H305v13.6h-24.5v16.5h29.9v13.7H264.3z"/>
	<path class="st1" d="M344.8,352.7v-25.6l-21.7-46.3h17.4l6.4,16.5c1,2.7,2,5.3,2.9,7.9c0.9,2.5,1.9,5.2,2.9,8h0.4c1-2.8,2-5.5,3-8
		c1-2.5,2-5.2,3-7.9l6.5-16.5h17L361,327.1v25.6H344.8z"/>
	<path class="st1" d="M427.8,352.7v-71.9h24.6c3.7,0,7.2,0.3,10.4,0.8c3.2,0.6,6,1.5,8.4,2.9c2.4,1.4,4.3,3.2,5.6,5.5
		c1.4,2.3,2,5.1,2,8.6c0,1.6-0.2,3.2-0.7,4.8c-0.4,1.6-1.1,3.1-1.9,4.5c-0.8,1.4-1.8,2.6-2.9,3.7c-1.1,1.1-2.4,1.9-3.9,2.4v0.4
		c1.8,0.4,3.5,1.1,5.1,2c1.5,0.9,2.9,2.1,4.1,3.5c1.2,1.4,2.1,3,2.8,4.9c0.7,1.9,1,4,1,6.4c0,3.7-0.7,6.8-2.2,9.5
		c-1.4,2.6-3.4,4.8-6,6.6c-2.5,1.7-5.5,3-8.9,3.9c-3.4,0.8-7,1.3-10.9,1.3H427.8z M444,309.6h7.6c4,0,6.9-0.8,8.7-2.3
		c1.8-1.5,2.7-3.6,2.7-6.2c0-2.8-0.9-4.8-2.8-6c-1.8-1.2-4.7-1.8-8.5-1.8H444V309.6z M444,340.2h9.1c8.9,0,13.3-3.2,13.3-9.7
		c0-3.2-1.1-5.4-3.3-6.8c-2.2-1.4-5.5-2-10-2H444V340.2z"/>
</g>
<g class="st0">
	<path class="st1" d="M489.2,352.7l22.5-71.9h19.5l22.5,71.9h-17.2l-4.4-17.1h-21.9l-4.4,17.1H489.2z M515.2,316.3l-1.8,6.6h15.3
		l-1.7-6.6c-1-3.6-2-7.4-3-11.5c-1-4-1.9-7.9-2.9-11.7h-0.4c-0.9,3.8-1.8,7.7-2.7,11.7C517.2,308.9,516.2,312.7,515.2,316.3z"/>
</g>
<g class="st0">
	<path class="st1" d="M597.5,354c-4.6,0-8.9-0.8-12.9-2.4c-4-1.6-7.6-3.9-10.6-7c-3-3.1-5.5-6.9-7.2-11.5c-1.8-4.6-2.6-9.9-2.6-15.9
		c0-6,0.9-11.3,2.8-15.9c1.8-4.7,4.3-8.6,7.4-11.8c3.1-3.2,6.7-5.7,10.8-7.4c4.1-1.7,8.4-2.5,13-2.5c4.6,0,8.8,0.9,12.5,2.8
		c3.7,1.9,6.7,4.1,9.1,6.6l-8.6,10.4c-1.8-1.7-3.8-3.1-5.8-4.1c-2-1.1-4.3-1.6-6.9-1.6c-2.4,0-4.7,0.5-6.9,1.6
		c-2.2,1.1-4,2.6-5.6,4.6c-1.6,2-2.8,4.4-3.7,7.3c-0.9,2.9-1.4,6.1-1.4,9.7c0,7.4,1.6,13.2,4.7,17.2c3.2,4.1,7.4,6.1,12.7,6.1
		c2.9,0,5.6-0.6,7.9-1.9c2.3-1.3,4.4-2.9,6.1-4.8l8.6,10.1C614.7,350.5,607,354,597.5,354z"/>
	<path class="st1" d="M639.4,352.7v-71.9h16.2v29.4h0.4l21.4-29.4h17.9l-21.7,28.7l25.7,43.2h-17.7L664,322.4l-8.4,11v19.3H639.4z"
		/>
</g>
<path class="st1" d="M60.9,244.4c33-130.6,151.5-227.5,292.2-227.5s259.2,96.9,292.2,227.5h14.9c-33.4-138.6-158.4-242-307.1-242
	S79.3,105.7,46,244.4H60.9z"/>
<path class="st1" d="M663.3,246.8h-19.9L643,245C602.5,84.9,439.9-12,279.8,28.5C173.3,55.4,90.2,138.5,63.3,245l-0.5,1.8H42.9
	l0.7-3C60.4,175,99.5,113.7,154.8,69.5c116-92.7,280.7-92.7,396.7,0c55.3,44.2,94.4,105.5,111.1,174.3L663.3,246.8z M647.2,242h9.9
	c-16.9-66.5-55.1-125.8-108.7-168.7C434.2-18,272-18,157.8,73.3C104.2,116.2,66,175.4,49.1,242h10c42.2-162.4,208-259.9,370.4-217.7
	C536.3,51.9,619.6,135.3,647.2,242L647.2,242z"/>
<path class="st1" d="M645.3,392.2c-33,130.6-151.5,227.5-292.2,227.5S93.9,522.8,60.9,392.2H46c33.4,138.6,158.4,242,307.1,242
	s273.8-103.3,307.1-242L645.3,392.2z"/>
<path class="st1" d="M353.1,636.6c-72.1,0.3-142.1-24.3-198.3-69.5C99.5,522.9,60.4,461.6,43.6,392.8l-0.7-3h19.9l0.5,1.8
	c40.5,160.1,203.1,257,363.2,216.5C532.9,581.2,616,498.1,643,391.6l0.5-1.8h19.9l-0.7,3c-16.8,68.8-55.8,130.1-111.1,174.3
	C495.3,612.3,425.2,636.9,353.1,636.6z M49.1,394.6c16.9,66.6,55.1,125.8,108.7,168.7c114.2,91.3,276.4,91.3,390.6,0
	c53.6-42.9,91.8-102.1,108.7-168.7h-10C605,557,439.1,654.5,276.7,612.4C170,584.7,86.7,501.3,59,394.6L49.1,394.6z"/>
<path class="st1" d="M187.5,250.1c26.8-64.5,90.5-110,164.7-110s137.8,45.5,164.7,110h15.6c-27.6-72.7-98-124.6-180.2-124.6
	s-152.7,51.9-180.2,124.6H187.5z"/>
<path class="st1" d="M519.5,379.6c-25,68.2-90.6,116.9-167.4,116.9s-142.3-48.8-167.4-116.9h-15.3C195.1,455.9,267.3,511,352.2,511
	s157-55.1,182.7-131.4H519.5z"/>
<path class="st1" d="M534.7,249.3c-28.6-75.4-102-126.1-182.5-126.1s-153.9,50.7-182.5,126.1l-1.2,3.3h20.7l0.6-1.5
	c37.1-89.7,139.9-132.3,229.6-95.2c43.1,17.8,77.4,52.1,95.2,95.2l0.6,1.5h20.7L534.7,249.3z M518.4,247.7
	c-39-91.8-145-134.7-236.8-95.7c-43.1,18.3-77.4,52.6-95.7,95.7h-10.4C204.2,176,274.8,128,352.2,128s147.9,48,176.7,119.7H518.4z"
	/>
<path class="st1" d="M517.8,377.2l-0.6,1.6c-25.3,69-91.7,115.3-165.1,115.3s-139.8-46.3-165-115.3l-0.6-1.6h-20.4l1.1,3.2
	c34.3,102.2,144.8,157.2,247,123c58-19.4,103.5-65,123-123l1.1-3.2H517.8z M352.2,508.6c-80.5,0-152.3-50.7-179.3-126.6h10.2
	C209.6,452,277.3,499,352.2,499S494.8,452,521.2,382h10.2C504.5,457.9,432.7,508.6,352.2,508.6z"/>
</svg>
