<?xml version="1.0" encoding="UTF-8"?>
<svg width="50px" height="28px" viewBox="0 0 50 28" version="1.1" xmlns="http://www.w3.org/2000/svg" xmlns:xlink="http://www.w3.org/1999/xlink">
    <title>logo_unionpay_50x28</title>
    <defs>
        <polygon id="path-1" points="0 0 15.1713808 0 15.1713808 19.1512715 0 19.1512715"></polygon>
    </defs>
    <g id="Page-1" stroke="none" stroke-width="1" fill="none" fill-rule="evenodd">
        <g id="logo_unionpay_50x28">
            <g id="border" fill-rule="nonzero">
                <g id="Group">
                    <path d="M4,27.5 C2.1,27.5 0.5,25.9 0.5,24 L0.5,4 C0.5,2.1 2.1,0.5 4,0.5 L46,0.5 C47.9,0.5 49.5,2.1 49.5,4 L49.5,24 C49.5,25.9 47.9,27.5 46,27.5 L4,27.5 Z" id="Path" fill="#FFFFFF"></path>
                    <path d="M46,1 C47.7,1 49,2.3 49,4 L49,24 C49,25.7 47.7,27 46,27 L4,27 C2.3,27 1,25.7 1,24 L1,4 C1,2.3 2.3,1 4,1 L46,1 M46,0 L4,0 C1.8,0 0,1.8 0,4 L0,24 C0,26.2 1.8,28 4,28 L46,28 C48.2,28 50,26.2 50,24 L50,4 C50,1.8 48.2,0 46,0 L46,0 Z" id="Shape" fill="#E0E1DD"></path>
                </g>
            </g>
            <g id="Group-44" transform="translate(9.000000, 4.000000)">
                <g id="Group-3">
                    <mask id="mask-2" fill="white">
                        <use xlink:href="#path-1"></use>
                    </mask>
                    <g id="Clip-2"></g>
                    <path d="M5.99619746,0 L13.637253,0 C14.7039541,0 15.368005,0.869667121 15.11912,1.94065932 L11.5610658,17.2138305 C11.3096776,18.2816044 10.2422614,19.1512715 9.17520269,19.1512715 L1.53378956,19.1512715 C0.466730891,19.1512715 -0.196604845,18.2816044 0.0522801534,17.2138305 L3.61212234,1.94065932 C3.86029215,0.869667121 4.92699323,0 5.99619746,0" id="Fill-1" fill="#ED171F" mask="url(#mask-2)"></path>
                </g>
                <path d="M13.0017738,0 L21.7896313,0 C22.8559748,0 22.3753693,0.869667121 22.1243387,1.94065932 L18.5666421,17.2138305 C18.3181147,18.2816044 18.3960701,19.1512715 17.3268658,19.1512715 L8.53972348,19.1512715 C7.47159202,19.1512715 6.81004425,18.2816044 7.06107481,17.2138305 L10.6173411,1.94065932 C10.8687292,0.869667121 11.9350727,0 13.0017738,0" id="Fill-4" fill="#082F67"></path>
                <path d="M21.4420863,0 L29.082069,0 C30.1494853,0 30.812821,0.869667121 30.5628633,1.94065932 L27.0055242,17.2138305 C26.7555665,18.2816044 25.6885078,19.1512715 24.6178732,19.1512715 L16.980036,19.1512715 C15.9108318,19.1512715 15.2485688,18.2816044 15.4992418,17.2138305 L19.055508,1.94065932 C19.3058234,0.869667121 20.3725245,0 21.4420863,0" id="Fill-6" fill="#006A65"></path>
                <path d="M22.6924116,11.2779591 L21.7612384,14.3593413 L22.0115538,14.3593413 L21.8180957,14.9965727 L21.5677804,14.9965727 L21.5094926,15.1943219 L20.6233762,15.1943219 L20.6834519,14.9965727 L18.882254,14.9965727 L19.0631963,14.4069012 L19.2452113,14.4069012 L20.189973,11.2779591 L20.3787824,10.645734 L21.2827784,10.645734 L21.1883738,10.9654225 C21.1883738,10.9654225 21.4290341,10.7916321 21.6575363,10.7322716 C21.8856809,10.6721959 23.1962607,10.6503827 23.1962607,10.6503827 L23.0020875,11.2779591 L22.6924116,11.2779591 Z M21.099333,11.2779591 L20.8601031,12.0653797 C20.8601031,12.0653797 21.1275829,11.9448708 21.2745538,11.9044627 C21.4225975,11.8662002 21.6450205,11.8511813 21.6450205,11.8511813 L21.8180957,11.2779591 L21.099333,11.2779591 Z M20.7413821,12.4569445 L20.4939274,13.2758334 C20.4939274,13.2758334 20.7674864,13.1356567 20.9144573,13.0920304 C21.0625009,13.0577014 21.2863544,13.0298091 21.2863544,13.0298091 L21.4619327,12.4569445 L20.7413821,12.4569445 Z M20.1649415,14.3682812 L20.8851346,14.3682812 L21.0936115,13.6759804 L20.3730609,13.6759804 L20.1649415,14.3682812 Z" id="Fill-8" fill="#FFFFFF"></path>
                <path d="M23.0919507,10.6504542 L24.0567376,10.6504542 L24.067823,11.0101932 C24.0617439,11.0706264 24.1139526,11.0992339 24.2255217,11.0992339 L24.4214829,11.0992339 L24.2423286,11.6928389 L23.7216726,11.6928389 C23.2696746,11.7260951 23.0991025,11.5319219 23.1091152,11.3141475 L23.0919507,10.6504542 Z" id="Fill-10" fill="#FFFFFF"></path>
                <path d="M23.218503,13.4671816 L22.2987728,13.4671816 L22.4568291,12.9379434 L23.507796,12.9379434 L23.6583428,12.4555499 L22.6202492,12.4555499 L22.7983307,11.8594417 L25.6873277,11.8594417 L25.5063855,12.4555499 L24.537665,12.4555499 L24.3860454,12.9379434 L25.3569114,12.9379434 L25.1974248,13.4671816 L24.1457426,13.4671816 L23.9597941,13.6899623 L24.3860454,13.6899623 L24.4893899,14.3561587 C24.5004753,14.4215983 24.5026208,14.4648671 24.5233612,14.4934746 C24.5448169,14.5181485 24.6724777,14.5295915 24.7464995,14.5295915 L24.8759483,14.5295915 L24.679272,15.1779083 L24.3513588,15.1779083 C24.3005806,15.1779083 24.225486,15.1736172 24.1228567,15.1682533 C24.0234457,15.1596711 23.9529998,15.1020986 23.8872026,15.0706303 C23.8271269,15.0405925 23.7370134,14.9676434 23.7166306,14.8435585 L23.6132861,14.1787924 L23.1362565,14.8346187 C22.9842793,15.0405925 22.7790207,15.1982912 22.4328703,15.1982912 L21.7627403,15.1982912 L21.9383186,14.6200627 L22.1939979,14.6200627 C22.2680197,14.6200627 22.3334593,14.5910976 22.3813768,14.5660661 C22.4307247,14.5453256 22.4739935,14.5206517 22.5233414,14.4477026 L23.218503,13.4671816 Z" id="Fill-12" fill="#FFFFFF"></path>
                <path d="M13.1450257,12.0198939 L15.5802367,12.0198939 L15.4003672,12.6013407 L14.4262828,12.6013407 L14.2750208,13.0958924 L15.271276,13.0958924 L15.0896185,13.6962917 L14.0940785,13.6962917 L13.852703,14.5019496 C13.8230228,14.5913479 14.0879995,14.6038637 14.1838345,14.6038637 L14.6830349,14.5348482 L14.4831402,15.1985415 L13.3595817,15.1985415 C13.2708986,15.1985415 13.2022406,15.1860257 13.10426,15.1638549 C13.0098554,15.1402538 12.9676594,15.0980577 12.9258209,15.0336909 C12.8850553,14.9675362 12.822834,14.9138971 12.8650301,14.7737205 L13.1872217,13.7066619 L12.6343823,13.7066619 L12.8178277,13.0958924 L13.3738855,13.0958924 L13.5215715,12.6013407 L12.9676594,12.6013407 L13.1450257,12.0198939 Z" id="Fill-14" fill="#FFFFFF"></path>
                <path d="M14.7849132,10.9756139 L15.7836715,10.9756139 L15.6009413,11.5835226 L14.236365,11.5835226 L14.0879637,11.7111835 C14.0250273,11.7730471 14.0028565,11.7469428 13.9202524,11.791642 C13.8433698,11.8309773 13.6806648,11.9078598 13.4707575,11.9078598 L13.0327056,11.9078598 L13.2104295,11.3231947 L13.3420239,11.3231947 C13.4532354,11.3231947 13.5286876,11.3138972 13.5669501,11.2892233 C13.6105765,11.2620462 13.6588516,11.2001825 13.7149938,11.0993412 L13.9653092,10.6434096 L14.9590612,10.6434096 L14.7849132,10.9756139 Z" id="Fill-16" fill="#FFFFFF"></path>
                <path d="M16.2126763,10.6504542 L17.0637486,10.6504542 L16.9400213,11.0784935 C16.9400213,11.0784935 17.2082163,10.8642951 17.396668,10.7877701 C17.584047,10.7173242 18.0085103,10.6543877 18.0085103,10.6543877 L19.3852449,10.6472359 L18.9160824,12.2095614 C18.8374118,12.4777564 18.7455103,12.6508316 18.6879378,12.7298598 C18.6353715,12.8103183 18.5745807,12.8779034 18.4540717,12.943343 C18.338569,13.0052067 18.2327214,13.040966 18.135456,13.0509786 C18.0442697,13.0577729 17.9048083,13.0613488 17.7113502,13.0631368 L16.3853939,13.0631368 L16.0109937,14.2996947 C15.9755919,14.4216341 15.9584274,14.4795642 15.981671,14.5124628 C16.0013386,14.5425007 16.0463954,14.5757568 16.1086167,14.5757568 L16.6932819,14.5206875 L16.4941023,15.1983269 L15.8386337,15.1983269 C15.6301567,15.1983269 15.4785371,15.1940358 15.3719743,15.1858112 C15.2711329,15.1779441 15.1656429,15.1858112 15.0959122,15.1310994 C15.0340485,15.0774604 14.9414318,15.0073721 14.9435408,14.9347806 C14.9503717,14.867553 14.9775488,14.7559839 15.0208176,14.6036491 L16.2126763,10.6504542 Z M18.0195957,12.229229 L16.6242663,12.229229 L16.5391591,12.5110126 L17.7463944,12.5110126 C17.8890741,12.4931329 17.9183968,12.5135158 17.9301974,12.5067215 L18.0195957,12.229229 Z M16.7018641,11.9749801 C16.7018641,11.9749801 16.9739927,11.7260951 17.440652,11.645279 C17.5468573,11.6245386 18.2105506,11.6313329 18.2105506,11.6313329 L18.3110343,11.2973407 L16.9049771,11.2973407 L16.7018641,11.9749801 Z" id="Fill-18" fill="#FFFFFF"></path>
                <path d="M18.6937665,13.1727392 L18.6158112,13.5482122 C18.5811246,13.6647877 18.5521596,13.7545436 18.4634764,13.8296382 C18.3715749,13.9079512 18.2614361,13.9905553 18.0057569,13.9905553 L17.5344488,14.0095077 L17.5305153,14.4346862 C17.5240786,14.5555528 17.5566196,14.5426795 17.5759296,14.5623471 C17.5977428,14.5827299 17.6166953,14.5923849 17.6385085,14.5991792 L17.7869097,14.5923849 L18.2381926,14.565923 L18.052244,15.18599 L17.5344488,15.18599 C17.1714915,15.18599 16.9025813,15.1781229 16.8138981,15.1073194 C16.7273605,15.0526076 16.7155599,14.9825193 16.7184207,14.8641559 L16.7509617,13.2102865 L17.5766448,13.2102865 L17.5662746,13.5482122 L17.7654541,13.5482122 C17.8333969,13.5482122 17.8777384,13.5410604 17.9074187,13.5235383 C17.9313774,13.5038707 17.9503299,13.4781239 17.9635608,13.4362855 L18.0440194,13.1727392 L18.6937665,13.1727392 Z" id="Fill-20" fill="#FFFFFF"></path>
                <path d="M6.9004081,4.87939755 C6.87037026,5.01242229 6.34077445,7.45979144 6.33862889,7.46122182 C6.22384141,7.95577347 6.14266771,8.31050611 5.86052653,8.53686273 C5.6999671,8.6684571 5.51258816,8.7331815 5.29624416,8.7331815 C4.94866339,8.7331815 4.74447756,8.56046389 4.709791,8.23183557 L4.70371192,8.11955124 C4.70371192,8.11955124 4.80920197,7.45550032 4.81063234,7.45299717 C4.81063234,7.45299717 5.36669006,5.22232961 5.46645862,4.92874544 C5.47074974,4.91229614 5.4728953,4.90407149 5.47539845,4.89548925 C4.39153289,4.90514427 4.19879005,4.89548925 4.18627428,4.87939755 C4.1801952,4.90121075 4.15123013,5.03995698 4.15123013,5.03995698 L3.58265664,7.55169294 L3.53330876,7.76624898 L3.44033447,8.4628409 C3.44033447,8.6684571 3.48110012,8.83795636 3.56155863,8.98063612 C3.82081384,9.43406454 4.55995937,9.5012921 4.97691327,9.5012921 C5.5158065,9.5012921 6.01965559,9.38614703 6.36079968,9.17874286 C6.95261674,8.82830134 7.10852746,8.27975308 7.2469161,7.79485645 L7.31056772,7.54632904 C7.31056772,7.54632904 7.88450511,5.23019666 7.9824857,4.92874544 C7.98534645,4.91229614 7.98713441,4.90407149 7.99106794,4.89548925 C7.20615045,4.90407149 6.97514512,4.89548925 6.9004081,4.87939755" id="Fill-22" fill="#FFFFFF"></path>
                <path d="M10.0718324,9.47643936 C9.68706186,9.47107546 9.55224916,9.47107546 9.10275427,9.49396143 L9.08523219,9.46070525 C9.12492506,9.28977561 9.16747867,9.12134912 9.20538357,8.94791633 L9.26045295,8.71440785 C9.34377221,8.35002018 9.4253035,7.92662961 9.43495853,7.79896877 C9.44282558,7.72101341 9.4685723,7.5271978 9.247222,7.5271978 C9.15353253,7.5271978 9.05626713,7.57296975 8.95828654,7.61766892 C8.90393234,7.81148454 8.79415117,8.3543113 8.7437305,8.60283871 C8.63180377,9.12492506 8.62465191,9.18428556 8.57494643,9.44246799 L8.54276302,9.47643936 C8.14619195,9.47107546 8.00923368,9.47107546 7.55330211,9.49396143 L7.53184651,9.45605654 C7.6083715,9.14566547 7.68418129,8.83277126 7.75713035,8.52309538 C7.94808521,7.68239333 7.99314198,7.36020168 8.0464234,6.93287758 L8.08218274,6.90748845 C8.52667132,6.8452672 8.63430693,6.83310903 9.11527004,6.73405566 L9.15603568,6.77947002 L9.08344422,7.04730747 C9.16461792,6.99938995 9.2415005,6.95039966 9.32553495,6.90748845 C9.55224916,6.79591932 9.80471009,6.76302072 9.94381392,6.76302072 C10.1537212,6.76302072 10.3840114,6.82202363 10.4805616,7.06554473 C10.5721055,7.28260392 10.5116722,7.55079896 10.3915208,8.07789161 L10.3292996,8.34572906 C10.2059299,8.93253981 10.1859046,9.03981783 10.1168891,9.44246799 L10.0718324,9.47643936 Z" id="Fill-24" fill="#FFFFFF"></path>
                <path d="M11.6326202,9.47643936 C11.4016149,9.47536658 11.252856,9.47107546 11.1069579,9.47536658 C10.9624902,9.47643936 10.8212408,9.48394882 10.6063272,9.49396143 L10.5934538,9.47536658 L10.5791501,9.45605654 C10.6377954,9.23363345 10.6710516,9.15567809 10.6996591,9.07664995 C10.7289817,8.998337 10.7575892,8.91895127 10.8083675,8.69330984 C10.875595,8.39936807 10.9170758,8.19339428 10.9467561,8.0135248 C10.9775091,7.83866164 10.9950312,7.69061797 11.0168444,7.51861555 L11.0347241,7.50502701 L11.0540341,7.48857771 C11.2839667,7.45603671 11.4309375,7.43458111 11.5796964,7.41169513 C11.7306008,7.38988193 11.882578,7.36020168 12.1210928,7.31514492 L12.1303902,7.33588533 L12.1368269,7.35698334 C12.0924853,7.53899838 12.0474285,7.72101341 12.0041597,7.90624679 C11.9616061,8.09040738 11.9165494,8.27134964 11.8764989,8.45479505 C11.7892461,8.84206869 11.7552747,8.98582123 11.7345343,9.08916572 C11.7155819,9.18786149 11.7091452,9.2415005 11.6748162,9.44246799 L11.6540758,9.46070525 L11.6326202,9.47643936 Z" id="Fill-26" fill="#FFFFFF"></path>
                <path d="M15.0849341,8.15380869 C15.2197468,7.56270682 15.1164023,7.28628713 14.9844503,7.11714546 C14.7831252,6.86182378 14.4305382,6.7792197 14.0632898,6.7792197 C13.8433698,6.7792197 13.3180651,6.80174809 12.9071903,7.18079708 C12.6139638,7.45292565 12.4762903,7.82410759 12.3936862,8.17848264 C12.3110822,8.53929436 12.2156047,9.19225989 12.8145736,9.43435062 C13.0005222,9.51230598 13.2651413,9.53447677 13.4375013,9.53447677 C13.8762684,9.53447677 14.3261209,9.41325261 14.6629739,9.05494403 C14.9254474,8.76350542 15.0441684,8.33081742 15.0849341,8.15380869 M14.0804542,8.11089748 C14.0593562,8.20995085 13.9728186,8.58113279 13.85374,8.73883148 C13.7714936,8.85469173 13.6738706,8.92442244 13.5658774,8.92442244 C13.5351243,8.92442244 13.3455998,8.92442244 13.3420239,8.64263885 C13.3395207,8.50389262 13.3688434,8.35942489 13.40353,8.20565973 C13.5047289,7.75795281 13.6241651,7.38247975 13.928477,7.38247975 C14.1680646,7.38247975 14.1837987,7.66176019 14.0804542,8.11089748" id="Fill-28" fill="#FFFFFF"></path>
                <path d="M24.4806646,9.51645406 C24.0172236,9.51216294 23.8838412,9.51216294 23.4554444,9.5304002 L23.4264793,9.49571364 C23.5437699,9.05480099 23.6610606,8.61531872 23.764405,8.16975736 C23.8985026,7.59152885 23.9292556,7.34586219 23.9743124,7.00757884 L24.0089989,6.97897137 C24.468864,6.91281659 24.5968824,6.89457933 25.0767728,6.80589617 L25.0917917,6.84523144 C25.0038237,7.20783114 24.9158558,7.57078843 24.8321789,7.9348185 C24.6551702,8.6975652 24.5908034,9.08519643 24.5228606,9.48355547 L24.4806646,9.51645406 Z" id="Fill-30" fill="#FFFFFF"></path>
                <path d="M24.7011567,8.20587429 C24.8359694,7.61763316 24.2938578,8.15402325 24.2069626,7.95985004 C24.0739379,7.65732603 24.1572571,7.04333818 23.6230126,6.83843717 C23.4181116,6.75869384 22.9353605,6.86203833 22.5234129,7.23858417 C22.2319743,7.50963996 22.0928705,7.87617318 22.0113392,8.23019064 C21.9283775,8.58599606 21.8332577,9.23753122 22.4290083,9.47139729 C22.6171024,9.55114062 22.78982,9.57402659 22.9614648,9.56723232 C23.5607914,9.53469132 24.0177957,8.63069523 24.3550063,8.27202907 C24.6156919,7.9888151 24.6618214,8.3785919 24.7011567,8.20587429 M23.7842872,8.1618903 C23.7617588,8.25629496 23.6748637,8.63176801 23.5557851,8.78696355 C23.4771145,8.89817509 23.2900932,8.96862099 23.1824576,8.96862099 C23.1520621,8.96862099 22.9636104,8.96862099 22.9568161,8.68934055 C22.9553858,8.55202469 22.9843508,8.40755696 23.0201102,8.25236143 C23.1213091,7.81430953 23.2407453,7.44026684 23.5450573,7.44026684 C23.7850024,7.44026684 23.8872741,7.71275301 23.7842872,8.1618903" id="Fill-32" fill="#FFFFFF"></path>
                <path d="M17.7099914,9.47643936 C17.3245057,9.47107546 17.1939841,9.47107546 16.7412709,9.49396143 L16.7248216,9.46070525 C16.7630841,9.28977561 16.8067105,9.12134912 16.8467609,8.94791633 L16.9007575,8.71440785 C16.9844344,8.35002018 17.0659657,7.92662961 17.0749055,7.79896877 C17.082415,7.72101341 17.1081617,7.5271978 16.8885994,7.5271978 C16.7934795,7.5271978 16.6972869,7.57296975 16.5985911,7.61766892 C16.5449521,7.81148454 16.4348134,8.3543113 16.3818895,8.60283871 C16.2721084,9.12492506 16.2649565,9.18428556 16.2148934,9.44246799 L16.1819948,9.47643936 C15.7857814,9.47107546 15.6498959,9.47107546 15.1950371,9.49396143 L15.1742967,9.45605654 C15.2501065,9.14566547 15.3244859,8.83277126 15.3974349,8.52309538 C15.5883898,7.68239333 15.6334466,7.36020168 15.6863704,6.93287758 L15.7221297,6.90748845 C16.1666183,6.8452672 16.2746115,6.83310903 16.7555746,6.73405566 L16.7934795,6.77947002 L16.7237488,7.04730747 C16.8027769,6.99938995 16.8832355,6.95039966 16.9651243,6.90748845 C17.1904082,6.79591932 17.4450147,6.76302072 17.5812578,6.76302072 C17.7918803,6.76302072 18.022528,6.82202363 18.1215814,7.06554473 C18.2120525,7.28260392 18.150904,7.55079896 18.0296799,8.07789161 L17.9692466,8.34572906 C17.8433737,8.93253981 17.8240637,9.03981783 17.7575513,9.44246799 L17.7099914,9.47643936 Z" id="Fill-34" fill="#FFFFFF"></path>
                <path d="M21.4562828,6.31112996 C21.38834,6.61579953 21.1905909,6.87433955 20.9349116,6.99913964 C20.7235739,7.10534488 20.4664643,7.11321193 20.2004148,7.11321193 L20.0291275,7.11321193 L20.0420009,7.04491159 C20.0420009,7.04491159 20.3591862,5.66781945 20.3577559,5.67211057 L20.3670533,5.60166468 L20.3727748,5.54731048 L20.4993628,5.56054144 C20.4993628,5.56054144 21.150898,5.61704119 21.1673473,5.61882916 C21.4251721,5.71680975 21.5306622,5.97570736 21.4562828,6.31112996 M21.0404016,4.87503491 C21.0382561,4.87503491 20.7207132,4.87932603 20.7207132,4.87932603 C19.8900237,4.88862346 19.5571043,4.88468993 19.4205036,4.86824064 C19.4065574,4.92903151 19.3854594,5.03702471 19.3854594,5.03702471 L19.0886569,6.41805038 C19.0886569,6.41805038 18.3774037,9.35138895 18.3434323,9.4890624 C19.0682741,9.48119535 19.3657918,9.48119535 19.4898767,9.49371112 C19.5181266,9.35603766 19.6879834,8.53679121 19.6879834,8.53679121 C19.6879834,8.53679121 19.8324512,7.93496154 19.8410334,7.91279075 C19.8410334,7.91279075 19.8857326,7.85128468 19.9318621,7.82661074 L19.9980169,7.82661074 C20.6227326,7.82661074 21.3300523,7.82661074 21.8828917,7.41859668 C22.2587223,7.13931625 22.5179775,6.72701107 22.6320498,6.22673792 C22.6628028,6.10372579 22.6842585,5.95639732 22.6842585,5.81049921 C22.6842585,5.61882916 22.6456384,5.42894707 22.533354,5.28018822 C22.2515704,4.88468993 21.690864,4.87932603 21.0404016,4.87503491" id="Fill-36" fill="#FFFFFF"></path>
                <path d="M28.277913,6.80164081 L28.2410809,6.76051757 C27.7676273,6.85527982 27.6810897,6.87172911 27.2448257,6.92930165 L27.2119271,6.96076987 C27.2104968,6.96613377 27.2090664,6.97471601 27.2079936,6.98151028 L27.2058481,6.97471601 C26.8811533,7.72530453 26.8915235,7.56295713 26.6265468,8.15227104 C26.6247588,8.12437876 26.6244012,8.10685668 26.623686,8.07896439 L26.5578888,6.80164081 L26.5160504,6.76051757 C26.020426,6.85527982 26.007195,6.87172911 25.5484027,6.92930165 L25.5115706,6.96076987 C25.5083522,6.97757676 25.5072795,6.99402605 25.5047763,7.01190572 L25.5083522,7.0187 C25.5655672,7.31299936 25.5523362,7.24684458 25.6091936,7.70849764 C25.6360131,7.93521185 25.6710572,8.16478681 25.6978767,8.38828268 C25.7436487,8.76375573 25.7686802,8.9493467 25.8230344,9.52078094 C25.5144313,10.0335699 25.4396943,10.2270279 25.1446798,10.6768804 L25.1604139,10.717646 C25.6091936,10.7008391 25.7125381,10.7008391 26.0443847,10.7008391 L26.1176914,10.6189502 C26.3683643,10.0786266 28.277913,6.80164081 28.277913,6.80164081" id="Fill-38" fill="#FFFFFF"></path>
                <path d="M12.0551883,7.11907646 C12.3083644,6.94206773 12.3409054,6.69747386 12.1263494,6.5705282 C11.9089326,6.44286736 11.5305988,6.48291782 11.274562,6.66028414 C11.0167371,6.83478972 10.9884872,7.08009878 11.2034009,7.20811722 C11.4186721,7.33291731 11.7987939,7.29644278 12.0551883,7.11907646" id="Fill-40" fill="#FFFFFF"></path>
                <path d="M26.0842564,10.6639712 L25.7109289,11.3029906 C25.5929231,11.5211226 25.3737183,11.685258 25.0254224,11.6863307 L24.4307446,11.6766757 L24.6038198,11.1005928 L24.7189648,11.1005928 C24.7801133,11.1005928 24.8248125,11.0966592 24.8591414,11.0798524 C24.8884641,11.0705549 24.9102773,11.0473114 24.9345936,11.0129824 L25.1537984,10.6639712 L26.0842564,10.6639712 Z" id="Fill-42" fill="#FFFFFF"></path>
            </g>
        </g>
    </g>
</svg>