<svg xmlns="http://www.w3.org/2000/svg" xmlns:xlink="http://www.w3.org/1999/xlink" width="50" height="28" viewBox="0 0 50 28"><title>icon_JP_Lawson</title><defs><path id="a" d="M.09.004h4.968v6.15H.09z"/><path id="c" d="M.125.004h4.969v6.15H.125z"/><path id="e" d="M0 .004h5.09v6.15H0z"/><path id="g" d="M.004.004h7.152v6.15H.004z"/><path id="i" d="M.124.004h10.048v6.15H.124z"/><path id="k" d="M.052.004h7.086v6.15H.052z"/></defs><g fill="none" fill-rule="evenodd"><rect width="49" height="27" x=".5" y=".5" fill="#FFF" stroke="#E4E4E4" rx="4"/><g transform="translate(26.538 10.785)"><mask id="b" fill="#fff"><use xlink:href="#a"/></mask><path fill="#007BC1" d="M.09 1.824v-.72C.096.017.497.005 1.246.005H4.1c.674 0 .958.293.958 1.1v.816c0 .11-.018.181-.163.181h-.507c-.132 0-.246 0-.246-.145v-.53c0-.18.054-.24-.2-.24H1.246c-.182 0-.24.084-.24.192v.916c0 .205.127.23.271.23h2.865c.59 0 .916.337.916.772v1.99c0 .614-.428.868-.91.868H.88c-.591 0-.784-.29-.784-.748V4.044c0-.182.084-.182.168-.182h.567c.145 0 .175.048.175.182v.77c0 .196.13.158.227.158h2.5c.368 0 .409-.084.409-.338V3.633c0-.12 0-.196-.233-.196H1.197C.4 3.437.09 3.2.09 2.693v-.869z" mask="url(#b)"/></g><g transform="translate(32.692 10.785)"><mask id="d" fill="#fff"><use xlink:href="#c"/></mask><path fill="#007BC1" d="M1.042 4.755c0 .18.078.217.26.217h2.64c.12 0 .236 0 .236-.205v-3.39c0-.144-.055-.192-.236-.192H1.314c-.145 0-.272.06-.272.29V4.754zM.125 3.416V1.105C.125.26.495.004 1.12.004H4.12c.668 0 .975.36.975 1.1V5.13c0 .796-.336 1.024-1.01 1.024H1.052c-.688 0-.928-.372-.928-.89V3.415z" mask="url(#d)"/></g><g transform="translate(5 10.785)"><mask id="f" fill="#fff"><use xlink:href="#e"/></mask><path fill="#007BC1" d="M5.09 6.017a.137.137 0 0 1-.137.137H.16a.137.137 0 0 1-.137-.137v-.909c0-.075.061-.136.137-.136h.792V1.185H.137A.137.137 0 0 1 0 1.048V.14C0 .064.061.004.137.004h2.5c.075 0 .137.06.137.136v.908a.138.138 0 0 1-.137.137h-.768v3.787h2.297V3.938c0-.075.062-.136.138-.136h.65c.074 0 .136.06.136.136v2.08z" mask="url(#f)"/></g><g transform="translate(10.128 10.785)"><mask id="h" fill="#fff"><use xlink:href="#g"/></mask><path fill="#007BC1" d="M3.591 2.155l-.743 1.26.006.001h1.47l-.006.003-.727-1.264zm2.703 2.82v-.003h.721c.079 0 .141.06.141.136v.909a.139.139 0 0 1-.14.137H4.421a.14.14 0 0 1-.141-.137v-.909a.14.14 0 0 1 .141-.136h.784l.002.002-.367-.64.002-.001H2.305l.002-.002-.377.638.006.003h.802a.14.14 0 0 1 .142.136v.909a.14.14 0 0 1-.142.137H.145a.14.14 0 0 1-.141-.137v-.909a.14.14 0 0 1 .141-.136h.697L.837 4.97l2.23-3.785h-.72a.14.14 0 0 1-.143-.137V.14c0-.076.064-.136.142-.136H4.94A.14.14 0 0 1 5.08.14v.908a.14.14 0 0 1-.142.137h-.815l2.17 3.79z" mask="url(#h)"/></g><g transform="translate(16.282 10.785)"><mask id="j" fill="#fff"><use xlink:href="#i"/></mask><path fill="#007BC1" d="M8.33 1.185H7.6a.135.135 0 0 1-.134-.137V.14c0-.076.06-.136.133-.136h2.44c.073 0 .133.06.133.136v.908c0 .076-.06.137-.134.137h-.714L7.52 4.972h.684c.073 0 .134.06.134.136v.909c0 .076-.06.137-.134.137h-2.44a.135.135 0 0 1-.132-.137v-.909c0-.075.06-.136.133-.136h.725L5.154 2.204 3.83 4.972h.678c.074 0 .134.06.134.136v.909c0 .076-.06.137-.134.137H2.069a.135.135 0 0 1-.133-.137v-.909c0-.075.06-.136.133-.136h.75L.988 1.185H.257a.135.135 0 0 1-.133-.137V.14c0-.076.06-.136.133-.136h2.44c.073 0 .133.06.133.136v.908c0 .076-.06.137-.134.137H1.99l1.33 2.754 1.317-2.754h-.708a.135.135 0 0 1-.134-.137V.14c0-.076.06-.136.134-.136h2.44c.073 0 .133.06.133.136v.908c0 .076-.06.137-.133.137H5.66l1.342 2.778L8.33 1.185z" mask="url(#j)"/></g><g transform="translate(37.82 10.785)"><mask id="l" fill="#fff"><use xlink:href="#k"/></mask><path fill="#007BC1" d="M1.002 1.185H.197c-.08 0-.145-.061-.145-.137V.14c0-.076.066-.136.145-.136h2.642c.08 0 .145.06.145.136v.908a.141.141 0 0 1-.145.137h-.666L5.18 3.847h.003v-2.66h-.83a.14.14 0 0 1-.145-.138V.14c0-.076.064-.136.145-.136h2.641c.08 0 .145.06.145.136v.908a.141.141 0 0 1-.145.137H6.15v3.787h.843a.14.14 0 0 1 .145.136v.909a.14.14 0 0 1-.145.137h-2.64a.14.14 0 0 1-.146-.137v-.909a.14.14 0 0 1 .145-.136h.683l-3.063-2.71H1.97v2.71h.869a.14.14 0 0 1 .145.136v.909a.14.14 0 0 1-.145.137H.197c-.08 0-.145-.061-.145-.137v-.909c0-.075.066-.136.145-.136h.805V1.185" mask="url(#l)"/></g></g></svg>