<svg height="50" viewBox="0 0 130 50" width="130" xmlns="http://www.w3.org/2000/svg"><g fill="none" fill-rule="evenodd" transform="translate(0 11)"><g fill="#1e1f1d"><path d="m34.7751496 22.100399v-15.26957355h3.817354v2.00107763h.5541413c.2463317-.53342137.7080462-1.04140175 1.3853534-1.5238887.6773072-.48196239 1.703287-.72346814 3.0785689-.72346814 1.1900085 0 2.2318824.27229721 3.1246773.81584252.8927425.54406986 1.5854192 1.29303144 2.0779776 2.24735684.4926109.9543254.7388901 2.0678536.7388901 3.3401651v9.1124883h-3.878937v-8.8046262c0-1.1490931-.2823686-2.0111491-.8466339-2.5859579-.5647374-.5743368-1.3699314-.86195105-2.4166312-.86195105-1.1905331 0-2.1141195.39535815-2.7706543 1.18518265-.6571117.7903491-.9851693 1.8933338-.9851693 3.3094261v7.7579264z"/><path d="m59.5812103 19.0834131c1.1902184 0 2.1753352-.3848146 2.9553505-1.1544437.7800154-.7696291 1.1697607-1.8726138 1.1697607-3.3094261v-.3078621c0-1.4363403-.3844998-2.5397446-1.154024-3.3093737-.7700487-.7696816-1.7604111-1.15444365-2.9710872-1.15444365-1.1902184 0-2.1753353.38476205-2.9553506 1.15444365-.7800153.7696291-1.1697607 1.8730334-1.1697607 3.3093737v.3078621c0 1.4368123.3897454 2.539797 1.1697607 3.3094261s1.7651322 1.1544437 2.9553506 1.1544437zm0 3.4479614c-1.5191153 0-2.8834864-.3078097-4.0941625-.9235339-1.2112006-.6157243-2.1658932-1.5084668-2.8630286-2.6783324-.6981321-1.1698656-1.0468571-2.5753619-1.0468571-4.217643v-.492506c0-1.6417565.348725-3.0477774 1.0468571-4.2175905.6971354-1.16986562 1.651828-2.06266056 2.8630286-2.67833236 1.2106761-.61567181 2.5750472-.9235864 4.0941625-.9235864 1.5185907 0 2.8834863.30791459 4.094687.9235864 1.2106761.6156718 2.1648441 1.50846674 2.8630286 2.67833236.6971354 1.1698131 1.04649 2.575834 1.04649 4.2175905v.492506c0 1.6422811-.3493546 3.0477774-1.04649 4.217643-.6981845 1.1698656-1.6523525 2.0626081-2.8630286 2.6783324-1.2112007.6157242-2.5760963.9235339-4.094687.9235339z"/><path d="m69.610728 22.100399v-15.26957355h3.8171967v1.72400696h.5539315c.2260838-.61572427.6226484-1.02991397 1.1461557-1.31758068.5235072-.28714216 1.1115349-.40642628 1.8097194-.40642628h1.846963v3.20168225h-1.9088606c-1.1215015.0250738-1.796081.4463975-2.4318433.9697998-.6362869.5232974-.9546926 1.3290685-.9546926 2.4166312v8.6814603z"/><path d="m84.2364086 22.100399c-1.0055746 0-1.8217843-.3126881-2.44758-.9389559-.6263203-.6258482-.9389559-1.4622533-.9389559-2.509058v-8.6198774h-3.8171967v-3.20168225h3.8171967v-4.74094043h3.8790943v4.74094043h4.1870089v3.20168225h-4.1870089v7.9426751c0 .6157243.2874569.9234815.8618461.9234815h2.9553506v3.2017347z"/><path d="m97.5905646 19.0834131c1.1902184 0 2.1753352-.3848146 2.9553504-1.1544437.780015-.7696291 1.169761-1.8726138 1.169761-3.3094261v-.3078621c0-1.4363403-.3845-2.5397446-1.154024-3.3093737-.7700489-.7696816-1.7604113-1.15444365-2.9710874-1.15444365-1.1902184 0-2.1753353.38476205-2.9553506 1.15444365-.7800153.7696291-1.1697607 1.8730334-1.1697607 3.3093737v.3078621c0 1.4368123.3897454 2.539797 1.1697607 3.3094261s1.7651322 1.1544437 2.9553506 1.1544437zm0 3.4479614c-1.5191153 0-2.8834864-.3078097-4.0941625-.9235339-1.2112006-.6157243-2.1658932-1.5084668-2.8630286-2.6783324-.6981845-1.1698656-1.0470145-2.5753619-1.0470145-4.217643v-.492506c0-1.6417565.34883-3.0477774 1.0470145-4.2175905.6971354-1.16986562 1.651828-2.06266056 2.8630286-2.67833236 1.2106761-.61567181 2.5750472-.9235864 4.0941625-.9235864 1.5185906 0 2.8834864.30791459 4.0946874.9235864 1.210676.6156718 2.164844 1.50846674 2.863028 2.67833236.697136 1.1698131 1.04649 2.575834 1.04649 4.2175905v.492506c0 1.6422811-.349354 3.0477774-1.04649 4.217643-.698184 1.1698656-1.652352 2.0626081-2.863028 2.6783324-1.211201.6157242-2.5760968.9235339-4.0946874.9235339z"/><path d="m107.620082 22.100399v-15.26957355h3.817197v2.00107763h.553931c.246542-.53342137.708152-1.04140175 1.385354-1.5238887.677727-.48196239 1.703234-.72346814 3.078621-.72346814 1.190219 0 2.231987.27229721 3.124782.81584252.892795.54406986 1.585734 1.29303144 2.078293 2.24735684.492558.9543254.738575 2.0678536.738575 3.3401651v9.1124883h-3.879094v-8.8046262c0-1.1490931-.282212-2.0111491-.846634-2.5859579-.564423-.5743368-1.369617-.86195105-2.416631-.86195105-1.190219 0-2.113963.39535815-2.770707 1.18518265-.656745.7903491-.985117 1.8933338-.985117 3.3094261v7.7579264z"/></g><path d="m28.7 14.3503934c0 7.9124607-6.4371459 14.3496066-14.3496066 14.3496066-7.9132475 0-14.3503934-6.4371459-14.3503934-14.3496066 0-7.91329995 6.4371459-14.3503934 14.3503934-14.3503934 2.1868755 0 4.2609714.49124704 6.117796 1.37019368l-2.3834268 3.07038578c-1.1621546-.43905368-2.4202506-.67930049-3.7343692-.67930049-5.5797585 0-10.16464342 4.33692712-10.56152277 9.81764943-.00765852.1105765-.01379583.2218349-.01841193.3338801-.00613731.1451447-.00917973.2909714-.00917973.4375849 0 5.8384173 4.74991035 10.5883276 10.58911443 10.5883276 5.8384173 0 10.5883276-4.7499103 10.5883276-10.5883276 0-.7806448-.0851879-1.5421432-.2456497-2.2744764l2.7657234-3.56241963c.7975355 1.78391133 1.2412053 3.75975773 1.2412053 5.83689603" fill="#fbde2a"/><path d="m25.7746541 5.67643426-10.9023271 14.04258374-6.92225563-6.1884537 2.50622543-2.8040685 3.9171246 3.5018334 8.7284082-11.24313138c1.0048401.77529431 1.9044543 1.68109825 2.6728245 2.69123644" fill="#1e1f1d"/><path d="m125.047813 7.08v-3h1.066805l.559722 2.48653214h.133351l.560599-2.48653214h1.066805v3h-.560599v-2.48653214h-.132474l-.560599 2.48653214h-.879938l-.560599-2.48653214h-.133351v2.48653214zm-1.946744 0v-2.48653214h-.98697v-.51346786h2.533662v.51346786h-.98697v2.48653214z" fill="#1e1f1d"/></g></svg>