<svg id="Nordea" xmlns="http://www.w3.org/2000/svg" viewBox="0 0 50 28"><defs><style>.cls-2{fill:#fff}</style></defs><rect width="50" height="28" rx="4" ry="4" fill="#164193"/><path class="cls-2" d="M41.66 11.58a3.32 3.32 0 0 0 .26 6.63 2.46 2.46 0 0 0 2-1.07v1h1.28V15a3.31 3.31 0 0 0-3.54-3.42zM43.83 15a1.91 1.91 0 1 1 0-.2zM34.64 11.57a3.33 3.33 0 1 0 3.15 4.59l-1.27-.38a2 2 0 0 1-1.44 1.1 2 2 0 0 1-2-1l5-1.35a3.33 3.33 0 0 0-3.44-2.96zm-1.86 3.18a2 2 0 0 1 1.3-1.83 1.82 1.82 0 0 1 2.29.85zM23.69 12.92v-1.36a1.9 1.9 0 0 0-1.87.95v-.74h-1.41v6.35h1.45V15a1.84 1.84 0 0 1 1.83-2.08zM10.57 15.57l-4.33-5.11H4.75v7.65h1.54v-5.12l4.39 5.13h1.36v-7.66h-1.47v5.11zM30.5 9.78h-1.37v2.5a2.87 2.87 0 0 0-2.21-.7 3.32 3.32 0 0 0 .26 6.63 2.53 2.53 0 0 0 2-.94v.85h1.32V9.78zM29.09 15a1.91 1.91 0 1 1 0-.2zM16.22 11.57a3.32 3.32 0 1 0 3.32 3.32 3.31 3.31 0 0 0-3.32-3.32zm0 5.23a1.91 1.91 0 1 1 1.91-1.91 1.9 1.9 0 0 1-1.91 1.91zM36.4 13.76"/></svg>