<svg xmlns="http://www.w3.org/2000/svg" xmlns:xlink="http://www.w3.org/1999/xlink" width="50" height="28" viewBox="0 0 50 28"><title>icon_JP_Seicomart</title><defs><path id="a" d="M.007.017h8.88v9.249H.007z"/></defs><g fill="none" fill-rule="evenodd"><rect width="49" height="27" x=".5" y=".5" fill="#FFF" stroke="#E4E4E4" rx="4"/><path fill="#F48427" d="M3 19.89h43.983V9H3z"/><g fill="#FEFEFE"><path d="M12.636 14.125c0-.382-.179-.693-.637-.693-.413 0-.61.311-.636.693h1.273zm-1.26.65c.063.457.413.635.973.635.312 0 .596-.07.972-.249l.15.78c-.401.161-.9.233-1.325.233-1.095 0-1.928-.643-1.928-1.737s.744-1.73 1.775-1.73c1.228 0 1.673.87 1.673 1.857v.21h-2.29zM17.47 15.334c-.49 0-.868-.335-.878-.894.01-.56.388-.894.877-.894.274 0 .411.057.622.185l.155-.84c-.261-.128-.567-.185-.91-.185-1.092 0-1.925.634-1.928 1.73v.007c.003 1.097.836 1.73 1.928 1.73.343 0 .649-.057.91-.184l-.155-.84c-.21.127-.348.185-.622.185M6.604 15.993c.425.126.873.18 1.48.18.885 0 1.94-.236 1.94-1.359 0-.932-.75-1.108-1.413-1.263-.435-.102-.847-.198-.847-.55 0-.189.14-.413.808-.413.376 0 .725.09 1.031.234l.151-.813c-.4-.145-.867-.216-1.426-.216-.878 0-1.764.407-1.764 1.317 0 .858.69 1.038 1.298 1.196.443.115.861.224.861.61 0 .462-.545.462-.724.462-.501 0-.953-.123-1.241-.224l-.154.839zM15.103 16.097v-3.303s-1.146-.166-1.146.857v2.446h1.146zM18.986 13.575a.053.053 0 00-.051.053c0 .028.023.052.051.052.03 0 .054-.024.054-.052a.054.054 0 00-.054-.053M20.716 15.41l.017.002c.11.027.213.047.305.047a.84.84 0 00.7-.35c.005-.005.011-.01.018-.006.007.003.008.01.006.017-.104.268-.298.512-.368.567-.047.04-.127.04-.127.04a.724.724 0 01-.578-.272.033.033 0 01-.002-.024c.004-.013.016-.02.03-.02M20.751 14.96c.525 0 .61-.297.735-.544 0 0 .134-.288.36-.346.007-.002.01-.01.008-.017a1.8 1.8 0 00-.508-.913c-.004-.003-.007-.005-.012-.005s-.008.004-.01.008c0 0-.1.134-.104.384-.004.183.052.344.051.525a.91.91 0 01-.07.352.772.772 0 01-.33.384s-.074.05-.237.088c-.022.005-.032.026-.027.046a.037.037 0 00.026.026s.034.013.118.013"/><path d="M19.405 13.57c.003 0 .006 0 .007.003.002.003 0 .006-.001.008-.356.43-.177.875.124.997.06.024.368.127.536-.288.093-.228.07-.436.168-.677.173-.426.503-.625.806-.681a.014.014 0 00.01-.008c.003-.007 0-.014-.007-.018a1.811 1.811 0 10.056 3.03c.003-.002.004-.006.003-.008 0-.004-.005-.004-.008-.003 0 0-.675.185-1.365-.065-1.233-.47-.828-1.617-.83-1.97a.294.294 0 00-.088-.222c-.042-.043-.109-.09-.098-.118.011-.03.125-.036.23-.024.123.013.199.04.268.05.065.01.152 0 .19-.005M32.775 13.408v-.623c-.285-.011-1.038.037-1.038.866v2.446h1.14v-1.392c0-.645.211-1.125.773-1.125h.704v1.36c0 .784.254 1.234 1.273 1.234.285 0 .419-.024.67-.08l-.132-.713c-.037.01-.103.033-.21.033-.36 0-.455-.202-.455-.6V13.58h.798v-.811h-.799v-.966s-1.145-.166-1.145.858v.108H33.8c-.316 0-.853.15-1.013.638h-.013M23.17 12.785c-.29-.011-1.042.037-1.042.866v2.446h1.145v-1.4c0-.712.242-1.037.65-1.037.324 0 .457.28.457.655v1.782h1.145v-1.4c0-.712.242-1.037.65-1.037.324 0 .457.28.457.655v1.782h1.145v-1.953c0-.898-.216-1.438-1.17-1.438-.47 0-.91.19-1.177.636-.178-.433-.566-.636-1.037-.636-.522 0-.98.21-1.209.687h-.013v-.608zM29.579 15.41c-.267 0-.47-.133-.47-.362 0-.318.304-.44.692-.44.172 0 .338.013.484.02 0 .388-.274.782-.706.782m1.84.683a4.016 4.016 0 01-.065-.778V14.08c0-1.012-.732-1.375-1.578-1.375-.49 0-.897.07-1.304.236v.776c.318-.178.687-.248 1.056-.248.413 0 .75.12.757.572a3.376 3.376 0 00-.534-.044c-.61 0-1.712.12-1.712 1.133 0 .718.585 1.042 1.241 1.042.47 0 .789-.184 1.05-.598h.01c.219.635 1.056.521 1.078.518"/></g><g transform="translate(38.097 9.842)"><mask id="b" fill="#fff"><use xlink:href="#a"/></mask><path fill="#FEFEFE" d="M.807 2.304a.148.148 0 0 1-.146-.148c0-.08.066-.15.146-.15.085 0 .151.07.151.15a.15.15 0 0 1-.151.148m9.766 1.07c-.189-.038-1.592-.421-2.409 1.49-.358.84-.953 1.443-2.4 1.265-.049-.01-.08-.038-.09-.078-.016-.059.027-.124.091-.135 0 0 1.194-.158 1.706-1.418.597-1.474-.29-2.246.207-3.473.236-.58.752-.698.752-.698-.045.01.448-.115-.135-.247C7.291-.144 5.376.157 4.58 2.12c-.29.718-.228 1.355-.504 2.035-.506 1.247-1.43.937-1.611.864-.902-.367-1.441-1.711-.374-2.996.006-.008.011-.014.007-.022-.004-.007-.012-.01-.022-.008a2.16 2.16 0 0 1-.57.018c-.208-.033-.432-.112-.804-.153-.314-.035-.657-.02-.69.073-.032.084.167.225.294.355a.887.887 0 0 1 .265.664C.573 4.015-.64 7.462 3.064 8.872c0 0 3.27 1.315 6.548-.86.27-.185.091-.239-.154-.13 0 0-2.284.878-3.487-.172-.015-.018-.03-.034-.04-.054a.102.102 0 0 1-.007-.071c.013-.04.048-.062.087-.066a.22.22 0 0 1 .053.005c2.081.554 3.057-.667 3.395-1.685.361-1.087-.137-1.758 1.1-2.264.277-.114.182-.169.014-.201" mask="url(#b)"/></g></g></svg>