<svg xmlns="http://www.w3.org/2000/svg" viewBox="0 0 50 28"><defs><style>.cls-1{fill:#fff}.cls-3{fill:#231f20}</style></defs><g id="border"><rect class="cls-1" x=".5" y=".5" width="49" height="27" rx="3.5" ry="3.5"/><path d="M46 1a3 3 0 0 1 3 3v20a3 3 0 0 1-3 3H4a3 3 0 0 1-3-3V4a3 3 0 0 1 3-3h42m0-1H4a4 4 0 0 0-4 4v20a4 4 0 0 0 4 4h42a4 4 0 0 0 4-4V4a4 4 0 0 0-4-4z" fill="#dfe1dd"/></g><g id="Diners_Club" data-name="Diners Club"><path class="cls-3" d="M11.28 19.74c0 .5.36.55.68.55a1.8 1.8 0 0 0 1.85-2 1.94 1.94 0 0 0-2-2.08 4.41 4.41 0 0 0-.51 0zm-.63-3c0-.58-.3-.54-.59-.55V16H11.94a2.35 2.35 0 0 1 2.58 2.26c0 .64-.37 2.25-2.66 2.25h-1.8v-.17c.38 0 .57 0 .59-.49zM15.44 16.56a.32.32 0 1 1 0-.64.31.31 0 0 1 .31.31.32.32 0 0 1-.31.33m-.69 3.77h.12c.18 0 .31 0 .31-.21v-1.75c0-.28-.1-.32-.34-.45v-.11a6.32 6.32 0 0 0 .69-.23h.12v2.57c0 .21.14.21.32.21h.11v.17h-1.33zM16.74 18.41c0-.24-.07-.3-.37-.43v-.12a8.19 8.19 0 0 0 .85-.31V18a1.91 1.91 0 0 1 1.12-.48c.54 0 .74.4.74.9v1.67c0 .21.14.21.32.21h.12v.17h-1.34v-.17h.11c.18 0 .31 0 .31-.21v-1.64c0-.37-.22-.55-.59-.55a1.72 1.72 0 0 0-.75.31v1.91c0 .21.14.21.32.21h.12v.17h-1.38v-.17h.11c.18 0 .31 0 .31-.21zM21.19 18.51c.16 0 .18-.08.18-.16a.54.54 0 0 0-.56-.59c-.39 0-.66.29-.74.75zm-1.14.21a2 2 0 0 0 0 .37 1.08 1.08 0 0 0 .95 1.12 1.24 1.24 0 0 0 .87-.43l.09.09a1.52 1.52 0 0 1-1.19.73 1.3 1.3 0 0 1-1.24-1.41c0-1.27.85-1.64 1.31-1.64a1 1 0 0 1 1.09 1 .49.49 0 0 1 0 .12h-.06zM22.08 20.33h.17c.18 0 .31 0 .31-.21v-1.81c0-.2-.24-.24-.34-.3v-.09c.48-.2.73-.37.79-.37s.06 0 .06.08v.58c.17-.25.44-.66.83-.66a.35.35 0 0 1 .37.34.31.31 0 0 1-.3.33c-.2 0-.2-.15-.43-.15a.53.53 0 0 0-.47.53v1.52c0 .21.13.21.31.21h.36v.17h-1.66zM24.56 19.6a.86.86 0 0 0 .82.79.45.45 0 0 0 .52-.46c0-.76-1.41-.51-1.41-1.55a.88.88 0 0 1 1-.83 1.69 1.69 0 0 1 .74.19v.66h-.14a.67.67 0 0 0-.71-.64.44.44 0 0 0-.5.42c0 .76 1.5.53 1.5 1.54 0 .43-.35.88-1.11.88a1.67 1.67 0 0 1-.79-.22l-.07-.74zM32.25 17.16h-.16a1.24 1.24 0 0 0-1.38-1.06 1.85 1.85 0 0 0-1.83 2 2.11 2.11 0 0 0 1.93 2.24 1.32 1.32 0 0 0 1.3-1.12h.15l-.15 1a3.76 3.76 0 0 1-1.43.34 2.3 2.3 0 0 1-2.47-2.43 2.37 2.37 0 0 1 2.45-2.27 4.47 4.47 0 0 1 1.52.34zM32.48 20.33h.12c.18 0 .31 0 .31-.21v-3.6c0-.42-.09-.43-.34-.5v-.1a4.69 4.69 0 0 0 .67-.28.56.56 0 0 1 .14-.07v4.55c0 .21.14.21.32.21h.11v.17h-1.33zM36.63 20.15c0 .11.07.12.18.12h.26v.14a5.6 5.6 0 0 0-.93.2v-.52a1.74 1.74 0 0 1-1.14.51.7.7 0 0 1-.71-.77v-1.65c0-.17 0-.33-.39-.37v-.12h.84c.09 0 .07 0 .07.18v1.63c0 .19 0 .75.56.75a1.47 1.47 0 0 0 .78-.39v-1.74c0-.13-.31-.2-.54-.27v-.11c.58 0 .94-.09 1-.09s.05 0 .05.11zM37.91 19.77a.7.7 0 0 0 .67.66c.69 0 1-.68 1-1.25a1.23 1.23 0 0 0-1-1.28 1 1 0 0 0-.62.3zm0-1.76a1.7 1.7 0 0 1 1-.46 1.26 1.26 0 0 1 1.2 1.36 1.63 1.63 0 0 1-1.55 1.69 1.92 1.92 0 0 1-.9-.23l-.19.15-.13-.07a8.77 8.77 0 0 0 .09-1.15v-2.78c0-.42-.1-.43-.35-.5v-.1a4.69 4.69 0 0 0 .67-.28l.14-.07v.09zM10.05 24.26c.13 0 .26 0 .26-.2v-1.84c0-.19-.13-.21-.26-.21v-.1h1.07V22c-.12 0-.26 0-.26.21v1.84c0 .18.14.2.26.2v.1h-1.07z"/><path class="cls-3" d="M11.11 24.35v-.08c-.12 0-.27 0-.27-.21v-1.84c0-.2.15-.22.27-.22v-.08h-1.04V22c.12 0 .27 0 .27.22v1.84c0 .19-.15.21-.27.21v.08h1.04m0 0h-1.07v-.14h.07c.13 0 .24 0 .24-.18v-1.81c0-.18-.11-.19-.24-.19H10v-.14h1.07V22H11c-.12 0-.24 0-.24.19v1.84c0 .17.12.18.24.18h.07v.14zM13.54 23.67v-1.33a.29.29 0 0 0-.3-.33h-.08v-.1h.92V22H14c-.15 0-.31 0-.31.45v1.6a1.94 1.94 0 0 0 0 .35h-.13l-1.81-2v1.45c0 .3.06.41.33.41h.06v.1h-.93v-.1c.25 0 .32-.17.32-.45v-1.48a.32.32 0 0 0-.23-.33v-.1h.7z"/><path class="cls-3" d="M13.53 23.66zm0 0zm.07.73h.11V22.45c0-.42.18-.46.33-.46v-.08H13.15V22h.06a.3.3 0 0 1 .32.34v1.33L12 21.92h-.7V22a.33.33 0 0 1 .34.33v1.48c0 .28-.08.46-.34.46v.08h.9v-.08c-.28 0-.35-.12-.35-.42v-1.49zm.13 0h-.15l-1.78-2v1.41c0 .3 0 .39.32.39h.07v.14H11.26v-.14h.06c.24 0 .3-.15.31-.43v-1.43a.3.3 0 0 0-.31-.3h-.06v-.14h.72l1.55 1.74v-1.3a.27.27 0 0 0-.29-.31h-.1v-.14H14.06V22H14c-.14 0-.29 0-.3.43V24.38zM14.61 22.08c-.26 0-.27.07-.33.32h-.1v-.29a1.51 1.51 0 0 0 0-.3h.09c0 .1.11.1.21.1h1.81c.1 0 .18 0 .19-.11h.08v.29a2.62 2.62 0 0 0 0 .28h-.11c0-.13 0-.34-.26-.34h-.57V24c0 .28.12.31.29.31H16v.1h-1.17v-.1h.07c.19 0 .29 0 .29-.3v-1.93z"/><path class="cls-3" d="M16 24.38h-1.17v-.14h.09c.19 0 .27 0 .27-.28V22.1h-.56.59V24c0 .28-.11.31-.3.31h-.06v.08H16v-.08h-.05c-.17 0-.31 0-.31-.32v-1.92h.59c.24 0 .27.2.28.33h.07a2.44 2.44 0 0 1 0-.27 2.51 2.51 0 0 1 0-.27h-.06c0 .1-.11.11-.2.1h-1.8c-.08 0-.17 0-.21-.1h-.05a2.83 2.83 0 0 1 0 .29v.28h.07c.05-.25.08-.32.34-.32-.26 0-.25 0-.31.31h-.14a2.68 2.68 0 0 0 .05-.3 2.64 2.64 0 0 0 0-.29h.11c0 .09.09.09.18.09h1.83c.1 0 .17 0 .18-.09h.11v.28a2.62 2.62 0 0 0 0 .28h-.12c0-.13 0-.32-.25-.32h-.56V24c0 .27.11.29.28.29H16v.14zM16.74 24.26h.05c.12 0 .26 0 .26-.2v-1.84c0-.19-.14-.21-.26-.21h-.05v-.1h1.77a4.91 4.91 0 0 0 0 .54h-.11c0-.22-.06-.41-.43-.41h-.47V23h.41c.21 0 .26-.11.28-.3h.11v.81h-.11c0-.21 0-.35-.27-.35h-.42V24c0 .23.2.23.42.23.43 0 .61 0 .72-.43h.1c0 .19-.09.38-.12.56h-1.88z"/><path class="cls-3" d="M18.6 24.35a5.23 5.23 0 0 1 .12-.54h-.07c-.11.39-.31.43-.73.42-.22 0-.44 0-.44-.24v-.84h.44c.24 0 .27.15.29.35h.07v-.38-.4h-.07c0 .18-.08.31-.3.31h-.43v-.95H18c.37 0 .43.18.45.41h.07v-.34a.91.91 0 0 1 0-.17h-1.75V22c.12 0 .27 0 .27.22v1.84c0 .19-.15.21-.27.21v.08h1.85m0 0h-1.88v-.14h.07c.12 0 .24 0 .24-.18v-1.81c0-.18-.12-.19-.24-.19h-.07v-.14h1.77a1 1 0 0 0 0 .18v.36h-.12c0-.23 0-.4-.42-.4h-.47V23h.4c.21 0 .24-.11.27-.3h.13v.81h-.12c0-.21 0-.33-.26-.33h-.41V24c0 .21.19.21.41.21.43 0 .6 0 .7-.42h.11c0 .18-.09.37-.12.55zM19.66 23.1h.17c.35 0 .54-.14.54-.55a.48.48 0 0 0-.51-.51h-.2zm-.45-.82c0-.26-.14-.27-.25-.27h-.06v-.1H20c.44 0 .83.12.83.62a.67.67 0 0 1-.48.62l.6.9a.4.4 0 0 0 .34.21v.1h-.68a9.26 9.26 0 0 1-.73-1.14h-.23V24c0 .27.13.28.29.28H20v.1h-1.1v-.1h.1c.13 0 .25-.06.25-.19z"/><path class="cls-3" d="M19.83 23.08c.35 0 .53-.12.53-.53a.46.46 0 0 0-.5-.5h-.18v1zm-.17 0V22h.22a.5.5 0 0 1 .53.53c0 .42-.2.56-.56.56zm0 .1h.24a11.48 11.48 0 0 0 .72 1.13h.66v-.08a.41.41 0 0 1-.34-.22l-.61-.91a.64.64 0 0 0 .48-.6c0-.49-.38-.6-.82-.61h-1.1V22H19c.11 0 .27 0 .27.28v1.79c0 .14-.14.2-.27.2h-.05v.08H20.04v-.08H20c-.16 0-.31 0-.31-.3v-.76zm1.64 1.17h-.69a9.94 9.94 0 0 1-.73-1.13h-.2V24c0 .27.11.27.27.27H20v.14H18.89v-.14H19c.13 0 .23 0 .23-.17v-1.82c0-.25-.12-.25-.23-.25h-.08v-.14H20.03c.44 0 .85.13.85.64a.67.67 0 0 1-.48.62l.6.85a.38.38 0 0 0 .33.2v.14zM23.68 23.67v-1.33a.29.29 0 0 0-.31-.33h-.07v-.1h.92V22h-.05c-.15 0-.31 0-.31.45v1.6a1.94 1.94 0 0 0 0 .35h-.14l-1.81-2v1.45c0 .3.06.41.33.41h.06v.1h-.9v-.1h.05c.24 0 .32-.17.32-.45v-1.48a.32.32 0 0 0-.32-.32h-.05v-.1h.72z"/><path class="cls-3" d="M23.67 23.66zm0 0zm.07.73h.12a1.88 1.88 0 0 1 0-.34v-1.6c0-.42.18-.46.33-.46v-.08H23.29V22h.06a.31.31 0 0 1 .33.34v1.33l-1.56-1.77h-.7v.1a.33.33 0 0 1 .33.33v1.48c0 .28-.08.46-.33.46v.08h.9v-.08h-.05c-.27 0-.34-.12-.34-.42v-1.49zm.14 0h-.15l-1.78-2v1.41c0 .3.05.39.31.39h.08v.14H21.41v-.14h.06c.23 0 .3-.15.3-.43v-1.43a.29.29 0 0 0-.3-.3h-.06v-.14h.73l1.54 1.74v-1.3c0-.27-.18-.31-.29-.31h-.09v-.14H24.22V22h-.07c-.15 0-.3 0-.3.43v1.6a2 2 0 0 0 0 .35zM25.31 22.3l-.32 1h.65zm-.51 1.56a1.2 1.2 0 0 0-.08.27c0 .11.15.13.26.13v.1h-.8v-.1a.31.31 0 0 0 .3-.23l.57-1.61c0-.14.1-.31.13-.44a2.44 2.44 0 0 0 .32-.15h.05v.09l.65 1.84a3.82 3.82 0 0 0 .13.36.23.23 0 0 0 .23.14v.1h-1v-.1c.08 0 .21 0 .21-.11a1.09 1.09 0 0 0-.07-.25l-.13-.41h-.8z"/><path class="cls-3" d="M25.29 22.31zm-.29 1h.61l-.3-.94zm-.05 0l.34-1 .33 1zm.72 1h.98v-.08a.24.24 0 0 1-.25-.15c0-.1-.09-.23-.13-.36l-.64-1.84a.13.13 0 0 1 0-.08 1.51 1.51 0 0 1-.31.14 2.44 2.44 0 0 1-.13.44L24.56 24a.34.34 0 0 1-.32.24v.08h.78v-.08c-.11 0-.27 0-.28-.14a1.5 1.5 0 0 1 .08-.27l.12-.37h.82l.14.42a1 1 0 0 1 .07.25c0 .11-.15.12-.23.12zm1 0h-1.01v-.14h.06c.08 0 .2 0 .2-.09a1.05 1.05 0 0 0-.07-.24l-.13-.4h-.78l-.11.35c0 .12-.08.22-.08.27s.14.11.25.11v.14h-.8v-.14a.29.29 0 0 0 .29-.22l.56-1.61a3.36 3.36 0 0 0 .14-.45 1.19 1.19 0 0 0 .32-.15v.08l.65 1.84a2.49 2.49 0 0 0 .13.36.21.21 0 0 0 .22.13v.14zM26.82 22.08c-.26 0-.27.07-.32.32h-.11a2.54 2.54 0 0 0 0-.29 1.53 1.53 0 0 0 0-.3h.08c0 .1.12.1.21.1h1.81c.1 0 .19 0 .19-.11h.09a2.89 2.89 0 0 0 0 .29 2.62 2.62 0 0 0 0 .28h-.1c0-.13 0-.34-.26-.34h-.58V24c0 .28.12.31.29.31h.07v.1H27v-.1h.07c.19 0 .29 0 .29-.3v-1.93z"/><path class="cls-3" d="M28.21 24.38h-1.17v-.14h.08c.19 0 .27 0 .28-.28V22.1h-.56.6V24c0 .28-.12.31-.31.31h-.05v.08h1.13v-.08h-.05c-.17 0-.3 0-.3-.32v-1.92h.59c.23 0 .26.2.27.33h.08v-.3-.27h-.05c0 .1-.12.11-.21.1h-1.81c-.08 0-.17 0-.2-.1h-.06a2.83 2.83 0 0 1 0 .29v.28h.07c.05-.25.08-.33.34-.32-.26 0-.25 0-.31.31h-.14v-.3a2.64 2.64 0 0 0 0-.29h.11c0 .09.09.09.18.09h1.83c.1 0 .17 0 .18-.09h.12v.56h-.13c0-.13 0-.32-.24-.32h-.56V24c0 .27.1.29.27.29h.08v.14zM29 24.26c.12 0 .26 0 .26-.2v-1.84c0-.19-.14-.21-.26-.21v-.1h1V22c-.13 0-.26 0-.26.21v1.84c0 .18.13.2.26.2v.1h-1z"/><path class="cls-3" d="M30 24.35v-.08c-.13 0-.27 0-.27-.21v-1.84c0-.2.14-.22.27-.22v-.08h-1.04V22c.12 0 .27 0 .27.22v1.84c0 .19-.15.21-.27.21v.08H30m0 0h-1.07v-.14H29c.12 0 .24 0 .24-.18v-1.81c0-.18-.12-.19-.24-.19v-.14h1.07V22H30c-.13 0-.24 0-.25.19v1.84c0 .17.12.18.25.18h.06v.14zM31.49 24.26c.69 0 .8-.6.8-1.11S32 22 31.43 22s-.79.55-.79 1c0 .63.28 1.23.85 1.23m0-2.4a1.23 1.23 0 0 1 1.35 1.21 1.28 1.28 0 0 1-1.33 1.34 1.24 1.24 0 0 1-1.32-1.26 1.28 1.28 0 0 1 1.3-1.29"/><path class="cls-3" d="M30.62 23c0-.47.19-1 .81-1s.88.63.88 1.15-.12 1.12-.82 1.12c.67 0 .79-.58.79-1.09S32 22 31.43 22s-.78.53-.78 1c0 .63.29 1.21.84 1.21-.58 0-.87-.61-.87-1.24m-.49.12a1.29 1.29 0 0 1 1.31-1.31 1.26 1.26 0 0 0-1.28 1.28 1.23 1.23 0 0 0 1.3 1.25 1.27 1.27 0 0 0 1.31-1.33 1.22 1.22 0 0 0-1.33-1.2 1.25 1.25 0 0 1 1.36 1.23 1.3 1.3 0 0 1-1.34 1.36 1.26 1.26 0 0 1-1.33-1.28M35.16 23.67v-1.33a.29.29 0 0 0-.3-.33h-.08v-.1h.92V22h-.05c-.15 0-.31 0-.31.45v1.6a1.94 1.94 0 0 0 0 .35h-.13l-1.81-2v1.45c0 .3.06.41.33.41h.06v.1h-.94v-.1h.05c.25 0 .32-.17.32-.45v-1.48a.32.32 0 0 0-.32-.32h-.05v-.1h.72z"/><path class="cls-3" d="M35.15 23.66zm0 0zm.07.73h.11V22.45c0-.42.18-.46.33-.46v-.08H34.76V22h.07a.31.31 0 0 1 .32.34v1.33l-1.57-1.77h-.7v.1a.32.32 0 0 1 .33.33v1.48c0 .28-.07.46-.33.46v.08h.9v-.08c-.28 0-.35-.12-.35-.42v-1.49zm.13 0h-.15l-1.78-2v1.41c0 .3 0 .39.32.39h.07v.14h-.94v-.14h.06c.24 0 .3-.15.3-.43v-1.43a.29.29 0 0 0-.3-.3h-.06v-.14h.73l1.55 1.74v-1.3a.27.27 0 0 0-.29-.31h-.1v-.14H35.68V22h-.07c-.14 0-.29 0-.3.43V24.38zM36.78 22.3l-.33 1h.66zm-.51 1.56a1.2 1.2 0 0 0-.08.27c0 .11.15.13.26.13v.1h-.8v-.1A.31.31 0 0 0 36 24l.57-1.61a4.29 4.29 0 0 0 .13-.44 2.44 2.44 0 0 0 .32-.15v.09l.65 1.84a3.82 3.82 0 0 0 .13.36.23.23 0 0 0 .23.14v.1h-1v-.1c.08 0 .22 0 .22-.11a2.14 2.14 0 0 0-.07-.25l-.14-.41h-.8z"/><path class="cls-3" d="M36.77 22.31zm-.3 1h.61l-.3-.94zm0 0l.33-1 .33 1zm.71 1h.99v-.08a.24.24 0 0 1-.25-.15c0-.1-.08-.23-.13-.36l-.64-1.84v-.08a1.61 1.61 0 0 1-.32.14 2.44 2.44 0 0 1-.13.44L36 24a.33.33 0 0 1-.32.24v.08h.78v-.08c-.11 0-.27 0-.27-.14a1.35 1.35 0 0 1 .07-.27l.12-.37h.82l.14.42a1 1 0 0 1 .07.25c0 .11-.15.12-.23.12zm1 0h-1.01v-.14h.06c.08 0 .2 0 .2-.09a1.05 1.05 0 0 0-.07-.24l-.13-.4h-.78l-.11.35a2.17 2.17 0 0 0-.07.27c0 .09.13.11.24.11h.06v.14h-.8v-.14A.29.29 0 0 0 36 24l.56-1.61a3.36 3.36 0 0 0 .14-.39 1.19 1.19 0 0 0 .32-.15v.08l.64 1.84c0 .13.09.26.13.36a.21.21 0 0 0 .22.13v.14zM39 24c0 .14.09.18.21.19a1.77 1.77 0 0 0 .46 0A.5.5 0 0 0 40 24a1 1 0 0 0 .11-.26h.1c0 .2-.09.4-.13.6h-1.82v-.1h.05c.13 0 .27 0 .27-.24v-1.8c0-.19-.14-.21-.27-.21h-.05v-.1h1.09V22h-.08c-.14 0-.24 0-.24.19z"/><path class="cls-3" d="M40.11 24.35l.12-.57h-.07a.68.68 0 0 1-.11.25.5.5 0 0 1-.35.19h-.46c-.12 0-.23-.06-.23-.21V22.2c0-.19.12-.2.26-.2h.07v-.08h-1.06V22c.13 0 .28 0 .28.21V24c0 .23-.15.25-.28.25v.08h1.83m0 0h-1.86v-.14h.06c.13 0 .25 0 .25-.22v-1.76c0-.17-.12-.18-.25-.18h-.06v-.14h1.09V22h-.1c-.14 0-.23 0-.23.17V24c0 .13.09.16.2.18h.46A.49.49 0 0 0 40 24a.87.87 0 0 0 .1-.25h.14c0 .2-.08.39-.13.6zM40.15 22.18c.05 0 .07 0 .07-.09s0-.08-.07-.08zm-.13.2h.06v-.27s0-.05-.06-.05h.19c.07 0 .13 0 .13.1a.12.12 0 0 1-.09.11l.06.09a.59.59 0 0 0 .08.08h-.07l-.13-.17v.12h.05zm.19.1a.3.3 0 1 0-.3-.3.3.3 0 0 0 .3.3m0-.67a.37.37 0 1 1-.37.37.36.36 0 0 1 .37-.37"/><path class="cls-1" d="M18.26 9.5a5.95 5.95 0 1 1 5.95 5.95 6 6 0 0 1-5.95-5.95z"/><path d="M24.22 15.56A6.18 6.18 0 0 1 18 9.45a6.08 6.08 0 0 1 6.22-6.22h1.6a6.29 6.29 0 0 1 6.44 6.22 6.41 6.41 0 0 1-6.44 6.11zm0-11.82a5.65 5.65 0 1 0 5.64 5.65 5.64 5.64 0 0 0-5.63-5.65zm-1.28 9V6.05a3.57 3.57 0 0 0 0 6.67zm4.86-3.33a3.57 3.57 0 0 0-2.3-3.34v6.67a3.57 3.57 0 0 0 2.31-3.35z" fill="#0069aa"/></g></svg>