<?xml version="1.0" encoding="UTF-8"?>
<svg width="50px" height="28px" viewBox="0 0 50 28" version="1.1" xmlns="http://www.w3.org/2000/svg" xmlns:xlink="http://www.w3.org/1999/xlink">
    <title>klarna_pink</title>
    <g id="Page-1" stroke="none" stroke-width="1" fill="none" fill-rule="evenodd">
        <g id="klarna_pink" transform="translate(0.000000, 0.000000)" fill-rule="nonzero">
            <rect id="Rectangle" fill="#FFB3C7" x="2.52637417e-13" y="0" width="50" height="27.7777778" rx="4.321"></rect>
            <g id="Group" transform="translate(4.904370, 9.333376)" fill="#0A0B09">
                <path d="M40.4218518,6.940291 C39.7676851,6.940291 39.2374073,7.47537989 39.2374073,8.13551322 C39.2374073,8.79551322 39.7676851,9.33073544 40.4218518,9.33073544 C41.0760073,9.33073544 41.6064073,8.79554656 41.6064073,8.13551322 C41.6064073,7.47533544 41.0760296,6.940291 40.4218518,6.940291 Z M36.5248518,6.01622433 C36.5248518,5.11246878 35.7593296,4.38000211 34.8149629,4.38000211 C33.8705962,4.38000211 33.1049629,5.11250211 33.1049629,6.01622433 C33.1049629,6.919991 33.8704962,7.65266878 34.8149629,7.65266878 C35.7594296,7.65266878 36.5248518,6.919991 36.5248518,6.01622433 Z M36.5312016,2.83600211 L38.4183127,2.83600211 L38.4183127,9.19622433 L36.5312016,9.19622433 L36.5312016,8.78973544 C35.9980682,9.15662433 35.3545349,9.37230211 34.6604238,9.37230211 C32.823646,9.37230211 31.3345349,7.86974656 31.3345349,6.016191 C31.3345349,4.16263544 32.823646,2.660191 34.6604238,2.660191 C35.3545349,2.660191 35.9980904,2.87585767 36.5312016,3.24285767 L36.5312016,2.83597989 L36.5312016,2.83600211 Z M21.4289793,3.66446878 L21.4289793,2.836091 L19.4968682,2.836091 L19.4968682,9.19620211 L21.4333127,9.19620211 L21.4333127,6.22675767 C21.4333127,5.22490211 22.5094127,4.68642433 23.2560904,4.68642433 C23.2637369,4.68642433 23.2708749,4.68716623 23.2785216,4.68726067 L23.2785216,2.836594 C22.5121549,2.836594 21.8072993,3.16770511 21.428966,3.664594 L21.4289793,3.66446878 Z M16.6160904,6.01624656 C16.6160904,5.112491 15.8504793,4.38002433 14.9060904,4.38002433 C13.961746,4.38002433 13.1960904,5.11252433 13.1960904,6.01624656 C13.1960904,6.92001322 13.9617016,7.652691 14.9060904,7.652691 C15.8505127,7.652691 16.6160904,6.92001322 16.6160904,6.01624656 Z M16.6223333,2.83602433 L18.5095556,2.83602433 L18.5095556,9.19624656 L16.6223333,9.19624656 L16.6223333,8.78975767 C16.0892,9.15664656 15.4456667,9.37232433 14.7516667,9.37232433 C12.9147778,9.37232433 11.4256667,7.86976878 11.4256667,6.01621322 C11.4256667,4.16265767 12.9147778,2.66021322 14.7516667,2.66021322 C15.4457111,2.66021322 16.0892222,2.87587989 16.6223333,3.24287989 L16.6223333,2.83600211 L16.6223333,2.83602433 Z M27.9812222,2.66495767 C27.2273778,2.66495767 26.5138889,2.90112433 26.0368889,3.55267989 L26.0368889,2.83640211 L24.1578889,2.83640211 L24.1578889,9.196291 L26.06,9.196291 L26.06,5.85395767 C26.06,4.88677989 26.7027444,4.41317989 27.4766667,4.41317989 C28.3060667,4.41317989 28.7828889,4.91313544 28.7828889,5.84084656 L28.7828889,9.196291 L30.6677778,9.196291 L30.6677778,5.15173544 C30.6677778,3.67162433 29.5015556,2.66506878 27.9812222,2.66506878 L27.9812222,2.66495767 Z M8.67677778,9.196291 L10.652,9.196291 L10.652,0.00173544444 L8.67677778,0.00173544444 L8.67677778,9.196291 L8.67677778,9.196291 Z M9.86864911e-16,9.1988 L2.09155556,9.1988 L2.09155556,2.22222222e-05 L9.86864911e-16,2.22222222e-05 L9.86864911e-16,9.1988 Z M7.31555556,-4.93432455e-16 C7.31555556,1.99146667 6.54645556,3.84402222 5.176,5.22102222 L8.06711111,9.19913333 L5.48377778,9.19913333 L2.34177778,4.8758 L3.15267778,4.263 C4.49745556,3.24651111 5.26878889,1.69277778 5.26878889,-4.93432455e-16 L7.31556667,-4.93432455e-16 L7.31555556,-4.93432455e-16 Z" id="Shape"></path>
            </g>
        </g>
    </g>
</svg>