<svg id="图层_1" data-name="图层 1" xmlns="http://www.w3.org/2000/svg" viewBox="0 0 84.73 40"><defs><style>.cls-1{fill:#fff;}</style></defs><path class="cls-1" d="M26.41,11.61c-.33.3-.65.59-1,.9a7.14,7.14,0,0,0-2.28,3.85,7.24,7.24,0,0,0,1.33,5.88,5.82,5.82,0,0,0,2.46,2l.39.15c-.13.36-.25.72-.4,1.07a18.75,18.75,0,0,1-3.42,5.56,8.11,8.11,0,0,1-.92.84,3.88,3.88,0,0,1-3.69.82l-2.05-.63a7.51,7.51,0,0,0-2.16-.41,7,7,0,0,0-2.62.56,17.3,17.3,0,0,1-2,.65,3.57,3.57,0,0,1-2.87-.67A8.41,8.41,0,0,1,5.07,30a22.79,22.79,0,0,1-3.36-7,16.28,16.28,0,0,1-.45-6.87,9.82,9.82,0,0,1,2.51-5.43,6.3,6.3,0,0,1,5.49-2,16.88,16.88,0,0,1,3.13.71c.43.13.86.22,1.3.33a3.35,3.35,0,0,0,1.83-.09L18,8.82a8,8,0,0,1,3.82-.23A7.24,7.24,0,0,1,26,11.08l.42.47S26.39,11.59,26.41,11.61Z" transform="translate(-1.08 -1.3)"/><path class="cls-1" d="M20.11,1.3a9.74,9.74,0,0,1,.05,1.06A7.54,7.54,0,0,1,18,7.17a5.69,5.69,0,0,1-2,1.46A7.21,7.21,0,0,1,13.89,9l0,0C14,4.83,16.06,2.14,20.11,1.3Z" transform="translate(-1.08 -1.3)"/><path class="cls-1" d="M35.35,6.25A39.35,39.35,0,0,1,42,5.73c3.4,0,5.89.79,7.47,2.22a7.16,7.16,0,0,1,2.33,5.57,7.81,7.81,0,0,1-2.06,5.69c-1.81,1.94-4.78,2.93-8.14,2.93a11.63,11.63,0,0,1-2.76-.24V32.57H35.35Zm3.44,12.84a11.33,11.33,0,0,0,2.84.28c4.15,0,6.68-2,6.68-5.69,0-3.52-2.49-5.22-6.28-5.22a14.18,14.18,0,0,0-3.24.28Z" transform="translate(-1.08 -1.3)"/><path class="cls-1" d="M64.16,32.57l-.28-2.41h-.12A7.13,7.13,0,0,1,57.91,33a5.45,5.45,0,0,1-5.85-5.49c0-4.62,4.11-7.15,11.5-7.11V20c0-1.58-.43-4.43-4.35-4.43a9.51,9.51,0,0,0-5,1.43l-.8-2.3A12,12,0,0,1,59.73,13C65.58,13,67,17,67,20.83V28a26.73,26.73,0,0,0,.32,4.59Zm-.52-9.76c-3.79-.08-8.1.59-8.1,4.3a3.07,3.07,0,0,0,3.28,3.32,4.75,4.75,0,0,0,4.62-3.2,3.55,3.55,0,0,0,.2-1.1Z" transform="translate(-1.08 -1.3)"/><path class="cls-1" d="M71.62,13.44l4.19,11.3c.43,1.27.91,2.77,1.23,3.92h.07c.36-1.15.76-2.61,1.23-4l3.79-11.22h3.68L80.59,27.08C78.1,33.64,76.4,37,74,39.05a9.35,9.35,0,0,1-4.27,2.25l-.87-2.92a9.3,9.3,0,0,0,3-1.7,10.57,10.57,0,0,0,2.92-3.87,2.56,2.56,0,0,0,.28-.83,3,3,0,0,0-.24-.91L67.83,13.44Z" transform="translate(-1.08 -1.3)"/></svg>