<svg id="WebMoney" xmlns="http://www.w3.org/2000/svg" viewBox="0 0 50 28"><defs><style>.cls-2{fill:#fff;fill-rule:evenodd}</style></defs><rect width="50" height="28" rx="4" ry="4" fill="#135eab"/><path class="cls-2" d="M8.67 7.86a5.71 5.71 0 0 1 2.54.59l.36.19-.57.47-.79-.82-1.32 1.2-.8-.87-2.52 2.26 1.61 1.78-.63.55L8.14 15l-.63.55 2.27 2.53 1.34-1.24 1.16 1.33a6.25 6.25 0 0 1-.76.5 5.72 5.72 0 0 1-2.85.76 5.78 5.78 0 0 1 0-11.56z"/><path class="cls-2" d="M7.62 13.27L9 12.04l1.23 1.37-1.37 1.24-1.24-1.38zM8.6 15.65l1.37-1.24 1.24 1.38-1.37 1.23-1.24-1.37zM6.64 10.93l1.37-1.24 1.24 1.38-1.37 1.23-1.24-1.37zM9.16 10.26l1.03-.92.93 1.03-1.03.92-.93-1.03zM10.99 14.51l1.03-.93.93 1.03-1.03.93-.93-1.03zM11.9 16.59l1.03-.93.92 1.04-1.03.92-.92-1.03zM12.31 11.82l.69-.61.62.68-.69.62-.62-.69zM11.43 9.78l.69-.62.62.69-.69.62-.62-.69zM13.19 13.86l.69-.62.61.69-.68.62-.62-.69zM10.11 12.34l1.03-.93.93 1.03-1.03.93-.93-1.03zM30.36 11.42a1.17 1.17 0 0 0-.82-.3 1.2 1.2 0 0 0-1.23 1.32v3.78H29v-3.78c0-.53.37-.58.49-.58a.5.5 0 0 1 .32.11.62.62 0 0 1 .16.47v3.78h.75v-3.78c0-.53.36-.58.48-.58a.48.48 0 0 1 .32.11.63.63 0 0 1 .17.47v3.78h.74v-3.78a1.37 1.37 0 0 0-.37-1 1.23 1.23 0 0 0-.86-.32 1.21 1.21 0 0 0-.84.3zM35.78 12.86a1.7 1.7 0 0 0-1.22-.48 1.64 1.64 0 0 0-1.19.48 2.16 2.16 0 0 0-.47 1.48 2.13 2.13 0 0 0 .47 1.46 1.61 1.61 0 0 0 1.19.49 1.66 1.66 0 0 0 1.22-.49 2.12 2.12 0 0 0 .46-1.46 2.15 2.15 0 0 0-.46-1.48zm-.29 1.64a1.43 1.43 0 0 1-.27 1 .89.89 0 0 1-.66.25.84.84 0 0 1-.63-.25 1.43 1.43 0 0 1-.27-1v-.33a1.42 1.42 0 0 1 .27-1 .81.81 0 0 1 .63-.26.85.85 0 0 1 .66.26 1.42 1.42 0 0 1 .27 1zM36.85 12.44h.63v.34a1.85 1.85 0 0 1 .52-.28 1.31 1.31 0 0 1 .61-.12 1.14 1.14 0 0 1 .93.37 1.44 1.44 0 0 1 .31.95v2.51h-.69v-2.56a.68.68 0 0 0-.71-.78 1.4 1.4 0 0 0-.93.39v3h-.68v-3.82zM43.23 15.48a3.12 3.12 0 0 1-.44.17 1.69 1.69 0 0 1-.58.1 1 1 0 0 1-1.12-1.15v-.1h2.32v-.17a2 2 0 0 0-.4-1.5 1.43 1.43 0 0 0-1.09-.45 1.55 1.55 0 0 0-1.16.49 2.15 2.15 0 0 0-.43 1.4 2.27 2.27 0 0 0 .45 1.48 1.7 1.7 0 0 0 1.32.54 2.33 2.33 0 0 0 .88-.15 4 4 0 0 0 .46-.22l-.21-.44zm-2.14-1.56a1.22 1.22 0 0 1 .24-.8.8.8 0 0 1 1.1-.06 1 1 0 0 1 .25.78V14h-1.59zM47.14 12.45l-1.48 4.44a2 2 0 0 1-.35.7 1 1 0 0 1-.75.31 1.18 1.18 0 0 1-.59-.15 1.56 1.56 0 0 1-.31-.23l.32-.41.2.15a.7.7 0 0 0 .35.09.47.47 0 0 0 .4-.19 1.94 1.94 0 0 0 .2-.46l.09-.3-1.58-3.95h.74l.95 2.36a4.29 4.29 0 0 1 .21.67 6.89 6.89 0 0 1 .27-.88l.67-2.15zM18.16 16a1.24 1.24 0 0 0 2.05-1v-3.81h-.75V15c0 .54-.37.57-.47.57a.47.47 0 0 1-.33-.1.61.61 0 0 1-.16-.47v-3.81h-.75V15c0 .54-.37.57-.49.57a.45.45 0 0 1-.31-.1.61.61 0 0 1-.16-.47v-3.81h-.69V15a1.34 1.34 0 0 0 .36 1 1.21 1.21 0 0 0 .86.34 1.27 1.27 0 0 0 .84-.34zM23.73 15.48a3.86 3.86 0 0 1-.43.17 1.69 1.69 0 0 1-.58.1 1.16 1.16 0 0 1-.85-.31 1.21 1.21 0 0 1-.26-.84v-.1h2.3v-.17a2 2 0 0 0-.39-1.5 1.47 1.47 0 0 0-1.1-.44 1.53 1.53 0 0 0-1.13.48 2.08 2.08 0 0 0-.44 1.4 2.22 2.22 0 0 0 .45 1.48 1.72 1.72 0 0 0 1.31.54 2.61 2.61 0 0 0 .88-.16 2.7 2.7 0 0 0 .45-.22l-.21-.43zm-2.12-1.56a1.13 1.13 0 0 1 .25-.8.71.71 0 0 1 .56-.25.72.72 0 0 1 .52.2.94.94 0 0 1 .25.78V14h-1.58zM27.11 12.77a1.58 1.58 0 0 0-1-.38 3.23 3.23 0 0 0-.49 0l-.36.13V11.1h-.68v4.79a2.71 2.71 0 0 0 1.41.4 1.57 1.57 0 0 0 1.32-.59 2.32 2.32 0 0 0 .38-1.38 2 2 0 0 0-.55-1.55zm-1.16.1a1 1 0 0 1 .72.27 1.41 1.41 0 0 1 .24 1v.33a1.72 1.72 0 0 1-.21 1 .87.87 0 0 1-.72.31 2.13 2.13 0 0 1-.44-.07l-.31-.15V13.1"/></svg>