<svg xmlns="http://www.w3.org/2000/svg" xmlns:xlink="http://www.w3.org/1999/xlink" width="54" height="50" viewBox="0 0 54 50"><title>icon_LL_junior</title><defs><path id="a" d="M4.129 4.15C.557 7.573 0 12.861 0 25c0 12.139.557 17.43 4.129 20.854C7.7 49.277 15.288 50 24.998 50c9.711 0 17.301-.723 20.872-4.146C49.443 42.43 50 37.139 50 25s-.557-17.427-4.13-20.85C42.299.728 34.709 0 24.998 0 15.288 0 7.7.728 4.129 4.15zM52.547 1l-.333.947-.202.63h-.034l-.192-.63L51.445 1H50.5v3h.77v-.917l-.097-1.099h.035l.49 1.577h.595l.499-1.577h.035l-.097 1.099V4h.77V1h-.953zM12.719 26c1.306.625 2.744 1 4.281 1 1.537 0 2.981-.375 4.281-1h.519c3.975 0 7.2 3.225 7.2 7.2V35a3 3 0 0 1-3 3H8a3 3 0 0 1-3-3v-1.8c0-3.975 3.225-7.2 7.2-7.2zm20.117 0c.896.3 1.844.5 2.85.5 1.005 0 1.953-.2 2.849-.5h.245c3.99 0 7.22 3.131 7.22 7 0 1.656-1.386 3-3.094 3H31.52c.006-.131.038-.263.038-.4v-2.4c0-2.413-.986-4.594-2.559-6.237 1.064-.594 2.276-.963 3.59-.963zM17 10c3.869 0 7 3.131 7 7s-3.131 7-7 7-7-3.131-7-7 3.131-7 7-7zm19 2c3.313 0 6 2.688 6 6 0 3.313-2.688 6-6 6-3.313 0-6-2.688-6-6 0-3.313 2.688-6 6-6zM50 1v.831h-.97V4h-1.06V1.831H47V1h3z"/></defs><g fill="none" fill-rule="evenodd"><mask id="b" fill="#fff"><use xlink:href="#a"/></mask><g fill="#1955AA" fill-rule="nonzero" mask="url(#b)"><path d="M-38-39H89V88H-38z"/></g></g></svg>