<svg xmlns="http://www.w3.org/2000/svg" xmlns:xlink="http://www.w3.org/1999/xlink" width="54" height="50" viewBox="0 0 54 50"><title>icon_LL_junior</title><defs><path id="a" d="M4.129 4.15C.557 7.573 0 12.861 0 25c0 12.139.557 17.43 4.129 20.854C7.7 49.277 15.288 50 24.998 50c9.711 0 17.301-.723 20.872-4.146C49.443 42.43 50 37.139 50 25s-.557-17.427-4.13-20.85C42.299.728 34.709 0 24.998 0 15.288 0 7.7.728 4.129 4.15zM52.547 1l-.333.947-.202.63h-.034l-.192-.63L51.445 1H50.5v3h.77v-.917l-.097-1.099h.035l.49 1.577h.595l.499-1.577h.035l-.097 1.099V4h.77V1h-.953zM19.394 15l.016.002a1.684 1.684 0 0 1 1.38.712l.085.13 4.938 8.534 4.448-7.687c.257-.444.755-.77 1.169-.826l.12-.008h5.026c.394 0 .904.285 1.206.704l.084.13 5.904 10.202c.47.811.197 1.852-.609 2.325a1.686 1.686 0 0 1-2.226-.483l-.084-.13-2.53-4.373v15.051c0 1.013-.834 1.83-1.848 1.794-.915-.033-1.638-.779-1.711-1.684l-.007-.153v-9.063a.706.706 0 0 0-.75-.707.718.718 0 0 0-.65.63l-.008.102.024 9.081c0 .991-.798 1.795-1.782 1.795H31.571a1.788 1.788 0 0 1-1.783-1.647l-.006-.148.024-15.05-2.53 4.372a1.686 1.686 0 0 1-2.31.613c-.383-.225-.933-1.16-1.08-1.414l-.026-.045-2.569-4.439v1.865l1.166 8.455c.092.67-.39 1.272-1.041 1.341l-.125.007v5.217c0 1.013-.833 1.83-1.847 1.794-.915-.033-1.638-.779-1.711-1.684l-.007-.153v-5.174h-1.408v5.217c0 1.013-.833 1.83-1.848 1.794-.914-.033-1.637-.779-1.71-1.684l-.007-.153v-5.174a1.181 1.181 0 0 1-1.176-1.223l.01-.125 1.166-8.455V23.26l-2.604 4.5a1.687 1.687 0 0 1-2.31.613 1.707 1.707 0 0 1-.68-2.188l.07-.137 5.905-10.202a1.684 1.684 0 0 1 1.464-.843l.016-.002h4.78zM34 7a4 4 0 1 1 0 8 4 4 0 0 1 0-8zM18 7c1.456 0 2.717.879 3.344 2.164.796-.154 2.029-.143 3.025.973.675.755.698 2.659.57 3.927-.05.485-.43.848-.878.86l-.104-.004-.932-.088c-.536-.05-.913-.583-.809-1.143.16-.857.216-2.046-.454-2.782l.002.093c0 2.209-1.685 4-3.764 4-2.014 0-3.659-1.681-3.76-3.794L14.235 11l.003-.093c-.67.735-.615 1.925-.455 2.782.098.523-.224 1.022-.703 1.127l-.105.016-.932.088c-.493.047-.93-.334-.982-.856-.128-1.268-.105-3.172.57-3.927.996-1.116 2.229-1.127 3.025-.973C15.282 7.879 16.544 7 18 7zm32-6v.831h-.97V4h-1.06V1.831H47V1h3z"/></defs><g fill="none" fill-rule="evenodd"><mask id="b" fill="#fff"><use xlink:href="#a"/></mask><g fill="#1955AA" fill-rule="nonzero" mask="url(#b)"><path d="M-38-39H89V88H-38z"/></g></g></svg>