<svg xmlns="http://www.w3.org/2000/svg" xmlns:xlink="http://www.w3.org/1999/xlink" width="50" height="28" viewBox="0 0 50 28"><defs><path id="a" d="M4 27.5C2.1 27.5.5 25.9.5 24V4C.5 2.1 2.1.5 4 .5h42c1.9 0 3.5 1.6 3.5 3.5v20c0 1.9-1.6 3.5-3.5 3.5z"/><mask id="b" fill="#fff"><use fill-rule="evenodd" xlink:href="#a"/></mask></defs><g fill="none"><use fill="#fff" stroke="#e0e1dd" xlink:href="#a"/><path fill="#e0e1dd" d="M46 1c1.7 0 3 1.3 3 3v20c0 1.7-1.3 3-3 3H4c-1.7 0-3-1.3-3-3V4c0-1.7 1.3-3 3-3zm0-1H4C1.8 0 0 1.8 0 4v20c0 2.2 1.8 4 4 4h42c2.2 0 4-1.8 4-4V4c0-2.2-1.8-4-4-4z" mask="url(#b)"/><g fill="#1a1a1a"><path d="M11.53 24l.952-9.38h1.12l.98 9.38h4.172l1.064-9.38h1.96v-1.708h-1.792l1.036-9.1h-3.36l-.616 9.1h-1.428l-.896-7.84H11.53l-.868 7.84H9.29l-.616-9.1H5.006l1.12 9.128-1.932.14v1.54h2.128L7.47 24zm1.904-11.088h-.84l.336-4.9h.14zm-3.556 8.176h-.112l-.224-4.592-.14-1.876h1.064l-.196 1.876zm6.692 0h-.112l-.42-4.592-.224-1.876h1.12l-.112 1.876zM34.364 12.056v-.804H29.96V9.224h3.444v-.792H26.78v-1.74h6.372V3.416h-7.368v.804h6.408V5.9h-6.384v3.324h3.156v2.028h-4.38v.804zm10.14-3.864V2.624h-.996v2.592h-2.316v.792h2.316v2.184zm-8.208.348c3.336-.876 4.872-2.688 4.872-5.388h-4.74v.78h3.72c-.036.372-.12.72-.24 1.056l-3.996.18.144.78 3.468-.264c-.648.924-1.8 1.656-3.588 2.1zm8.568 4.704v-.78h-6.3v-1.188h5.94V8.684h-6.936v.78h5.964v1.08h-5.94v2.7zM32.876 25.388v-5.58h1.728v-.816h-1.728v-4.368h-.984v10.764zm-7.644-1.764c3.852-1.92 4.908-4.764 4.908-7.884h-4.86v.804h3.876c-.036.66-.144 1.284-.324 1.884l-4.092.276.168.864 3.624-.348c-.66 1.44-1.848 2.664-3.84 3.648zm19.032-3.036v-.804h-6.42v-3.36h6.312v-.816h-7.284v4.98zm1.128 3.348v-.816h-9.768v.816z"/></g></g></svg>