<svg xmlns="http://www.w3.org/2000/svg" xmlns:xlink="http://www.w3.org/1999/xlink" width="50" height="28" viewBox="0 0 50 28"><title>icon_JP_MiniStop</title><defs><path id="a" d="M0 .018h27.907V18.43H0z"/></defs><g fill="none" fill-rule="evenodd"><rect width="49" height="27" x=".5" y=".5" fill="#FFF" stroke="#E4E4E4" rx="4"/><g transform="translate(11 5.337)"><mask id="b" fill="#fff"><use xlink:href="#a"/></mask><path fill="#FEFEFE" d="M2.762 10.615a.04.04 0 0 0-.04-.04H1.346A1.348 1.348 0 0 1 0 9.228c0-.36.12-.724.394-.998L7.908.413a1.35 1.35 0 0 1 1.909 0l1.75 1.702 3.538-.006C15.34.661 17.237.021 18.517.021a4.535 4.535 0 0 1 4.42 3.523c.008.035.017.07.022.106a.06.06 0 0 0 .03.043 5.401 5.401 0 0 1 2.784 4.302c.003.023.013.043.032.053l.035.02a4.258 4.258 0 0 1-.563 7.586.039.039 0 0 0-.025.037v1.392c0 .744-.603 1.347-1.347 1.347H4.111a1.347 1.347 0 0 1-1.347-1.347l-.002-6.468z" mask="url(#b)"/></g><path fill="#16479D" d="M24.548 15.612a.866.866 0 00.867-.866v-3.154a.866.866 0 00-1.733 0v3.154c0 .478.388.866.866.866M31.368 15.612a.866.866 0 00.867-.866v-3.154a.866.866 0 00-1.733 0v3.154c0 .478.388.866.866.866M21.766 17.609a.048.048 0 00-.048-.048h-.227a.724.724 0 110-1.45h2.044a.724.724 0 110 1.45h-.117a.048.048 0 00-.048.048l-.001 2.58a.8.8 0 01-1.602 0l-.001-2.58zM29.11 10.726a.835.835 0 00-.835.835l-.008.614v-.004a.017.017 0 01-.032.01l-.746-1.081a.834.834 0 00-1.522.476v3.192a.835.835 0 101.67 0l.01-.627v.002c0-.01.008-.018.017-.018.006 0 .011.003.014.007l.73 1.074a.835.835 0 001.537-.453V11.56a.835.835 0 00-.835-.835M22.269 10.726a.862.862 0 00-.666.313v-.002l-.928 1.053s-.011.024-.035.024c-.024 0-.044-.024-.044-.024l-.943-1.044a.863.863 0 00-1.535.544v3.181a.835.835 0 001.67 0l.021-1.144a.025.025 0 01.025-.023c.006 0 .013.003.017.007l.75.839s.02.03.046.03.045-.03.045-.03l.706-.854a.024.024 0 01.017-.007c.015 0 .026.01.026.025l.02 1.157a.835.835 0 101.672 0V11.59a.864.864 0 00-.864-.864M31.473 16.112h-1.64a.5.5 0 00-.501.5l.003 3.539a.84.84 0 101.68 0v-.821c0-.014.01-.025.025-.025h.38c1.173 0 1.734-.792 1.734-1.58 0-.89-.753-1.613-1.68-1.613m-.003 1.992h-.432a.025.025 0 01-.025-.025v-.71c0-.013.011-.024.025-.024h.432a.38.38 0 110 .76"/><path fill="#16479D" d="M34.867 14.85h.003a2.263 2.263 0 0 1 2.043 2.244 2.244 2.244 0 0 1-1.98 2.222.77.77 0 0 0-.686.762v1.621a.062.062 0 0 1-.062.062H15.833a.062.062 0 0 1-.062-.062l-.002-7.092a.71.71 0 0 0-.71-.71h-1.092a.027.027 0 0 1-.02-.047l5.9-6.11a.027.027 0 0 1 .039 0l1.788 1.72a.708.708 0 0 0 .97 0 .689.689 0 0 0-.001-.972l-2.296-2.235a.687.687 0 0 0-.97 0L11.8 14.111a.712.712 0 0 0-.164.455c0 .392.331.698.71.698h1.993c.034 0 .061.028.061.062v7.094c0 .392.318.71.71.71h19.796a.71.71 0 0 0 .71-.71v-1.818c0-.018.012-.033.029-.038a3.61 3.61 0 0 0 .614-6.7l-.07-.036a.073.073 0 0 1-.044-.067 4.754 4.754 0 0 0-2.716-4.256c-.025-.012-.04-.038-.043-.067a3.902 3.902 0 0 0-6.191-2.646.694.694 0 0 0-.17.957c.217.312.656.4.958.17a2.528 2.528 0 0 1 3.793.88c.17.34.322.822.322 1.634 0 .03.02.055.048.06.045.01.088.022.132.034a3.4 3.4 0 0 1 2.446 2.726c.029.178.088.656.088 1.536a.06.06 0 0 0 .054.061"/><path fill="#16479D" d="M20.707 19.455c0 .91-.737 1.647-1.647 1.647a1.96 1.96 0 01-1.491-.65.684.684 0 01-.178-.469.7.7 0 01.7-.7c.152 0 .343.075.44.127.05.027.298.197.4.197a.138.138 0 00.139-.138c0-.1-.136-.185-.198-.217-.703-.351-1.35-.83-1.35-1.705 0-.874.63-1.564 1.622-1.564.534 0 1.002.24 1.337.605a.62.62 0 01-.458 1.037c-.235 0-.547-.194-.575-.209-.083-.045-.118-.087-.2-.087a.147.147 0 00-.147.147c0 .11.13.201.439.352.849.416 1.167 1.015 1.167 1.627M26.459 15.992c-1.39 0-2.515 1.14-2.515 2.547 0 1.408 1.126 2.548 2.515 2.548 1.388 0 2.514-1.14 2.514-2.548 0-1.406-1.126-2.547-2.514-2.547m-.001 3.538a.99.99 0 110-1.98.99.99 0 010 1.98"/></g></svg>