<svg xmlns="http://www.w3.org/2000/svg" viewBox="0 0 50 28"><defs><style>.cls-1{fill:#fff;}.cls-2{fill:#dfe1dd;}.cls-3{fill:#7673c0;}.cls-4{fill:#eb001b;}.cls-5{fill:#00a1df;}</style></defs><title>Maestro_50x28</title><g id="border"><rect class="cls-1" x="0.5" y="0.5" width="49" height="27" rx="3.5" ry="3.5"/><path class="cls-2" d="M46,1a3,3,0,0,1,3,3V24a3,3,0,0,1-3,3H4a3,3,0,0,1-3-3V4A3,3,0,0,1,4,1H46m0-1H4A4,4,0,0,0,0,4V24a4,4,0,0,0,4,4H46a4,4,0,0,0,4-4V4a4,4,0,0,0-4-4Z"/></g><g id="Maestro"><path d="M19.52,24.67V23.24a.93.93,0,0,0-1.69-.5.85.85,0,0,0-.76-.4.75.75,0,0,0-.66.33v-.28h-.5v2.28h.5V23.41A.54.54,0,0,1,17,22.8c.33,0,.49.22.49.6v1.27H18V23.41a.54.54,0,0,1,.56-.61c.34,0,.5.22.5.6v1.27Zm2.78-1.14V22.39h-.49v.28a.86.86,0,0,0-.72-.33,1.19,1.19,0,0,0,0,2.38.89.89,0,0,0,.72-.33v.28h.49Zm-1.84,0a.69.69,0,1,1,.69.73A.69.69,0,0,1,20.46,23.53Zm12.42-1.2a1.3,1.3,0,0,1,.49.09,1.33,1.33,0,0,1,.39.26,1.23,1.23,0,0,1,.26.37,1.28,1.28,0,0,1,.09.48A1.19,1.19,0,0,1,34,24a1.16,1.16,0,0,1-.26.38,1.14,1.14,0,0,1-.39.25,1.3,1.3,0,0,1-.49.09,1.28,1.28,0,0,1-.48-.09,1.14,1.14,0,0,1-.39-.25,1.16,1.16,0,0,1-.26-.38,1.19,1.19,0,0,1-.09-.47,1.28,1.28,0,0,1,.09-.48,1.23,1.23,0,0,1,.26-.37,1.33,1.33,0,0,1,.39-.26A1.28,1.28,0,0,1,32.88,22.33Zm0,.47a.87.87,0,0,0-.28.05.71.71,0,0,0-.22.15.57.57,0,0,0-.15.23.73.73,0,0,0-.06.3.68.68,0,0,0,.06.29.51.51,0,0,0,.15.23.48.48,0,0,0,.22.15.67.67,0,0,0,.28.06.68.68,0,0,0,.29-.06.54.54,0,0,0,.22-.15.51.51,0,0,0,.15-.23.68.68,0,0,0,.06-.29.73.73,0,0,0-.06-.3.57.57,0,0,0-.15-.23.86.86,0,0,0-.22-.15A.88.88,0,0,0,32.88,22.8ZM25,23.53a1.08,1.08,0,0,0-1.07-1.19,1.11,1.11,0,0,0-1.14,1.19A1.12,1.12,0,0,0,24,24.72a1.35,1.35,0,0,0,.93-.32L24.64,24a1.09,1.09,0,0,1-.66.24.63.63,0,0,1-.68-.56H25A1.15,1.15,0,0,0,25,23.53Zm-1.69-.2a.58.58,0,0,1,.61-.55.56.56,0,0,1,.57.55ZM27.08,23a1.55,1.55,0,0,0-.71-.19c-.27,0-.43.1-.43.26s.17.2.38.23l.23,0c.5.07.8.28.8.68s-.38.74-1,.74a1.62,1.62,0,0,1-1-.29l.23-.39a1.2,1.2,0,0,0,.76.24c.33,0,.51-.1.51-.28s-.12-.2-.4-.23l-.23,0c-.51-.07-.78-.3-.78-.67s.37-.72.94-.72a1.78,1.78,0,0,1,.93.23Zm2.37-.13h-.81v1c0,.23.09.38.33.38a.88.88,0,0,0,.44-.13l.14.43a1.13,1.13,0,0,1-.62.17c-.58,0-.78-.31-.78-.84v-1h-.47v-.45h.47V21.7h.49v.69h.81Zm1.71-.5a.94.94,0,0,1,.36.06l-.16.46a.84.84,0,0,0-.31-.05c-.32,0-.48.21-.48.58v1.28h-.49V22.39h.48v.28a.68.68,0,0,1,.6-.33Zm3.43,2,.09,0,.07,0a.18.18,0,0,1,0,.07.21.21,0,0,1,0,.18l0,.07-.07.05-.09,0-.09,0-.08-.05-.05-.07a.41.41,0,0,1,0-.18l.05-.07.08,0Zm0,.41.07,0,.05,0a.1.1,0,0,0,0-.05.17.17,0,0,0,0-.07.15.15,0,0,0,0-.07l0-.06-.05,0-.07,0-.07,0-.06,0,0,.06a.15.15,0,0,0,0,.07.17.17,0,0,0,0,.07l0,.05.06,0Zm0-.29a.08.08,0,0,1,.06,0s0,0,0,.05,0,0,0,0l-.05,0,.07.08h-.06l-.06-.08h0v.08h0v-.21Zm-.05,0v.06h.08s0,0,0,0,0,0,0,0h-.08Z"/><g id="_Group_" data-name="&lt;Group&gt;"><path d="M38.05,17.1v-.28h.11v-.06h-.28v.06H38v.28Zm.55,0v-.34h-.09l-.1.23-.1-.23h-.08v.34h.06v-.25l.09.21h.06l.1-.22v.26Z"/><path class="cls-3" d="M28.27,11.79A8.56,8.56,0,0,0,25,5.05a8.57,8.57,0,0,0,0,13.47A8.55,8.55,0,0,0,28.27,11.79Z"/><path class="cls-4" d="M21.73,11.79A8.56,8.56,0,0,1,25,5.05a8.58,8.58,0,1,0,0,13.47A8.55,8.55,0,0,1,21.73,11.79Z"/><path class="cls-5" d="M30.3,3.21A8.54,8.54,0,0,0,25,5.05a8.57,8.57,0,0,1,0,13.47A8.57,8.57,0,1,0,30.3,3.21Z"/></g></g></svg>