<svg xmlns="http://www.w3.org/2000/svg" viewBox="0 0 50 28"><defs><style>.cls-1{fill:#fff}.cls-3{fill:#231f20}.cls-4{fill:#f37721}</style></defs><g id="border"><rect class="cls-1" x=".5" y=".5" width="49" height="27" rx="3.5" ry="3.5"/><path d="M46 1a3 3 0 0 1 3 3v20a3 3 0 0 1-3 3H4a3 3 0 0 1-3-3V4a3 3 0 0 1 3-3h42m0-1H4a4 4 0 0 0-4 4v20a4 4 0 0 0 4 4h42a4 4 0 0 0 4-4V4a4 4 0 0 0-4-4z" fill="#dfe1dd"/></g><g id="Yandex"><path class="cls-3" d="M38.91 14.48H35.4v-3.34h-.53v3.34h-.01v.51h.01v8.53h.53v-8.53h3.51v-.51z"/><path class="cls-4" d="M46.37 12.14H46v5h-6.62a.22.22 0 0 1-.22-.22.22.22 0 0 1 .22-.23h6.19v-5.14a.13.13 0 0 0-.13-.13s-1.72.1-3.44.28a15.53 15.53 0 0 0-2.91.42.67.67 0 0 0-.36.65v4.42a.39.39 0 0 0 .38.39h7.26a.13.13 0 0 0 .13-.13v-5.18a.13.13 0 0 0-.13-.13z"/><path class="cls-1" d="M43.41 15.21h1.68c.58 0 1.41.16 1.41 1.05a1.83 1.83 0 0 0 .2-.53v-1.48c0-.24-.13-.87-1.32-.87h-2l-.34.65a.84.84 0 0 0 0 .43z"/><path class="cls-4" d="M43.41 14.92h2s1.14 0 1.14.72c0 0 .2 0 .2-.2V14c0-.23-.13-.86-1.32-.86h-2l-.34.94zM36.34 14.33h-.76v-.5h-.88v1.81h.88v-.5h.76v-.81z"/><path class="cls-3" d="M4.12 18.54H3.3v-2.05h.59a1.06 1.06 0 0 0 .11-.18l.14-.26a4.09 4.09 0 0 0 .28-.89 7.51 7.51 0 0 0 .12-1.49v-1.1h3.09v3.92h.68v2.05h-.82v-1.35H4.12zm2.69-5.26H5.38a12.77 12.77 0 0 1-.1 2 4.1 4.1 0 0 1-.43 1.25h2zM13.08 16.39c-.1.11-.2.22-.3.31a3 3 0 0 1-.32.24 2 2 0 0 1-.79.3 4 4 0 0 1-.51.06 2.12 2.12 0 0 1-1.69-.71 2.47 2.47 0 0 1-.62-1.67 2.64 2.64 0 0 1 .6-1.75 2 2 0 0 1 1.55-.71 1.69 1.69 0 0 1 1.49.67 2.82 2.82 0 0 1 .55 1.47v.4H9.79v.08a1.69 1.69 0 0 0 .33 1 1.19 1.19 0 0 0 1 .46 1.59 1.59 0 0 0 .45-.05 1.8 1.8 0 0 0 .38-.16 1.86 1.86 0 0 0 .28-.21l.3-.28zm-.93-2.06a1.92 1.92 0 0 0 0-.22 1.53 1.53 0 0 0-.08-.26 1.26 1.26 0 0 0-.35-.46 1 1 0 0 0-.7-.21 1.06 1.06 0 0 0-.75.24 1.43 1.43 0 0 0-.38.73 1.1 1.1 0 0 0 0 .18zM14.91 17.19h-.82v-4.62h.82v1.77h2.15v-1.77h.83v4.62h-.83v-2.14h-2.15v2.14zM20.07 12.57V14h1a1.9 1.9 0 0 1 1.49.45 1.69 1.69 0 0 1 .37 1.09 1.93 1.93 0 0 1-.37 1.2q-.36.48-1.62.48h-1.69v-4.65zm.93 3.91a.92.92 0 0 0 .77-.25 1.06 1.06 0 0 0 .21-.54v-.1a1.12 1.12 0 0 0-.19-.64c-.12-.18-.38-.27-.79-.27h-.91v1.8zM24.7 17.19h-.83v-4.62h2.97v.71H24.7v3.91zM30.65 13.3v-.73h.82v4.62h-.82v-2.86l-2.15 2.18v.68h-.82v-4.62h.82v2.91l2.15-2.18z"/><path class="cls-4" d="M46.03 12.99h.47v3.49h-.47z"/><circle class="cls-1" cx="44.34" cy="13.96" r=".43"/><path class="cls-3" d="M17.65 10.22a.24.24 0 0 1-.21-.15l-.77-1.74.65-1.28a.25.25 0 0 1 .22-.15h.12v-.3h-1.05v.3h.14a.1.1 0 0 1 .11.15l-.41.81-.35-.81s-.06-.15.1-.15h.13v-.3h-1.21v.3h.12a.25.25 0 0 1 .22.15l.66 1.49-.76 1.53a.25.25 0 0 1-.22.15H15v.31h1v-.31h-.18c-.16 0-.1-.15-.1-.15l.6-1.07.48 1.07s.06.15-.1.15h-.16v.31h1.22v-.31h-.11"/><path d="M6.87 4.78h.25v-.3H5.86c-.2 0-1.71 0-1.71 1.45V6a1.49 1.49 0 0 0 .92 1.41.75.75 0 0 0-.44.31 2.84 2.84 0 0 0-.35 1.15c-.07.57-.07 1.1-.27 1.28a.47.47 0 0 1-.33.08v.26a.69.69 0 0 0 .48.07 1.05 1.05 0 0 0 .81-1c.12-.74.09-1.94.78-2.21H6v2.66a.15.15 0 0 1-.16.15h-.27v.31h1.55v-.31h-.25a.15.15 0 0 1-.16-.15V4.93a.15.15 0 0 1 .16-.15zM6 7.11h-.17c-.25 0-1 0-1-1.09v-.44c0-.8.72-.8 1-.8H6v2.33" fill="#ee3524"/><path class="cls-3" d="M15 8.76h.2a1.62 1.62 0 0 0 0-.22c0-1.15-.34-2-1.17-2s-1.16.88-1.16 2 .34 2.05 1.16 2.05c.63 0 1-.52 1.1-1.28h-.6c-.05.58-.16.94-.5.94s-.5-.62-.51-1.49H15zm-1-1.92c.44 0 .51.61.52 1.48h-1c0-.87.08-1.48.51-1.48M12.63 10.22a.15.15 0 0 1-.16-.15V4.48h-1v.3h.32v1.93a.75.75 0 0 0-.52-.18c-.82 0-1.21.88-1.21 2s.31 2 1.13 2a.67.67 0 0 0 .6-.37l.18.31h.77v-.31zm-1.36 0c-.47 0-.49-.72-.49-1.69s0-1.7.49-1.7c.65 0 .54.72.54 1.7s.11 1.69-.54 1.69M9.88 10.22a.15.15 0 0 1-.16-.15V7.32a.76.76 0 0 0-.83-.81.78.78 0 0 0-.67.37L8 6.55h-.73v.3h.32v3.22a.15.15 0 0 1-.16.15h-.16v.31h1.27v-.31h-.17a.15.15 0 0 1-.15-.15V7.72a2.06 2.06 0 0 1 0-.46.48.48 0 0 1 .45-.36.39.39 0 0 1 .38.44v2.73a.15.15 0 0 1-.16.15h-.11v.31H10v-.31h-.12"/></g></svg>