<?xml version="1.0" encoding="utf-8"?>
<!-- Generator: Adobe Illustrator 22.1.0, SVG Export Plug-In . SVG Version: 6.00 Build 0)  -->
<svg version="1.1" id="Layer_1" xmlns="http://www.w3.org/2000/svg" xmlns:xlink="http://www.w3.org/1999/xlink" x="0px" y="0px"
	 viewBox="0 0 50 28" style="enable-background:new 0 0 50 28;" xml:space="preserve">
<style type="text/css">
	.st0{fill:#FFFFFF;}
	.st1{fill:#E0E1DD;}
	.st2{fill:#F7B600;}
	.st3{fill:#1A1F71;}
</style>
<g>
	<polygon class="st0" points="37.55115,10.50531 36.08618,14.5437 38.3927,14.5437 	"/>
	<path class="st0" d="M38.06763,20.82843c-0.4458,0-0.64081,0.41589-0.64081,0.81006c0,0.45905,0.25983,0.80548,0.63226,0.80548
		c0.36377,0,0.63641-0.34229,0.63641-0.81427C38.6955,21.27466,38.51807,20.82843,38.06763,20.82843z"/>
	<path class="st0" d="M30.59186,20.81561c-0.38977,0-0.55444,0.35083-0.58478,0.61487h1.11304
		C31.12451,21.19238,31.02051,20.81561,30.59186,20.81561z"/>
	<path class="st0" d="M1,24h48V4H1V24z M28.0769,22.68213h-1.64545v-2.91895h1.58057v0.31635h-1.19958v0.92218h1.13037v0.31195
		h-1.13037v1.05212h1.26447V22.68213z M29.04187,22.68207h-0.38098v-3.07465h0.38098V22.68207z M31.47516,21.70331h-1.47223
		c0.00854,0.5155,0.3335,0.7276,0.71863,0.7276c0.27301,0,0.44183-0.04767,0.58057-0.10815l0.06927,0.27283
		c-0.13434,0.06049-0.36804,0.13409-0.70172,0.13409c-0.64502,0-1.0304-0.42865-1.0304-1.06091s0.37219-1.12598,0.98291-1.12598
		c0.68854,0,0.86615,0.59772,0.86615,0.98309C31.48834,21.6037,31.48395,21.65997,31.47516,21.70331z M33.02899,22.42224
		c0.21655,0,0.35944-0.05188,0.46759-0.09961l0.06512,0.28577c-0.09961,0.04773-0.32056,0.1214-0.60193,0.1214
		c-0.63226,0-1.04358-0.42871-1.04358-1.06976c0-0.6452,0.44147-1.11719,1.12579-1.11719c0.2251,0,0.42426,0.05609,0.52826,0.11255
		l-0.08636,0.29022c-0.09125-0.04773-0.23413-0.09985-0.44189-0.09985c-0.48077,0-0.74042,0.35944-0.74042,0.79272
		C32.30157,22.12347,32.61334,22.42224,33.02899,22.42224z M35.17596,20.87604h-0.54541v1.13037
		c0,0.26007,0.07367,0.40717,0.28583,0.40717c0.10376,0,0.16461-0.00861,0.22095-0.02618l0.01733,0.29041
		c-0.07367,0.02594-0.19061,0.05188-0.33789,0.05188c-0.17761,0-0.3205-0.06067-0.41132-0.16003
		c-0.10394-0.11719-0.14728-0.30316-0.14728-0.54999v-1.14362h-0.32489v-0.28998h0.32489v-0.38977l0.37238-0.11255v0.50232h0.54541
		V20.87604z M36.74329,20.91095c-0.03912-0.00879-0.07782-0.00879-0.13013-0.00879c-0.26819,0-0.45905,0.19916-0.51093,0.48517
		c-0.00854,0.05188-0.01294,0.11676-0.01294,0.17761v1.11725h-0.38098v-1.44214c0-0.24689-0.00464-0.45905-0.0174-0.65399h0.3335
		l0.0174,0.41571h0.01276c0.0954-0.28143,0.32904-0.45905,0.58453-0.45905c0.03912,0,0.06946,0.00439,0.10419,0.00861V20.91095z
		 M38.04169,22.72974c-0.56299,0-1.00439-0.41589-1.00439-1.07825c0-0.69733,0.46313-1.10864,1.03912-1.10864
		c0.60193,0,1.00903,0.43726,1.00903,1.07391C39.08545,22.39185,38.54401,22.72974,38.04169,22.72974z M41.45337,22.68201h-0.38098
		v-1.20819c0-0.33765-0.12555-0.61926-0.48499-0.61926c-0.24689,0-0.44183,0.17761-0.51086,0.38977
		c-0.01758,0.04767-0.02618,0.11255-0.02618,0.17761v1.26007h-0.38098v-1.52869c0-0.2207-0.00458-0.39398-0.01733-0.5672h0.33765
		l0.02179,0.3465h0.00854c0.104-0.19501,0.34644-0.38977,0.69293-0.38977c0.28998,0,0.74042,0.17322,0.74042,0.89185V22.68201z
		 M37.14337,7.59998h2.37335l2.24738,10.75366h-2.57233l-0.33722-1.60632H35.2851l-0.57947,1.60632h-2.92157l4.17462-9.96533
		C36.15833,7.91064,36.60809,7.59998,37.14337,7.59998z M27.57465,13.88531c-1.0528-0.51575-2.4527-1.37885-2.43469-2.92737
		c0.01544-2.09344,1.9502-3.55426,4.7005-3.55426c1.07147,0,1.9328,0.23303,2.60223,0.47504l-0.48743,2.28168
		c-1.24579-0.57397-2.34558-0.53284-2.74371-0.48145c-0.80371,0.10486-1.17084,0.51532-1.1803,0.9007
		c-0.02576,1.26801,3.90955,1.42542,3.89789,4.263c-0.00861,2.23572-1.9209,3.67981-4.84473,3.67981
		c-1.24249-0.01318-2.44214-0.27234-3.09308-0.57068l0.50494-2.3573c0.64697,0.30139,1.45819,0.70172,2.85742,0.6795
		c0.79803-0.01184,1.65625-0.3313,1.66394-1.0528C29.02271,14.75055,28.65912,14.41199,27.57465,13.88531z M24.3822,7.59998
		l-2.30035,10.75366h-2.78223l2.30035-10.75366H24.3822z M7.40002,7.59998h4.73456c0.60254,0,1.14508,0.40125,1.28296,1.09589
		l1.17212,6.22333l2.89368-7.31921h2.92316l-4.50745,10.75366h-2.94098L10.73975,9.7713
		c-0.13434-0.5274-0.25128-0.7215-0.66064-0.9444C9.41016,8.4635,8.30548,8.12366,7.33447,7.91217L7.40002,7.59998z"/>
	<path class="st1" d="M46,0H4C1.79999,0,0,1.79999,0,4v20c0,2.20001,1.79999,4,4,4h42c2.20001,0,4-1.79999,4-4V4
		C50,1.79999,48.20001,0,46,0z M49,24c0,1.70001-1.29999,3-3,3H4c-1.70001,0-3-1.29999-3-3V4c0-1.70001,1.29999-3,3-3h42
		c1.70001,0,3,1.29999,3,3V24z"/>
	<path class="st2" d="M4,27h42c1.70001,0,3-1.29999,3-3H1C1,25.70001,2.29999,27,4,27z"/>
	<path class="st3" d="M46,1H4C2.29999,1,1,2.29999,1,4h48C49,2.29999,47.70001,1,46,1z"/>
	<polygon class="st3" points="22.08185,18.35364 24.3822,7.59998 21.59998,7.59998 19.29962,18.35364 	"/>
	<path class="st3" d="M10.73975,9.7713l2.21832,8.58234h2.94098l4.50745-10.75366h-2.92316l-2.89368,7.31921l-1.17212-6.22333
		c-0.13788-0.69464-0.68042-1.09589-1.28296-1.09589H7.40002L7.33447,7.91217C8.30548,8.12366,9.41016,8.4635,10.0791,8.8269
		C10.48846,9.0498,10.60541,9.2439,10.73975,9.7713z"/>
	<path class="st3" d="M27.3537,16.27399c-1.39923,0.02222-2.21045-0.37811-2.85742-0.6795l-0.50494,2.3573
		c0.65094,0.29834,1.85059,0.5575,3.09308,0.57068c2.92383,0,4.83612-1.44409,4.84473-3.67981
		c0.01166-2.83759-3.92365-2.995-3.89789-4.263c0.00946-0.38538,0.37659-0.79584,1.1803-0.9007
		c0.39813-0.05139,1.49792-0.09253,2.74371,0.48145l0.48743-2.28168c-0.66943-0.242-1.53076-0.47504-2.60223-0.47504
		c-2.75031,0-4.68506,1.46082-4.7005,3.55426c-0.01801,1.54852,1.3819,2.41162,2.43469,2.92737
		c1.08447,0.52667,1.44806,0.86523,1.44299,1.33588C29.00995,15.94269,28.15173,16.26215,27.3537,16.27399z"/>
	<path class="st3" d="M34.70563,18.35364l0.57947-1.60632h3.56946l0.33722,1.60632h2.57233L39.51672,7.59998h-2.37335
		c-0.53528,0-0.98505,0.31067-1.18469,0.78833l-4.17462,9.96533H34.70563z M37.55115,10.50531l0.84155,4.03839h-2.30652
		L37.55115,10.50531z"/>
	<polygon class="st3" points="26.81244,21.31366 27.94281,21.31366 27.94281,21.00171 26.81244,21.00171 26.81244,20.07953 
		28.01202,20.07953 28.01202,19.76318 26.43146,19.76318 26.43146,22.68213 28.0769,22.68213 28.0769,22.36578 26.81244,22.36578 	
		"/>
	<rect x="28.66089" y="19.60742" class="st3" width="0.38098" height="3.07465"/>
	<path class="st3" d="M30.62219,20.54279c-0.61072,0-0.98291,0.49371-0.98291,1.12598s0.38538,1.06091,1.0304,1.06091
		c0.33368,0,0.56738-0.07361,0.70172-0.13409l-0.06927-0.27283c-0.13873,0.06049-0.30756,0.10815-0.58057,0.10815
		c-0.38513,0-0.71008-0.2121-0.71863-0.7276h1.47223c0.00879-0.04333,0.01318-0.09961,0.01318-0.17743
		C31.48834,21.1405,31.31073,20.54279,30.62219,20.54279z M30.00708,21.43048c0.03033-0.26404,0.19501-0.61487,0.58478-0.61487
		c0.42865,0,0.53265,0.37677,0.52826,0.61487H30.00708z"/>
	<path class="st3" d="M33.04199,20.84576c0.20776,0,0.35065,0.05212,0.44189,0.09985l0.08636-0.29022
		c-0.104-0.05646-0.30316-0.11255-0.52826-0.11255c-0.68433,0-1.12579,0.47198-1.12579,1.11719
		c0,0.64105,0.41132,1.06976,1.04358,1.06976c0.28137,0,0.50232-0.07367,0.60193-0.1214l-0.06512-0.28577
		c-0.10815,0.04773-0.25104,0.09961-0.46759,0.09961c-0.41565,0-0.72742-0.29877-0.72742-0.78375
		C32.30157,21.2052,32.56122,20.84576,33.04199,20.84576z"/>
	<path class="st3" d="M34.63055,20.08374l-0.37238,0.11255v0.38977h-0.32489v0.28998h0.32489v1.14362
		c0,0.24683,0.04333,0.4328,0.14728,0.54999c0.09082,0.09937,0.2337,0.16003,0.41132,0.16003
		c0.14728,0,0.26422-0.02594,0.33789-0.05188l-0.01733-0.29041c-0.05634,0.01758-0.11719,0.02618-0.22095,0.02618
		c-0.21216,0-0.28583-0.14709-0.28583-0.40717v-1.13037h0.54541v-0.28998h-0.54541V20.08374z"/>
	<path class="st3" d="M36.05457,21.00177h-0.01276l-0.0174-0.41571h-0.3335c0.01276,0.19495,0.0174,0.4071,0.0174,0.65399v1.44214
		h0.38098v-1.11725c0-0.06085,0.00439-0.12573,0.01294-0.17761c0.05188-0.28601,0.24274-0.48517,0.51093-0.48517
		c0.05231,0,0.091,0,0.13013,0.00879v-0.35962c-0.03473-0.00421-0.06506-0.00861-0.10419-0.00861
		C36.38361,20.54272,36.14996,20.72034,36.05457,21.00177z"/>
	<path class="st3" d="M38.07642,20.54285c-0.57599,0-1.03912,0.41132-1.03912,1.10864c0,0.66235,0.44141,1.07825,1.00439,1.07825
		c0.50232,0,1.04376-0.33789,1.04376-1.11298C39.08545,20.9801,38.67834,20.54285,38.07642,20.54285z M38.05908,22.44397
		c-0.37244,0-0.63226-0.34644-0.63226-0.80548c0-0.39417,0.19501-0.81006,0.64081-0.81006
		c0.45044,0,0.62787,0.44623,0.62787,0.80127C38.6955,22.10168,38.42285,22.44397,38.05908,22.44397z"/>
	<path class="st3" d="M40.71295,20.54285c-0.3465,0-0.58893,0.19476-0.69293,0.38977h-0.00854l-0.02179-0.3465h-0.33765
		c0.01276,0.17322,0.01733,0.3465,0.01733,0.5672v1.52869h0.38098v-1.26007c0-0.06506,0.00861-0.12994,0.02618-0.17761
		c0.06903-0.21216,0.26398-0.38977,0.51086-0.38977c0.35944,0,0.48499,0.28162,0.48499,0.61926v1.20819h0.38098v-1.24731
		C41.45337,20.71606,41.00293,20.54285,40.71295,20.54285z"/>
</g>
</svg>
