<svg height="40" viewBox="0 0 150 40" width="150" xmlns="http://www.w3.org/2000/svg"><g fill="none" fill-rule="evenodd" transform="translate(0 11)"><g fill="#242424"><path d="m36.7549192 13.9952167h7.1513901v2.7066766h-10.6521007v-14.68542613h3.5007106z"/><path d="m45.4108875 16.7018933h3.2428108v-11.53861894h-3.2428108z"/><path d="m45.4108875 3.56445229h3.2428108v-2.76494349h-3.2428108z"/><path d="m52.0889074 16.7016977v-9.02101669h-1.7826172v-2.51740665h1.7826172v-.54551958c0-1.44767991.1931804-2.20241309.6868854-2.68497305.4940961-.48255997 1.052716-.7138681 2.3197292-.7138681h2.7058944v2.43372121h-1.5890458c-.4295722 0-.5584243.04203825-.6874719.14723163-.1073442.12572369-.1501646.35605417-.1501646.92308169v.46144308h2.4266823v2.49628977h-2.4053699v9.02101669z"/><path d="m61.8822548 9.86275931h4.3596595c0-1.55248223-.1073442-1.97247365-.2578998-2.13945348-.1288521-.12650579-.321837-.18907435-.9876055-.18907435h-1.7824217c-.5588154 0-.9023558.04125614-1.0523248.20960466-.1505556.14644952-.2580953.50348133-.2794077 2.11892317zm0 1.96856309c.0213124 1.8250465.149969 2.143364.2794077 2.2898136.149969.1675664.4935094.2096046 1.0523248.2096046h1.99711c.6657685 0 .837441-.0627641.9662931-.2096046.1075397-.1259193.1505556-.2240737.1716725-1.041962h3.028318c-.0217035 1.7198531-.2144928 2.3844485-.7946206 2.951085-.365244.3568362-.837441.6714387-2.1048453.6714387h-4.3809719c-1.2026849 0-1.8254375-.1888788-2.3406505-.713477-.7733082-.7551242-1.0740283-1.6574801-1.0740283-5.0555391 0-3.39845012.3007201-4.3010015 1.0740283-5.07704709.4940961-.50348133 1.1379656-.69255568 2.3406505-.69255568h3.9946111c1.2026849 0 1.8469455.18907435 2.340846.69255568.7731127.75512423.9449807 1.65748009.9449807 4.97185369v.5423911c0 .3353284-.0858362.4614431-.4727836.4614431z"/><path d="m72.9711622 15.2753302h7.6454862v1.4263675h-9.3418761v-14.68523053h1.6963899z"/><path d="m83.7419476 15.0023749c.2577043.2309171.5799323.3149936 1.3954743.3149936h2.6632696c.8161286 0 1.1385521-.0840765 1.3743574-.3149936.344127-.3357194.5371119-.8812389.5371119-3.9226572 0-3.02147458-.1929849-3.56679863-.5371119-3.9023225-.2358053-.25203395-.5582288-.31479803-1.3743574-.31479803h-2.6632696c-.815542 0-1.13777.06276408-1.3954743.31479803-.3435404.33552387-.5157995.88084792-.5157995 3.9023225 0 3.0414183.1722591 3.5869378.5157995 3.9226572m-1.1168486 1.0699223c-.7304879-.713086-.9878011-1.6152463-.9878011-4.9925795 0-3.35641187.2573132-4.25915878.9878011-4.97263582.494096-.48216891 1.1598645-.62900949 2.3406504-.62900949h3.0066146c1.159669 0 1.847141.14684058 2.3197291.62900949.7516047.71347704 1.0091134 1.61622395 1.0091134 4.97263582 0 3.3773332-.2575087 4.2794935-1.0091134 4.9925795-.4725881.48256-1.1600601.6294005-2.3197291.6294005h-3.0066146c-1.1807859 0-1.8465544-.1468405-2.3406504-.6294005"/><path d="m102.158415 12.9043731c-.06472 2.0350422-.279408 2.6853641-.838028 3.2310792-.407673.398679-.944589.5662454-2.0401257.5662454h-3.0279269c-1.1813725 0-1.8473365-.1468405-2.340846-.629596-.7302923-.7128905-.9879966-1.6148553-.9879966-4.9925795 0-3.35621637.2577043-4.25876775.9879966-4.97224479.4935095-.48216892 1.1594735-.62920502 2.340846-.62920502h3.0066145c1.1379651 0 1.6320621.1470361 2.0614381.56644094.536917.52459822.751605 1.2376842.794425 3.10476894h-1.546225c-.063937-1.42597644-.192789-1.76228241-.429181-1.99300395-.236392-.2311126-.4940963-.29387668-1.2028807-.29387668h-2.5123229c-.8163241 0-1.1381611.06276408-1.3960609.31499356-.3437359.3357194-.5154084.88084792-.5154084 3.902127 0 3.0416138.1716725 3.5875244.5154084 3.9228527.2578998.2307216.5797368.3147981 1.3960609.3147981h2.5123229c.7087844 0 .9881921-.0631552 1.2458967-.2936812.257508-.2520339.386165-.6927512.429181-2.1191187z"/><path d="m103.930278 16.7016977v-15.10463537h1.589437v8.79029517h1.180786l4.231003-4.90928511h1.911469l-4.896771 5.47513951 5.068248 5.7484858h-1.99711l-4.359855-5.0136964h-1.13777v5.0136964z"/><path d="m118.5454 4.97791502-.587613 2.18960558-.620276-2.18960558h-.964153v3h.611339v-2.29375514l.652629 2.29375514h.576212l.663723-2.29375514v2.29375514h.631368v-3zm-5.036463 0v.49178307h.807005v2.50821693h.642769v-2.50821693h.797145v-.49178307z"/></g><path d="m28.7 14.3502933c0 7.9125757-6.437131 14.3497067-14.3497067 14.3497067-7.9131623 0-14.3502933-6.437131-14.3502933-14.3497067 0-7.9131623 6.437131-14.3502933 14.3502933-14.3502933 2.1869665 0 4.2609185.49116315 6.1178358 1.37025132l-2.3834708 3.07035624c-1.1620154-.43915303-2.4202299-.67945538-3.734365-.67945538-5.5797463 0-10.16465259 4.33697839-10.56137633 9.81778812-.00762554.1104726-.0138824.2217274-.01837951.3339597-.00625686.1450808-.00918976.2907482-.00918976.4373933 0 5.8384281 4.74973533 10.588359 10.5889456 10.588359 5.8384281 0 10.588359-4.7499309 10.588359-10.588359 0-.7805427-.0852497-1.5421193-.2455816-2.2743669l2.7657256-3.56249705c.797358 1.78398585 1.2412037 3.75978345 1.2412037 5.83686395" fill="#ffe01a"/><path d="m25.7745291 5.67653202-10.9021794 14.04253418-6.92223286-6.1886165 2.50626166-2.8038533 3.9169869 3.5016882 8.7285088-11.24298249c1.0048119.77526349 1.9044303 1.6809433 2.6726549 2.69122991" fill="#242424"/><path d="m44.8160952 26.6039535v-4.8169966h1.2042491v.6313558h.1748009c.0776241-.1683485.2232915-.3286804.4370023-.4808002.2135151-.1521198.5373074-.2281797.9711812-.2281797.3754113 0 .7040918.0858363.9856503.2573132.2815585.1716725.5001573.4078688.6556011.7089799.1552482.3009157.2330679.6522772.2330679 1.0536936v2.874634h-1.2238018v-2.7776528c0-.3625065-.0889647-.6342887-.266894-.8157375-.1783204-.1810577-.4323096-.2717821-.7623588-.2717821-.3756068 0-.6669416.124746-.8742.3738471-.2072583.2492965-.3106919.5971386-.3106919 1.0439172v2.4474081z" fill="#242424"/><path d="m52.641466 25.6521293c.3754113 0 .6861033-.1214221.9322714-.3640707.2459726-.2428442.368959-.5908818.368959-1.0441128v-.0969812c0-.453231-.1212266-.8012686-.3640708-1.0441128s-.5552959-.3640707-.9371596-.3640707c-.3756069 0-.6862988.1212265-.9322715.3640707-.2461681.2428442-.3691544.5908818-.3691544 1.0441128v.0969812c0 .453231.1229863.8012686.3691544 1.0441128.2459727.2426486.5566646.3640707.9322715.3640707zm0 1.0877152c-.479236 0-.9097859-.0971768-1.2916496-.2913348-.3820592-.194158-.6831704-.4759121-.903138-.844871-.2201631-.3691545-.3302446-.8124136-.3302446-1.3305594v-.1552482c0-.5179503.1100815-.9616005.3302446-1.3305594.2199676-.368959.5210788-.650713.903138-.844871.3818637-.1943536.8124136-.2913348 1.2916496-.2913348.4790405 0 .9095903.0969812 1.2916496.2913348.3818637.194158.6829748.475912.9031379.844871.2199676.3689589.3302447.8126091.3302447 1.3305594v.1552482c0 .5181458-.1102771.9614049-.3302447 1.3305594-.2201631.3689589-.5212742.650713-.9031379.844871-.3820593.194158-.8126091.2913348-1.2916496.2913348z" fill="#242424"/><path d="m55.805284 26.6039535v-4.8169966h1.2042491v.5437599h.1748009c.0711717-.1941581.1963089-.3247699.3615289-.4154943.1650246-.0907244.3505795-.1282656.5707426-.1282656h.5826696v1.0100911h-.6020268c-.3539034.0078211-.5666364.1407793-.7672469.3058038-.2008059.1650246-.3011111.4192093-.3011111.7623587v2.738743z" fill="#242424"/><path d="m60.4191282 26.6039535c-.3173398 0-.574653-.098741-.772135-.296223s-.2960275-.4612476-.2960275-.7914922v-2.7191903h-1.2042491v-1.0100911h1.2042491v-1.4955839h1.2236063v1.4955839h1.320783v1.0100911h-1.320783v2.5054795c0 .1943536.0905289.2913349.2719777.2913349h.9322714v1.0100911z" fill="#242424"/><path d="m64.6319472 25.6521293c.3754113 0 .6861033-.1214221.9322714-.3640707.2459726-.2428442.3689589-.5908818.3689589-1.0441128v-.0969812c0-.453231-.1214221-.8012686-.3640707-1.0441128-.2428442-.2428442-.5552959-.3640707-.9371596-.3640707-.3756069 0-.6864944.1212265-.932467.3640707s-.368959.5908818-.368959 1.0441128v.0969812c0 .453231.1229864.8012686.368959 1.0441128.2459726.2426486.5568601.3640707.932467.3640707zm0 1.0877152c-.4792361 0-.9097859-.0971768-1.2916496-.2913348-.3820592-.194158-.6831704-.4759121-.903138-.844871-.2203586-.3691545-.3302446-.8124136-.3302446-1.3305594v-.1552482c0-.5179503.109886-.9616005.3302446-1.3305594.2199676-.368959.5210788-.650713.903138-.844871.3818637-.1943536.8124135-.2913348 1.2916496-.2913348.4790404 0 .9093948.0969812 1.2916495.2913348.3818637.194158.6829749.475912.903138.844871.2199676.3689589.3302447.8126091.3302447 1.3305594v.1552482c0 .5181458-.1102771.9614049-.3302447 1.3305594-.2201631.3689589-.5212743.650713-.903138.844871-.3822547.194158-.8126091.2913348-1.2916495.2913348z" fill="#242424"/><path d="m67.7957652 26.6039535v-4.8169966h1.2042491v.6313558h.1748009c.0776241-.1683485.2232915-.3286804.4370022-.4808002.2137108-.1521198.5373075-.2281797.9711813-.2281797.3754113 0 .7040918.0858363.9856503.2573132.2815584.1716725.5001573.4078688.6556011.7089799.1552482.3009157.2330678.6522772.2330678 1.0536936v2.874634h-1.2236062v-2.7776528c0-.3625065-.0891602-.6342887-.2670895-.8157375-.1783204-.1810577-.4323096-.2717821-.7623588-.2717821-.3756068 0-.6669416.124746-.8742.3738471-.2072583.2492965-.3106919.5971386-.3106919 1.0439172v2.4474081z" fill="#242424"/><path d="m33.8024655 24.2449235c0 .3861653.0574849.7285326.1728457 1.0265153.1151652.2979827.2811674.5314416.4985931.7005723.2166437.1697172.4800182.2541847.789537.2541847.3175354 0 .5863846-.0877915.8065477-.2633745.2203587-.1751919.3873385-.4125614.5015261-.7117173s.1712814-.6342887.1712814-1.0061805c0-.3675903-.0563117-.6988126-.1695217-.9936669-.1130144-.2948543-.2797987-.5290953-.4999618-.7025275-.2203586-.1734322-.4901855-.2602461-.8098717-.2602461-.3116696 0-.5758262.083881-.7928609.2510563-.2170347.1669798-.3826458.3975059-.4968334.6913825-.1141877.2940722-.1712815.632138-.1712815 1.0140017zm-.5482569 2.3893366v-6.3794506h.5574467v2.5074348h.0500548c.0621775-.1431256.1521198-.2905528.2694359-.4422815.1171205-.1517287.2719777-.2788211.4639849-.3814726.1922028-.1028471.4344604-.1542706.727555-.1542706.3922266 0 .7369402.1032381 1.0339453.3099098.2970051.2066718.5287043.4952692.6947065.8657924.1661977.3709142.2494921.8020506.2494921 1.2941914 0 .4944871-.0829033.9273833-.2477324 1.2992751-.1652201.3716963-.3959416.661467-.6917735.8691163-.295832.2074539-.6389814.3112786-1.0294483.3112786-.2909437 0-.5332014-.0518146-.7273594-.1556393-.1941581-.1038247-.3505794-.2318947-.4686776-.3847966-.1184892-.1527064-.2098002-.3015022-.2741285-.4467786h-.0684343v.8876914z" fill="#242424"/><path d="m38.6466403 28.4252849c-.109886 0-.2125376-.0103629-.3083457-.0310887-.0956125-.0207258-.1712814-.0434069-.2273976-.0684344l.149578-.4923363c.2823406.0915065.5208832.0928752.7150412.0046927.1941581-.0881826.3564453-.3118652.4874482-.6714388l.1742143-.4856884-1.7599361-4.8314655h.6014402l1.4201107 4.0526825h.0439935l1.4201106-4.0526825.6043731.0093853-2.0278077 5.5324288c-.0852496.2283752-.190443.4194048-.3161667.5730888-.1257237.1534885-.2694358.2688493-.4315275.3454958-.1617006.076842-.343736.1153607-.5451285.1153607" fill="#242424"/></g></svg>