<svg xmlns="http://www.w3.org/2000/svg" viewBox="0 0 50 28"><rect x=".5" y=".5" width="49" height="27" rx="3.5" ry="3.5" fill="#fff"/><path d="M46 1a3 3 0 0 1 3 3v20a3 3 0 0 1-3 3H4a3 3 0 0 1-3-3V4a3 3 0 0 1 3-3h42m0-1H4a4 4 0 0 0-4 4v20a4 4 0 0 0 4 4h42a4 4 0 0 0 4-4V4a4 4 0 0 0-4-4z" fill="#dfe1dd"/><g><path d="M24.78 15.37h.66v1.48h.47l.85-1.48h.72l-1 1.73 1.06 1.9h-.75l-.88-1.58h-.47V19h-.66zm4.24 1a1.37 1.37 0 1 1-1.43 1.37A1.37 1.37 0 0 1 29 16.33zm0 2.18a.81.81 0 1 0-.77-.81.78.78 0 0 0 .75.77zM31 16.4h.62v2.05h.81V16.4H33v2.05h.81V16.4h.62V19H31zm5.34-.07a1.13 1.13 0 0 1 1.16 1.24 2.11 2.11 0 0 1 0 .25h-1.8a.73.73 0 0 0 .78.69 1.23 1.23 0 0 0 .75-.29l.25.47a1.65 1.65 0 0 1-1 .37A1.34 1.34 0 0 1 35 17.7a1.3 1.3 0 0 1 1.31-1.37zm.51 1.05a.52.52 0 0 0-.52-.56.62.62 0 0 0-.63.56zm1 1.07c.32 0 .55-.31.55-1.24v-.81h1.9V19h-.65v-2.08h-.63v.29c0 1.14-.3 1.79-1.17 1.82zm4.3-2.12a1.13 1.13 0 0 1 1.16 1.24 2.11 2.11 0 0 1 0 .25h-1.89a.73.73 0 0 0 .78.69 1.23 1.23 0 0 0 .74-.29l.26.47a1.7 1.7 0 0 1-1.05.37 1.33 1.33 0 0 1-1.4-1.36 1.29 1.29 0 0 1 1.32-1.37zm.51 1.05a.52.52 0 0 0-.52-.56.63.63 0 0 0-.63.56zm1.2-1h.64v1h.32l.63-1h.72l-.82 1.24.85 1.38h-.75l-.69-1.06h-.34V19h-.64z" fill="#2d3540"/><path d="M33.88 7.46v6.16a.16.16 0 0 1-.17.16h-1.25a.16.16 0 0 1-.17-.16V7.46a.16.16 0 0 1 .17-.17h1.25a.16.16 0 0 1 .17.17zm9.81-.17h-1.41a.16.16 0 0 0-.16.12L41 11.05 39.78 7.4a.16.16 0 0 0-.16-.11h-1a.16.16 0 0 0-.16.11l-1.22 3.65-1.1-3.64a.17.17 0 0 0-.14-.12h-1.43a.15.15 0 0 0-.13.07.2.2 0 0 0 0 .15l2.07 6.16a.16.16 0 0 0 .16.11h1.12a.17.17 0 0 0 .16-.11l1.21-3.6 1.21 3.6a.16.16 0 0 0 .16.11h1.12a.17.17 0 0 0 .16-.11l2.07-6.16a.2.2 0 0 0 0-.15.15.15 0 0 0-.19-.07zm2.11 0h-1.25a.16.16 0 0 0-.17.17v6.16a.16.16 0 0 0 .17.16h1.25a.16.16 0 0 0 .17-.16V7.46a.16.16 0 0 0-.17-.17zm-14.24 6.28a.13.13 0 0 1-.1.21h-1.54a.2.2 0 0 1-.16-.07l-.26-.32a3.4 3.4 0 1 1 1.55-2.85 3.3 3.3 0 0 1-.54 1.83zM28.5 12.2l-.67-.81a.13.13 0 0 1 .1-.22h1.41a1.9 1.9 0 0 0 .11-.63 1.8 1.8 0 1 0-3.6 0 1.83 1.83 0 0 0 1.8 1.88 1.71 1.71 0 0 0 .85-.22zm-9.78 4.36a.27.27 0 0 0-.35.1.92.92 0 0 0 .16.79c.19.29.35.44.48.44s.23-.15.18-.52-.19-.69-.47-.81zm-1.86 1.37a.46.46 0 0 0-.39.17.79.79 0 0 0 .21 1 .88.88 0 0 0 .57.2.63.63 0 0 0 .51-.22c.19-.26.08-.64-.29-1a1 1 0 0 0-.61-.15zm-4.26 3.53a8.36 8.36 0 1 1 7.21-4.08.06.06 0 0 1-.1 0 3.87 3.87 0 0 0-3.38-3.53c-.16 0-.19-.13 0-.15a8.4 8.4 0 0 1 1.76 0 4.49 4.49 0 0 0 0-.64 5.55 5.55 0 1 0-5.55 5.55h.26a7.39 7.39 0 0 1-.1-1.5c0-.34.08-.38.23-.12a5.81 5.81 0 0 0 4 3 8.21 8.21 0 0 1 5.41 3.24c.17.21-.09.42-.28.25a7.8 7.8 0 0 0-5.29-2.26c-1.72 0-2.94.24-4.17.24z" fill="#ff8c00"/></g></svg>