<svg xmlns="http://www.w3.org/2000/svg" viewBox="0 0 50 28"><defs><style>.cls-3,.cls-4{fill:#cf3339}.cls-3,.cls-5{fill-rule:evenodd}.cls-5{fill:#b1b1b1}</style></defs><g id="border"><rect x=".5" y=".5" width="49" height="27" rx="3.5" ry="3.5" fill="#fff"/><path d="M46 1a3 3 0 0 1 3 3v20a3 3 0 0 1-3 3H4a3 3 0 0 1-3-3V4a3 3 0 0 1 3-3h42m0-1H4a4 4 0 0 0-4 4v20a4 4 0 0 0 4 4h42a4 4 0 0 0 4-4V4a4 4 0 0 0-4-4z" fill="#dfe1dd"/></g><g id="Przelewy24"><path class="cls-3" d="M12.94 15.07h3.43l-.13.78-2.86 2.73h2.4l-.14.84H12.1l.15-.87 2.74-2.63H12.8l.14-.85zM9.19 13.74a.91.91 0 0 0-.3-.19 2.62 2.62 0 0 0-.4-.11H5.24l-1 6h.93l.37-2.23h1.81A2.9 2.9 0 0 0 8.56 17a1.42 1.42 0 0 0 .63-.87s.05-.22.1-.49.1-.66.13-.86a1.16 1.16 0 0 0 0-.13.55.55 0 0 0 0-.16 1.08 1.08 0 0 0-.13-.53.68.68 0 0 0-.1-.22zm-.72 1.06s-.08.5-.19 1.07a.49.49 0 0 1-.41.38 2.78 2.78 0 0 1-.66.05H5.7l.33-2h1.59a4.32 4.32 0 0 1 .5 0 .61.61 0 0 1 .29.09.48.48 0 0 1 .07.2.63.63 0 0 1-.01.21zM21.01 13.39h.9l-1 6.03h-.9l1-6.03zM25.81 15.07h.86l.31 3.06 1.32-3.07 1.06.01.32 3.07L31 15.07h.89L30 19.42h-1.07l-.3-3.05-1.34 3.05h-1.04l-.44-4.35z"/><path class="cls-4" d="M19.35 15.11A4.07 4.07 0 0 0 18.3 15a3.76 3.76 0 0 0-.66.05 1.72 1.72 0 0 0-1 .54 3.36 3.36 0 0 0-.46 1.41 6.34 6.34 0 0 0-.18 1.47 1 1 0 0 0 .58.85 2.11 2.11 0 0 0 .75.15 4.93 4.93 0 0 0 1.28-.07 1.56 1.56 0 0 0 .84-.52 1.84 1.84 0 0 0 .22-.36 1.43 1.43 0 0 0 .12-.36l.06-.23H19s-.05.62-.56.67a5.36 5.36 0 0 1-.87 0c-.09 0-.63 0-.59-.44a2.25 2.25 0 0 1 .09-.65h2.92l.13-.72c.09-.79-.02-1.44-.77-1.68zm-.19 1.58h-2l.08-.32a.76.76 0 0 1 .21-.35.85.85 0 0 1 .49-.14 3.58 3.58 0 0 1 1 0 .34.34 0 0 1 .26.2 1.53 1.53 0 0 1-.04.61zM16.93 18.18s.01 0 0 0zM22.45 18.18zM24.87 15.11a4.07 4.07 0 0 0-1.05-.1 5.16 5.16 0 0 0-.66.05 1.79 1.79 0 0 0-1 .54 3.36 3.36 0 0 0-.46 1.4 6.83 6.83 0 0 0-.16 1.44 1 1 0 0 0 .59.85 2.11 2.11 0 0 0 .75.15 4.93 4.93 0 0 0 1.28-.07 1.56 1.56 0 0 0 .84-.52 2.64 2.64 0 0 0 .22-.36 1.6 1.6 0 0 0 .12-.35l.06-.24h-.93s0 .62-.56.67a5.36 5.36 0 0 1-.87 0c-.09 0-.63 0-.59-.43a2.25 2.25 0 0 1 .09-.65h2.92l.13-.72c.14-.77.03-1.42-.72-1.66zm-.2 1.58h-2l.08-.32A.8.8 0 0 1 23 16a.85.85 0 0 1 .49-.14 3.58 3.58 0 0 1 1 0 .36.36 0 0 1 .27.2 1.45 1.45 0 0 1-.09.63z"/><path class="cls-3" d="M32.93 15.07l.58 3.18 1.62-3.18h.92l-2.35 4.55a4.85 4.85 0 0 1-.68 1 1.27 1.27 0 0 1-.64.32 1.46 1.46 0 0 1-.51 0h-.22l.13-.81a1.27 1.27 0 0 0 .58 0c.22-.08.39-.45.39-.45l.11-.19-.86-4.42z"/><path class="cls-5" d="M36.38 15.5h.95l.05-.36s.1-.66.33-.79a1 1 0 0 1 .32-.1 3.73 3.73 0 0 1 .82 0c.39 0 .54 0 .94.06a.32.32 0 0 1 .29.43l-.07.58a1.52 1.52 0 0 1-.13.42.87.87 0 0 1-.43.28c-.31.1-1.38.37-1.38.37l-.84.24a2 2 0 0 0-.8.47 1.9 1.9 0 0 0-.44.87c0 .19-.26 1.49-.26 1.49h4.52l.15-.9h-3.58l.07-.36a1 1 0 0 1 .19-.51.85.85 0 0 1 .36-.19c.17-.06.75-.22.75-.22l1.35-.36a2.17 2.17 0 0 0 1-.59 3.32 3.32 0 0 0 .4-1.17 4.89 4.89 0 0 0 0-1 1.05 1.05 0 0 0-.55-.63 3 3 0 0 0-1.37-.18 4.62 4.62 0 0 0-1.62.2 1.28 1.28 0 0 0-.8.82 5.44 5.44 0 0 0-.27 1.16zM44.89 17.18l.63-3.79H44.4l-3.49 3.75-.16.95h3l-.22 1.33h.94l.22-1.33h.86l.16-.91zm-.94 0H42l2.4-2.56zM11.17 13.89h2.88s.64-.53 1.1-.86 1.29-.86 1.29-.86l-1.62-.76s-1.38.85-2 1.25-1.69 1.23-1.69 1.23zM17.36 11.63l-1.36-.9a25.18 25.18 0 0 1 2.83-1.33c1.61-.64 2.46-.9 2.46-.9l.28 1.27s-1.55.52-2.44.94a15.55 15.55 0 0 0-1.77.92zM22.55 9.49l-.23-1.3s1.65-.44 3.16-.72S29 7.05 29 7.05l-.66 2a14.78 14.78 0 0 0-3.42 0 20.85 20.85 0 0 0-2.36.44zM29.37 9.24L30.49 7a30.32 30.32 0 0 1 4.51.28 28.11 28.11 0 0 1 4 .85l-5.33 2.79a13.56 13.56 0 0 0-2.79-1.28c-.88-.25-1.52-.4-1.52-.4zM34.64 11.52l1.17.89h9.63a1.94 1.94 0 0 0-.27-.75 4.45 4.45 0 0 0-.76-.87 6.78 6.78 0 0 0-.89-.68A14.08 14.08 0 0 0 41.32 9l-6.68 2.57z"/><path class="cls-4" d="M11.79 15.07a2.09 2.09 0 0 0-1 .3v-.3h-1l-.67 4.33h1l.43-2.4a1.22 1.22 0 0 1 1.16-1.09h.5l.15-.84z"/></g></svg>