<svg xmlns="http://www.w3.org/2000/svg" viewBox="0 0 50 28"><defs><style>.cls-1{fill:#fff;}.cls-2{fill:#e0e1dd;}.cls-3{fill:#179bd7;}.cls-4{fill:#253b80;}.cls-5{fill:#222d65;}</style></defs><title>logo_paypal_50x28</title><g id="border"><rect class="cls-1" x="0.5" y="0.5" width="49" height="27" rx="3.5" ry="3.5"/><path class="cls-2" d="M46,1a3,3,0,0,1,3,3V24a3,3,0,0,1-3,3H4a3,3,0,0,1-3-3V4A3,3,0,0,1,4,1H46m0-1H4A4,4,0,0,0,0,4V24a4,4,0,0,0,4,4H46a4,4,0,0,0,4-4V4a4,4,0,0,0-4-4Z"/></g><g id="PayPal_Apr2018"><path class="cls-3" d="M28.68,18.78H27a.24.24,0,0,0-.23.19l-.66,4.23a.13.13,0,0,0,.13.16h.85a.16.16,0,0,0,.16-.13l.19-1.2a.23.23,0,0,1,.22-.2h.53a1.68,1.68,0,0,0,1.87-1.56,1.24,1.24,0,0,0-.21-1.07A1.54,1.54,0,0,0,28.68,18.78Zm.19,1.54c-.09.6-.54.6-1,.6h-.25l.18-1.11A.12.12,0,0,1,28,19.7h.12c.29,0,.58,0,.72.17A.53.53,0,0,1,28.87,20.32Z"/><path class="cls-4" d="M16.92,18.78H15.27A.23.23,0,0,0,15,19l-.67,4.23a.14.14,0,0,0,.14.16h.79a.22.22,0,0,0,.22-.19L15.7,22a.24.24,0,0,1,.23-.2h.52a1.69,1.69,0,0,0,1.88-1.56,1.3,1.3,0,0,0-.21-1.07A1.56,1.56,0,0,0,16.92,18.78Zm.19,1.54c-.09.6-.55.6-1,.6h-.25l.17-1.11a.13.13,0,0,1,.14-.11h.11c.3,0,.58,0,.73.17A.57.57,0,0,1,17.11,20.32Z"/><path class="cls-4" d="M21.85,20.31h-.79a.14.14,0,0,0-.14.11l0,.22-.06-.08a1.11,1.11,0,0,0-.93-.33,1.82,1.82,0,0,0-1.77,1.59,1.51,1.51,0,0,0,.3,1.21,1.21,1.21,0,0,0,1,.41,1.51,1.51,0,0,0,1.1-.46l0,.22a.14.14,0,0,0,.14.16h.71a.22.22,0,0,0,.22-.19L22,20.46A.13.13,0,0,0,21.85,20.31Zm-1.11,1.53a.88.88,0,0,1-.89.76.61.61,0,0,1-.65-.77.88.88,0,0,1,.88-.76.66.66,0,0,1,.53.21A.68.68,0,0,1,20.74,21.84Z"/><path class="cls-3" d="M33.61,20.31h-.79a.15.15,0,0,0-.14.11l0,.22-.06-.08a1.11,1.11,0,0,0-.93-.33,1.81,1.81,0,0,0-1.76,1.59A1.47,1.47,0,0,0,30.19,23a1.23,1.23,0,0,0,1,.41A1.5,1.5,0,0,0,32.28,23l0,.22a.13.13,0,0,0,.13.16h.71a.23.23,0,0,0,.23-.19l.43-2.71A.14.14,0,0,0,33.61,20.31Zm-1.1,1.53a.89.89,0,0,1-.89.76.63.63,0,0,1-.66-.77.89.89,0,0,1,.89-.76.68.68,0,0,1,.53.21A.72.72,0,0,1,32.51,21.84Z"/><path class="cls-4" d="M26.05,20.31h-.79a.21.21,0,0,0-.19.1L24,22l-.46-1.55a.22.22,0,0,0-.22-.16h-.78a.14.14,0,0,0-.13.18l.87,2.56-.82,1.16a.14.14,0,0,0,.11.22h.8a.26.26,0,0,0,.19-.1l2.64-3.81A.14.14,0,0,0,26.05,20.31Z"/><path class="cls-3" d="M34.54,18.9l-.68,4.3a.14.14,0,0,0,.14.16h.68a.24.24,0,0,0,.23-.19l.66-4.23a.13.13,0,0,0-.13-.16h-.76A.14.14,0,0,0,34.54,18.9Z"/><path class="cls-3" d="M30.22,7a2.71,2.71,0,0,0-.58-2.45,4.24,4.24,0,0,0-3.26-1H22.11A.62.62,0,0,0,21.5,4L19.72,15.3a.37.37,0,0,0,.37.42h2.63l-.18,1.16a.32.32,0,0,0,.32.37h2.22a.53.53,0,0,0,.53-.45l0-.11L26.05,14l0-.15a.53.53,0,0,1,.53-.45h.33c2.15,0,3.84-.87,4.33-3.41a2.9,2.9,0,0,0-.44-2.56A2.41,2.41,0,0,0,30.22,7h0"/><path class="cls-5" d="M30.22,7a2.71,2.71,0,0,0-.58-2.45,4.24,4.24,0,0,0-3.26-1H22.11A.62.62,0,0,0,21.5,4L19.72,15.3a.37.37,0,0,0,.37.42h2.63l.67-4.2,0,.13a.6.6,0,0,1,.6-.51h1.25c2.47,0,4.39-1,5-3.9,0-.08,0-.16,0-.25"/><path class="cls-4" d="M24.1,7a.52.52,0,0,1,.3-.4.46.46,0,0,1,.23-.05H28a6.39,6.39,0,0,1,1.1.08l.28.05.27.07.13,0a3.17,3.17,0,0,1,.46.19,2.71,2.71,0,0,0-.58-2.45,4.24,4.24,0,0,0-3.26-1H22.11A.62.62,0,0,0,21.5,4L19.72,15.3a.37.37,0,0,0,.37.42h2.63l.67-4.2Z"/></g></svg>