<?xml version="1.0" encoding="utf-8"?>
<!-- Generator: Adobe Illustrator 22.0.1, SVG Export Plug-In . SVG Version: 6.00 Build 0)  -->
<svg version="1.1" xmlns="http://www.w3.org/2000/svg" xmlns:xlink="http://www.w3.org/1999/xlink" x="0px" y="0px"
	 viewBox="0 0 50 28" style="enable-background:new 0 0 50 28;" xml:space="preserve">
<style type="text/css">
	.st0{fill:#FFFFFF;}
	.st1{fill:#E0E1DD;}
	.st2{fill:#2A2A6D;}
	.st3{display:none;}
	.st4{display:inline;}
	.st5{fill:#179BD7;}
	.st6{fill:#253B80;}
	.st7{fill:#F16122;}
	.st8{fill:#E91D25;}
	.st9{fill:#F79E1D;}
	.st10{fill:#EB6F93;}
	.st11{fill:url(#SVGID_1_);}
	.st12{fill:url(#SVGID_2_);}
	.st13{fill:url(#SVGID_3_);}
	.st14{fill:url(#SVGID_4_);}
	.st15{fill:url(#SVGID_5_);}
	.st16{fill:#CC1C68;}
	.st17{display:inline;fill:#FFFFFF;}
	.st18{display:inline;fill:#010101;}
	.st19{display:inline;fill:#CC1C68;}
	.st20{fill:#003A7D;}
	.st21{display:inline;fill:#ED1C24;}
	.st22{display:inline;fill:#F58220;}
	.st23{fill:url(#SVGID_6_);}
	.st24{opacity:0.65;fill:url(#SVGID_7_);}
	.st25{opacity:0.5;}
	.st26{clip-path:url(#SVGID_9_);}
	.st27{fill:#030304;}
	.st28{fill:#080808;}
	.st29{fill:#0C0C0C;}
	.st30{fill:#100F10;}
	.st31{fill:#131313;}
	.st32{fill:#161616;}
	.st33{fill:#191919;}
	.st34{fill:#1C1B1C;}
	.st35{fill:#1E1E1F;}
	.st36{fill:#212021;}
	.st37{fill:#232324;}
	.st38{fill:#252526;}
	.st39{fill:#282728;}
	.st40{fill:#2A292B;}
	.st41{fill:#2C2C2D;}
	.st42{fill:#2E2E2F;}
	.st43{fill:#303031;}
	.st44{fill:#323133;}
	.st45{fill:#343335;}
	.st46{fill:#363537;}
	.st47{fill:#373739;}
	.st48{fill:#39393A;}
	.st49{fill:#3B3B3C;}
	.st50{fill:#3D3C3E;}
	.st51{fill:#3E3E40;}
	.st52{fill:#403F41;}
	.st53{fill:#414042;}
	.st54{fill:#424143;}
	.st55{fill:#434244;}
	.st56{fill:#444345;}
	.st57{fill:#454446;}
	.st58{fill:#454547;}
	.st59{fill:#464648;}
	.st60{fill:#474749;}
	.st61{fill:#48484A;}
	.st62{fill:#49494B;}
	.st63{fill:#4A4A4C;}
	.st64{fill:#4B4B4D;}
	.st65{fill:#4C4C4E;}
	.st66{fill:#4D4D4F;}
	.st67{fill:#4D4E50;}
	.st68{fill:#4E4F51;}
	.st69{fill:#4F5052;}
	.st70{fill:#505052;}
	.st71{fill:#515153;}
	.st72{fill:#525254;}
	.st73{fill:#535355;}
	.st74{fill:#535456;}
	.st75{fill:#545557;}
	.st76{fill:#555658;}
	.st77{fill:#565759;}
	.st78{fill:#57585A;}
	.st79{fill:#58585B;}
	.st80{fill:#58595B;}
	.st81{fill:#595A5C;}
	.st82{fill:#5A5B5D;}
	.st83{fill:#5B5C5E;}
	.st84{fill:#5C5D5F;}
	.st85{fill:#5C5D60;}
	.st86{fill:#5D5E61;}
	.st87{fill:#5E5F61;}
	.st88{fill:#5F6062;}
	.st89{fill:#606163;}
	.st90{fill:#606264;}
	.st91{fill:#616265;}
	.st92{fill:#626366;}
	.st93{fill:#636466;}
	.st94{fill:#646567;}
	.st95{fill:#646668;}
	.st96{fill:#656669;}
	.st97{fill:#66676A;}
	.st98{fill:#67686A;}
	.st99{fill:#67696B;}
	.st100{fill:#686A6C;}
	.st101{fill:#696A6D;}
	.st102{fill:#6A6B6D;}
	.st103{fill:#6B6C6E;}
	.st104{fill:#6B6D6F;}
	.st105{fill:#6C6D70;}
	.st106{fill:#6D6E71;}
	.st107{fill:#6D6F71;}
	.st108{fill:#6E7072;}
	.st109{fill:#6F7073;}
	.st110{fill:#707174;}
	.st111{fill:#707274;}
	.st112{fill:#717375;}
	.st113{fill:#727376;}
	.st114{fill:#737477;}
	.st115{fill:#737577;}
	.st116{fill:#747678;}
	.st117{fill:#757679;}
	.st118{fill:#75777A;}
	.st119{fill:#76787A;}
	.st120{fill:#77797B;}
	.st121{fill:#78797C;}
	.st122{fill:#787A7D;}
	.st123{fill:#797B7D;}
	.st124{fill:#7A7B7E;}
	.st125{fill:#7A7C7F;}
	.st126{fill:#7B7D7F;}
	.st127{fill:#7C7E80;}
	.st128{fill:#7D7E81;}
	.st129{fill:#7D7F82;}
	.st130{fill:#7E8082;}
	.st131{fill:#7F8183;}
	.st132{fill:#7F8184;}
	.st133{fill:#808285;}
	.st134{fill:#818385;}
	.st135{fill:#828386;}
	.st136{fill:#828487;}
	.st137{fill:#838587;}
	.st138{fill:#848688;}
	.st139{fill:#848689;}
	.st140{fill:#85878A;}
	.st141{fill:#86888A;}
	.st142{fill:#86888B;}
	.st143{fill:#87898C;}
	.st144{fill:#888A8C;}
	.st145{fill:#898B8D;}
	.st146{fill:#898B8E;}
	.st147{fill:#8A8C8F;}
	.st148{fill:#8B8D8F;}
	.st149{fill:#8B8D90;}
	.st150{fill:#8C8E91;}
	.st151{fill:#8D8F91;}
	.st152{fill:#8D9092;}
	.st153{fill:#8E9093;}
	.st154{fill:#8F9194;}
	.st155{fill:#909294;}
	.st156{fill:#909295;}
	.st157{fill:#919396;}
	.st158{fill:#929497;}
	.st159{fill:#939597;}
	.st160{fill:#939598;}
	.st161{fill:#949699;}
	.st162{fill:#959799;}
	.st163{fill:#95989A;}
	.st164{fill:#96989B;}
	.st165{fill:#97999C;}
	.st166{fill:#989A9C;}
	.st167{fill:#989A9D;}
	.st168{fill:#999B9E;}
	.st169{fill:#9A9C9F;}
	.st170{fill:#9B9D9F;}
	.st171{fill:#9B9DA0;}
	.st172{fill:#9C9EA1;}
	.st173{fill:#9D9FA1;}
	.st174{fill:#9DA0A2;}
	.st175{fill:#9EA0A3;}
	.st176{fill:#9FA1A4;}
	.st177{fill:#A0A2A4;}
	.st178{fill:#A0A3A5;}
	.st179{fill:#A1A3A6;}
	.st180{fill:#A2A4A7;}
	.st181{fill:#A3A5A7;}
	.st182{fill:#A3A6A8;}
	.st183{fill:#A4A6A9;}
	.st184{fill:#A5A7AA;}
	.st185{fill:#A6A8AA;}
	.st186{fill:#A6A9AB;}
	.st187{fill:#A7A9AC;}
	.st188{fill:#A8AAAD;}
	.st189{fill:#A9ABAD;}
	.st190{fill:#A9ACAE;}
	.st191{fill:#AAACAF;}
	.st192{fill:#ABADB0;}
	.st193{fill:#ACAEB0;}
	.st194{fill:#ADAFB1;}
	.st195{fill:#ADAFB2;}
	.st196{fill:#AEB0B3;}
	.st197{fill:#AFB1B3;}
	.st198{fill:#B0B2B4;}
	.st199{fill:#B0B2B5;}
	.st200{fill:#B1B3B6;}
	.st201{fill:#B2B4B6;}
	.st202{fill:#B3B5B7;}
	.st203{fill:#B4B6B8;}
	.st204{fill:#B4B6B9;}
	.st205{fill:#B5B7B9;}
	.st206{fill:#B6B8BA;}
	.st207{fill:#B7B9BB;}
	.st208{fill:#B8B9BC;}
	.st209{fill:#B8BABD;}
	.st210{fill:#B9BBBD;}
	.st211{fill:#BABCBE;}
	.st212{fill:#BBBDBF;}
	.st213{fill:#BBBDC0;}
	.st214{fill:#BCBEC0;}
	.st215{fill:#BDBFC1;}
	.st216{fill:#BEC0C2;}
	.st217{fill:#BFC0C3;}
	.st218{fill:#BFC1C3;}
	.st219{fill:#C0C2C4;}
	.st220{fill:#C1C3C5;}
	.st221{fill:#C2C4C6;}
	.st222{fill:#C3C4C6;}
	.st223{fill:#C3C5C7;}
	.st224{fill:#C4C6C8;}
	.st225{fill:#C5C7C9;}
	.st226{fill:#C6C8CA;}
	.st227{fill:#C7C8CA;}
	.st228{opacity:0.995;fill:#C7C9CB;}
	.st229{opacity:0.99;fill:#C7C9CB;}
	.st230{opacity:0.9851;fill:#C7C9CB;}
	.st231{opacity:0.9801;fill:#C8C9CB;}
	.st232{opacity:0.9751;fill:#C8CACC;}
	.st233{opacity:0.9701;fill:#C8CACC;}
	.st234{opacity:0.9652;fill:#C8CACC;}
	.st235{opacity:0.9602;fill:#C9CACC;}
	.st236{opacity:0.9552;fill:#C9CBCD;}
	.st237{opacity:0.9502;fill:#C9CBCD;}
	.st238{opacity:0.9453;fill:#C9CBCD;}
	.st239{opacity:0.9403;fill:#CACBCD;}
	.st240{opacity:0.9353;fill:#CACCCE;}
	.st241{opacity:0.9303;fill:#CACCCE;}
	.st242{opacity:0.9254;fill:#CBCCCE;}
	.st243{opacity:0.9204;fill:#CBCCCE;}
	.st244{opacity:0.9154;fill:#CBCDCF;}
	.st245{opacity:0.9104;fill:#CBCDCF;}
	.st246{opacity:0.9055;fill:#CCCDCF;}
	.st247{opacity:0.9005;fill:#CCCDCF;}
	.st248{opacity:0.8955;fill:#CCCED0;}
	.st249{opacity:0.8905;fill:#CCCED0;}
	.st250{opacity:0.8856;fill:#CDCED0;}
	.st251{opacity:0.8806;fill:#CDCED0;}
	.st252{opacity:0.8756;fill:#CDCFD1;}
	.st253{opacity:0.8706;fill:#CDCFD1;}
	.st254{opacity:0.8657;fill:#CECFD1;}
	.st255{opacity:0.8607;fill:#CED0D1;}
	.st256{opacity:0.8557;fill:#CED0D1;}
	.st257{opacity:0.8507;fill:#CED0D2;}
	.st258{opacity:0.8458;fill:#CFD0D2;}
	.st259{opacity:0.8408;fill:#CFD1D2;}
	.st260{opacity:0.8358;fill:#CFD1D2;}
	.st261{opacity:0.8308;fill:#D0D1D3;}
	.st262{opacity:0.8259;fill:#D0D1D3;}
	.st263{opacity:0.8209;fill:#D0D2D3;}
	.st264{opacity:0.8159;fill:#D0D2D3;}
	.st265{opacity:0.8109;fill:#D1D2D4;}
	.st266{opacity:0.806;fill:#D1D2D4;}
	.st267{opacity:0.801;fill:#D1D3D4;}
	.st268{opacity:0.796;fill:#D1D3D4;}
	.st269{opacity:0.791;fill:#D2D3D5;}
	.st270{opacity:0.7861;fill:#D2D3D5;}
	.st271{opacity:0.7811;fill:#D2D4D5;}
	.st272{opacity:0.7761;fill:#D2D4D5;}
	.st273{opacity:0.7711;fill:#D3D4D6;}
	.st274{opacity:0.7662;fill:#D3D4D6;}
	.st275{opacity:0.7612;fill:#D3D5D6;}
	.st276{opacity:0.7562;fill:#D3D5D6;}
	.st277{opacity:0.7512;fill:#D4D5D7;}
	.st278{opacity:0.7463;fill:#D4D5D7;}
	.st279{opacity:0.7413;fill:#D4D6D7;}
	.st280{opacity:0.7363;fill:#D5D6D7;}
	.st281{opacity:0.7313;fill:#D5D6D8;}
	.st282{opacity:0.7264;fill:#D5D6D8;}
	.st283{opacity:0.7214;fill:#D5D7D8;}
	.st284{opacity:0.7164;fill:#D6D7D8;}
	.st285{opacity:0.7114;fill:#D6D7D9;}
	.st286{opacity:0.7065;fill:#D6D7D9;}
	.st287{opacity:0.7015;fill:#D6D8D9;}
	.st288{opacity:0.6965;fill:#D7D8D9;}
	.st289{opacity:0.6915;fill:#D7D8DA;}
	.st290{opacity:0.6866;fill:#D7D8DA;}
	.st291{opacity:0.6816;fill:#D7D9DA;}
	.st292{opacity:0.6766;fill:#D8D9DA;}
	.st293{opacity:0.6716;fill:#D8D9DB;}
	.st294{opacity:0.6667;fill:#D8D9DB;}
	.st295{opacity:0.6617;fill:#D8DADB;}
	.st296{opacity:0.6567;fill:#D9DADB;}
	.st297{opacity:0.6517;fill:#D9DADC;}
	.st298{opacity:0.6468;fill:#D9DBDC;}
	.st299{opacity:0.6418;fill:#DADBDC;}
	.st300{opacity:0.6368;fill:#DADBDC;}
	.st301{opacity:0.6318;fill:#DADBDD;}
	.st302{opacity:0.6269;fill:#DADCDD;}
	.st303{opacity:0.6219;fill:#DBDCDD;}
	.st304{opacity:0.6169;fill:#DBDCDD;}
	.st305{opacity:0.6119;fill:#DBDCDE;}
	.st306{opacity:0.607;fill:#DBDDDE;}
	.st307{opacity:0.602;fill:#DCDDDE;}
	.st308{opacity:0.597;fill:#DCDDDE;}
	.st309{opacity:0.592;fill:#DCDDDF;}
	.st310{opacity:0.5871;fill:#DCDEDF;}
	.st311{opacity:0.5821;fill:#DDDEDF;}
	.st312{opacity:0.5771;fill:#DDDEDF;}
	.st313{opacity:0.5721;fill:#DDDEE0;}
	.st314{opacity:0.5672;fill:#DDDFE0;}
	.st315{opacity:0.5622;fill:#DEDFE0;}
	.st316{opacity:0.5572;fill:#DEDFE0;}
	.st317{opacity:0.5522;fill:#DEDFE1;}
	.st318{opacity:0.5473;fill:#DFE0E1;}
	.st319{opacity:0.5423;fill:#DFE0E1;}
	.st320{opacity:0.5373;fill:#DFE0E1;}
	.st321{opacity:0.5323;fill:#DFE0E2;}
	.st322{opacity:0.5274;fill:#E0E1E2;}
	.st323{opacity:0.5224;fill:#E0E1E2;}
	.st324{opacity:0.5174;fill:#E0E1E2;}
	.st325{opacity:0.5124;fill:#E0E1E3;}
	.st326{opacity:0.5075;fill:#E1E2E3;}
	.st327{opacity:0.5025;fill:#E1E2E3;}
	.st328{opacity:0.4975;fill:#E1E2E3;}
	.st329{opacity:0.4925;fill:#E1E2E4;}
	.st330{opacity:0.4876;fill:#E2E3E4;}
	.st331{opacity:0.4826;fill:#E2E3E4;}
	.st332{opacity:0.4776;fill:#E2E3E4;}
	.st333{opacity:0.4726;fill:#E2E3E4;}
	.st334{opacity:0.4677;fill:#E3E4E5;}
	.st335{opacity:0.4627;fill:#E3E4E5;}
	.st336{opacity:0.4577;fill:#E3E4E5;}
	.st337{opacity:0.4527;fill:#E3E4E5;}
	.st338{opacity:0.4478;fill:#E4E5E6;}
	.st339{opacity:0.4428;fill:#E4E5E6;}
	.st340{opacity:0.4378;fill:#E4E5E6;}
	.st341{opacity:0.4328;fill:#E5E5E6;}
	.st342{opacity:0.4279;fill:#E5E6E7;}
	.st343{opacity:0.4229;fill:#E5E6E7;}
	.st344{opacity:0.4179;fill:#E5E6E7;}
	.st345{opacity:0.4129;fill:#E6E6E7;}
	.st346{opacity:0.408;fill:#E6E7E8;}
	.st347{opacity:0.403;fill:#E6E7E8;}
	.st348{opacity:0.398;fill:#E6E7E8;}
	.st349{opacity:0.393;fill:#E7E8E8;}
	.st350{opacity:0.3881;fill:#E7E8E9;}
	.st351{opacity:0.3831;fill:#E7E8E9;}
	.st352{opacity:0.3781;fill:#E8E8E9;}
	.st353{opacity:0.3731;fill:#E8E9E9;}
	.st354{opacity:0.3682;fill:#E8E9EA;}
	.st355{opacity:0.3632;fill:#E8E9EA;}
	.st356{opacity:0.3582;fill:#E9E9EA;}
	.st357{opacity:0.3532;fill:#E9EAEB;}
	.st358{opacity:0.3483;fill:#E9EAEB;}
	.st359{opacity:0.3433;fill:#EAEAEB;}
	.st360{opacity:0.3383;fill:#EAEBEB;}
	.st361{opacity:0.3333;fill:#EAEBEC;}
	.st362{opacity:0.3284;fill:#EAEBEC;}
	.st363{opacity:0.3234;fill:#EBEBEC;}
	.st364{opacity:0.3184;fill:#EBECEC;}
	.st365{opacity:0.3134;fill:#EBECED;}
	.st366{opacity:0.3085;fill:#EBECED;}
	.st367{opacity:0.3035;fill:#ECECED;}
	.st368{opacity:0.2985;fill:#ECECED;}
	.st369{opacity:0.2935;fill:#ECEDED;}
	.st370{opacity:0.2886;fill:#ECEDEE;}
	.st371{opacity:0.2836;fill:#EDEDEE;}
	.st372{opacity:0.2786;fill:#EDEEEE;}
	.st373{opacity:0.2736;fill:#EDEEEE;}
	.st374{opacity:0.2687;fill:#EDEEEF;}
	.st375{opacity:0.2637;fill:#EEEEEF;}
	.st376{opacity:0.2587;fill:#EEEFEF;}
	.st377{opacity:0.2537;fill:#EEEFEF;}
	.st378{opacity:0.2488;fill:#EEEFF0;}
	.st379{opacity:0.2438;fill:#EFEFF0;}
	.st380{opacity:0.2388;fill:#EFF0F0;}
	.st381{opacity:0.2338;fill:#EFF0F0;}
	.st382{opacity:0.2289;fill:#F0F0F1;}
	.st383{opacity:0.2239;fill:#F0F0F1;}
	.st384{opacity:0.2189;fill:#F0F1F1;}
	.st385{opacity:0.2139;fill:#F0F1F1;}
	.st386{opacity:0.209;fill:#F1F1F2;}
	.st387{opacity:0.204;fill:#F1F1F2;}
	.st388{opacity:0.199;fill:#F1F2F2;}
	.st389{opacity:0.194;fill:#F1F2F2;}
	.st390{opacity:0.1891;fill:#F2F2F3;}
	.st391{opacity:0.1841;fill:#F2F2F3;}
	.st392{opacity:0.1791;fill:#F2F3F3;}
	.st393{opacity:0.1741;fill:#F2F3F3;}
	.st394{opacity:0.1692;fill:#F3F3F4;}
	.st395{opacity:0.1642;fill:#F3F3F4;}
	.st396{opacity:0.1592;fill:#F3F4F4;}
	.st397{opacity:0.1542;fill:#F4F4F4;}
	.st398{opacity:0.1493;fill:#F4F4F5;}
	.st399{opacity:0.1443;fill:#F4F4F5;}
	.st400{opacity:0.1393;fill:#F4F5F5;}
	.st401{opacity:0.1343;fill:#F5F5F5;}
	.st402{opacity:0.1294;fill:#F5F5F6;}
	.st403{opacity:0.1244;fill:#F5F6F6;}
	.st404{opacity:0.1194;fill:#F6F6F6;}
	.st405{opacity:0.1144;fill:#F6F6F7;}
	.st406{opacity:0.1095;fill:#F6F6F7;}
	.st407{opacity:0.1045;fill:#F6F7F7;}
	.st408{opacity:9.950249e-02;fill:#F7F7F7;}
	.st409{opacity:9.452736e-02;fill:#F7F7F8;}
	.st410{opacity:8.955224e-02;fill:#F7F8F8;}
	.st411{opacity:8.457711e-02;fill:#F8F8F8;}
	.st412{opacity:7.960199e-02;fill:#F8F8F9;}
	.st413{opacity:7.462686e-02;fill:#F8F9F9;}
	.st414{opacity:6.965174e-02;fill:#F9F9F9;}
	.st415{opacity:6.467662e-02;fill:#F9F9F9;}
	.st416{opacity:5.970149e-02;fill:#F9FAFA;}
	.st417{opacity:5.472637e-02;fill:#FAFAFA;}
	.st418{opacity:4.975124e-02;fill:#FAFAFA;}
	.st419{opacity:4.477612e-02;fill:#FBFBFB;}
	.st420{opacity:3.980099e-02;fill:#FBFBFB;}
	.st421{opacity:3.482587e-02;fill:#FBFCFC;}
	.st422{opacity:2.985075e-02;fill:#FCFCFC;}
	.st423{opacity:2.487562e-02;fill:#FCFCFD;}
	.st424{opacity:1.990050e-02;fill:#FDFDFD;}
	.st425{opacity:1.492537e-02;fill:#FDFDFD;}
	.st426{opacity:9.950249e-03;fill:#FEFEFE;}
	.st427{opacity:4.975124e-03;fill:#FEFEFE;}
	.st428{opacity:0;fill:#FFFFFF;}
	.st429{fill:#0A7EC2;}
</style>
<g id="border">
	<g>
		<path class="st0" d="M4,27.5c-1.9,0-3.5-1.6-3.5-3.5V4c0-1.9,1.6-3.5,3.5-3.5h42c1.9,0,3.5,1.6,3.5,3.5v20c0,1.9-1.6,3.5-3.5,3.5
			H4z"/>
		<path class="st1" d="M46,1c1.7,0,3,1.3,3,3v20c0,1.7-1.3,3-3,3H4c-1.7,0-3-1.3-3-3V4c0-1.7,1.3-3,3-3H46 M46,0H4C1.8,0,0,1.8,0,4
			v20c0,2.2,1.8,4,4,4h42c2.2,0,4-1.8,4-4V4C50,1.8,48.2,0,46,0L46,0z"/>
	</g>
</g>
<g id="Visa">
	<path class="st2" d="M19.1,8.1l-5,11.9h-3.3l-2.5-9.5c-0.1-0.6-0.3-0.8-0.7-1c-0.7-0.4-2-0.8-3-1l0.1-0.3h5.2
		c0.7,0,1.3,0.4,1.4,1.2l1.3,6.9l3.2-8.1H19.1z M31.9,16.1c0-3.1-4.3-3.3-4.3-4.7c0-0.4,0.4-0.9,1.3-1c0.4-0.1,1.7-0.1,3,0.5
		l0.5-2.5c-0.7-0.3-1.7-0.5-2.9-0.5c-3,0-5.2,1.6-5.2,3.9c0,1.7,1.5,2.7,2.7,3.2c1.2,0.6,1.6,1,1.6,1.5c0,0.8-1,1.2-1.8,1.2
		c-1.6,0-2.4-0.4-3.2-0.8l-0.6,2.6c0.7,0.3,2,0.6,3.4,0.6C29.7,20.2,31.9,18.6,31.9,16.1 M39.9,20h2.8L40.3,8.1h-2.6
		c-0.6,0-1.1,0.3-1.3,0.9l-4.6,11h3.2l0.6-1.8h4L39.9,20z M36.5,15.8l1.6-4.5l0.9,4.5H36.5z M23.5,8.1L21,20h-3.1l2.5-11.9H23.5z"/>
</g>
<g id="PayPal" class="st3">
	<g class="st4">
		<g>
			<g>
				<path class="st5" d="M32.7,11.5c-0.2,1.2-1.1,1.2-1.9,1.2h-0.5l0.3-2.2c0-0.1,0.1-0.2,0.3-0.2h0.2c0.6,0,1.1,0,1.4,0.3
					C32.7,10.8,32.8,11.1,32.7,11.5L32.7,11.5z M32.3,8.4h-3.3c-0.2,0-0.4,0.2-0.4,0.4l-1.3,8.4c0,0.2,0.1,0.3,0.3,0.3h1.7
					c0.2,0,0.3-0.1,0.3-0.3l0.4-2.4c0-0.2,0.2-0.4,0.4-0.4h1c2.2,0,3.4-1,3.7-3.1c0.1-0.9,0-1.6-0.4-2.1C34.3,8.7,33.4,8.4,32.3,8.4
					L32.3,8.4z"/>
				<path class="st6" d="M9.4,11.5c-0.2,1.2-1.1,1.2-1.9,1.2H7l0.3-2.2c0-0.1,0.1-0.2,0.3-0.2h0.2c0.6,0,1.1,0,1.4,0.3
					C9.4,10.8,9.5,11.1,9.4,11.5L9.4,11.5z M9,8.4H5.8c-0.2,0-0.4,0.2-0.4,0.4L4,17.2c0,0.2,0.1,0.3,0.3,0.3h1.6
					c0.2,0,0.4-0.2,0.4-0.4l0.4-2.3c0-0.2,0.2-0.4,0.4-0.4h1c2.2,0,3.4-1,3.7-3.1c0.1-0.9,0-1.6-0.4-2.1C11,8.7,10.1,8.4,9,8.4
					L9,8.4z"/>
			</g>
			<path class="st6" d="M16.6,14.5c-0.2,0.9-0.9,1.5-1.8,1.5c-0.5,0-0.8-0.1-1.1-0.4c-0.2-0.3-0.3-0.7-0.2-1.1
				c0.1-0.9,0.9-1.5,1.8-1.5c0.4,0,0.8,0.1,1,0.4C16.6,13.6,16.7,14,16.6,14.5L16.6,14.5z M18.8,11.4h-1.6c-0.1,0-0.2,0.1-0.3,0.2
				l-0.1,0.4l-0.1-0.2c-0.3-0.5-1.1-0.7-1.8-0.7c-1.7,0-3.2,1.3-3.5,3.1c-0.1,0.9,0.1,1.8,0.6,2.4c0.5,0.6,1.2,0.8,2,0.8
				c1.4,0,2.2-0.9,2.2-0.9l-0.1,0.4c0,0.2,0.1,0.3,0.3,0.3h1.4c0.2,0,0.4-0.2,0.4-0.4l0.8-5.4C19.1,11.6,19,11.4,18.8,11.4
				L18.8,11.4z"/>
			<path class="st5" d="M39.9,14.5c-0.2,0.9-0.9,1.5-1.8,1.5c-0.5,0-0.8-0.1-1.1-0.4c-0.2-0.3-0.3-0.7-0.2-1.1
				c0.1-0.9,0.9-1.5,1.8-1.5c0.4,0,0.8,0.1,1,0.4C39.9,13.6,40,14,39.9,14.5L39.9,14.5z M42.1,11.4h-1.6c-0.1,0-0.2,0.1-0.3,0.2
				l-0.1,0.4l-0.1-0.2c-0.3-0.5-1.1-0.7-1.8-0.7c-1.7,0-3.2,1.3-3.5,3.1c-0.1,0.9,0.1,1.8,0.6,2.4c0.5,0.6,1.2,0.8,2,0.8
				c1.4,0,2.2-0.9,2.2-0.9l-0.1,0.4c0,0.2,0.1,0.3,0.3,0.3h1.4c0.2,0,0.4-0.2,0.4-0.4l0.8-5.4C42.4,11.6,42.3,11.4,42.1,11.4
				L42.1,11.4z"/>
			<g>
				<path class="st6" d="M27.1,11.4h-1.6c-0.2,0-0.3,0.1-0.4,0.2L23,14.8l-0.9-3.1c-0.1-0.2-0.2-0.3-0.4-0.3h-1.5
					c-0.2,0-0.3,0.2-0.3,0.4l1.7,5.1L20,19.2c-0.1,0.2,0,0.4,0.2,0.4h1.6c0.1,0,0.3-0.1,0.4-0.2l5.2-7.5
					C27.5,11.7,27.4,11.4,27.1,11.4L27.1,11.4z"/>
				<path class="st5" d="M43.9,8.6l-1.3,8.5c0,0.2,0.1,0.3,0.3,0.3h1.3c0.2,0,0.4-0.2,0.4-0.4L46,8.7c0-0.2-0.1-0.3-0.3-0.3h-1.5
					C44.1,8.4,44,8.5,43.9,8.6L43.9,8.6z"/>
			</g>
		</g>
	</g>
</g>
<g id="Mastercard" class="st3">
	<g class="st4">
		<g id="XMLID_328_">
			<rect x="19.9" y="5.7" class="st7" width="10.1" height="16.5"/>
			<path id="XMLID_330_" class="st8" d="M21,14c0-3.3,1.6-6.3,4-8.3c-1.8-1.4-4-2.2-6.5-2.2C12.7,3.5,8,8.2,8,14s4.7,10.5,10.5,10.5
				c2.4,0,4.7-0.8,6.5-2.2C22.6,20.3,21,17.3,21,14z"/>
			<path class="st9" d="M42,14c0,5.8-4.7,10.5-10.5,10.5c-2.4,0-4.7-0.8-6.5-2.2c2.4-1.9,4-4.9,4-8.3c0-3.3-1.6-6.3-4-8.3
				c1.8-1.4,4-2.2,6.5-2.2C37.3,3.5,42,8.2,42,14z"/>
		</g>
	</g>
</g>
<g id="Klarna_x5F_formerly-SoFort" class="st3">
	<g class="st4">
		<path class="st10" d="M46,28H4c-2.2,0-4-1.8-4-4V4c0-2.2,1.8-4,4-4h42c2.2,0,4,1.8,4,4v20C50,26.2,48.2,28,46,28z"/>
	</g>
	<g id="Badges_1_" class="st4">
		<g id="Logo_1_" transform="translate(-25.000000, -122.000000)">
			<g id="Badge-_x2F_-xx_x5F_xx-_x2F_-pay_x5F_now-_x2F_-standard-_x2F_pink_1_" transform="translate(25.000000, 122.000000)">
				<g id="Logo-_x2F_-White-_x28_Clean_x29_-Copy_1_" transform="translate(20.000000, 44.000000)">
					<path id="Shape_15_" class="st0" d="M-2.8-24.8H-4c0,1-0.5,2-1.3,2.6l-0.5,0.4l1.9,2.6h1.6l-1.8-2.4
						C-3.3-22.4-2.8-23.6-2.8-24.8z"/>
					<rect id="Rectangle-path_3_" x="-7.2" y="-24.8" class="st0" width="1.3" height="5.5"/>
					<rect id="Rectangle-path_2_" x="-2" y="-24.8" class="st0" width="1.2" height="5.5"/>
					<path id="Shape_14_" class="st0" d="M9.8-23.1c-0.5,0-0.9,0.1-1.2,0.5V-23H7.5v3.8h1.2v-2c0-0.6,0.4-0.9,0.9-0.9
						c0.5,0,0.8,0.3,0.8,0.9v2h1.1v-2.4C11.4-22.5,10.7-23.1,9.8-23.1z"/>
					<path id="Shape_13_" class="st0" d="M2.9-23v0.2c-0.3-0.2-0.7-0.4-1.1-0.4c-1.1,0-2,0.9-2,2s0.9,2,2,2c0.4,0,0.8-0.1,1.1-0.4
						v0.2H4V-23H2.9z M1.8-20.1c-0.6,0-1-0.4-1-1c0-0.5,0.5-1,1-1s1,0.4,1,1C2.9-20.6,2.4-20.1,1.8-20.1z"/>
					<path id="Shape_12_" class="st0" d="M5.8-22.5V-23H4.6v3.8h1.2V-21c0-0.6,0.7-0.9,1.1-0.9c0,0,0,0,0,0V-23
						C6.5-23,6-22.8,5.8-22.5z"/>
					<path id="Shape_11_" class="st0" d="M15-23v0.2c-0.3-0.2-0.7-0.4-1.1-0.4c-1.1,0-2,0.9-2,2s0.9,2,2,2c0.4,0,0.8-0.1,1.1-0.4
						v0.2h1.1V-23H15z M14-20.1c-0.6,0-1-0.4-1-1c0-0.5,0.5-1,1-1c0.6,0,1,0.4,1,1C15-20.6,14.6-20.1,14-20.1z"/>
					<path id="Shape_10_" class="st0" d="M17.4-20.6c-0.4,0-0.7,0.3-0.7,0.7c0,0.4,0.3,0.7,0.7,0.7s0.7-0.3,0.7-0.7
						C18.1-20.3,17.8-20.6,17.4-20.6z"/>
				</g>
				<g id="Icons-_x2F_-Pay-now-_x2F_-White_1_" transform="translate(36.000000, 5.000000)">
					<path id="_Path__1_" class="st0" d="M-12.5,8c0.3,0.3,0.3,0.8,0,1.1l-0.1,0.1c-0.3,0.3-0.8,0.3-1.1,0l-1.7-1.7
						c-0.5-0.5-0.5-1-0.2-1.3l0.1-0.1c0.2-0.2,0.6-0.3,0.9-0.1c0.1,0.1,0.3,0.1,0.4-0.1c0.1-0.1,0.1-0.3-0.1-0.4
						c-0.5-0.4-1.3-0.4-1.7,0.1L-16,5.7c-0.5,0.6-0.4,1.5,0.2,2.2l1.7,1.7c0.5,0.5,1.4,0.5,1.9,0l0.1-0.1c0.5-0.5,0.5-1.4,0-1.9
						c-0.1-0.1-0.3-0.1-0.4,0C-12.6,7.7-12.6,7.9-12.5,8z"/>
					<path id="_Path_2_1_" class="st0" d="M-13.5-1l0.7,5.7c0,0.2,0.2,0.3,0.3,0.3c0.2,0,0.3-0.2,0.3-0.3l-0.7-5.7l0,0
						c-0.1-0.5,0.2-1,0.6-1.1c0.2,0,0.4,0,0.6,0.1s0.3,0.3,0.4,0.5l1.2,5.1c0,0.2,0.2,0.3,0.4,0.2c0.2,0,0.3-0.2,0.2-0.4l-1.2-5.1
						c-0.1-0.4-0.3-0.7-0.6-0.9c-0.3-0.2-0.7-0.3-1.1-0.2C-13.2-2.7-13.7-1.8-13.5-1z"/>
					<path id="_Path_3_1_" class="st0" d="M-7.2,5.6l1.4-6.8c0.2-0.7-0.3-1.5-1-1.7C-7.6-3-8.4-2.5-8.7-1.8l-1.5,5.2
						c0,0.2,0,0.3,0.2,0.4c0.2,0,0.3,0,0.4-0.2l1.5-5.2C-7.9-2.1-7.5-2.4-7-2.2c0.4,0.1,0.7,0.5,0.6,1l-1.4,6.8
						c0,0.2,0.1,0.3,0.2,0.4C-7.4,5.9-7.2,5.8-7.2,5.6z"/>
					<path id="Shape_9_" class="st0" d="M-10.6,12.2c-2.2,0-4-1.6-4-3.8c0-0.2-0.1-0.3-0.3-0.3s-0.3,0.1-0.3,0.3
						c0,2.6,2.1,4.4,4.6,4.4c0.2,0,0.3-0.1,0.3-0.3C-10.3,12.3-10.5,12.2-10.6,12.2z"/>
					<path id="_Path_4_1_" class="st0" d="M-11.7,6.9c0,0.2-0.2,0.3-0.3,0.4l-0.1,0c-0.3,0.2-0.8,0.1-1.1-0.2l-1.3-2
						c-0.4-0.5-0.3-1.1,0-1.4l0.1,0c0.4-0.3,0.8-0.1,1.2,0.5l1.1,1.6c0.1,0.1,0.3,0.2,0.4,0.1c0.1-0.1,0.2-0.3,0.1-0.4l-1.1-1.6
						c-0.5-0.8-1.2-1.1-2-0.7l-0.1,0.1c-0.6,0.4-0.7,1.4-0.2,2.2l1.3,2c0.4,0.6,1.3,0.8,1.9,0.4l0.1,0c0.3-0.2,0.5-0.4,0.5-0.8
						c0-0.2,0-0.3-0.2-0.4S-11.6,6.7-11.7,6.9z"/>
					<path id="Shape_8_" class="st0" d="M-9.7,7.9c-0.6,0.4-1,1-1.1,2c0,0.2,0.1,0.3,0.3,0.3s0.3-0.1,0.3-0.3c0-0.9,0.4-1.4,1-1.6
						c0.3-0.1,0.6-0.1,0.9-0.1c0,0,0.1,0,0.1,0c0.4,0.1,0.5-0.5,0.1-0.6l-2.3-0.5c-1.1-0.3-1.3-0.7-1.1-1.4c0.1-0.3,0.3-0.4,0.5-0.5
						c0.2,0,0.4,0,0.6,0c0.1,0,0.1,0,0.1,0l3.5,0.8c0,0,0,0,0.1,0c0.1,0,0.1,0.1,0.2,0.1C-6.2,6.5-6.1,7-6.1,7.7
						c-0.2,2.7-1.5,4.4-4.5,4.4c-0.2,0-0.3,0.1-0.3,0.3c0,0.2,0.1,0.3,0.3,0.3c3.4,0,4.9-2,5.1-5c0.1-0.9-0.1-1.6-0.5-2
						c-0.2-0.2-0.4-0.3-0.6-0.3l-3.5-0.8c0,0-0.1,0-0.2,0c-0.3,0-0.5-0.1-0.8,0c-0.5,0.1-0.8,0.4-1,0.9c-0.3,1,0,1.7,1.5,2.1
						L-9.7,7.9z"/>
				</g>
			</g>
		</g>
	</g>
</g>
<g id="JCB" class="st3">
	<g class="st4">
		<path class="st0" d="M40.6,21.2c0,2.7-2.2,4.8-4.8,4.8H9.4V6.8c0-2.7,2.2-4.8,4.8-4.8h26.3V21.2z"/>
		<g>
			
				<linearGradient id="SVGID_1_" gradientUnits="userSpaceOnUse" x1="30.1405" y1="16.1459" x2="37.7499" y2="16.1459" gradientTransform="matrix(1.125 0 0 1.125 -3.6005 -2.8303)">
				<stop  offset="0" style="stop-color:#007F49"/>
				<stop  offset="0.2285" style="stop-color:#008D49"/>
				<stop  offset="0.7433" style="stop-color:#4FAC48"/>
				<stop  offset="1" style="stop-color:#62BB46"/>
			</linearGradient>
			<path class="st11" d="M32,16.2h2c0.1,0,0.2,0,0.2,0c0.4-0.1,0.7-0.4,0.7-0.9c0-0.5-0.3-0.8-0.7-0.9c-0.1,0-0.2,0-0.2,0h-2V16.2z"
				/>
			
				<linearGradient id="SVGID_2_" gradientUnits="userSpaceOnUse" x1="30.1404" y1="14.9602" x2="37.75" y2="14.9602" gradientTransform="matrix(1.125 0 0 1.125 -3.6005 -2.8303)">
				<stop  offset="0" style="stop-color:#007F49"/>
				<stop  offset="0.2285" style="stop-color:#008D49"/>
				<stop  offset="0.7433" style="stop-color:#4FAC48"/>
				<stop  offset="1" style="stop-color:#62BB46"/>
			</linearGradient>
			<path class="st12" d="M33.8,3.6c-1.9,0-3.5,1.5-3.5,3.5v3.6h4.9c0.1,0,0.3,0,0.3,0c1.1,0.1,1.9,0.6,1.9,1.6
				c0,0.8-0.6,1.4-1.6,1.6v0c1.1,0.1,2,0.7,2,1.7c0,1.1-0.9,1.7-2.2,1.7h-5.4v7.1h5.1c1.9,0,3.5-1.5,3.5-3.5V3.6H33.8z"/>
			
				<linearGradient id="SVGID_3_" gradientUnits="userSpaceOnUse" x1="30.1405" y1="13.6695" x2="37.7494" y2="13.6695" gradientTransform="matrix(1.125 0 0 1.125 -3.6005 -2.8303)">
				<stop  offset="0" style="stop-color:#007F49"/>
				<stop  offset="0.2285" style="stop-color:#008D49"/>
				<stop  offset="0.7433" style="stop-color:#4FAC48"/>
				<stop  offset="1" style="stop-color:#62BB46"/>
			</linearGradient>
			<path class="st13" d="M34.7,12.5c0-0.5-0.3-0.8-0.7-0.8c0,0-0.1,0-0.2,0H32v1.7h1.8c0.1,0,0.2,0,0.2,0
				C34.4,13.3,34.7,13,34.7,12.5z"/>
		</g>
		
			<linearGradient id="SVGID_4_" gradientUnits="userSpaceOnUse" x1="13.1053" y1="14.9602" x2="20.8323" y2="14.9602" gradientTransform="matrix(1.125 0 0 1.125 -3.6005 -2.8303)">
			<stop  offset="0" style="stop-color:#333376"/>
			<stop  offset="0.4751" style="stop-color:#005999"/>
			<stop  offset="0.8261" style="stop-color:#006FB3"/>
			<stop  offset="1" style="stop-color:#0077C0"/>
		</linearGradient>
		<path class="st14" d="M14.6,3.6c-1.9,0-3.5,1.5-3.5,3.5v8.5c1,0.5,2,0.8,3,0.8c1.2,0,1.9-0.7,1.9-1.7v-4h3v4c0,1.6-1,2.8-4.3,2.8
			c-2,0-3.6-0.4-3.6-0.4v7.3h5.1c1.9,0,3.5-1.5,3.5-3.5V3.6H14.6z"/>
		
			<linearGradient id="SVGID_5_" gradientUnits="userSpaceOnUse" x1="21.5823" y1="14.9602" x2="29.0869" y2="14.9602" gradientTransform="matrix(1.125 0 0 1.125 -3.6005 -2.8303)">
			<stop  offset="0" style="stop-color:#743237"/>
			<stop  offset="0.1735" style="stop-color:#8C3039"/>
			<stop  offset="0.5731" style="stop-color:#BE273F"/>
			<stop  offset="0.8585" style="stop-color:#DF1E44"/>
			<stop  offset="1" style="stop-color:#ED1846"/>
		</linearGradient>
		<path class="st15" d="M24.2,3.6c-1.9,0-3.5,1.5-3.5,3.5v4.5c0.9-0.8,2.4-1.2,4.9-1.1c1.3,0.1,2.7,0.4,2.7,0.4v1.5
			c-0.7-0.4-1.5-0.7-2.6-0.8c-1.9-0.1-3,0.8-3,2.4c0,1.6,1.1,2.5,3,2.4c1.1-0.1,1.9-0.4,2.6-0.8v1.5c0,0-1.4,0.4-2.7,0.4
			c-2.5,0.1-4-0.4-4.9-1.1v8h5.1c1.9,0,3.5-1.5,3.5-3.5V3.6H24.2z"/>
	</g>
</g>
<g id="iDeal" class="st3">
	<g class="st4">
		<path class="st16" d="M46,28H4c-2.2,0-4-1.8-4-4V4c0-2.2,1.8-4,4-4h42c2.2,0,4,1.8,4,4v20C50,26.2,48.2,28,46,28z"/>
	</g>
	<path class="st17" d="M14.8,5v18h10.5c6.9,0,9.9-3.9,9.9-9c0-5.1-3-9-9.9-9H14.8z"/>
	<path class="st18" d="M16.8,7V21h8.5c5.1,0,7.9-2.4,7.9-7c0-4.7-3-6.9-7.9-6.9H16.8z M25.3,6.3c7.5,0,8.6,4.8,8.6,7.7
		c0,5-3.1,7.7-8.6,7.7h-9.2V6.3H25.3z"/>
	<rect x="18" y="15" class="st18" width="2.7" height="4.8"/>
	<path class="st18" d="M21,12.6c0,0.9-0.8,1.7-1.7,1.7c-0.9,0-1.7-0.8-1.7-1.7c0-0.9,0.8-1.7,1.7-1.7C20.3,10.9,21,11.6,21,12.6"/>
	<path class="st19" d="M22,11.8v1.6h0.5c0.3,0,0.6-0.1,0.6-0.8c0-0.7-0.3-0.8-0.6-0.8H22z M30.1,11h0.8v2.4H32
		c-0.3-4.3-3.7-5.2-6.7-5.2H22V11h0.5c0.9,0,1.4,0.6,1.4,1.6c0,1-0.5,1.6-1.4,1.6H22v5.7h3.3c5,0,6.7-2.3,6.7-5.7h-2V11z M27.9,12.8
		h0.6l-0.3-0.9h0L27.9,12.8z M26.7,14.1l0.9-3.1h1.1l0.9,3.1h-0.8l-0.2-0.6h-1l-0.2,0.6H26.7z M26.3,13.4v0.8h-1.9V11h1.9v0.8h-1.1
		v0.4h1v0.8h-1v0.4H26.3z"/>
</g>
<g id="giropay" class="st3">
	<g class="st4">
		<path class="st20" d="M46,28H4c-2.2,0-4-1.8-4-4V4c0-2.2,1.8-4,4-4h42c2.2,0,4,1.8,4,4v20C50,26.2,48.2,28,46,28z"/>
	</g>
	<g class="st4">
		<path class="st0" d="M26.7,5.5H6.2c-1.1,0-2,0.9-2,2v13.1c0,1.1,0.9,2,2,2h20.5V5.5z"/>
	</g>
	<path class="st17" d="M32.1,13.8c0,0.8-0.4,1.3-1,1.3c-0.6,0-1.1-0.5-1.1-1.3c0-0.7,0.4-1.3,1.1-1.3C31.7,12.6,32.1,13.2,32.1,13.8
		 M28.3,18.4H30v-2.7h0c0.3,0.6,1,0.8,1.6,0.8c1.5,0,2.3-1.2,2.3-2.7c0-1.2-0.8-2.5-2.1-2.5c-0.8,0-1.5,0.3-1.9,1h0v-0.9h-1.6V18.4z
		"/>
	<path class="st17" d="M36.2,14.8c0-0.5,0.5-0.7,1-0.7c0.3,0,0.5,0,0.7,0c0,0.6-0.4,1.2-1.1,1.2C36.5,15.4,36.2,15.2,36.2,14.8
		 M39.7,16.4c-0.1-0.4-0.1-0.8-0.1-1.2v-1.9c0-1.5-1.1-2.1-2.4-2.1c-0.7,0-1.4,0.1-2,0.4l0,1.2c0.5-0.3,1-0.4,1.6-0.4
		c0.6,0,1.1,0.2,1.1,0.9c-0.2,0-0.5-0.1-0.8-0.1c-0.9,0-2.6,0.2-2.6,1.7c0,1.1,0.9,1.6,1.9,1.6c0.7,0,1.2-0.3,1.6-0.9h0
		c0,0.3,0,0.5,0,0.8H39.7z"/>
	<path class="st17" d="M40.5,18.4c0.4,0.1,0.7,0.1,1.1,0.1c1.6,0,2-1.2,2.4-2.5l1.8-4.6h-1.7l-1,3.2h0L42,11.4h-1.9l2,5.1
		c-0.1,0.4-0.4,0.7-0.9,0.7c-0.2,0-0.5,0-0.7-0.1L40.5,18.4z"/>
	<path class="st21" d="M8.4,13.9c0-0.7,0.3-1.2,1-1.2c0.8,0,1.1,0.6,1.1,1.2c0,0.8-0.5,1.3-1.1,1.3C8.9,15.1,8.4,14.6,8.4,13.9
		 M12.1,11.4h-1.6v0.9h0c-0.4-0.6-1-1-1.7-1c-1.5,0-2.2,1.1-2.2,2.6c0,1.5,0.9,2.5,2.2,2.5c0.7,0,1.3-0.3,1.7-0.9h0v0.3
		c0,1-0.5,1.4-1.5,1.4c-0.7,0-1.2-0.2-1.7-0.4l-0.1,1.4c0.4,0.1,1.1,0.3,1.9,0.3c2,0,3-0.7,3-2.7V11.4z"/>
	<path class="st21" d="M15.1,9.3h-1.7v1.3h1.7V9.3z M13.3,16.4h1.7v-5h-1.7V16.4z"/>
	<path class="st21" d="M19.8,11.4c-0.2,0-0.4-0.1-0.6-0.1c-0.7,0-1.2,0.4-1.5,1h0v-0.9h-1.6v5h1.7v-2.1c0-1,0.4-1.6,1.3-1.6
		c0.2,0,0.4,0,0.6,0.1L19.8,11.4z"/>
	<path class="st21" d="M22.8,15.3c-0.8,0-1.1-0.7-1.1-1.4c0-0.7,0.3-1.4,1.1-1.4c0.8,0,1.1,0.7,1.1,1.4
		C23.9,14.6,23.6,15.3,22.8,15.3 M22.8,16.5c1.6,0,2.9-1,2.9-2.6c0-1.7-1.3-2.6-2.9-2.6c-1.6,0-2.9,1-2.9,2.6
		C19.9,15.5,21.2,16.5,22.8,16.5"/>
</g>
<g id="Discover" class="st3">
	<path class="st22" d="M49.2,16c0,0-8.1,7-23.1,11.5c-1.7,0.5,21.2,0,21.2,0l2-1.9V16z"/>
	<path class="st4" d="M4.8,9.4h-2v7.1h2c1.1,0,1.9-0.3,2.5-0.8C8.1,15.1,8.6,14,8.6,13C8.6,10.9,7,9.4,4.8,9.4z M6.4,14.8
		c-0.4,0.4-1,0.6-1.9,0.6H4.1v-4.7h0.4c0.9,0,1.4,0.2,1.9,0.6c0.5,0.4,0.8,1.1,0.8,1.8C7.1,13.7,6.9,14.4,6.4,14.8z"/>
	<rect x="9.2" y="9.4" class="st4" width="1.4" height="7.1"/>
	<path class="st4" d="M14,12.2c-0.8-0.3-1.1-0.5-1.1-0.9c0-0.4,0.4-0.8,1-0.8c0.4,0,0.8,0.2,1.1,0.6l0.7-0.9
		c-0.6-0.5-1.3-0.8-2.1-0.8c-1.3,0-2.2,0.9-2.2,2c0,1,0.4,1.5,1.7,1.9c0.5,0.2,0.8,0.3,1,0.4c0.3,0.2,0.4,0.4,0.4,0.7
		c0,0.6-0.5,1-1.1,1c-0.7,0-1.2-0.3-1.5-0.9l-0.9,0.9c0.6,0.9,1.4,1.4,2.5,1.4c1.4,0,2.5-1,2.5-2.3C16,13.3,15.6,12.7,14,12.2z"/>
	<path class="st4" d="M16.5,13c0,2.1,1.6,3.7,3.8,3.7c0.6,0,1.1-0.1,1.7-0.4v-1.6c-0.6,0.6-1,0.8-1.7,0.8c-1.4,0-2.4-1-2.4-2.5
		c0-1.4,1-2.4,2.3-2.4c0.7,0,1.2,0.2,1.7,0.8V9.7c-0.6-0.3-1.1-0.4-1.7-0.4C18.1,9.3,16.5,10.9,16.5,13z"/>
	<polygon class="st4" points="32.9,14.2 31.1,9.4 29.5,9.4 32.6,16.7 33.3,16.7 36.4,9.4 34.9,9.4 	"/>
	<polygon class="st4" points="37,16.6 40.9,16.6 40.9,15.3 38.4,15.3 38.4,13.4 40.8,13.4 40.8,12.2 38.4,12.2 38.4,10.6 40.9,10.6 
		40.9,9.4 37,9.4 	"/>
	<path class="st4" d="M46.4,11.5c0-1.3-0.9-2.1-2.5-2.1h-2.1v7.1h1.4v-2.9h0.2l1.9,2.9H47l-2.2-3C45.8,13.3,46.4,12.6,46.4,11.5z
		 M43.6,12.7h-0.4v-2.2h0.4c0.9,0,1.3,0.4,1.3,1.1C45,12.3,44.5,12.7,43.6,12.7z"/>
	<g class="st4">
		<g>
			<linearGradient id="SVGID_6_" gradientUnits="userSpaceOnUse" x1="28.1231" y1="16.053" x2="25.5056" y2="11.9548">
				<stop  offset="0" style="stop-color:#F9A020"/>
				<stop  offset="0.2041" style="stop-color:#F99D20"/>
				<stop  offset="0.4348" style="stop-color:#F79320"/>
				<stop  offset="0.6196" style="stop-color:#F68820"/>
				<stop  offset="0.7969" style="stop-color:#F57E20"/>
				<stop  offset="1" style="stop-color:#F47521"/>
			</linearGradient>
			<path class="st23" d="M30,13c0,2.1-1.7,3.8-3.8,3.8c-2.1,0-3.8-1.7-3.8-3.8s1.7-3.8,3.8-3.8C28.3,9.2,30,10.9,30,13z"/>
			<linearGradient id="SVGID_7_" gradientUnits="userSpaceOnUse" x1="27.7096" y1="15.9973" x2="23.884" y2="8.52">
				<stop  offset="0" style="stop-color:#F68820;stop-opacity:0"/>
				<stop  offset="0.3403" style="stop-color:#E17029;stop-opacity:0.2565"/>
				<stop  offset="0.6944" style="stop-color:#D4602D;stop-opacity:0.5235"/>
				<stop  offset="0.9816" style="stop-color:#D05B2E;stop-opacity:0.74"/>
			</linearGradient>
			<path class="st24" d="M30,13c0,2.1-1.7,3.8-3.8,3.8c-2.1,0-3.8-1.7-3.8-3.8s1.7-3.8,3.8-3.8C28.3,9.2,30,10.9,30,13z"/>
		</g>
		<g class="st25">
			<defs>
				<path id="SVGID_8_" class="st25" d="M30,13c0,2.1-1.7,3.8-3.8,3.8c-2.1,0-3.8-1.7-3.8-3.8s1.7-3.8,3.8-3.8
					C28.3,9.2,30,10.9,30,13z"/>
			</defs>
			<clipPath id="SVGID_9_">
				<use xlink:href="#SVGID_8_"  style="overflow:visible;"/>
			</clipPath>
			<g class="st26">
				<path d="M30.1,13c0,2.1-1.7,3.9-3.9,3.9c-2.1,0-3.9-1.7-3.9-3.9s1.7-3.9,3.9-3.9C28.3,9.2,30.1,10.9,30.1,13z"/>
				<path class="st27" d="M26.2,9.2c2.1,0,3.9,1.7,3.9,3.9s-1.7,3.9-3.9,3.9c-2.1,0-3.9-1.7-3.9-3.9S24.1,9.2,26.2,9.2z"/>
				<path class="st28" d="M26.2,9.2c2.1,0,3.9,1.7,3.9,3.9c0,2.1-1.7,3.9-3.9,3.9c-2.1,0-3.9-1.7-3.9-3.9
					C22.3,10.9,24.1,9.2,26.2,9.2z"/>
				<path class="st29" d="M26.2,9.2c2.1,0,3.9,1.7,3.9,3.9c0,2.1-1.7,3.9-3.9,3.9c-2.1,0-3.9-1.7-3.9-3.9
					C22.4,10.9,24.1,9.2,26.2,9.2z"/>
				<path class="st30" d="M26.2,9.2c2.1,0,3.9,1.7,3.9,3.9c0,2.1-1.7,3.9-3.9,3.9c-2.1,0-3.9-1.7-3.9-3.9
					C22.4,10.9,24.1,9.2,26.2,9.2z"/>
				<path class="st31" d="M26.2,9.2c2.1,0,3.9,1.7,3.9,3.9c0,2.1-1.7,3.9-3.9,3.9c-2.1,0-3.9-1.7-3.9-3.9
					C22.4,10.9,24.1,9.2,26.2,9.2z"/>
				<path class="st32" d="M26.2,9.2c2.1,0,3.9,1.7,3.9,3.9c0,2.1-1.7,3.9-3.9,3.9c-2.1,0-3.9-1.7-3.9-3.9
					C22.4,10.9,24.1,9.2,26.2,9.2z"/>
				<path class="st33" d="M26.2,9.2c2.1,0,3.9,1.7,3.9,3.9c0,2.1-1.7,3.9-3.9,3.9c-2.1,0-3.9-1.7-3.9-3.9
					C22.4,10.9,24.1,9.2,26.2,9.2z"/>
				<path class="st34" d="M26.2,9.2c2.1,0,3.9,1.7,3.9,3.9c0,2.1-1.7,3.9-3.9,3.9c-2.1,0-3.9-1.7-3.9-3.9
					C22.4,10.9,24.1,9.2,26.2,9.2z"/>
				<path class="st35" d="M26.2,9.2c2.1,0,3.9,1.7,3.9,3.9c0,2.1-1.7,3.9-3.9,3.9c-2.1,0-3.9-1.7-3.9-3.9
					C22.4,10.9,24.1,9.2,26.2,9.2z"/>
				<path class="st36" d="M26.2,9.2c2.1,0,3.9,1.7,3.9,3.9c0,2.1-1.7,3.9-3.9,3.9c-2.1,0-3.9-1.7-3.9-3.9
					C22.4,10.9,24.1,9.2,26.2,9.2z"/>
				<path class="st37" d="M26.2,9.2c2.1,0,3.9,1.7,3.9,3.9c0,2.1-1.7,3.9-3.9,3.9c-2.1,0-3.9-1.7-3.9-3.9
					C22.4,10.9,24.1,9.2,26.2,9.2z"/>
				<path class="st38" d="M26.2,9.2c2.1,0,3.9,1.7,3.9,3.9c0,2.1-1.7,3.9-3.9,3.9c-2.1,0-3.9-1.7-3.9-3.9
					C22.4,10.9,24.1,9.2,26.2,9.2z"/>
				<path class="st39" d="M26.2,9.2c2.1,0,3.9,1.7,3.9,3.9c0,2.1-1.7,3.9-3.9,3.9c-2.1,0-3.9-1.7-3.9-3.9
					C22.4,10.9,24.1,9.2,26.2,9.2z"/>
				<path class="st40" d="M26.2,9.2c2.1,0,3.9,1.7,3.9,3.9c0,2.1-1.7,3.9-3.9,3.9c-2.1,0-3.9-1.7-3.9-3.9
					C22.4,10.9,24.1,9.2,26.2,9.2z"/>
				<path class="st41" d="M26.2,9.2c2.1,0,3.9,1.7,3.9,3.9c0,2.1-1.7,3.9-3.9,3.9c-2.1,0-3.9-1.7-3.9-3.9
					C22.4,10.9,24.1,9.2,26.2,9.2z"/>
				<path class="st42" d="M26.2,9.2c2.1,0,3.9,1.7,3.9,3.9c0,2.1-1.7,3.9-3.9,3.9c-2.1,0-3.9-1.7-3.9-3.9
					C22.4,10.9,24.1,9.2,26.2,9.2z"/>
				<path class="st43" d="M26.2,9.2c2.1,0,3.9,1.7,3.9,3.9c0,2.1-1.7,3.8-3.9,3.8c-2.1,0-3.9-1.7-3.9-3.8C22.4,11,24.1,9.2,26.2,9.2
					z"/>
				<path class="st44" d="M26.2,9.2c2.1,0,3.8,1.7,3.8,3.8c0,2.1-1.7,3.8-3.8,3.8c-2.1,0-3.8-1.7-3.8-3.8C22.4,11,24.1,9.2,26.2,9.2
					z"/>
				<path class="st45" d="M26.2,9.2c2.1,0,3.8,1.7,3.8,3.8c0,2.1-1.7,3.8-3.8,3.8c-2.1,0-3.8-1.7-3.8-3.8C22.4,11,24.1,9.2,26.2,9.2
					z"/>
				<path class="st46" d="M26.2,9.2c2.1,0,3.8,1.7,3.8,3.8c0,2.1-1.7,3.8-3.8,3.8c-2.1,0-3.8-1.7-3.8-3.8C22.4,11,24.1,9.2,26.2,9.2
					z"/>
				<path class="st47" d="M26.2,9.2c2.1,0,3.8,1.7,3.8,3.8c0,2.1-1.7,3.8-3.8,3.8c-2.1,0-3.8-1.7-3.8-3.8C22.4,11,24.1,9.2,26.2,9.2
					z"/>
				<path class="st48" d="M26.2,9.2c2.1,0,3.8,1.7,3.8,3.8c0,2.1-1.7,3.8-3.8,3.8c-2.1,0-3.8-1.7-3.8-3.8C22.4,11,24.1,9.2,26.2,9.2
					z"/>
				<path class="st49" d="M26.2,9.2c2.1,0,3.8,1.7,3.8,3.8c0,2.1-1.7,3.8-3.8,3.8c-2.1,0-3.8-1.7-3.8-3.8C22.4,11,24.1,9.2,26.2,9.2
					z"/>
				<path class="st50" d="M26.2,9.2c2.1,0,3.8,1.7,3.8,3.8c0,2.1-1.7,3.8-3.8,3.8c-2.1,0-3.8-1.7-3.8-3.8C22.4,11,24.1,9.2,26.2,9.2
					z"/>
				<path class="st51" d="M26.3,9.2c2.1,0,3.8,1.7,3.8,3.8c0,2.1-1.7,3.8-3.8,3.8c-2.1,0-3.8-1.7-3.8-3.8C22.4,11,24.1,9.2,26.3,9.2
					z"/>
				<path class="st52" d="M26.3,9.3c2.1,0,3.8,1.7,3.8,3.8c0,2.1-1.7,3.8-3.8,3.8c-2.1,0-3.8-1.7-3.8-3.8C22.4,11,24.1,9.3,26.3,9.3
					z"/>
				<path class="st53" d="M26.3,9.3c2.1,0,3.8,1.7,3.8,3.8c0,2.1-1.7,3.8-3.8,3.8c-2.1,0-3.8-1.7-3.8-3.8C22.4,11,24.1,9.3,26.3,9.3
					z"/>
				<path class="st54" d="M26.3,9.3c2.1,0,3.8,1.7,3.8,3.8c0,2.1-1.7,3.8-3.8,3.8c-2.1,0-3.8-1.7-3.8-3.8C22.4,11,24.1,9.3,26.3,9.3
					z"/>
				<path class="st55" d="M26.3,9.3c2.1,0,3.8,1.7,3.8,3.8c0,2.1-1.7,3.8-3.8,3.8c-2.1,0-3.8-1.7-3.8-3.8C22.4,11,24.1,9.3,26.3,9.3
					z"/>
				<path class="st56" d="M26.3,9.3c2.1,0,3.8,1.7,3.8,3.8c0,2.1-1.7,3.8-3.8,3.8c-2.1,0-3.8-1.7-3.8-3.8C22.4,11,24.1,9.3,26.3,9.3
					z"/>
				<path class="st57" d="M26.3,9.3c2.1,0,3.8,1.7,3.8,3.8c0,2.1-1.7,3.8-3.8,3.8c-2.1,0-3.8-1.7-3.8-3.8C22.4,11,24.1,9.3,26.3,9.3
					z"/>
				<path class="st58" d="M26.3,9.3c2.1,0,3.8,1.7,3.8,3.8c0,2.1-1.7,3.8-3.8,3.8c-2.1,0-3.8-1.7-3.8-3.8C22.4,11,24.1,9.3,26.3,9.3
					z"/>
				<path class="st59" d="M26.3,9.3c2.1,0,3.8,1.7,3.8,3.8c0,2.1-1.7,3.8-3.8,3.8c-2.1,0-3.8-1.7-3.8-3.8C22.4,11,24.1,9.3,26.3,9.3
					z"/>
				<path class="st60" d="M26.3,9.3c2.1,0,3.8,1.7,3.8,3.8c0,2.1-1.7,3.8-3.8,3.8c-2.1,0-3.8-1.7-3.8-3.8C22.4,11,24.1,9.3,26.3,9.3
					z"/>
				<path class="st61" d="M26.3,9.3c2.1,0,3.8,1.7,3.8,3.8c0,2.1-1.7,3.8-3.8,3.8c-2.1,0-3.8-1.7-3.8-3.8C22.4,11,24.2,9.3,26.3,9.3
					z"/>
				<path class="st62" d="M26.3,9.3c2.1,0,3.8,1.7,3.8,3.8c0,2.1-1.7,3.8-3.8,3.8c-2.1,0-3.8-1.7-3.8-3.8C22.4,11,24.2,9.3,26.3,9.3
					z"/>
				<path class="st63" d="M26.3,9.3c2.1,0,3.8,1.7,3.8,3.8c0,2.1-1.7,3.8-3.8,3.8c-2.1,0-3.8-1.7-3.8-3.8C22.4,11,24.2,9.3,26.3,9.3
					z"/>
				<path class="st64" d="M26.3,9.3c2.1,0,3.8,1.7,3.8,3.8c0,2.1-1.7,3.8-3.8,3.8c-2.1,0-3.8-1.7-3.8-3.8C22.4,11,24.2,9.3,26.3,9.3
					z"/>
				<path class="st65" d="M26.3,9.3c2.1,0,3.8,1.7,3.8,3.8c0,2.1-1.7,3.8-3.8,3.8c-2.1,0-3.8-1.7-3.8-3.8C22.4,11,24.2,9.3,26.3,9.3
					z"/>
				<path class="st66" d="M26.3,9.3c2.1,0,3.8,1.7,3.8,3.8c0,2.1-1.7,3.8-3.8,3.8c-2.1,0-3.8-1.7-3.8-3.8C22.4,11,24.2,9.3,26.3,9.3
					z"/>
				<path class="st67" d="M26.3,9.3c2.1,0,3.8,1.7,3.8,3.8c0,2.1-1.7,3.8-3.8,3.8c-2.1,0-3.8-1.7-3.8-3.8C22.4,11,24.2,9.3,26.3,9.3
					z"/>
				<path class="st68" d="M26.3,9.3c2.1,0,3.8,1.7,3.8,3.8c0,2.1-1.7,3.8-3.8,3.8c-2.1,0-3.8-1.7-3.8-3.8C22.4,11,24.2,9.3,26.3,9.3
					z"/>
				<path class="st69" d="M26.3,9.3c2.1,0,3.8,1.7,3.8,3.8c0,2.1-1.7,3.8-3.8,3.8c-2.1,0-3.8-1.7-3.8-3.8C22.4,11,24.2,9.3,26.3,9.3
					z"/>
				<path class="st70" d="M26.3,9.3c2.1,0,3.8,1.7,3.8,3.8c0,2.1-1.7,3.8-3.8,3.8c-2.1,0-3.8-1.7-3.8-3.8C22.5,11,24.2,9.3,26.3,9.3
					z"/>
				<path class="st71" d="M26.3,9.3c2.1,0,3.8,1.7,3.8,3.8c0,2.1-1.7,3.8-3.8,3.8c-2.1,0-3.8-1.7-3.8-3.8C22.5,11,24.2,9.3,26.3,9.3
					z"/>
				<path class="st72" d="M26.3,9.3c2.1,0,3.8,1.7,3.8,3.8c0,2.1-1.7,3.8-3.8,3.8c-2.1,0-3.8-1.7-3.8-3.8C22.5,11,24.2,9.3,26.3,9.3
					z"/>
				<path class="st73" d="M26.3,9.3c2.1,0,3.8,1.7,3.8,3.8c0,2.1-1.7,3.8-3.8,3.8c-2.1,0-3.8-1.7-3.8-3.8C22.5,11,24.2,9.3,26.3,9.3
					z"/>
				<path class="st74" d="M26.3,9.3c2.1,0,3.8,1.7,3.8,3.8c0,2.1-1.7,3.8-3.8,3.8c-2.1,0-3.8-1.7-3.8-3.8C22.5,11,24.2,9.3,26.3,9.3
					z"/>
				<path class="st75" d="M26.3,9.3c2.1,0,3.8,1.7,3.8,3.8c0,2.1-1.7,3.8-3.8,3.8c-2.1,0-3.8-1.7-3.8-3.8C22.5,11,24.2,9.3,26.3,9.3
					z"/>
				<path class="st76" d="M26.3,9.3c2.1,0,3.8,1.7,3.8,3.8c0,2.1-1.7,3.8-3.8,3.8c-2.1,0-3.8-1.7-3.8-3.8C22.5,11,24.2,9.3,26.3,9.3
					z"/>
				<path class="st77" d="M26.3,9.3c2.1,0,3.8,1.7,3.8,3.8c0,2.1-1.7,3.8-3.8,3.8c-2.1,0-3.8-1.7-3.8-3.8C22.5,11,24.2,9.3,26.3,9.3
					z"/>
				<path class="st78" d="M26.3,9.3c2.1,0,3.8,1.7,3.8,3.8c0,2.1-1.7,3.8-3.8,3.8c-2.1,0-3.8-1.7-3.8-3.8C22.5,11,24.2,9.3,26.3,9.3
					z"/>
				<path class="st79" d="M26.3,9.3c2.1,0,3.8,1.7,3.8,3.8c0,2.1-1.7,3.8-3.8,3.8c-2.1,0-3.8-1.7-3.8-3.8C22.5,11,24.2,9.3,26.3,9.3
					z"/>
				<path class="st80" d="M26.3,9.3c2.1,0,3.8,1.7,3.8,3.8c0,2.1-1.7,3.8-3.8,3.8c-2.1,0-3.8-1.7-3.8-3.8C22.5,11,24.2,9.3,26.3,9.3
					z"/>
				<path class="st81" d="M26.3,9.3c2.1,0,3.8,1.7,3.8,3.8c0,2.1-1.7,3.8-3.8,3.8c-2.1,0-3.8-1.7-3.8-3.8
					C22.5,11.1,24.2,9.3,26.3,9.3z"/>
				<path class="st82" d="M26.3,9.3c2.1,0,3.8,1.7,3.8,3.8c0,2.1-1.7,3.8-3.8,3.8c-2.1,0-3.8-1.7-3.8-3.8
					C22.5,11.1,24.2,9.3,26.3,9.3z"/>
				<path class="st83" d="M26.3,9.3c2.1,0,3.8,1.7,3.8,3.8c0,2.1-1.7,3.8-3.8,3.8c-2.1,0-3.8-1.7-3.8-3.8
					C22.5,11.1,24.2,9.3,26.3,9.3z"/>
				<path class="st84" d="M26.3,9.3c2.1,0,3.8,1.7,3.8,3.8c0,2.1-1.7,3.8-3.8,3.8c-2.1,0-3.8-1.7-3.8-3.8
					C22.5,11.1,24.2,9.3,26.3,9.3z"/>
				<path class="st85" d="M26.3,9.3c2.1,0,3.8,1.7,3.8,3.8c0,2.1-1.7,3.8-3.8,3.8c-2.1,0-3.8-1.7-3.8-3.8
					C22.5,11.1,24.2,9.3,26.3,9.3z"/>
				<path class="st86" d="M26.3,9.3c2.1,0,3.8,1.7,3.8,3.8c0,2.1-1.7,3.8-3.8,3.8c-2.1,0-3.8-1.7-3.8-3.8
					C22.5,11.1,24.2,9.3,26.3,9.3z"/>
				<path class="st87" d="M26.3,9.3c2.1,0,3.8,1.7,3.8,3.8c0,2.1-1.7,3.8-3.8,3.8c-2.1,0-3.8-1.7-3.8-3.8
					C22.5,11.1,24.2,9.3,26.3,9.3z"/>
				<path class="st88" d="M26.3,9.4c2.1,0,3.8,1.7,3.8,3.8c0,2.1-1.7,3.8-3.8,3.8c-2.1,0-3.8-1.7-3.8-3.8
					C22.5,11.1,24.2,9.4,26.3,9.4z"/>
				<path class="st89" d="M26.3,9.4c2.1,0,3.8,1.7,3.8,3.8c0,2.1-1.7,3.8-3.8,3.8c-2.1,0-3.8-1.7-3.8-3.8
					C22.5,11.1,24.2,9.4,26.3,9.4z"/>
				<path class="st90" d="M26.3,9.4c2.1,0,3.8,1.7,3.8,3.8c0,2.1-1.7,3.8-3.8,3.8c-2.1,0-3.8-1.7-3.8-3.8
					C22.5,11.1,24.2,9.4,26.3,9.4z"/>
				<path class="st91" d="M26.3,9.4c2.1,0,3.8,1.7,3.8,3.8c0,2.1-1.7,3.8-3.8,3.8c-2.1,0-3.8-1.7-3.8-3.8
					C22.5,11.1,24.2,9.4,26.3,9.4z"/>
				<path class="st92" d="M26.3,9.4c2.1,0,3.8,1.7,3.8,3.8c0,2.1-1.7,3.8-3.8,3.8c-2.1,0-3.8-1.7-3.8-3.8
					C22.5,11.1,24.2,9.4,26.3,9.4z"/>
				<path class="st93" d="M26.3,9.4c2.1,0,3.8,1.7,3.8,3.8c0,2.1-1.7,3.8-3.8,3.8c-2.1,0-3.8-1.7-3.8-3.8
					C22.5,11.1,24.2,9.4,26.3,9.4z"/>
				<path class="st94" d="M26.3,9.4c2.1,0,3.8,1.7,3.8,3.8c0,2.1-1.7,3.8-3.8,3.8c-2.1,0-3.8-1.7-3.8-3.8
					C22.5,11.1,24.2,9.4,26.3,9.4z"/>
				<path class="st95" d="M26.3,9.4c2.1,0,3.8,1.7,3.8,3.8c0,2.1-1.7,3.8-3.8,3.8c-2.1,0-3.8-1.7-3.8-3.8
					C22.5,11.1,24.2,9.4,26.3,9.4z"/>
				<path class="st96" d="M26.3,9.4c2.1,0,3.8,1.7,3.8,3.8c0,2.1-1.7,3.8-3.8,3.8c-2.1,0-3.8-1.7-3.8-3.8
					C22.5,11.1,24.2,9.4,26.3,9.4z"/>
				<path class="st97" d="M26.3,9.4c2.1,0,3.8,1.7,3.8,3.8c0,2.1-1.7,3.8-3.8,3.8c-2.1,0-3.8-1.7-3.8-3.8
					C22.5,11.1,24.2,9.4,26.3,9.4z"/>
				<path class="st98" d="M26.4,9.4c2.1,0,3.8,1.7,3.8,3.8c0,2.1-1.7,3.8-3.8,3.8c-2.1,0-3.8-1.7-3.8-3.8
					C22.5,11.1,24.2,9.4,26.4,9.4z"/>
				<path class="st99" d="M26.4,9.4c2.1,0,3.8,1.7,3.8,3.8c0,2.1-1.7,3.8-3.8,3.8c-2.1,0-3.8-1.7-3.8-3.8
					C22.5,11.1,24.2,9.4,26.4,9.4z"/>
				<path class="st100" d="M26.4,9.4c2.1,0,3.8,1.7,3.8,3.8c0,2.1-1.7,3.8-3.8,3.8c-2.1,0-3.8-1.7-3.8-3.8
					C22.5,11.1,24.2,9.4,26.4,9.4z"/>
				<path class="st101" d="M26.4,9.4c2.1,0,3.8,1.7,3.8,3.8c0,2.1-1.7,3.8-3.8,3.8c-2.1,0-3.8-1.7-3.8-3.8
					C22.5,11.1,24.2,9.4,26.4,9.4z"/>
				<path class="st102" d="M26.4,9.4c2.1,0,3.8,1.7,3.8,3.8c0,2.1-1.7,3.8-3.8,3.8c-2.1,0-3.8-1.7-3.8-3.8
					C22.5,11.1,24.2,9.4,26.4,9.4z"/>
				<path class="st103" d="M26.4,9.4c2.1,0,3.8,1.7,3.8,3.8c0,2.1-1.7,3.8-3.8,3.8c-2.1,0-3.8-1.7-3.8-3.8
					C22.5,11.1,24.2,9.4,26.4,9.4z"/>
				<path class="st104" d="M26.4,9.4c2.1,0,3.8,1.7,3.8,3.8c0,2.1-1.7,3.8-3.8,3.8c-2.1,0-3.8-1.7-3.8-3.8
					C22.5,11.1,24.2,9.4,26.4,9.4z"/>
				<path class="st105" d="M26.4,9.4c2.1,0,3.8,1.7,3.8,3.8c0,2.1-1.7,3.8-3.8,3.8c-2.1,0-3.8-1.7-3.8-3.8
					C22.5,11.1,24.3,9.4,26.4,9.4z"/>
				<path class="st106" d="M26.4,9.4c2.1,0,3.8,1.7,3.8,3.8c0,2.1-1.7,3.8-3.8,3.8c-2.1,0-3.8-1.7-3.8-3.8
					C22.5,11.1,24.3,9.4,26.4,9.4z"/>
				<path class="st107" d="M26.4,9.4c2.1,0,3.8,1.7,3.8,3.8c0,2.1-1.7,3.8-3.8,3.8c-2.1,0-3.8-1.7-3.8-3.8
					C22.5,11.1,24.3,9.4,26.4,9.4z"/>
				<path class="st108" d="M26.4,9.4c2.1,0,3.8,1.7,3.8,3.8c0,2.1-1.7,3.8-3.8,3.8c-2.1,0-3.8-1.7-3.8-3.8
					C22.5,11.1,24.3,9.4,26.4,9.4z"/>
				<path class="st109" d="M26.4,9.4c2.1,0,3.8,1.7,3.8,3.8c0,2.1-1.7,3.8-3.8,3.8c-2.1,0-3.8-1.7-3.8-3.8
					C22.5,11.1,24.3,9.4,26.4,9.4z"/>
				<path class="st110" d="M26.4,9.4c2.1,0,3.8,1.7,3.8,3.8c0,2.1-1.7,3.8-3.8,3.8c-2.1,0-3.8-1.7-3.8-3.8
					C22.6,11.1,24.3,9.4,26.4,9.4z"/>
				<path class="st111" d="M26.4,9.4c2.1,0,3.8,1.7,3.8,3.8c0,2.1-1.7,3.8-3.8,3.8c-2.1,0-3.8-1.7-3.8-3.8
					C22.6,11.1,24.3,9.4,26.4,9.4z"/>
				<path class="st112" d="M26.4,9.4c2.1,0,3.8,1.7,3.8,3.8c0,2.1-1.7,3.8-3.8,3.8c-2.1,0-3.8-1.7-3.8-3.8
					C22.6,11.1,24.3,9.4,26.4,9.4z"/>
				<path class="st113" d="M26.4,9.4c2.1,0,3.8,1.7,3.8,3.8c0,2.1-1.7,3.8-3.8,3.8c-2.1,0-3.8-1.7-3.8-3.8
					C22.6,11.1,24.3,9.4,26.4,9.4z"/>
				<path class="st114" d="M26.4,9.4c2.1,0,3.8,1.7,3.8,3.8c0,2.1-1.7,3.8-3.8,3.8c-2.1,0-3.8-1.7-3.8-3.8
					C22.6,11.1,24.3,9.4,26.4,9.4z"/>
				<path class="st115" d="M26.4,9.4c2.1,0,3.8,1.7,3.8,3.8c0,2.1-1.7,3.8-3.8,3.8c-2.1,0-3.8-1.7-3.8-3.8
					C22.6,11.1,24.3,9.4,26.4,9.4z"/>
				<path class="st116" d="M26.4,9.4c2.1,0,3.8,1.7,3.8,3.8c0,2.1-1.7,3.8-3.8,3.8c-2.1,0-3.8-1.7-3.8-3.8
					C22.6,11.1,24.3,9.4,26.4,9.4z"/>
				<path class="st117" d="M26.4,9.4c2.1,0,3.8,1.7,3.8,3.8c0,2.1-1.7,3.8-3.8,3.8c-2.1,0-3.8-1.7-3.8-3.8
					C22.6,11.1,24.3,9.4,26.4,9.4z"/>
				<path class="st118" d="M26.4,9.4c2.1,0,3.8,1.7,3.8,3.8c0,2.1-1.7,3.8-3.8,3.8c-2.1,0-3.8-1.7-3.8-3.8
					C22.6,11.1,24.3,9.4,26.4,9.4z"/>
				<path class="st119" d="M26.4,9.4c2.1,0,3.8,1.7,3.8,3.8c0,2.1-1.7,3.8-3.8,3.8c-2.1,0-3.8-1.7-3.8-3.8
					C22.6,11.1,24.3,9.4,26.4,9.4z"/>
				<path class="st120" d="M26.4,9.4c2.1,0,3.8,1.7,3.8,3.8c0,2.1-1.7,3.8-3.8,3.8c-2.1,0-3.8-1.7-3.8-3.8
					C22.6,11.2,24.3,9.4,26.4,9.4z"/>
				<path class="st121" d="M26.4,9.4c2.1,0,3.8,1.7,3.8,3.8c0,2.1-1.7,3.8-3.8,3.8c-2.1,0-3.8-1.7-3.8-3.8
					C22.6,11.2,24.3,9.4,26.4,9.4z"/>
				<path class="st122" d="M26.4,9.4c2.1,0,3.8,1.7,3.8,3.8c0,2.1-1.7,3.8-3.8,3.8c-2.1,0-3.8-1.7-3.8-3.8
					C22.6,11.2,24.3,9.4,26.4,9.4z"/>
				<path class="st123" d="M26.4,9.4c2.1,0,3.8,1.7,3.8,3.8c0,2.1-1.7,3.8-3.8,3.8c-2.1,0-3.8-1.7-3.8-3.8
					C22.6,11.2,24.3,9.4,26.4,9.4z"/>
				<path class="st124" d="M26.4,9.5c2.1,0,3.8,1.7,3.8,3.8c0,2.1-1.7,3.8-3.8,3.8c-2.1,0-3.8-1.7-3.8-3.8
					C22.6,11.2,24.3,9.5,26.4,9.5z"/>
				<path class="st125" d="M26.4,9.5c2.1,0,3.8,1.7,3.8,3.8c0,2.1-1.7,3.8-3.8,3.8c-2.1,0-3.8-1.7-3.8-3.8
					C22.6,11.2,24.3,9.5,26.4,9.5z"/>
				<path class="st126" d="M26.4,9.5c2.1,0,3.8,1.7,3.8,3.8c0,2.1-1.7,3.8-3.8,3.8c-2.1,0-3.8-1.7-3.8-3.8
					C22.6,11.2,24.3,9.5,26.4,9.5z"/>
				<path class="st127" d="M26.4,9.5c2.1,0,3.8,1.7,3.8,3.8c0,2.1-1.7,3.8-3.8,3.8c-2.1,0-3.8-1.7-3.8-3.8
					C22.6,11.2,24.3,9.5,26.4,9.5z"/>
				<path class="st128" d="M26.4,9.5c2.1,0,3.8,1.7,3.8,3.8c0,2.1-1.7,3.8-3.8,3.8c-2.1,0-3.8-1.7-3.8-3.8
					C22.6,11.2,24.3,9.5,26.4,9.5z"/>
				<path class="st129" d="M26.4,9.5c2.1,0,3.8,1.7,3.8,3.8c0,2.1-1.7,3.8-3.8,3.8s-3.8-1.7-3.8-3.8C22.6,11.2,24.3,9.5,26.4,9.5z"
					/>
				<path class="st130" d="M26.4,9.5c2.1,0,3.8,1.7,3.8,3.8c0,2.1-1.7,3.8-3.8,3.8c-2.1,0-3.8-1.7-3.8-3.8
					C22.6,11.2,24.3,9.5,26.4,9.5z"/>
				<path class="st131" d="M26.4,9.5c2.1,0,3.8,1.7,3.8,3.8c0,2.1-1.7,3.8-3.8,3.8c-2.1,0-3.8-1.7-3.8-3.8
					C22.6,11.2,24.3,9.5,26.4,9.5z"/>
				<path class="st132" d="M26.4,9.5c2.1,0,3.8,1.7,3.8,3.8c0,2.1-1.7,3.8-3.8,3.8c-2.1,0-3.8-1.7-3.8-3.8
					C22.6,11.2,24.3,9.5,26.4,9.5z"/>
				<path class="st133" d="M26.4,9.5c2.1,0,3.8,1.7,3.8,3.8c0,2.1-1.7,3.8-3.8,3.8c-2.1,0-3.8-1.7-3.8-3.8
					C22.6,11.2,24.3,9.5,26.4,9.5z"/>
				<path class="st134" d="M26.4,9.5c2.1,0,3.8,1.7,3.8,3.8c0,2.1-1.7,3.8-3.8,3.8c-2.1,0-3.8-1.7-3.8-3.8
					C22.6,11.2,24.3,9.5,26.4,9.5z"/>
				<path class="st135" d="M26.4,9.5c2.1,0,3.8,1.7,3.8,3.8c0,2.1-1.7,3.8-3.8,3.8c-2.1,0-3.8-1.7-3.8-3.8
					C22.6,11.2,24.3,9.5,26.4,9.5z"/>
				<path class="st136" d="M26.4,9.5c2.1,0,3.8,1.7,3.8,3.8c0,2.1-1.7,3.8-3.8,3.8c-2.1,0-3.8-1.7-3.8-3.8
					C22.6,11.2,24.3,9.5,26.4,9.5z"/>
				<path class="st137" d="M26.4,9.5c2.1,0,3.8,1.7,3.8,3.8c0,2.1-1.7,3.8-3.8,3.8c-2.1,0-3.8-1.7-3.8-3.8
					C22.6,11.2,24.3,9.5,26.4,9.5z"/>
				<path class="st138" d="M26.4,9.5c2.1,0,3.8,1.7,3.8,3.8c0,2.1-1.7,3.8-3.8,3.8c-2.1,0-3.8-1.7-3.8-3.8
					C22.6,11.2,24.3,9.5,26.4,9.5z"/>
				<path class="st139" d="M26.4,9.5c2.1,0,3.8,1.7,3.8,3.8c0,2.1-1.7,3.8-3.8,3.8c-2.1,0-3.8-1.7-3.8-3.8
					C22.6,11.2,24.3,9.5,26.4,9.5z"/>
				<path class="st140" d="M26.4,9.5c2.1,0,3.8,1.7,3.8,3.8c0,2.1-1.7,3.8-3.8,3.8c-2.1,0-3.8-1.7-3.8-3.8
					C22.6,11.2,24.3,9.5,26.4,9.5z"/>
				<path class="st141" d="M26.4,9.5c2.1,0,3.8,1.7,3.8,3.8c0,2.1-1.7,3.8-3.8,3.8c-2.1,0-3.8-1.7-3.8-3.8
					C22.6,11.2,24.3,9.5,26.4,9.5z"/>
				<path class="st142" d="M26.4,9.5c2.1,0,3.8,1.7,3.8,3.8c0,2.1-1.7,3.8-3.8,3.8c-2.1,0-3.8-1.7-3.8-3.8
					C22.6,11.2,24.3,9.5,26.4,9.5z"/>
				<path class="st143" d="M26.4,9.5c2.1,0,3.8,1.7,3.8,3.8c0,2.1-1.7,3.8-3.8,3.8c-2.1,0-3.8-1.7-3.8-3.8
					C22.6,11.2,24.3,9.5,26.4,9.5z"/>
				<path class="st144" d="M26.4,9.5c2.1,0,3.8,1.7,3.8,3.8c0,2.1-1.7,3.8-3.8,3.8c-2.1,0-3.8-1.7-3.8-3.8
					C22.6,11.2,24.3,9.5,26.4,9.5z"/>
				<path class="st145" d="M26.4,9.5c2.1,0,3.8,1.7,3.8,3.8c0,2.1-1.7,3.8-3.8,3.8c-2.1,0-3.8-1.7-3.8-3.8
					C22.6,11.2,24.3,9.5,26.4,9.5z"/>
				<path class="st146" d="M26.5,9.5c2.1,0,3.8,1.7,3.8,3.8c0,2.1-1.7,3.8-3.8,3.8c-2.1,0-3.8-1.7-3.8-3.8
					C22.6,11.2,24.3,9.5,26.5,9.5z"/>
				<path class="st147" d="M26.5,9.5c2.1,0,3.8,1.7,3.8,3.8c0,2.1-1.7,3.8-3.8,3.8c-2.1,0-3.8-1.7-3.8-3.8
					C22.6,11.2,24.3,9.5,26.5,9.5z"/>
				<path class="st148" d="M26.5,9.5c2.1,0,3.8,1.7,3.8,3.8c0,2.1-1.7,3.8-3.8,3.8c-2.1,0-3.8-1.7-3.8-3.8
					C22.6,11.2,24.4,9.5,26.5,9.5z"/>
				<path class="st149" d="M26.5,9.5c2.1,0,3.8,1.7,3.8,3.8c0,2.1-1.7,3.8-3.8,3.8c-2.1,0-3.8-1.7-3.8-3.8
					C22.6,11.2,24.4,9.5,26.5,9.5z"/>
				<path class="st150" d="M26.5,9.5c2.1,0,3.8,1.7,3.8,3.8c0,2.1-1.7,3.8-3.8,3.8c-2.1,0-3.8-1.7-3.8-3.8
					C22.6,11.2,24.4,9.5,26.5,9.5z"/>
				<path class="st151" d="M26.5,9.5c2.1,0,3.8,1.7,3.8,3.8c0,2.1-1.7,3.8-3.8,3.8c-2.1,0-3.8-1.7-3.8-3.8
					C22.7,11.2,24.4,9.5,26.5,9.5z"/>
				<path class="st152" d="M26.5,9.5c2.1,0,3.8,1.7,3.8,3.8c0,2.1-1.7,3.8-3.8,3.8c-2.1,0-3.8-1.7-3.8-3.8
					C22.7,11.2,24.4,9.5,26.5,9.5z"/>
				<path class="st153" d="M26.5,9.5c2.1,0,3.8,1.7,3.8,3.8c0,2.1-1.7,3.8-3.8,3.8c-2.1,0-3.8-1.7-3.8-3.8
					C22.7,11.2,24.4,9.5,26.5,9.5z"/>
				<path class="st154" d="M26.5,9.5c2.1,0,3.8,1.7,3.8,3.8c0,2.1-1.7,3.8-3.8,3.8c-2.1,0-3.8-1.7-3.8-3.8
					C22.7,11.2,24.4,9.5,26.5,9.5z"/>
				<path class="st155" d="M26.5,9.5c2.1,0,3.8,1.7,3.8,3.8c0,2.1-1.7,3.8-3.8,3.8c-2.1,0-3.8-1.7-3.8-3.8
					C22.7,11.2,24.4,9.5,26.5,9.5z"/>
				<path class="st156" d="M26.5,9.5c2.1,0,3.8,1.7,3.8,3.8c0,2.1-1.7,3.8-3.8,3.8c-2.1,0-3.8-1.7-3.8-3.8
					C22.7,11.2,24.4,9.5,26.5,9.5z"/>
				<path class="st157" d="M26.5,9.5c2.1,0,3.8,1.7,3.8,3.8c0,2.1-1.7,3.8-3.8,3.8c-2.1,0-3.8-1.7-3.8-3.8
					C22.7,11.2,24.4,9.5,26.5,9.5z"/>
				<path class="st158" d="M26.5,9.5c2.1,0,3.8,1.7,3.8,3.8c0,2.1-1.7,3.8-3.8,3.8c-2.1,0-3.8-1.7-3.8-3.8
					C22.7,11.3,24.4,9.5,26.5,9.5z"/>
				<path class="st159" d="M26.5,9.6c2.1,0,3.8,1.7,3.8,3.8c0,2.1-1.7,3.8-3.8,3.8c-2.1,0-3.8-1.7-3.8-3.8
					C22.7,11.3,24.4,9.6,26.5,9.6z"/>
				<path class="st160" d="M26.5,9.6c2.1,0,3.8,1.7,3.8,3.8c0,2.1-1.7,3.8-3.8,3.8c-2.1,0-3.8-1.7-3.8-3.8
					C22.7,11.3,24.4,9.6,26.5,9.6z"/>
				<path class="st161" d="M26.5,9.6c2.1,0,3.8,1.7,3.8,3.8c0,2.1-1.7,3.8-3.8,3.8c-2.1,0-3.8-1.7-3.8-3.8
					C22.7,11.3,24.4,9.6,26.5,9.6z"/>
				<path class="st162" d="M26.5,9.6c2.1,0,3.8,1.7,3.8,3.8c0,2.1-1.7,3.8-3.8,3.8c-2.1,0-3.8-1.7-3.8-3.8
					C22.7,11.3,24.4,9.6,26.5,9.6z"/>
				<path class="st163" d="M26.5,9.6c2.1,0,3.8,1.7,3.8,3.8c0,2.1-1.7,3.8-3.8,3.8c-2.1,0-3.8-1.7-3.8-3.8
					C22.7,11.3,24.4,9.6,26.5,9.6z"/>
				<path class="st164" d="M26.5,9.6c2.1,0,3.8,1.7,3.8,3.8c0,2.1-1.7,3.8-3.8,3.8c-2.1,0-3.8-1.7-3.8-3.8
					C22.7,11.3,24.4,9.6,26.5,9.6z"/>
				<path class="st165" d="M26.5,9.6c2.1,0,3.8,1.7,3.8,3.8c0,2.1-1.7,3.8-3.8,3.8c-2.1,0-3.8-1.7-3.8-3.8
					C22.7,11.3,24.4,9.6,26.5,9.6z"/>
				<path class="st166" d="M26.5,9.6c2.1,0,3.8,1.7,3.8,3.8c0,2.1-1.7,3.8-3.8,3.8c-2.1,0-3.8-1.7-3.8-3.8
					C22.7,11.3,24.4,9.6,26.5,9.6z"/>
				<path class="st167" d="M26.5,9.6c2.1,0,3.8,1.7,3.8,3.8c0,2.1-1.7,3.8-3.8,3.8c-2.1,0-3.8-1.7-3.8-3.8
					C22.7,11.3,24.4,9.6,26.5,9.6z"/>
				<path class="st168" d="M26.5,9.6c2.1,0,3.8,1.7,3.8,3.8c0,2.1-1.7,3.8-3.8,3.8c-2.1,0-3.8-1.7-3.8-3.8
					C22.7,11.3,24.4,9.6,26.5,9.6z"/>
				<path class="st169" d="M26.5,9.6c2.1,0,3.8,1.7,3.8,3.8c0,2.1-1.7,3.8-3.8,3.8c-2.1,0-3.8-1.7-3.8-3.8
					C22.7,11.3,24.4,9.6,26.5,9.6z"/>
				<path class="st170" d="M26.5,9.6c2.1,0,3.8,1.7,3.8,3.8c0,2.1-1.7,3.8-3.8,3.8c-2.1,0-3.8-1.7-3.8-3.8
					C22.7,11.3,24.4,9.6,26.5,9.6z"/>
				<path class="st171" d="M26.5,9.6c2.1,0,3.8,1.7,3.8,3.8c0,2.1-1.7,3.8-3.8,3.8c-2.1,0-3.8-1.7-3.8-3.8
					C22.7,11.3,24.4,9.6,26.5,9.6z"/>
				<path class="st172" d="M26.5,9.6c2.1,0,3.8,1.7,3.8,3.8c0,2.1-1.7,3.8-3.8,3.8c-2.1,0-3.8-1.7-3.8-3.8
					C22.7,11.3,24.4,9.6,26.5,9.6z"/>
				<path class="st173" d="M26.5,9.6c2.1,0,3.8,1.7,3.8,3.8c0,2.1-1.7,3.8-3.8,3.8c-2.1,0-3.8-1.7-3.8-3.8
					C22.7,11.3,24.4,9.6,26.5,9.6z"/>
				<path class="st174" d="M26.5,9.6c2.1,0,3.8,1.7,3.8,3.8c0,2.1-1.7,3.8-3.8,3.8c-2.1,0-3.8-1.7-3.8-3.8
					C22.7,11.3,24.4,9.6,26.5,9.6z"/>
				<path class="st175" d="M26.5,9.6c2.1,0,3.8,1.7,3.8,3.8c0,2.1-1.7,3.8-3.8,3.8c-2.1,0-3.8-1.7-3.8-3.8
					C22.7,11.3,24.4,9.6,26.5,9.6z"/>
				<path class="st176" d="M26.5,9.6c2.1,0,3.8,1.7,3.8,3.8c0,2.1-1.7,3.8-3.8,3.8c-2.1,0-3.8-1.7-3.8-3.8
					C22.7,11.3,24.4,9.6,26.5,9.6z"/>
				<path class="st177" d="M26.5,9.6c2.1,0,3.8,1.7,3.8,3.8c0,2.1-1.7,3.8-3.8,3.8c-2.1,0-3.8-1.7-3.8-3.8
					C22.7,11.3,24.4,9.6,26.5,9.6z"/>
				<path class="st178" d="M26.5,9.6c2.1,0,3.8,1.7,3.8,3.8c0,2.1-1.7,3.8-3.8,3.8c-2.1,0-3.8-1.7-3.8-3.8
					C22.7,11.3,24.4,9.6,26.5,9.6z"/>
				<path class="st179" d="M26.5,9.6c2.1,0,3.8,1.7,3.8,3.8c0,2.1-1.7,3.8-3.8,3.8c-2.1,0-3.8-1.7-3.8-3.8
					C22.7,11.3,24.4,9.6,26.5,9.6z"/>
				<path class="st180" d="M26.5,9.6c2.1,0,3.8,1.7,3.8,3.8c0,2.1-1.7,3.8-3.8,3.8c-2.1,0-3.8-1.7-3.8-3.8
					C22.7,11.3,24.4,9.6,26.5,9.6z"/>
				<path class="st181" d="M26.5,9.6c2.1,0,3.8,1.7,3.8,3.8c0,2.1-1.7,3.8-3.8,3.8c-2.1,0-3.8-1.7-3.8-3.8
					C22.7,11.3,24.4,9.6,26.5,9.6z"/>
				<path class="st182" d="M26.5,9.6c2.1,0,3.8,1.7,3.8,3.8c0,2.1-1.7,3.8-3.8,3.8c-2.1,0-3.8-1.7-3.8-3.8
					C22.7,11.3,24.4,9.6,26.5,9.6z"/>
				<path class="st183" d="M26.5,9.6c2.1,0,3.8,1.7,3.8,3.8c0,2.1-1.7,3.8-3.8,3.8c-2.1,0-3.8-1.7-3.8-3.8
					C22.7,11.3,24.4,9.6,26.5,9.6z"/>
				<path class="st184" d="M26.5,9.6c2.1,0,3.8,1.7,3.8,3.8c0,2.1-1.7,3.8-3.8,3.8c-2.1,0-3.8-1.7-3.8-3.8
					C22.7,11.3,24.4,9.6,26.5,9.6z"/>
				<path class="st185" d="M26.5,9.6c2.1,0,3.8,1.7,3.8,3.8c0,2.1-1.7,3.8-3.8,3.8c-2.1,0-3.8-1.7-3.8-3.8
					C22.7,11.3,24.4,9.6,26.5,9.6z"/>
				<path class="st186" d="M26.5,9.6c2.1,0,3.8,1.7,3.8,3.8c0,2.1-1.7,3.8-3.8,3.8c-2.1,0-3.8-1.7-3.8-3.8
					C22.7,11.3,24.4,9.6,26.5,9.6z"/>
				<path class="st187" d="M26.5,9.6c2.1,0,3.8,1.7,3.8,3.8c0,2.1-1.7,3.8-3.8,3.8c-2.1,0-3.8-1.7-3.8-3.8
					C22.7,11.3,24.4,9.6,26.5,9.6z"/>
				<path class="st188" d="M26.5,9.6c2.1,0,3.8,1.7,3.8,3.8c0,2.1-1.7,3.8-3.8,3.8c-2.1,0-3.8-1.7-3.8-3.8
					C22.7,11.3,24.4,9.6,26.5,9.6z"/>
				<path class="st189" d="M26.5,9.6c2.1,0,3.8,1.7,3.8,3.8c0,2.1-1.7,3.8-3.8,3.8c-2.1,0-3.8-1.7-3.8-3.8
					C22.7,11.3,24.4,9.6,26.5,9.6z"/>
				<path class="st190" d="M26.5,9.6c2.1,0,3.8,1.7,3.8,3.8c0,2.1-1.7,3.8-3.8,3.8c-2.1,0-3.8-1.7-3.8-3.8
					C22.7,11.3,24.4,9.6,26.5,9.6z"/>
				<path class="st191" d="M26.5,9.6c2.1,0,3.8,1.7,3.8,3.8c0,2.1-1.7,3.8-3.8,3.8c-2.1,0-3.8-1.7-3.8-3.8
					C22.8,11.3,24.4,9.6,26.5,9.6z"/>
				<path class="st192" d="M26.5,9.6c2.1,0,3.8,1.7,3.8,3.8c0,2.1-1.7,3.8-3.8,3.8c-2.1,0-3.8-1.7-3.8-3.8
					C22.8,11.3,24.5,9.6,26.5,9.6z"/>
				<path class="st193" d="M26.5,9.6c2.1,0,3.8,1.7,3.8,3.8c0,2.1-1.7,3.8-3.8,3.8c-2.1,0-3.8-1.7-3.8-3.8
					C22.8,11.3,24.5,9.6,26.5,9.6z"/>
				<path class="st194" d="M26.6,9.6c2.1,0,3.8,1.7,3.8,3.8c0,2.1-1.7,3.8-3.8,3.8c-2.1,0-3.8-1.7-3.8-3.8
					C22.8,11.3,24.5,9.6,26.6,9.6z"/>
				<path class="st195" d="M26.6,9.7c2.1,0,3.8,1.7,3.8,3.8c0,2.1-1.7,3.8-3.8,3.8c-2.1,0-3.8-1.7-3.8-3.8
					C22.8,11.3,24.5,9.7,26.6,9.7z"/>
				<path class="st196" d="M26.6,9.7c2.1,0,3.8,1.7,3.8,3.8c0,2.1-1.7,3.8-3.8,3.8c-2.1,0-3.8-1.7-3.8-3.8
					C22.8,11.4,24.5,9.7,26.6,9.7z"/>
				<path class="st197" d="M26.6,9.7c2.1,0,3.8,1.7,3.8,3.8c0,2.1-1.7,3.8-3.8,3.8c-2.1,0-3.8-1.7-3.8-3.8
					C22.8,11.4,24.5,9.7,26.6,9.7z"/>
				<path class="st198" d="M26.6,9.7c2.1,0,3.8,1.7,3.8,3.8c0,2.1-1.7,3.8-3.8,3.8c-2.1,0-3.8-1.7-3.8-3.8
					C22.8,11.4,24.5,9.7,26.6,9.7z"/>
				<path class="st199" d="M26.6,9.7c2.1,0,3.8,1.7,3.8,3.8c0,2.1-1.7,3.8-3.8,3.8c-2.1,0-3.8-1.7-3.8-3.8
					C22.8,11.4,24.5,9.7,26.6,9.7z"/>
				<path class="st200" d="M26.6,9.7c2.1,0,3.8,1.7,3.8,3.8c0,2.1-1.7,3.8-3.8,3.8c-2.1,0-3.8-1.7-3.8-3.8
					C22.8,11.4,24.5,9.7,26.6,9.7z"/>
				<path class="st201" d="M26.6,9.7c2.1,0,3.8,1.7,3.8,3.8c0,2.1-1.7,3.8-3.8,3.8c-2.1,0-3.8-1.7-3.8-3.8
					C22.8,11.4,24.5,9.7,26.6,9.7z"/>
				<path class="st202" d="M26.6,9.7c2.1,0,3.8,1.7,3.8,3.8c0,2.1-1.7,3.8-3.8,3.8c-2.1,0-3.8-1.7-3.8-3.8
					C22.8,11.4,24.5,9.7,26.6,9.7z"/>
				<path class="st203" d="M26.6,9.7c2.1,0,3.8,1.7,3.8,3.8c0,2.1-1.7,3.8-3.8,3.8c-2.1,0-3.8-1.7-3.8-3.8
					C22.8,11.4,24.5,9.7,26.6,9.7z"/>
				<path class="st204" d="M26.6,9.7c2.1,0,3.8,1.7,3.8,3.8c0,2.1-1.7,3.8-3.8,3.8c-2.1,0-3.8-1.7-3.8-3.8
					C22.8,11.4,24.5,9.7,26.6,9.7z"/>
				<path class="st205" d="M26.6,9.7c2.1,0,3.8,1.7,3.8,3.8c0,2.1-1.7,3.8-3.8,3.8c-2.1,0-3.8-1.7-3.8-3.8
					C22.8,11.4,24.5,9.7,26.6,9.7z"/>
				<path class="st206" d="M26.6,9.7c2.1,0,3.8,1.7,3.8,3.8c0,2.1-1.7,3.8-3.8,3.8c-2.1,0-3.8-1.7-3.8-3.8
					C22.8,11.4,24.5,9.7,26.6,9.7z"/>
				<path class="st207" d="M26.6,9.7c2.1,0,3.8,1.7,3.8,3.8c0,2.1-1.7,3.8-3.8,3.8c-2.1,0-3.8-1.7-3.8-3.8
					C22.8,11.4,24.5,9.7,26.6,9.7z"/>
				<path class="st208" d="M26.6,9.7c2.1,0,3.8,1.7,3.8,3.8c0,2.1-1.7,3.8-3.8,3.8c-2.1,0-3.8-1.7-3.8-3.8
					C22.8,11.4,24.5,9.7,26.6,9.7z"/>
				<path class="st209" d="M26.6,9.7c2.1,0,3.8,1.7,3.8,3.8c0,2.1-1.7,3.8-3.8,3.8c-2.1,0-3.8-1.7-3.8-3.8
					C22.8,11.4,24.5,9.7,26.6,9.7z"/>
				<path class="st210" d="M26.6,9.7c2.1,0,3.8,1.7,3.8,3.8c0,2.1-1.7,3.8-3.8,3.8c-2.1,0-3.8-1.7-3.8-3.8
					C22.8,11.4,24.5,9.7,26.6,9.7z"/>
				<path class="st211" d="M26.6,9.7c2.1,0,3.8,1.7,3.8,3.8c0,2.1-1.7,3.8-3.8,3.8c-2.1,0-3.8-1.7-3.8-3.8
					C22.8,11.4,24.5,9.7,26.6,9.7z"/>
				<path class="st212" d="M26.6,9.7c2.1,0,3.8,1.7,3.8,3.8c0,2.1-1.7,3.8-3.8,3.8c-2.1,0-3.8-1.7-3.8-3.8
					C22.8,11.4,24.5,9.7,26.6,9.7z"/>
				<path class="st213" d="M26.6,9.7c2.1,0,3.8,1.7,3.8,3.8c0,2.1-1.7,3.8-3.8,3.8c-2.1,0-3.8-1.7-3.8-3.8
					C22.8,11.4,24.5,9.7,26.6,9.7z"/>
				<path class="st214" d="M26.6,9.7c2.1,0,3.8,1.7,3.8,3.8c0,2.1-1.7,3.8-3.8,3.8c-2.1,0-3.8-1.7-3.8-3.8
					C22.8,11.4,24.5,9.7,26.6,9.7z"/>
				<path class="st215" d="M26.6,9.7c2.1,0,3.8,1.7,3.8,3.8c0,2.1-1.7,3.8-3.8,3.8c-2.1,0-3.8-1.7-3.8-3.8
					C22.8,11.4,24.5,9.7,26.6,9.7z"/>
				<path class="st216" d="M26.6,9.7c2.1,0,3.8,1.7,3.8,3.8c0,2.1-1.7,3.8-3.8,3.8c-2.1,0-3.8-1.7-3.8-3.8
					C22.8,11.4,24.5,9.7,26.6,9.7z"/>
				<path class="st217" d="M26.6,9.7c2.1,0,3.8,1.7,3.8,3.8c0,2.1-1.7,3.8-3.8,3.8c-2.1,0-3.8-1.7-3.8-3.8
					C22.8,11.4,24.5,9.7,26.6,9.7z"/>
				<path class="st218" d="M26.6,9.7c2.1,0,3.8,1.7,3.8,3.8c0,2.1-1.7,3.8-3.8,3.8c-2.1,0-3.8-1.7-3.8-3.8
					C22.8,11.4,24.5,9.7,26.6,9.7z"/>
				<path class="st219" d="M26.6,9.7c2.1,0,3.8,1.7,3.8,3.8c0,2.1-1.7,3.8-3.8,3.8c-2.1,0-3.8-1.7-3.8-3.8
					C22.8,11.4,24.5,9.7,26.6,9.7z"/>
				<path class="st220" d="M26.6,9.7c2.1,0,3.8,1.7,3.8,3.8c0,2.1-1.7,3.8-3.8,3.8c-2.1,0-3.8-1.7-3.8-3.8
					C22.8,11.4,24.5,9.7,26.6,9.7z"/>
				<path class="st221" d="M26.6,9.7c2.1,0,3.8,1.7,3.8,3.8c0,2.1-1.7,3.8-3.8,3.8c-2.1,0-3.8-1.7-3.8-3.8
					C22.8,11.4,24.5,9.7,26.6,9.7z"/>
				<path class="st222" d="M26.6,9.7c2.1,0,3.8,1.7,3.8,3.8c0,2.1-1.7,3.8-3.8,3.8c-2.1,0-3.8-1.7-3.8-3.8
					C22.8,11.4,24.5,9.7,26.6,9.7z"/>
				<path class="st223" d="M26.6,9.7c2.1,0,3.8,1.7,3.8,3.8c0,2.1-1.7,3.8-3.8,3.8c-2.1,0-3.8-1.7-3.8-3.8
					C22.8,11.4,24.5,9.7,26.6,9.7z"/>
				<path class="st224" d="M26.6,9.7c2.1,0,3.8,1.7,3.8,3.8c0,2.1-1.7,3.8-3.8,3.8c-2.1,0-3.8-1.7-3.8-3.8
					C22.8,11.4,24.5,9.7,26.6,9.7z"/>
				<path class="st225" d="M26.6,9.7c2.1,0,3.8,1.7,3.8,3.8c0,2.1-1.7,3.8-3.8,3.8c-2.1,0-3.8-1.7-3.8-3.8
					C22.8,11.4,24.5,9.7,26.6,9.7z"/>
				<path class="st226" d="M26.6,9.7c2.1,0,3.8,1.7,3.8,3.8c0,2.1-1.7,3.8-3.8,3.8c-2.1,0-3.8-1.7-3.8-3.8
					C22.8,11.4,24.5,9.7,26.6,9.7z"/>
				<path class="st227" d="M30.4,13.5c0,2.1-1.7,3.8-3.8,3.8c-2.1,0-3.8-1.7-3.8-3.8c0-2.1,1.7-3.8,3.8-3.8
					C28.7,9.7,30.4,11.4,30.4,13.5z"/>
				<path class="st228" d="M26.6,9.7c2.1,0,3.8,1.7,3.8,3.8c0,2.1-1.7,3.8-3.8,3.8c-2.1,0-3.8-1.7-3.8-3.8
					C22.8,11.4,24.5,9.7,26.6,9.7z"/>
				<path class="st229" d="M26.6,9.7c2.1,0,3.8,1.7,3.8,3.8c0,2.1-1.7,3.8-3.8,3.8c-2.1,0-3.8-1.7-3.8-3.8
					C22.8,11.4,24.5,9.7,26.6,9.7z"/>
				<path class="st230" d="M26.6,9.7c2.1,0,3.8,1.7,3.8,3.8c0,2.1-1.7,3.8-3.8,3.8c-2.1,0-3.8-1.7-3.8-3.8
					C22.8,11.4,24.5,9.7,26.6,9.7z"/>
				<path class="st231" d="M26.6,9.7c2.1,0,3.8,1.7,3.8,3.8c0,2.1-1.7,3.8-3.8,3.8c-2.1,0-3.8-1.7-3.8-3.8
					C22.8,11.4,24.5,9.7,26.6,9.7z"/>
				<path class="st232" d="M26.6,9.8c2.1,0,3.8,1.7,3.8,3.8c0,2.1-1.7,3.8-3.8,3.8c-2.1,0-3.8-1.7-3.8-3.8
					C22.8,11.4,24.5,9.8,26.6,9.8z"/>
				<path class="st233" d="M26.6,9.8c2.1,0,3.8,1.7,3.8,3.8c0,2.1-1.7,3.8-3.8,3.8c-2.1,0-3.8-1.7-3.8-3.8
					C22.8,11.4,24.5,9.8,26.6,9.8z"/>
				<path class="st234" d="M26.6,9.8c2.1,0,3.8,1.7,3.8,3.8c0,2.1-1.7,3.8-3.8,3.8c-2.1,0-3.8-1.7-3.8-3.8
					C22.9,11.4,24.5,9.8,26.6,9.8z"/>
				<path class="st235" d="M26.6,9.8c2.1,0,3.8,1.7,3.8,3.8c0,2.1-1.7,3.8-3.8,3.8c-2.1,0-3.8-1.7-3.8-3.8
					C22.9,11.4,24.5,9.8,26.6,9.8z"/>
				<path class="st236" d="M26.6,9.8c2.1,0,3.8,1.7,3.8,3.8c0,2.1-1.7,3.8-3.8,3.8c-2.1,0-3.8-1.7-3.8-3.8
					C22.9,11.5,24.5,9.8,26.6,9.8z"/>
				<path class="st237" d="M26.6,9.8c2.1,0,3.8,1.7,3.8,3.8c0,2.1-1.7,3.8-3.8,3.8c-2.1,0-3.8-1.7-3.8-3.8
					C22.9,11.5,24.5,9.8,26.6,9.8z"/>
				<path class="st238" d="M26.6,9.8c2.1,0,3.8,1.7,3.8,3.8c0,2.1-1.7,3.8-3.8,3.8c-2.1,0-3.8-1.7-3.8-3.8
					C22.9,11.5,24.6,9.8,26.6,9.8z"/>
				<path class="st239" d="M26.6,9.8c2.1,0,3.8,1.7,3.8,3.8c0,2.1-1.7,3.8-3.8,3.8c-2.1,0-3.8-1.7-3.8-3.8
					C22.9,11.5,24.6,9.8,26.6,9.8z"/>
				<path class="st240" d="M26.6,9.8c2.1,0,3.8,1.7,3.8,3.8c0,2.1-1.7,3.8-3.8,3.8c-2.1,0-3.8-1.7-3.8-3.8
					C22.9,11.5,24.6,9.8,26.6,9.8z"/>
				<path class="st241" d="M26.6,9.8c2.1,0,3.8,1.7,3.8,3.8c0,2.1-1.7,3.8-3.8,3.8c-2.1,0-3.8-1.7-3.8-3.8
					C22.9,11.5,24.6,9.8,26.6,9.8z"/>
				<path class="st242" d="M26.6,9.8c2.1,0,3.8,1.7,3.8,3.8c0,2.1-1.7,3.8-3.8,3.8c-2.1,0-3.8-1.7-3.8-3.8
					C22.9,11.5,24.6,9.8,26.6,9.8z"/>
				<path class="st243" d="M26.6,9.8c2.1,0,3.8,1.7,3.8,3.8c0,2.1-1.7,3.8-3.8,3.8c-2.1,0-3.8-1.7-3.8-3.8
					C22.9,11.5,24.6,9.8,26.6,9.8z"/>
				<path class="st244" d="M26.7,9.8c2.1,0,3.8,1.7,3.8,3.8c0,2.1-1.7,3.8-3.8,3.8c-2.1,0-3.8-1.7-3.8-3.8
					C22.9,11.5,24.6,9.8,26.7,9.8z"/>
				<path class="st245" d="M26.7,9.8c2.1,0,3.8,1.7,3.8,3.8c0,2.1-1.7,3.8-3.8,3.8c-2.1,0-3.8-1.7-3.8-3.8
					C22.9,11.5,24.6,9.8,26.7,9.8z"/>
				<path class="st246" d="M26.7,9.8c2.1,0,3.8,1.7,3.8,3.8c0,2.1-1.7,3.8-3.8,3.8c-2.1,0-3.8-1.7-3.8-3.8
					C22.9,11.5,24.6,9.8,26.7,9.8z"/>
				<path class="st247" d="M26.7,9.8c2.1,0,3.8,1.7,3.8,3.8c0,2.1-1.7,3.8-3.8,3.8c-2.1,0-3.8-1.7-3.8-3.8
					C22.9,11.5,24.6,9.8,26.7,9.8z"/>
				<path class="st248" d="M26.7,9.8c2.1,0,3.8,1.7,3.8,3.8c0,2.1-1.7,3.8-3.8,3.8c-2.1,0-3.8-1.7-3.8-3.8
					C22.9,11.5,24.6,9.8,26.7,9.8z"/>
				<path class="st249" d="M26.7,9.8c2.1,0,3.8,1.7,3.8,3.8c0,2.1-1.7,3.8-3.8,3.8c-2.1,0-3.8-1.7-3.8-3.8
					C22.9,11.5,24.6,9.8,26.7,9.8z"/>
				<path class="st250" d="M26.7,9.8c2.1,0,3.8,1.7,3.8,3.8c0,2.1-1.7,3.8-3.8,3.8c-2.1,0-3.8-1.7-3.8-3.8
					C22.9,11.5,24.6,9.8,26.7,9.8z"/>
				<path class="st251" d="M26.7,9.8c2.1,0,3.8,1.7,3.8,3.8c0,2.1-1.7,3.8-3.8,3.8c-2.1,0-3.8-1.7-3.8-3.8
					C22.9,11.5,24.6,9.8,26.7,9.8z"/>
				<path class="st252" d="M26.7,9.8c2.1,0,3.8,1.7,3.8,3.8c0,2.1-1.7,3.8-3.8,3.8c-2.1,0-3.8-1.7-3.8-3.8
					C22.9,11.5,24.6,9.8,26.7,9.8z"/>
				<path class="st253" d="M26.7,9.8c2.1,0,3.8,1.7,3.8,3.8c0,2.1-1.7,3.8-3.8,3.8c-2.1,0-3.8-1.7-3.8-3.8
					C22.9,11.5,24.6,9.8,26.7,9.8z"/>
				<path class="st254" d="M26.7,9.8c2.1,0,3.8,1.7,3.8,3.8c0,2.1-1.7,3.8-3.8,3.8c-2.1,0-3.8-1.7-3.8-3.8
					C22.9,11.5,24.6,9.8,26.7,9.8z"/>
				<path class="st255" d="M26.7,9.8c2.1,0,3.8,1.7,3.8,3.8c0,2.1-1.7,3.8-3.8,3.8c-2.1,0-3.8-1.7-3.8-3.8
					C22.9,11.5,24.6,9.8,26.7,9.8z"/>
				<path class="st256" d="M26.7,9.8c2.1,0,3.8,1.7,3.8,3.8c0,2.1-1.7,3.8-3.8,3.8c-2.1,0-3.8-1.7-3.8-3.8
					C22.9,11.5,24.6,9.8,26.7,9.8z"/>
				<path class="st257" d="M26.7,9.8c2.1,0,3.8,1.7,3.8,3.8c0,2.1-1.7,3.8-3.8,3.8c-2.1,0-3.8-1.7-3.8-3.8
					C22.9,11.5,24.6,9.8,26.7,9.8z"/>
				<path class="st258" d="M26.7,9.8c2.1,0,3.8,1.7,3.8,3.8c0,2.1-1.7,3.8-3.8,3.8c-2.1,0-3.8-1.7-3.8-3.8
					C22.9,11.5,24.6,9.8,26.7,9.8z"/>
				<path class="st259" d="M26.7,9.8c2.1,0,3.8,1.7,3.8,3.8c0,2.1-1.7,3.8-3.8,3.8c-2.1,0-3.8-1.7-3.8-3.8
					C22.9,11.5,24.6,9.8,26.7,9.8z"/>
				<path class="st260" d="M26.7,9.8c2.1,0,3.8,1.7,3.8,3.8c0,2.1-1.7,3.8-3.8,3.8c-2.1,0-3.8-1.7-3.8-3.8
					C22.9,11.5,24.6,9.8,26.7,9.8z"/>
				<path class="st261" d="M26.7,9.8c2.1,0,3.8,1.7,3.8,3.8c0,2.1-1.7,3.8-3.8,3.8c-2.1,0-3.8-1.7-3.8-3.8
					C22.9,11.5,24.6,9.8,26.7,9.8z"/>
				<path class="st262" d="M26.7,9.8c2.1,0,3.8,1.7,3.8,3.8c0,2.1-1.7,3.8-3.8,3.8c-2.1,0-3.8-1.7-3.8-3.8
					C22.9,11.5,24.6,9.8,26.7,9.8z"/>
				<path class="st263" d="M26.7,9.8c2.1,0,3.8,1.7,3.8,3.8c0,2.1-1.7,3.8-3.8,3.8c-2.1,0-3.8-1.7-3.8-3.8
					C22.9,11.5,24.6,9.8,26.7,9.8z"/>
				<path class="st264" d="M26.7,9.8c2.1,0,3.8,1.7,3.8,3.8c0,2.1-1.7,3.8-3.8,3.8c-2.1,0-3.8-1.7-3.8-3.8
					C22.9,11.5,24.6,9.8,26.7,9.8z"/>
				<path class="st265" d="M26.7,9.8c2.1,0,3.8,1.7,3.8,3.8c0,2.1-1.7,3.8-3.8,3.8c-2.1,0-3.8-1.7-3.8-3.8
					C22.9,11.5,24.6,9.8,26.7,9.8z"/>
				<path class="st266" d="M26.7,9.8c2.1,0,3.8,1.7,3.8,3.8c0,2.1-1.7,3.8-3.8,3.8c-2.1,0-3.8-1.7-3.8-3.8
					C22.9,11.5,24.6,9.8,26.7,9.8z"/>
				<path class="st267" d="M26.7,9.8c2.1,0,3.8,1.7,3.8,3.8c0,2.1-1.7,3.8-3.8,3.8c-2.1,0-3.8-1.7-3.8-3.8
					C22.9,11.5,24.6,9.8,26.7,9.8z"/>
				<path class="st268" d="M26.7,9.8c2.1,0,3.8,1.7,3.8,3.8c0,2.1-1.7,3.8-3.8,3.8c-2.1,0-3.8-1.7-3.8-3.8
					C22.9,11.5,24.6,9.8,26.7,9.8z"/>
				<path class="st269" d="M26.7,9.8c2.1,0,3.8,1.7,3.8,3.8c0,2.1-1.7,3.8-3.8,3.8c-2.1,0-3.8-1.7-3.8-3.8
					C22.9,11.5,24.6,9.8,26.7,9.8z"/>
				<path class="st270" d="M26.7,9.8c2.1,0,3.8,1.7,3.8,3.8c0,2.1-1.7,3.8-3.8,3.8c-2.1,0-3.8-1.7-3.8-3.8
					C22.9,11.5,24.6,9.8,26.7,9.8z"/>
				<path class="st271" d="M26.7,9.8c2.1,0,3.8,1.7,3.8,3.8c0,2.1-1.7,3.8-3.8,3.8c-2.1,0-3.8-1.7-3.8-3.8
					C22.9,11.5,24.6,9.8,26.7,9.8z"/>
				<path class="st272" d="M26.7,9.8c2.1,0,3.8,1.7,3.8,3.8c0,2.1-1.7,3.8-3.8,3.8c-2.1,0-3.8-1.7-3.8-3.8
					C22.9,11.5,24.6,9.8,26.7,9.8z"/>
				<path class="st273" d="M26.7,9.8c2.1,0,3.8,1.7,3.8,3.8c0,2.1-1.7,3.8-3.8,3.8c-2.1,0-3.8-1.7-3.8-3.8
					C22.9,11.5,24.6,9.8,26.7,9.8z"/>
				<path class="st274" d="M26.7,9.8c2.1,0,3.8,1.7,3.8,3.8c0,2.1-1.7,3.8-3.8,3.8c-2.1,0-3.8-1.7-3.8-3.8
					C22.9,11.5,24.6,9.8,26.7,9.8z"/>
				<path class="st275" d="M26.7,9.8c2.1,0,3.8,1.7,3.8,3.8c0,2.1-1.7,3.8-3.8,3.8c-2.1,0-3.8-1.7-3.8-3.8
					C22.9,11.5,24.6,9.8,26.7,9.8z"/>
				<path class="st276" d="M26.7,9.8c2.1,0,3.8,1.7,3.8,3.8c0,2.1-1.7,3.8-3.8,3.8c-2.1,0-3.8-1.7-3.8-3.8
					C22.9,11.5,24.6,9.8,26.7,9.8z"/>
				<path class="st277" d="M26.7,9.8c2.1,0,3.8,1.7,3.8,3.8c0,2.1-1.7,3.8-3.8,3.8c-2.1,0-3.8-1.7-3.8-3.8
					C22.9,11.5,24.6,9.8,26.7,9.8z"/>
				<path class="st278" d="M26.7,9.9c2.1,0,3.8,1.7,3.8,3.8c0,2.1-1.7,3.8-3.8,3.8c-2.1,0-3.8-1.7-3.8-3.8
					C22.9,11.5,24.6,9.9,26.7,9.9z"/>
				<path class="st279" d="M26.7,9.9c2.1,0,3.8,1.7,3.8,3.8c0,2.1-1.7,3.8-3.8,3.8c-2.1,0-3.8-1.7-3.8-3.8
					C22.9,11.5,24.6,9.9,26.7,9.9z"/>
				<path class="st280" d="M26.7,9.9c2.1,0,3.8,1.7,3.8,3.8c0,2.1-1.7,3.8-3.8,3.8c-2.1,0-3.8-1.7-3.8-3.8
					C22.9,11.5,24.6,9.9,26.7,9.9z"/>
				<path class="st281" d="M26.7,9.9c2.1,0,3.8,1.7,3.8,3.8c0,2.1-1.7,3.8-3.8,3.8c-2.1,0-3.8-1.7-3.8-3.8
					C22.9,11.5,24.6,9.9,26.7,9.9z"/>
				<path class="st282" d="M26.7,9.9c2.1,0,3.8,1.7,3.8,3.8c0,2.1-1.7,3.8-3.8,3.8c-2.1,0-3.8-1.7-3.8-3.8
					C22.9,11.6,24.6,9.9,26.7,9.9z"/>
				<path class="st283" d="M26.7,9.9c2.1,0,3.8,1.7,3.8,3.8c0,2.1-1.7,3.8-3.8,3.8c-2.1,0-3.8-1.7-3.8-3.8
					C22.9,11.6,24.6,9.9,26.7,9.9z"/>
				<path class="st284" d="M26.7,9.9c2.1,0,3.8,1.7,3.8,3.8c0,2.1-1.7,3.8-3.8,3.8c-2.1,0-3.8-1.7-3.8-3.8
					C22.9,11.6,24.6,9.9,26.7,9.9z"/>
				<path class="st285" d="M26.7,9.9c2.1,0,3.8,1.7,3.8,3.8c0,2.1-1.7,3.8-3.8,3.8c-2.1,0-3.8-1.7-3.8-3.8
					C22.9,11.6,24.6,9.9,26.7,9.9z"/>
				<path class="st286" d="M26.7,9.9c2.1,0,3.8,1.7,3.8,3.8c0,2.1-1.7,3.8-3.8,3.8c-2.1,0-3.8-1.7-3.8-3.8
					C22.9,11.6,24.6,9.9,26.7,9.9z"/>
				<path class="st287" d="M26.7,9.9c2.1,0,3.8,1.7,3.8,3.8c0,2.1-1.7,3.8-3.8,3.8c-2.1,0-3.8-1.7-3.8-3.8
					C22.9,11.6,24.6,9.9,26.7,9.9z"/>
				<path class="st288" d="M26.7,9.9c2.1,0,3.8,1.7,3.8,3.8c0,2.1-1.7,3.8-3.8,3.8c-2.1,0-3.8-1.7-3.8-3.8
					C22.9,11.6,24.6,9.9,26.7,9.9z"/>
				<path class="st289" d="M26.7,9.9c2.1,0,3.8,1.7,3.8,3.8c0,2.1-1.7,3.8-3.8,3.8c-2.1,0-3.8-1.7-3.8-3.8
					C23,11.6,24.6,9.9,26.7,9.9z"/>
				<path class="st290" d="M26.7,9.9c2.1,0,3.8,1.7,3.8,3.8c0,2.1-1.7,3.8-3.8,3.8c-2.1,0-3.8-1.7-3.8-3.8
					C23,11.6,24.6,9.9,26.7,9.9z"/>
				<path class="st291" d="M26.7,9.9c2.1,0,3.8,1.7,3.8,3.8c0,2.1-1.7,3.8-3.8,3.8c-2.1,0-3.8-1.7-3.8-3.8
					C23,11.6,24.6,9.9,26.7,9.9z"/>
				<path class="st292" d="M26.7,9.9c2.1,0,3.8,1.7,3.8,3.8c0,2.1-1.7,3.8-3.8,3.8c-2.1,0-3.8-1.7-3.8-3.8
					C23,11.6,24.6,9.9,26.7,9.9z"/>
				<path class="st293" d="M26.7,9.9c2.1,0,3.8,1.7,3.8,3.8c0,2.1-1.7,3.8-3.8,3.8c-2.1,0-3.8-1.7-3.8-3.8
					C23,11.6,24.7,9.9,26.7,9.9z"/>
				<path class="st294" d="M26.7,9.9c2.1,0,3.8,1.7,3.8,3.8c0,2.1-1.7,3.8-3.8,3.8c-2.1,0-3.8-1.7-3.8-3.8
					C23,11.6,24.7,9.9,26.7,9.9z"/>
				<path class="st295" d="M26.7,9.9c2.1,0,3.8,1.7,3.8,3.8c0,2.1-1.7,3.8-3.8,3.8c-2.1,0-3.8-1.7-3.8-3.8
					C23,11.6,24.7,9.9,26.7,9.9z"/>
				<path class="st296" d="M26.7,9.9c2.1,0,3.8,1.7,3.8,3.8c0,2.1-1.7,3.8-3.8,3.8c-2.1,0-3.8-1.7-3.8-3.8
					C23,11.6,24.7,9.9,26.7,9.9z"/>
				<path class="st297" d="M26.7,9.9c2.1,0,3.8,1.7,3.8,3.8c0,2.1-1.7,3.8-3.8,3.8c-2.1,0-3.8-1.7-3.8-3.8
					C23,11.6,24.7,9.9,26.7,9.9z"/>
				<path class="st298" d="M26.7,9.9c2.1,0,3.8,1.7,3.8,3.8c0,2.1-1.7,3.8-3.8,3.8c-2.1,0-3.8-1.7-3.8-3.8
					C23,11.6,24.7,9.9,26.7,9.9z"/>
				<path class="st299" d="M26.7,9.9c2.1,0,3.8,1.7,3.8,3.8c0,2.1-1.7,3.8-3.8,3.8c-2.1,0-3.8-1.7-3.8-3.8
					C23,11.6,24.7,9.9,26.7,9.9z"/>
				<path class="st300" d="M26.8,9.9c2.1,0,3.8,1.7,3.8,3.8c0,2.1-1.7,3.8-3.8,3.8c-2.1,0-3.8-1.7-3.8-3.8
					C23,11.6,24.7,9.9,26.8,9.9z"/>
				<path class="st301" d="M26.8,9.9c2.1,0,3.8,1.7,3.8,3.8c0,2.1-1.7,3.8-3.8,3.8c-2.1,0-3.8-1.7-3.8-3.8
					C23,11.6,24.7,9.9,26.8,9.9z"/>
				<path class="st302" d="M26.8,9.9c2.1,0,3.8,1.7,3.8,3.8c0,2.1-1.7,3.8-3.8,3.8c-2.1,0-3.8-1.7-3.8-3.8
					C23,11.6,24.7,9.9,26.8,9.9z"/>
				<path class="st303" d="M26.8,9.9c2.1,0,3.8,1.7,3.8,3.8c0,2.1-1.7,3.8-3.8,3.8c-2.1,0-3.8-1.7-3.8-3.8
					C23,11.6,24.7,9.9,26.8,9.9z"/>
				<path class="st304" d="M26.8,9.9c2.1,0,3.8,1.7,3.8,3.8c0,2.1-1.7,3.8-3.8,3.8c-2.1,0-3.8-1.7-3.8-3.8
					C23,11.6,24.7,9.9,26.8,9.9z"/>
				<path class="st305" d="M26.8,9.9c2.1,0,3.8,1.7,3.8,3.8c0,2.1-1.7,3.8-3.8,3.8c-2.1,0-3.8-1.7-3.8-3.8
					C23,11.6,24.7,9.9,26.8,9.9z"/>
				<path class="st306" d="M26.8,9.9c2.1,0,3.8,1.7,3.8,3.8c0,2.1-1.7,3.8-3.8,3.8c-2.1,0-3.8-1.7-3.8-3.8
					C23,11.6,24.7,9.9,26.8,9.9z"/>
				<path class="st307" d="M26.8,9.9c2.1,0,3.8,1.7,3.8,3.8c0,2.1-1.7,3.8-3.8,3.8c-2.1,0-3.8-1.7-3.8-3.8
					C23,11.6,24.7,9.9,26.8,9.9z"/>
				<path class="st308" d="M26.8,9.9c2.1,0,3.8,1.7,3.8,3.8c0,2.1-1.7,3.8-3.8,3.8c-2.1,0-3.8-1.7-3.8-3.8
					C23,11.6,24.7,9.9,26.8,9.9z"/>
				<path class="st309" d="M26.8,9.9c2.1,0,3.8,1.7,3.8,3.8c0,2.1-1.7,3.8-3.8,3.8c-2.1,0-3.8-1.7-3.8-3.8
					C23,11.6,24.7,9.9,26.8,9.9z"/>
				<path class="st310" d="M26.8,9.9c2.1,0,3.8,1.7,3.8,3.8c0,2.1-1.7,3.8-3.8,3.8c-2.1,0-3.8-1.7-3.8-3.8
					C23,11.6,24.7,9.9,26.8,9.9z"/>
				<path class="st311" d="M26.8,9.9c2.1,0,3.8,1.7,3.8,3.8c0,2.1-1.7,3.8-3.8,3.8c-2.1,0-3.8-1.7-3.8-3.8
					C23,11.6,24.7,9.9,26.8,9.9z"/>
				<path class="st312" d="M26.8,9.9c2.1,0,3.8,1.7,3.8,3.8c0,2.1-1.7,3.8-3.8,3.8c-2.1,0-3.8-1.7-3.8-3.8
					C23,11.6,24.7,9.9,26.8,9.9z"/>
				<path class="st313" d="M26.8,9.9c2.1,0,3.8,1.7,3.8,3.8c0,2.1-1.7,3.8-3.8,3.8c-2.1,0-3.8-1.7-3.8-3.8
					C23,11.6,24.7,9.9,26.8,9.9z"/>
				<path class="st314" d="M26.8,9.9c2.1,0,3.8,1.7,3.8,3.8c0,2.1-1.7,3.8-3.8,3.8c-2.1,0-3.8-1.7-3.8-3.8
					C23,11.6,24.7,9.9,26.8,9.9z"/>
				<path class="st315" d="M26.8,9.9c2.1,0,3.8,1.7,3.8,3.8c0,2.1-1.7,3.8-3.8,3.8c-2.1,0-3.8-1.7-3.8-3.8
					C23,11.6,24.7,9.9,26.8,9.9z"/>
				<path class="st316" d="M26.8,9.9c2.1,0,3.8,1.7,3.8,3.8c0,2.1-1.7,3.8-3.8,3.8c-2.1,0-3.8-1.7-3.8-3.8
					C23,11.6,24.7,9.9,26.8,9.9z"/>
				<path class="st317" d="M26.8,9.9c2.1,0,3.8,1.7,3.8,3.8c0,2.1-1.7,3.8-3.8,3.8c-2.1,0-3.8-1.7-3.8-3.8
					C23,11.6,24.7,9.9,26.8,9.9z"/>
				<path class="st318" d="M26.8,9.9c2.1,0,3.8,1.7,3.8,3.8c0,2.1-1.7,3.8-3.8,3.8c-2.1,0-3.8-1.7-3.8-3.8
					C23,11.6,24.7,9.9,26.8,9.9z"/>
				<path class="st319" d="M26.8,9.9c2.1,0,3.8,1.7,3.8,3.8c0,2.1-1.7,3.8-3.8,3.8c-2.1,0-3.8-1.7-3.8-3.8
					C23,11.6,24.7,9.9,26.8,9.9z"/>
				<path class="st320" d="M26.8,9.9c2.1,0,3.8,1.7,3.8,3.8c0,2.1-1.7,3.8-3.8,3.8c-2.1,0-3.8-1.7-3.8-3.8
					C23,11.6,24.7,9.9,26.8,9.9z"/>
				<path class="st321" d="M26.8,9.9c2.1,0,3.8,1.7,3.8,3.8c0,2.1-1.7,3.8-3.8,3.8c-2.1,0-3.8-1.7-3.8-3.8
					C23,11.6,24.7,9.9,26.8,9.9z"/>
				<path class="st322" d="M26.8,9.9c2.1,0,3.8,1.7,3.8,3.8c0,2.1-1.7,3.8-3.8,3.8c-2.1,0-3.8-1.7-3.8-3.8
					C23,11.6,24.7,9.9,26.8,9.9z"/>
				<path class="st323" d="M26.8,9.9c2.1,0,3.8,1.7,3.8,3.8c0,2.1-1.7,3.8-3.8,3.8c-2.1,0-3.8-1.7-3.8-3.8
					C23,11.6,24.7,9.9,26.8,9.9z"/>
				<path class="st324" d="M26.8,10c2.1,0,3.8,1.7,3.8,3.8c0,2.1-1.7,3.8-3.8,3.8c-2.1,0-3.8-1.7-3.8-3.8C23,11.6,24.7,10,26.8,10z"
					/>
				<path class="st325" d="M26.8,10c2.1,0,3.8,1.7,3.8,3.8c0,2.1-1.7,3.8-3.8,3.8c-2.1,0-3.8-1.7-3.8-3.8C23,11.6,24.7,10,26.8,10z"
					/>
				<path class="st326" d="M26.8,10c2.1,0,3.8,1.7,3.8,3.8c0,2.1-1.7,3.8-3.8,3.8c-2.1,0-3.8-1.7-3.8-3.8C23,11.6,24.7,10,26.8,10z"
					/>
				<path class="st327" d="M26.8,10c2.1,0,3.8,1.7,3.8,3.8c0,2.1-1.7,3.8-3.8,3.8c-2.1,0-3.8-1.7-3.8-3.8C23,11.6,24.7,10,26.8,10z"
					/>
				<path class="st328" d="M26.8,10c2.1,0,3.8,1.7,3.8,3.8c0,2.1-1.7,3.8-3.8,3.8c-2.1,0-3.8-1.7-3.8-3.8C23,11.7,24.7,10,26.8,10z"
					/>
				<path class="st329" d="M26.8,10c2.1,0,3.8,1.7,3.8,3.8c0,2.1-1.7,3.8-3.8,3.8c-2.1,0-3.8-1.7-3.8-3.8C23,11.7,24.7,10,26.8,10z"
					/>
				<path class="st330" d="M26.8,10c2.1,0,3.8,1.7,3.8,3.8c0,2.1-1.7,3.8-3.8,3.8c-2.1,0-3.8-1.7-3.8-3.8C23,11.7,24.7,10,26.8,10z"
					/>
				<path class="st331" d="M26.8,10c2.1,0,3.8,1.7,3.8,3.8c0,2.1-1.7,3.8-3.8,3.8c-2.1,0-3.8-1.7-3.8-3.8C23,11.7,24.7,10,26.8,10z"
					/>
				<path class="st332" d="M26.8,10c2.1,0,3.8,1.7,3.8,3.8c0,2.1-1.7,3.8-3.8,3.8c-2.1,0-3.8-1.7-3.8-3.8C23,11.7,24.7,10,26.8,10z"
					/>
				<path class="st333" d="M26.8,10c2.1,0,3.8,1.7,3.8,3.8c0,2.1-1.7,3.8-3.8,3.8c-2.1,0-3.8-1.7-3.8-3.8C23,11.7,24.7,10,26.8,10z"
					/>
				<path class="st334" d="M26.8,10c2.1,0,3.8,1.7,3.8,3.8c0,2.1-1.7,3.8-3.8,3.8c-2.1,0-3.8-1.7-3.8-3.8C23,11.7,24.7,10,26.8,10z"
					/>
				<path class="st335" d="M26.8,10c2.1,0,3.8,1.7,3.8,3.8c0,2.1-1.7,3.8-3.8,3.8c-2.1,0-3.8-1.7-3.8-3.8C23,11.7,24.7,10,26.8,10z"
					/>
				<path class="st336" d="M26.8,10c2.1,0,3.8,1.7,3.8,3.8c0,2.1-1.7,3.8-3.8,3.8c-2.1,0-3.8-1.7-3.8-3.8C23,11.7,24.7,10,26.8,10z"
					/>
				<path class="st337" d="M26.8,10c2.1,0,3.8,1.7,3.8,3.8c0,2.1-1.7,3.8-3.8,3.8c-2.1,0-3.8-1.7-3.8-3.8C23,11.7,24.7,10,26.8,10z"
					/>
				<path class="st338" d="M26.8,10c2.1,0,3.8,1.7,3.8,3.8c0,2.1-1.7,3.8-3.8,3.8c-2.1,0-3.8-1.7-3.8-3.8C23,11.7,24.7,10,26.8,10z"
					/>
				<path class="st339" d="M26.8,10c2.1,0,3.8,1.7,3.8,3.8c0,2.1-1.7,3.8-3.8,3.8c-2.1,0-3.8-1.7-3.8-3.8C23,11.7,24.7,10,26.8,10z"
					/>
				<path class="st340" d="M26.8,10c2.1,0,3.8,1.7,3.8,3.8c0,2.1-1.7,3.8-3.8,3.8c-2.1,0-3.8-1.7-3.8-3.8C23,11.7,24.7,10,26.8,10z"
					/>
				<path class="st341" d="M26.8,10c2.1,0,3.8,1.7,3.8,3.8c0,2.1-1.7,3.8-3.8,3.8c-2.1,0-3.8-1.7-3.8-3.8C23,11.7,24.7,10,26.8,10z"
					/>
				<path class="st342" d="M26.8,10c2.1,0,3.8,1.7,3.8,3.8c0,2.1-1.7,3.8-3.8,3.8c-2.1,0-3.8-1.7-3.8-3.8C23,11.7,24.7,10,26.8,10z"
					/>
				<path class="st343" d="M26.8,10c2.1,0,3.8,1.7,3.8,3.8c0,2.1-1.7,3.8-3.8,3.8c-2.1,0-3.8-1.7-3.8-3.8C23,11.7,24.7,10,26.8,10z"
					/>
				<path class="st344" d="M26.8,10c2.1,0,3.8,1.7,3.8,3.8c0,2.1-1.7,3.8-3.8,3.8c-2.1,0-3.8-1.7-3.8-3.8C23.1,11.7,24.7,10,26.8,10
					z"/>
				<path class="st345" d="M26.8,10c2.1,0,3.8,1.7,3.8,3.8c0,2.1-1.7,3.8-3.8,3.8c-2.1,0-3.8-1.7-3.8-3.8C23.1,11.7,24.7,10,26.8,10
					z"/>
				<path class="st346" d="M26.8,10c2.1,0,3.8,1.7,3.8,3.8c0,2.1-1.7,3.8-3.8,3.8c-2.1,0-3.8-1.7-3.8-3.8C23.1,11.7,24.7,10,26.8,10
					z"/>
				<path class="st347" d="M26.8,10c2.1,0,3.8,1.7,3.8,3.8c0,2.1-1.7,3.8-3.8,3.8c-2.1,0-3.8-1.7-3.8-3.8C23.1,11.7,24.7,10,26.8,10
					z"/>
				<path class="st348" d="M26.8,10c2.1,0,3.8,1.7,3.8,3.8c0,2.1-1.7,3.8-3.8,3.8c-2.1,0-3.8-1.7-3.8-3.8C23.1,11.7,24.8,10,26.8,10
					z"/>
				<path class="st349" d="M26.8,10c2.1,0,3.8,1.7,3.8,3.8c0,2.1-1.7,3.8-3.8,3.8c-2.1,0-3.8-1.7-3.8-3.8C23.1,11.7,24.8,10,26.8,10
					z"/>
				<path class="st350" d="M26.8,10c2.1,0,3.8,1.7,3.8,3.8c0,2.1-1.7,3.8-3.8,3.8c-2.1,0-3.8-1.7-3.8-3.8C23.1,11.7,24.8,10,26.8,10
					z"/>
				<path class="st351" d="M26.8,10c2.1,0,3.8,1.7,3.8,3.8c0,2.1-1.7,3.8-3.8,3.8c-2.1,0-3.8-1.7-3.8-3.8C23.1,11.7,24.8,10,26.8,10
					z"/>
				<path class="st352" d="M26.8,10c2.1,0,3.8,1.7,3.8,3.8c0,2.1-1.7,3.8-3.8,3.8c-2.1,0-3.8-1.7-3.8-3.8C23.1,11.7,24.8,10,26.8,10
					z"/>
				<path class="st353" d="M26.8,10c2.1,0,3.8,1.7,3.8,3.8c0,2.1-1.7,3.8-3.8,3.8c-2.1,0-3.8-1.7-3.8-3.8C23.1,11.7,24.8,10,26.8,10
					z"/>
				<path class="st354" d="M26.8,10c2.1,0,3.8,1.7,3.8,3.8c0,2.1-1.7,3.8-3.8,3.8c-2.1,0-3.8-1.7-3.8-3.8C23.1,11.7,24.8,10,26.8,10
					z"/>
				<path class="st355" d="M26.9,10c2.1,0,3.8,1.7,3.8,3.8c0,2.1-1.7,3.8-3.8,3.8c-2.1,0-3.8-1.7-3.8-3.8C23.1,11.7,24.8,10,26.9,10
					z"/>
				<path class="st356" d="M26.9,10c2.1,0,3.8,1.7,3.8,3.8c0,2.1-1.7,3.8-3.8,3.8c-2.1,0-3.8-1.7-3.8-3.8C23.1,11.7,24.8,10,26.9,10
					z"/>
				<path class="st357" d="M26.9,10c2.1,0,3.8,1.7,3.8,3.8c0,2.1-1.7,3.8-3.8,3.8c-2.1,0-3.8-1.7-3.8-3.8C23.1,11.7,24.8,10,26.9,10
					z"/>
				<path class="st358" d="M26.9,10c2.1,0,3.8,1.7,3.8,3.8c0,2.1-1.7,3.8-3.8,3.8c-2.1,0-3.8-1.7-3.8-3.8C23.1,11.7,24.8,10,26.9,10
					z"/>
				<path class="st359" d="M26.9,10c2.1,0,3.8,1.7,3.8,3.8c0,2.1-1.7,3.8-3.8,3.8c-2.1,0-3.8-1.7-3.8-3.8C23.1,11.7,24.8,10,26.9,10
					z"/>
				<path class="st360" d="M26.9,10c2.1,0,3.8,1.7,3.8,3.8c0,2.1-1.7,3.8-3.8,3.8c-2.1,0-3.8-1.7-3.8-3.8C23.1,11.7,24.8,10,26.9,10
					z"/>
				<path class="st361" d="M26.9,10c2.1,0,3.8,1.7,3.8,3.8c0,2.1-1.7,3.8-3.8,3.8c-2.1,0-3.8-1.7-3.8-3.8C23.1,11.7,24.8,10,26.9,10
					z"/>
				<path class="st362" d="M26.9,10c2.1,0,3.8,1.7,3.8,3.8c0,2.1-1.7,3.8-3.8,3.8c-2.1,0-3.8-1.7-3.8-3.8C23.1,11.7,24.8,10,26.9,10
					z"/>
				<path class="st363" d="M26.9,10c2.1,0,3.8,1.7,3.8,3.8c0,2.1-1.7,3.8-3.8,3.8c-2.1,0-3.8-1.7-3.8-3.8C23.1,11.7,24.8,10,26.9,10
					z"/>
				<path class="st364" d="M26.9,10c2.1,0,3.8,1.7,3.8,3.8c0,2.1-1.7,3.8-3.8,3.8c-2.1,0-3.8-1.7-3.8-3.8C23.1,11.7,24.8,10,26.9,10
					z"/>
				<path class="st365" d="M26.9,10c2.1,0,3.8,1.7,3.8,3.8c0,2.1-1.7,3.8-3.8,3.8c-2.1,0-3.8-1.7-3.8-3.8C23.1,11.7,24.8,10,26.9,10
					z"/>
				<path class="st366" d="M26.9,10c2.1,0,3.8,1.7,3.8,3.8c0,2.1-1.7,3.8-3.8,3.8c-2.1,0-3.8-1.7-3.8-3.8C23.1,11.7,24.8,10,26.9,10
					z"/>
				<path class="st367" d="M26.9,10c2.1,0,3.8,1.7,3.8,3.8c0,2.1-1.7,3.8-3.8,3.8c-2.1,0-3.8-1.7-3.8-3.8C23.1,11.7,24.8,10,26.9,10
					z"/>
				<path class="st368" d="M26.9,10c2.1,0,3.8,1.7,3.8,3.8c0,2.1-1.7,3.8-3.8,3.8c-2.1,0-3.8-1.7-3.8-3.8C23.1,11.7,24.8,10,26.9,10
					z"/>
				<path class="st369" d="M26.9,10c2.1,0,3.8,1.7,3.8,3.8c0,2.1-1.7,3.8-3.8,3.8c-2.1,0-3.8-1.7-3.8-3.8C23.1,11.7,24.8,10,26.9,10
					z"/>
				<path class="st370" d="M26.9,10.1c2.1,0,3.8,1.7,3.8,3.8c0,2.1-1.7,3.8-3.8,3.8c-2.1,0-3.8-1.7-3.8-3.8
					C23.1,11.7,24.8,10.1,26.9,10.1z"/>
				<path class="st371" d="M26.9,10.1c2.1,0,3.8,1.7,3.8,3.8c0,2.1-1.7,3.8-3.8,3.8c-2.1,0-3.8-1.7-3.8-3.8
					C23.1,11.7,24.8,10.1,26.9,10.1z"/>
				<path class="st372" d="M26.9,10.1c2.1,0,3.8,1.7,3.8,3.8c0,2.1-1.7,3.8-3.8,3.8c-2.1,0-3.8-1.7-3.8-3.8
					C23.1,11.7,24.8,10.1,26.9,10.1z"/>
				<path class="st373" d="M26.9,10.1c2.1,0,3.8,1.7,3.8,3.8c0,2.1-1.7,3.8-3.8,3.8c-2.1,0-3.8-1.7-3.8-3.8
					C23.1,11.7,24.8,10.1,26.9,10.1z"/>
				<path class="st374" d="M26.9,10.1c2.1,0,3.8,1.7,3.8,3.8c0,2.1-1.7,3.8-3.8,3.8c-2.1,0-3.8-1.7-3.8-3.8
					C23.1,11.8,24.8,10.1,26.9,10.1z"/>
				<path class="st375" d="M26.9,10.1c2.1,0,3.8,1.7,3.8,3.8c0,2.1-1.7,3.8-3.8,3.8c-2.1,0-3.8-1.7-3.8-3.8
					C23.1,11.8,24.8,10.1,26.9,10.1z"/>
				<path class="st376" d="M26.9,10.1c2.1,0,3.8,1.7,3.8,3.8c0,2.1-1.7,3.8-3.8,3.8c-2.1,0-3.8-1.7-3.8-3.8
					C23.1,11.8,24.8,10.1,26.9,10.1z"/>
				<path class="st377" d="M26.9,10.1c2.1,0,3.8,1.7,3.8,3.8c0,2.1-1.7,3.8-3.8,3.8c-2.1,0-3.8-1.7-3.8-3.8
					C23.1,11.8,24.8,10.1,26.9,10.1z"/>
				<path class="st378" d="M26.9,10.1c2.1,0,3.8,1.7,3.8,3.8c0,2.1-1.7,3.8-3.8,3.8c-2.1,0-3.8-1.7-3.8-3.8
					C23.1,11.8,24.8,10.1,26.9,10.1z"/>
				<path class="st379" d="M26.9,10.1c2.1,0,3.8,1.7,3.8,3.8c0,2.1-1.7,3.8-3.8,3.8c-2.1,0-3.8-1.7-3.8-3.8
					C23.1,11.8,24.8,10.1,26.9,10.1z"/>
				<path class="st380" d="M26.9,10.1c2.1,0,3.8,1.7,3.8,3.8c0,2.1-1.7,3.8-3.8,3.8c-2.1,0-3.8-1.7-3.8-3.8
					C23.1,11.8,24.8,10.1,26.9,10.1z"/>
				<path class="st381" d="M26.9,10.1c2.1,0,3.8,1.7,3.8,3.8c0,2.1-1.7,3.8-3.8,3.8c-2.1,0-3.8-1.7-3.8-3.8
					C23.1,11.8,24.8,10.1,26.9,10.1z"/>
				<path class="st382" d="M26.9,10.1c2.1,0,3.8,1.7,3.8,3.8c0,2.1-1.7,3.8-3.8,3.8c-2.1,0-3.8-1.7-3.8-3.8
					C23.1,11.8,24.8,10.1,26.9,10.1z"/>
				<path class="st383" d="M26.9,10.1c2.1,0,3.8,1.7,3.8,3.8c0,2.1-1.7,3.8-3.8,3.8c-2.1,0-3.8-1.7-3.8-3.8
					C23.1,11.8,24.8,10.1,26.9,10.1z"/>
				<path class="st384" d="M26.9,10.1c2.1,0,3.8,1.7,3.8,3.8c0,2.1-1.7,3.8-3.8,3.8c-2.1,0-3.8-1.7-3.8-3.8
					C23.1,11.8,24.8,10.1,26.9,10.1z"/>
				<path class="st385" d="M26.9,10.1c2.1,0,3.8,1.7,3.8,3.8c0,2.1-1.7,3.8-3.8,3.8c-2.1,0-3.8-1.7-3.8-3.8
					C23.1,11.8,24.8,10.1,26.9,10.1z"/>
				<path class="st386" d="M26.9,10.1c2.1,0,3.8,1.7,3.8,3.8c0,2.1-1.7,3.8-3.8,3.8c-2.1,0-3.8-1.7-3.8-3.8
					C23.1,11.8,24.8,10.1,26.9,10.1z"/>
				<path class="st387" d="M26.9,10.1c2.1,0,3.8,1.7,3.8,3.8c0,2.1-1.7,3.8-3.8,3.8c-2.1,0-3.8-1.7-3.8-3.8
					C23.1,11.8,24.8,10.1,26.9,10.1z"/>
				<path class="st388" d="M26.9,10.1c2.1,0,3.8,1.7,3.8,3.8c0,2.1-1.7,3.8-3.8,3.8c-2.1,0-3.8-1.7-3.8-3.8
					C23.1,11.8,24.8,10.1,26.9,10.1z"/>
				<path class="st389" d="M26.9,10.1c2.1,0,3.8,1.7,3.8,3.8c0,2.1-1.7,3.8-3.8,3.8c-2.1,0-3.8-1.7-3.8-3.8
					C23.1,11.8,24.8,10.1,26.9,10.1z"/>
				<path class="st390" d="M26.9,10.1c2.1,0,3.8,1.7,3.8,3.8c0,2.1-1.7,3.8-3.8,3.8c-2.1,0-3.8-1.7-3.8-3.8
					C23.1,11.8,24.8,10.1,26.9,10.1z"/>
				<path class="st391" d="M26.9,10.1c2.1,0,3.8,1.7,3.8,3.8c0,2.1-1.7,3.8-3.8,3.8c-2.1,0-3.8-1.7-3.8-3.8
					C23.1,11.8,24.8,10.1,26.9,10.1z"/>
				<path class="st392" d="M26.9,10.1c2.1,0,3.8,1.7,3.8,3.8c0,2.1-1.7,3.8-3.8,3.8c-2.1,0-3.8-1.7-3.8-3.8
					C23.1,11.8,24.8,10.1,26.9,10.1z"/>
				<path class="st393" d="M26.9,10.1c2.1,0,3.8,1.7,3.8,3.8c0,2.1-1.7,3.8-3.8,3.8c-2.1,0-3.8-1.7-3.8-3.8
					C23.1,11.8,24.8,10.1,26.9,10.1z"/>
				<path class="st394" d="M26.9,10.1c2.1,0,3.8,1.7,3.8,3.8c0,2.1-1.7,3.8-3.8,3.8c-2.1,0-3.8-1.7-3.8-3.8
					C23.1,11.8,24.8,10.1,26.9,10.1z"/>
				<path class="st395" d="M26.9,10.1c2.1,0,3.8,1.7,3.8,3.8c0,2.1-1.7,3.8-3.8,3.8c-2.1,0-3.8-1.7-3.8-3.8
					C23.1,11.8,24.8,10.1,26.9,10.1z"/>
				<path class="st396" d="M26.9,10.1c2.1,0,3.8,1.7,3.8,3.8c0,2.1-1.7,3.8-3.8,3.8c-2.1,0-3.8-1.7-3.8-3.8
					C23.1,11.8,24.8,10.1,26.9,10.1z"/>
				<path class="st397" d="M26.9,10.1c2.1,0,3.8,1.7,3.8,3.8c0,2.1-1.7,3.8-3.8,3.8c-2.1,0-3.8-1.7-3.8-3.8
					C23.1,11.8,24.8,10.1,26.9,10.1z"/>
				<path class="st398" d="M26.9,10.1c2.1,0,3.8,1.7,3.8,3.8c0,2.1-1.7,3.8-3.8,3.8c-2.1,0-3.8-1.7-3.8-3.8
					C23.1,11.8,24.8,10.1,26.9,10.1z"/>
				<path class="st399" d="M26.9,10.1c2.1,0,3.8,1.7,3.8,3.8c0,2.1-1.7,3.8-3.8,3.8c-2.1,0-3.8-1.7-3.8-3.8
					C23.1,11.8,24.8,10.1,26.9,10.1z"/>
				<path class="st400" d="M26.9,10.1c2.1,0,3.8,1.7,3.8,3.8c0,2.1-1.7,3.8-3.8,3.8c-2.1,0-3.8-1.7-3.8-3.8
					C23.2,11.8,24.8,10.1,26.9,10.1z"/>
				<path class="st401" d="M26.9,10.1c2.1,0,3.8,1.7,3.8,3.8c0,2.1-1.7,3.8-3.8,3.8c-2.1,0-3.8-1.7-3.8-3.8
					C23.2,11.8,24.8,10.1,26.9,10.1z"/>
				<path class="st402" d="M26.9,10.1c2.1,0,3.8,1.7,3.8,3.8c0,2.1-1.7,3.8-3.8,3.8c-2.1,0-3.8-1.7-3.8-3.8
					C23.2,11.8,24.8,10.1,26.9,10.1z"/>
				<path class="st403" d="M26.9,10.1c2.1,0,3.8,1.7,3.8,3.8c0,2.1-1.7,3.8-3.8,3.8c-2.1,0-3.8-1.7-3.8-3.8
					C23.2,11.8,24.8,10.1,26.9,10.1z"/>
				<path class="st404" d="M26.9,10.1c2.1,0,3.8,1.7,3.8,3.8c0,2.1-1.7,3.8-3.8,3.8c-2.1,0-3.8-1.7-3.8-3.8
					C23.2,11.8,24.9,10.1,26.9,10.1z"/>
				<path class="st405" d="M26.9,10.1c2.1,0,3.8,1.7,3.8,3.8c0,2.1-1.7,3.8-3.8,3.8c-2.1,0-3.8-1.7-3.8-3.8
					C23.2,11.8,24.9,10.1,26.9,10.1z"/>
				<path class="st406" d="M26.9,10.1c2.1,0,3.8,1.7,3.8,3.8c0,2.1-1.7,3.8-3.8,3.8c-2.1,0-3.8-1.7-3.8-3.8
					C23.2,11.8,24.9,10.1,26.9,10.1z"/>
				<path class="st407" d="M26.9,10.1c2.1,0,3.8,1.7,3.8,3.8c0,2.1-1.7,3.8-3.8,3.8c-2.1,0-3.8-1.7-3.8-3.8
					C23.2,11.8,24.9,10.1,26.9,10.1z"/>
				<path class="st408" d="M26.9,10.1c2.1,0,3.8,1.7,3.8,3.8c0,2.1-1.7,3.8-3.8,3.8c-2.1,0-3.8-1.7-3.8-3.8
					C23.2,11.8,24.9,10.1,26.9,10.1z"/>
				<path class="st409" d="M26.9,10.1c2.1,0,3.8,1.7,3.8,3.8c0,2.1-1.7,3.8-3.8,3.8c-2.1,0-3.8-1.7-3.8-3.8
					C23.2,11.8,24.9,10.1,26.9,10.1z"/>
				<path class="st410" d="M26.9,10.1c2.1,0,3.8,1.7,3.8,3.8c0,2.1-1.7,3.8-3.8,3.8c-2.1,0-3.8-1.7-3.8-3.8
					C23.2,11.8,24.9,10.1,26.9,10.1z"/>
				<path class="st411" d="M27,10.1c2.1,0,3.8,1.7,3.8,3.8c0,2.1-1.7,3.8-3.8,3.8c-2.1,0-3.8-1.7-3.8-3.8
					C23.2,11.8,24.9,10.1,27,10.1z"/>
				<path class="st412" d="M27,10.1c2.1,0,3.8,1.7,3.8,3.8c0,2.1-1.7,3.8-3.8,3.8c-2.1,0-3.8-1.7-3.8-3.8
					C23.2,11.8,24.9,10.1,27,10.1z"/>
				<path class="st413" d="M27,10.1c2.1,0,3.8,1.7,3.8,3.8c0,2.1-1.7,3.8-3.8,3.8c-2.1,0-3.8-1.7-3.8-3.8
					C23.2,11.8,24.9,10.1,27,10.1z"/>
				<path class="st414" d="M27,10.1c2.1,0,3.8,1.7,3.8,3.8c0,2.1-1.7,3.8-3.8,3.8c-2.1,0-3.8-1.7-3.8-3.8
					C23.2,11.8,24.9,10.1,27,10.1z"/>
				<path class="st415" d="M27,10.1c2.1,0,3.8,1.7,3.8,3.8c0,2.1-1.7,3.8-3.8,3.8c-2.1,0-3.8-1.7-3.8-3.8
					C23.2,11.8,24.9,10.1,27,10.1z"/>
				<path class="st416" d="M27,10.2c2.1,0,3.8,1.7,3.8,3.8c0,2.1-1.7,3.8-3.8,3.8c-2.1,0-3.8-1.7-3.8-3.8
					C23.2,11.8,24.9,10.2,27,10.2z"/>
				<path class="st417" d="M27,10.2c2.1,0,3.8,1.7,3.8,3.8c0,2.1-1.7,3.8-3.8,3.8c-2.1,0-3.8-1.7-3.8-3.8
					C23.2,11.8,24.9,10.2,27,10.2z"/>
				<path class="st418" d="M27,10.2c2.1,0,3.8,1.7,3.8,3.8c0,2.1-1.7,3.8-3.8,3.8c-2.1,0-3.8-1.7-3.8-3.8
					C23.2,11.8,24.9,10.2,27,10.2z"/>
				<path class="st419" d="M27,10.2c2.1,0,3.8,1.7,3.8,3.8c0,2.1-1.7,3.8-3.8,3.8c-2.1,0-3.8-1.7-3.8-3.8
					C23.2,11.9,24.9,10.2,27,10.2z"/>
				<path class="st420" d="M27,10.2c2.1,0,3.8,1.7,3.8,3.8c0,2.1-1.7,3.8-3.8,3.8c-2.1,0-3.8-1.7-3.8-3.8
					C23.2,11.9,24.9,10.2,27,10.2z"/>
				<path class="st421" d="M27,10.2c2.1,0,3.8,1.7,3.8,3.8c0,2.1-1.7,3.8-3.8,3.8c-2.1,0-3.8-1.7-3.8-3.8
					C23.2,11.9,24.9,10.2,27,10.2z"/>
				<path class="st422" d="M27,10.2c2.1,0,3.8,1.7,3.8,3.8c0,2.1-1.7,3.8-3.8,3.8c-2.1,0-3.8-1.7-3.8-3.8
					C23.2,11.9,24.9,10.2,27,10.2z"/>
				<path class="st423" d="M27,10.2c2.1,0,3.8,1.7,3.8,3.8c0,2.1-1.7,3.8-3.8,3.8c-2.1,0-3.8-1.7-3.8-3.8
					C23.2,11.9,24.9,10.2,27,10.2z"/>
				<path class="st424" d="M27,10.2c2.1,0,3.8,1.7,3.8,3.8c0,2.1-1.7,3.8-3.8,3.8c-2.1,0-3.8-1.7-3.8-3.8
					C23.2,11.9,24.9,10.2,27,10.2z"/>
				<path class="st425" d="M27,10.2c2.1,0,3.8,1.7,3.8,3.8c0,2.1-1.7,3.8-3.8,3.8c-2.1,0-3.8-1.7-3.8-3.8
					C23.2,11.9,24.9,10.2,27,10.2z"/>
				<path class="st426" d="M27,10.2c2.1,0,3.8,1.7,3.8,3.8c0,2.1-1.7,3.8-3.8,3.8c-2.1,0-3.8-1.7-3.8-3.8
					C23.2,11.9,24.9,10.2,27,10.2z"/>
				<path class="st427" d="M27,10.2c2.1,0,3.8,1.7,3.8,3.8c0,2.1-1.7,3.8-3.8,3.8c-2.1,0-3.8-1.7-3.8-3.8
					C23.2,11.9,24.9,10.2,27,10.2z"/>
				<path class="st428" d="M30.8,14c0,2.1-1.7,3.8-3.8,3.8c-2.1,0-3.8-1.7-3.8-3.8c0-2.1,1.7-3.8,3.8-3.8
					C29.1,10.2,30.8,11.9,30.8,14z"/>
			</g>
		</g>
	</g>
	<g class="st4">
		<path d="M47.3,9.7c0-0.1-0.1-0.2-0.2-0.2h-0.2v0.6H47V9.9l0.2,0.2h0.2l-0.2-0.3C47.3,9.9,47.3,9.8,47.3,9.7z M47,9.8L47,9.8l0-0.2
			h0c0.1,0,0.1,0,0.1,0.1C47.1,9.8,47.1,9.8,47,9.8z"/>
		<path d="M47.1,9.3c-0.3,0-0.5,0.2-0.5,0.5c0,0.3,0.2,0.5,0.5,0.5c0.3,0,0.5-0.2,0.5-0.5C47.6,9.5,47.4,9.3,47.1,9.3z M47.1,10.3
			c-0.2,0-0.4-0.2-0.4-0.4c0-0.2,0.2-0.4,0.4-0.4c0.2,0,0.4,0.2,0.4,0.4C47.5,10.1,47.3,10.3,47.1,10.3z"/>
	</g>
	<g class="st4">
		<path class="st1" d="M46,1c1.7,0,3,1.3,3,3v20c0,1.7-1.3,3-3,3H4c-1.7,0-3-1.3-3-3V4c0-1.7,1.3-3,3-3H46 M46,0H4C1.8,0,0,1.8,0,4
			v20c0,2.2,1.8,4,4,4h42c2.2,0,4-1.8,4-4V4C50,1.8,48.2,0,46,0L46,0z"/>
	</g>
</g>
<g id="AMEX_1_" class="st3">
	<g class="st4">
		<path class="st429" d="M46,28H4c-2.2,0-4-1.8-4-4V4c0-2.2,1.8-4,4-4h42c2.2,0,4,1.8,4,4v20C50,26.2,48.2,28,46,28z"/>
	</g>
	<g id="AMEX" class="st4">
		<path class="st0" d="M10.7,10.7l-0.7-1.6l-0.7,1.6H10.7z M25.5,10.1c-0.2,0.1-0.3,0.1-0.5,0.1h-1.2V9.3H25c0.2,0,0.3,0,0.5,0.1
			c0.1,0.1,0.2,0.2,0.2,0.4C25.7,9.9,25.6,10,25.5,10.1 M34,10.7l-0.7-1.6l-0.7,1.6H34z M18.2,12.5h-1V9.3l-1.4,3.2h-0.8l-1.4-3.2
			v3.2h-2l-0.4-0.9h-2l-0.4,0.9h-1l1.8-4.1h1.5l1.6,3.9V8.4h1.6l1.3,2.8l1.2-2.8h1.6L18.2,12.5z M22.2,12.5h-3.3V8.4h3.3v0.8h-2.3
			V10h2.2v0.8h-2.2v0.8h2.3V12.5z M26.8,9.5c0,0.5-0.3,0.9-0.7,1.1c0.2,0.1,0.4,0.2,0.5,0.3c0.1,0.2,0.2,0.5,0.2,0.7v0.8h-1V12
			c0-0.3,0-0.6-0.2-0.8c-0.1-0.1-0.4-0.2-0.7-0.2h-1.1v1.5h-1V8.4h2.2c0.4,0,0.8,0,1.2,0.2C26.6,8.8,26.8,9.1,26.8,9.5 M28.3,12.5
			h-1V8.4h1V12.5z M39.9,12.5h-1.4l-1.9-3.1v3.1h-2l-0.4-0.9h-2l-0.4,0.9h-1.2c-0.9,0.1-1.8-0.5-2-1.5c0-0.2,0-0.4,0-0.5
			c0-0.6,0.1-1.2,0.5-1.6c0.4-0.4,0.9-0.5,1.5-0.5h0.9v0.9h-0.9c-0.3,0-0.6,0.1-0.8,0.2c-0.2,0.3-0.3,0.6-0.3,0.9
			c0,0.4,0.1,0.7,0.3,1c0.2,0.2,0.4,0.2,0.7,0.2h0.4l1.4-3.2H34l1.6,3.9V8.5h1.5l1.7,2.8V8.4h1L39.9,12.5z M7.6,13.3h1.6l0.4-0.9
			h0.8l0.4,0.9h3.3v-0.7l0.3,0.7h1.7l0.3-0.7v0.7h8.2v-1.5h0.2c0.1,0,0.1,0,0.1,0.2v1.3h4.2V13c0.5,0.2,1,0.4,1.6,0.3h1.8l0.4-0.9
			h0.8l0.4,0.9h3.4v-0.9l0.5,0.9h2.7V7.6h-2.7v0.7l-0.4-0.7h-2.8v0.7l-0.3-0.7h-3.8c-0.6,0-1.1,0.1-1.6,0.3V7.6h-2.6v0.3
			c-0.3-0.2-0.7-0.4-1.1-0.3h-9.5l-0.6,1.5l-0.6-1.5h-3v0.7l-0.3-0.7H8.8l-1.2,2.7V13.3z"/>
		<path class="st0" d="M42.4,16.3h-1.8c-0.1,0-0.3,0-0.4,0.1c-0.1,0.1-0.2,0.2-0.1,0.3c0,0.1,0.1,0.3,0.2,0.3c0.1,0,0.3,0.1,0.4,0
			h0.5c0.4,0,0.8,0.1,1.1,0.3c0,0,0.1,0.1,0.1,0.1L42.4,16.3z M42.4,19c-0.3,0.4-0.8,0.6-1.3,0.5h-1.9v-0.9h1.9c0.1,0,0.3,0,0.4-0.1
			c0.1-0.1,0.1-0.2,0.1-0.3c0-0.1,0-0.2-0.1-0.3c-0.1-0.1-0.2-0.1-0.3-0.1c-0.9,0-2.1,0-2.1-1.3c0-0.7,0.5-1.2,1.2-1.2
			c0.1,0,0.1,0,0.2,0h1.9v-0.8h-1.9c-0.4,0-0.9,0.1-1.2,0.3v-0.3h-2.6c-0.4,0-0.8,0.1-1.2,0.3v-0.3h-4.8V15
			c-0.4-0.2-0.9-0.3-1.3-0.3h-3.2V15c-0.4-0.2-0.9-0.4-1.3-0.3h-3.6l-0.8,0.9l-0.8-0.9h-5.3v5.7h5.2l0.8-0.9l0.8,0.9h3.2V19h0.3
			c0.5,0,0.9,0,1.3-0.2v1.5h2.6v-1.5h0.1c0.2,0,0.2,0,0.2,0.2v1.3h8c0.5,0,0.9-0.1,1.3-0.4v0.4H41c0.5,0,1-0.1,1.4-0.3V19z
			 M38.5,17.4c0.2,0.2,0.3,0.5,0.3,0.8c0,0.9-0.6,1.3-1.5,1.3h-1.9v-0.8h1.9c0.1,0,0.3,0,0.4-0.1c0.1-0.1,0.1-0.2,0.1-0.3
			c0-0.1,0-0.2-0.1-0.3c-0.1-0.1-0.2-0.1-0.3-0.1c-0.9,0-2.1,0-2.1-1.3c0-0.6,0.4-1.2,1.4-1.2h2v0.9h-1.8c-0.1,0-0.2,0-0.4,0.1
			c-0.1,0.1-0.2,0.2-0.1,0.3c0,0.1,0.1,0.3,0.2,0.3c0.1,0,0.3,0.1,0.4,0h0.5C37.8,17,38.2,17.1,38.5,17.4 M29.7,17.1
			c-0.2,0.1-0.3,0.1-0.5,0.1H28v-0.9h1.2c0.2,0,0.3,0,0.5,0.1c0.1,0.1,0.2,0.2,0.2,0.4C29.9,16.9,29.8,17.1,29.7,17.1 M30.3,17.7
			c0.2,0.1,0.4,0.2,0.5,0.3c0.1,0.2,0.2,0.5,0.2,0.7v0.8h-1v-0.5c0-0.3,0-0.6-0.2-0.8c-0.1-0.1-0.4-0.2-0.7-0.2H28v1.5h-1v-4.1h2.3
			c0.4,0,0.8,0,1.2,0.2c0.3,0.2,0.5,0.5,0.5,0.9C31,17,30.7,17.4,30.3,17.7 M31.5,15.5h3.3v0.8h-2.3V17h2.2v0.8h-2.2v0.8h2.3v0.8
			h-3.3V15.5z M24.9,17.4h-1.3v-1h1.3c0.4,0,0.6,0.1,0.6,0.5S25.3,17.4,24.9,17.4 M22.7,19.2l-1.5-1.6l1.5-1.6V19.2z M18.8,18.7
			h-2.4v-0.8h2.1v-0.8h-2.1v-0.7h2.5l1.1,1.2L18.8,18.7z M26.6,16.8c0,1.1-0.8,1.4-1.7,1.4h-1.2v1.4h-1.9l-1.2-1.3l-1.3,1.4h-3.9
			v-4.1h3.9l1.2,1.3l1.2-1.3h3.1C25.7,15.4,26.6,15.7,26.6,16.8"/>
	</g>
</g>
</svg>
