<svg xmlns="http://www.w3.org/2000/svg" width="50" height="28" viewBox="0 0 50 28"><title>icon_JP_Payeasy</title><defs><linearGradient id="a" x1="104.742%" x2="105.415%" y1="77.793%" y2="64.445%"><stop offset="20%" stop-color="#0071BB"/><stop offset="70%" stop-color="#0098D9"/><stop offset="74%" stop-color="#099CDB"/><stop offset="80%" stop-color="#21A7E0"/><stop offset="88%" stop-color="#49B9E9"/><stop offset="98%" stop-color="#7FD1F4"/><stop offset="100%" stop-color="#8DD7F7"/></linearGradient><linearGradient id="b" x1="72.634%" x2="85.594%" y1="147.195%" y2="41.997%"><stop offset="2%" stop-color="#009DDA"/><stop offset="30%" stop-color="#58AFE2"/><stop offset="70%" stop-color="#ACD6F2"/><stop offset="95%" stop-color="#0071BB"/></linearGradient><linearGradient id="c" x1="52.984%" x2="55.813%" y1="131.369%" y2="32.447%"><stop offset="5%" stop-color="#0088CF"/><stop offset="40%" stop-color="#A7D4F1"/><stop offset="98%" stop-color="#0098D9"/></linearGradient><linearGradient id="d" x1="42.619%" x2="69.646%" y1="35.18%" y2="90.861%"><stop offset="0%" stop-color="#00A0E3"/><stop offset="17%" stop-color="#0190D6"/><stop offset="72%" stop-color="#0260B0"/><stop offset="100%" stop-color="#034EA1"/></linearGradient><radialGradient id="e" cx="50%" cy="50%" r="41.747%" fx="50%" fy="50%"><stop offset="0%" stop-color="#D6DE23"/><stop offset="24%" stop-color="#D0DC24"/><stop offset="36%" stop-color="#C0D828"/><stop offset="49%" stop-color="#A5D12E"/><stop offset="63%" stop-color="#7FC736"/><stop offset="78%" stop-color="#4EBA40"/><stop offset="94%" stop-color="#14AA4D"/><stop offset="100%" stop-color="#00A551"/></radialGradient><radialGradient id="f" cx="50%" cy="50%" r="41.916%" fx="50%" fy="50%"><stop offset="0%" stop-color="#D6DE23"/><stop offset="24%" stop-color="#D0DC24"/><stop offset="36%" stop-color="#C0D828"/><stop offset="49%" stop-color="#A5D12E"/><stop offset="63%" stop-color="#7FC736"/><stop offset="78%" stop-color="#4EBA40"/><stop offset="94%" stop-color="#14AA4D"/><stop offset="100%" stop-color="#00A551"/></radialGradient><radialGradient id="g" cx="50%" cy="50%" r="42.182%" fx="50%" fy="50%"><stop offset="0%" stop-color="#D6DE23"/><stop offset="24%" stop-color="#D0DC24"/><stop offset="36%" stop-color="#C0D828"/><stop offset="49%" stop-color="#A5D12E"/><stop offset="63%" stop-color="#7FC736"/><stop offset="78%" stop-color="#4EBA40"/><stop offset="94%" stop-color="#14AA4D"/><stop offset="100%" stop-color="#00A551"/></radialGradient><radialGradient id="h" cx="50%" cy="50%" r="41.734%" fx="50%" fy="50%"><stop offset="0%" stop-color="#D6DE23"/><stop offset="24%" stop-color="#D0DC24"/><stop offset="36%" stop-color="#C0D828"/><stop offset="49%" stop-color="#A5D12E"/><stop offset="63%" stop-color="#7FC736"/><stop offset="78%" stop-color="#4EBA40"/><stop offset="94%" stop-color="#14AA4D"/><stop offset="100%" stop-color="#00A551"/></radialGradient></defs><g fill="none" fill-rule="evenodd"><rect width="49" height="27" x=".5" y=".5" fill="#FFF" stroke="#E4E4E4" rx="4"/><g fill-rule="nonzero"><path fill="#000" d="M27.9 18.34h-.293v-.777c-.15.095-.308.176-.472.242a.837.837 0 00-.206-.243c.235-.07.456-.176.657-.315a2.58 2.58 0 00.505-.467l.238.185a.03.03 0 01.015.025c0 .016-.015.024-.032.024a.114.114 0 01-.035 0 3.307 3.307 0 01-.377.35v.976zM29.155 16.794c.15.049.293.115.427.198-.058.073-.11.149-.159.228a1.901 1.901 0 00-.415-.214l.147-.212zM29.898 16.86c.051.039.155.124.195.164l-.128.124a2.16 2.16 0 00-.194-.174l.127-.114zM30.09 16.666c.067.051.132.106.193.164l-.127.13a2.145 2.145 0 00-.193-.174l.126-.12zM28.99 17.169c.14.062.274.139.4.228-.05.06-.07.088-.166.228a1.825 1.825 0 00-.389-.228l.155-.228zM28.938 18.089c.48-.172.894-.491 1.183-.912.036.09.096.169.174.228a2.15 2.15 0 01-.328.377 2.89 2.89 0 01-.829.54c0 .02-.008.04-.027.04-.02 0-.024-.02-.027-.023l-.146-.25zM32.245 17.453v.288h-1.483v-.288zM24.81 17.601a.912.912 0 00.206-.188c.245-.274.317-.356.373-.39a.228.228 0 01.12-.037c.115 0 .172.069.312.247.145.18.302.35.469.51.076.069.133.113.167.14-.065.083-.148.204-.18.25a9.684 9.684 0 01-.665-.756c-.059-.075-.085-.086-.114-.086-.028 0-.087.058-.127.101-.067.079-.133.161-.31.406a.048.048 0 010 .023c0 .017-.012.018-.015.018a.029.029 0 01-.024-.011l-.212-.227z"/><path fill="#000" d="M26.417 17.738a.5.5 0 1 1-.005-1 .5.5 0 0 1 .005 1zm0-.732a.234.234 0 1 0-.005.468.234.234 0 0 0 .005-.468z"/><path fill="#0054A5" d="M27.187 21.385c.199.153.445.231.696.22.374 0 .66-.114 1.09-.419v.57c-.383.271-.845.407-1.314.388a2.167 2.167 0 01-.742-.12 1.505 1.505 0 01-.553-.343c-.273-.28-.42-.66-.408-1.051a1.67 1.67 0 01.114-.617 1.419 1.419 0 01.808-.805 1.7 1.7 0 01.628-.114c.414-.01.814.15 1.105.444.291.304.434.73.414 1.23h-2.12a.856.856 0 00.282.617zm1.027-1.104a.773.773 0 00-.202-.478.66.66 0 00-.89 0 .764.764 0 00-.198.48h1.29v-.002zM34.394 21.95c-.213.169-.52.255-.912.255a2.737 2.737 0 01-1.083-.229v-.662c.328.14.63.255.978.255a.608.608 0 00.416-.114.16.16 0 00.05-.114c0-.18-.247-.276-.534-.386-.435-.169-.975-.378-.975-.972a.809.809 0 01.24-.584c.228-.228.584-.342 1.014-.342.34-.007.676.071.977.228v.667a2.132 2.132 0 00-1.01-.331c-.159 0-.348.04-.348.241 0 .127.203.207.456.308.443.176 1.05.416 1.05 1.057a.88.88 0 01-.319.722zM22.98 23.157h-.973l.703-1.542-1.153-2.469h.982l.619 1.515v.01-.01l.68-1.515h.962zM36.157 23.157h-.974l.704-1.542v-.005l-1.15-2.464h.982l.62 1.515.004.01.005-.01.664-1.515h.962zM31.17 22.069a.407.407 0 01-.166-.253v-.006h-.006c-.28.211-.62.328-.97.332a.854.854 0 01-.614-.246.666.666 0 01-.207-.473c0-.684.482-.83 1.649-1.192l.101-.032a.456.456 0 00-.102-.358.544.544 0 00-.414-.14c-.198.004-.392.05-.57.133a1.765 1.765 0 00-.51.352v-.741a2.406 2.406 0 011.277-.356c.478 0 .822.103 1.026.307a.798.798 0 01.218.584v1.344a.234.234 0 00.05.171c.03.027.068.041.107.039a.375.375 0 00.21-.072v.49c-.226.113-.474.18-.727.193a.63.63 0 01-.352-.076zm-.217-1.408a2.85 2.85 0 00-.614.274.404.404 0 00-.202.352c0 .085.034.167.094.228a.299.299 0 00.212.089.79.79 0 00.515-.228v-.72l-.005.005zM25.627 20.565v.564h-1.171v-.564z"/><path fill="#0054A5" d="M20.801 22.069a.407.407 0 0 1-.166-.253v-.006c-.28.211-.62.328-.97.332a.854.854 0 0 1-.614-.246.67.67 0 0 1-.208-.473c0-.684.483-.83 1.65-1.192l.1-.032a.456.456 0 0 0-.102-.358.542.542 0 0 0-.416-.144c-.197.004-.392.05-.57.133a1.765 1.765 0 0 0-.509.353v-.742c.383-.236.825-.359 1.275-.355.478 0 .823.102 1.026.306a.79.79 0 0 1 .218.584v1.345a.228.228 0 0 0 .051.17.143.143 0 0 0 .108.04.375.375 0 0 0 .208-.072v.489c-.226.114-.474.18-.727.194a.63.63 0 0 1-.354-.073zm-.216-1.408c-.215.067-.422.159-.615.274a.406.406 0 0 0-.202.352c0 .085.033.167.094.228a.299.299 0 0 0 .212.089.79.79 0 0 0 .515-.228v-.72l-.004.005z"/><path fill="url(#a)" d="M5.669 1.958l.005-.008A5.847 5.847 0 0 1 7.47.51C8.1.183 8.797.01 9.507.002h.016-2.12a4.29 4.29 0 0 0-1.89.456 5.295 5.295 0 0 0-1.638 1.27l1.794.23z" transform="translate(12 4)"/><path fill="url(#b)" d="M12.894 8.606a5.1 5.1 0 0 0 .864-2.85c0-1.059-.327-1.994-.864-2.66-.537-.666-1.325-1.094-2.21-1.06-.28.01-.557.064-.821.158.894.555 1.482 1.67 1.482 2.974 0 1.899-1.247 3.638-2.868 3.896a2.509 2.509 0 0 1-.43.03c.071.095.148.185.229.27a2.623 2.623 0 0 0 2.403.799c.89-.168 1.666-.754 2.215-1.557z" transform="translate(12 4)"/><path fill="url(#c)" d="M3.706 17.317c-.456-.64-1.368-2.464-1.716-5.236-.348-2.772-.144-6.5 1.618-10.94l1.784.158c-1.843 4.586-2.14 8.444-1.825 11.385.316 2.941 1.23 4.963 1.812 5.872l-1.673-1.239z" transform="translate(12 4)"/><path fill="url(#d)" d="M12.894 8.606c-.549.798-1.325 1.388-2.21 1.552A2.623 2.623 0 0 1 8.28 9.36c-.649-.67-1.058-1.689-1.058-2.88A5.038 5.038 0 0 1 8.28 3.362c.635-.798 1.49-1.298 2.404-1.332.885-.033 1.661.38 2.21 1.06.548.681.864 1.597.864 2.66a5.101 5.101 0 0 1-.864 2.855zm.016-6.892a4.64 4.64 0 0 0-1.47-1.24A4.084 4.084 0 0 0 9.525.002h-.018A4.535 4.535 0 0 0 7.47.51 5.847 5.847 0 0 0 5.68 1.95l-.006.008a22.326 22.326 0 0 0-.277-.66c-1.843 4.587-2.14 8.445-1.824 11.386.3 2.842 1.167 4.824 1.751 5.775l.04.063.023.036a.017.017 0 0 0 .013.007.016.016 0 0 0 .011-.007 26.33 26.33 0 0 0 1.289-4.42c.124-.634.222-1.271.294-1.912a4.097 4.097 0 0 0 2.538.22 4.998 4.998 0 0 0 1.915-.898 6.409 6.409 0 0 0 1.47-1.567A7.744 7.744 0 0 0 14.2 5.705c-.007-1.575-.49-2.975-1.291-3.991z" transform="translate(12 4)"/><path fill="url(#e)" d="M10.727 6.2a1.482 1.482 0 1 0-2.965 0 1.482 1.482 0 0 0 2.965 0z" transform="translate(12 4)"/><path fill="url(#f)" d="M.89 6.98a.78.78 0 1 0 0-1.56.78.78 0 0 0 0 1.56z" transform="translate(12 4)"/><path fill="url(#g)" d="M18.385 8.513a2.316 2.316 0 1 0 .002-4.632 2.316 2.316 0 0 0-.002 4.632z" transform="translate(12 4)"/><path fill="url(#h)" d="M13.38 8.057a1.853 1.853 0 1 0 0-3.707 1.853 1.853 0 0 0 0 3.707z" transform="translate(12 4)"/></g></g></svg>