<svg width="55" height="46" viewBox="0 0 55 46" fill="none" xmlns="http://www.w3.org/2000/svg">
<path d="M19.3475 16.0021C19.0706 16.3058 19.0992 16.7689 19.4124 17.0375C19.5557 17.1616 19.7352 17.2209 19.9128 17.2209C20.121 17.2209 20.3292 17.1375 20.4782 16.9745C22.2601 15.024 24.8194 13.9053 27.499 13.9053C30.1806 13.9053 32.7399 15.024 34.5199 16.9745C34.7968 17.2783 35.2743 17.3061 35.5876 17.0375C35.9008 16.7689 35.9294 16.3058 35.6525 16.0021C33.584 13.7367 30.6122 12.4382 27.499 12.4382C24.3859 12.4382 21.414 13.7367 19.3475 16.0021Z" fill="#666766"/>
<path d="M35.6525 29.998C35.9294 29.6942 35.9008 29.2312 35.5876 28.9626C35.2743 28.694 34.7969 28.7218 34.5199 29.0255C32.738 30.976 30.1787 32.0948 27.4991 32.0948C24.8194 32.0948 22.2582 30.976 20.4782 29.0255C20.2012 28.7218 19.7238 28.694 19.4105 28.9626C19.0973 29.2312 19.0687 29.6942 19.3456 29.998C21.414 32.2634 24.3859 33.5618 27.4991 33.5618C30.6122 33.5618 33.586 32.2634 35.6525 29.998Z" fill="#666766"/>
<path d="M5.59989 17.5376C6.19769 17.7172 6.8337 17.3949 7.01896 16.8133C8.34826 12.6679 11.0661 8.94475 14.6701 6.32931C18.3964 3.6268 22.8331 2.19683 27.501 2.19683C32.1688 2.19683 36.6055 3.62495 40.3318 6.32931C43.9358 8.94475 46.6536 12.666 47.9829 16.8133C48.1338 17.2838 48.5827 17.5857 49.0659 17.5857C49.1766 17.5857 49.2912 17.5691 49.4039 17.5357C50.0017 17.356 50.336 16.7392 50.1507 16.1595C48.6801 11.575 45.6777 7.45736 41.6936 4.56777C37.5681 1.58001 32.6616 0 27.501 0C22.3403 0 17.4319 1.58001 13.3102 4.56962C9.32805 7.46106 6.32375 11.5769 4.85311 16.1613C4.66785 16.7411 5.00208 17.3579 5.59989 17.5376Z" fill="#666766"/>
<path d="M49.4001 28.4606C48.8023 28.2809 48.1663 28.6032 47.981 29.1849C46.6517 33.3303 43.9339 37.0534 40.3299 39.6689C36.6036 42.3714 32.1669 43.8014 27.499 43.8014C22.8312 43.8014 18.3944 42.3732 14.6682 39.6689C11.0642 37.0534 8.34634 33.3322 7.01704 29.1849C6.83177 28.6051 6.19577 28.2809 5.59797 28.4606C5.00016 28.6403 4.66592 29.2571 4.85119 29.8369C6.32183 34.4213 9.32422 38.539 13.3083 41.4286C17.4299 44.4182 22.3365 45.9982 27.4971 45.9982C32.6577 45.9982 37.5643 44.4182 41.6859 41.4286C45.67 38.539 48.6743 34.4213 50.1431 29.8369C50.3321 29.2571 49.9998 28.6421 49.4001 28.4606Z" fill="#666766"/>
<path d="M5.19881 22.6592V25.9471H6.7573V20.2605H4.7748L3.41303 23.4816H3.34427L1.98059 20.2605H0V25.9471H1.5585V22.637H1.60433L2.90881 25.9026H3.84849L5.15297 22.6592H5.19881Z" fill="#666766"/>
<path d="M12.7354 21.5033C12.4813 21.0699 12.1395 20.7402 11.7078 20.5179C11.2762 20.2956 10.7949 20.1826 10.2639 20.1826C9.72914 20.1826 9.24784 20.2938 8.81619 20.5179C8.38646 20.7402 8.04459 21.0699 7.79057 21.5033C7.53846 21.9367 7.41049 22.4702 7.41049 23.1037C7.41049 23.7335 7.53655 24.2651 7.79057 24.6985C8.04268 25.132 8.38455 25.4617 8.81619 25.6876C9.24593 25.9118 9.72914 26.0248 10.2639 26.0248C10.7949 26.0248 11.2762 25.9136 11.7078 25.6895C12.1395 25.4672 12.4813 25.1375 12.7354 24.7041C12.9894 24.2706 13.1154 23.7372 13.1154 23.1037C13.1154 22.4702 12.9894 21.9367 12.7354 21.5033ZM11.3392 23.965C11.2456 24.1984 11.11 24.3762 10.9305 24.4985C10.7509 24.6207 10.5275 24.68 10.2639 24.68C10.0003 24.68 9.77879 24.6189 9.59735 24.4985C9.41782 24.3781 9.28031 24.2003 9.18863 23.965C9.09695 23.7316 9.0492 23.4445 9.0492 23.1037C9.0492 22.7629 9.09504 22.4758 9.18863 22.2405C9.28031 22.0071 9.41782 21.8293 9.59735 21.7071C9.77688 21.5848 10.0003 21.5255 10.2639 21.5255C10.5275 21.5255 10.749 21.5867 10.9305 21.7071C11.11 21.8275 11.2475 22.0053 11.3392 22.2405C11.4309 22.4739 11.4786 22.7629 11.4786 23.1037C11.4786 23.4445 11.4309 23.7316 11.3392 23.965Z" fill="#666766"/>
<path d="M13.7667 25.9471H15.3577V22.9593H15.3921L17.5121 25.9471H18.8395V20.2605H17.2485V23.2371H17.2027L15.117 20.2605H13.7667V25.9471Z" fill="#666766"/>
<path d="M23.7556 21.5052V20.2605H19.5289V25.9471H23.7441V24.7023H21.1218V23.7261H23.5379V22.4814H21.1218V21.5052H23.7556Z" fill="#666766"/>
<path d="M28.0243 25.9471V24.1596L30.1768 20.2605H28.4024L27.2565 22.5703H27.2106L26.0666 20.2605H24.2904L26.4448 24.1596V25.9471H28.0243Z" fill="#666766"/>
<path d="M34.8389 20.2605H32.2968V25.9471H35.0566C35.4825 25.9471 35.8492 25.8785 36.1567 25.7396C36.4642 25.6007 36.701 25.4099 36.8691 25.1672C37.0372 24.9246 37.1193 24.6486 37.1193 24.3374C37.1193 24.0688 37.0582 23.8354 36.936 23.6354C36.8137 23.4372 36.6495 23.2797 36.4432 23.1668C36.2369 23.0538 36.0077 22.9908 35.7556 22.9815V22.926C35.9829 22.8815 36.1815 22.8019 36.3515 22.6852C36.5215 22.5703 36.6533 22.4258 36.7488 22.2536C36.8424 22.0813 36.8901 21.8905 36.8901 21.6812C36.8901 21.3923 36.8118 21.1422 36.6571 20.9292C36.5024 20.7162 36.2713 20.5513 35.9676 20.4346C35.6601 20.3179 35.2858 20.2605 34.8389 20.2605ZM33.8877 21.4719H34.5638C34.7625 21.4719 34.9267 21.5182 35.0566 21.6127C35.1865 21.7053 35.2514 21.8405 35.2514 22.0165C35.2514 22.1332 35.2208 22.2313 35.1616 22.3128C35.1005 22.3925 35.0184 22.4555 34.9114 22.4981C34.8045 22.5407 34.6822 22.5611 34.5428 22.5611H33.8896V21.4719H33.8877ZM35.2342 24.5689C35.1005 24.6653 34.9 24.7153 34.6326 24.7153H33.8877V23.515H34.6555C34.8178 23.515 34.9573 23.5391 35.0719 23.5872C35.1865 23.6354 35.2762 23.7058 35.3393 23.7984C35.4023 23.891 35.4328 24.004 35.4328 24.1374C35.4348 24.3281 35.3679 24.4708 35.2342 24.5689Z" fill="#666766"/>
<path d="M41.4338 20.2605H39.2584L37.3237 25.9471H39.0407L39.3787 24.8579H41.3116L41.6496 25.9471H43.3667L41.4338 20.2605ZM39.7378 23.7039L40.3222 21.8275H40.3681L40.9525 23.7039H39.7378Z" fill="#666766"/>
<path d="M45.7483 21.7145C45.9317 21.5885 46.159 21.5255 46.4263 21.5255C46.5791 21.5255 46.7147 21.5459 46.8351 21.5885C46.9554 21.6311 47.0585 21.6885 47.1426 21.7663C47.2266 21.8423 47.2935 21.9349 47.3431 22.0405C47.3909 22.1461 47.4214 22.2646 47.4329 22.3924H49.0468C49.0162 22.0386 48.9303 21.7256 48.787 21.4514C48.6438 21.1773 48.4547 20.9458 48.2198 20.7587C47.9848 20.5716 47.7117 20.4271 47.4004 20.3289C47.0891 20.2308 46.7491 20.1826 46.3786 20.1826C45.8515 20.1826 45.374 20.2938 44.9462 20.5179C44.5183 20.7402 44.1784 21.0699 43.9263 21.5033C43.6742 21.9367 43.5481 22.4702 43.5481 23.1037C43.5481 23.7335 43.6722 24.2651 43.9186 24.7004C44.165 25.1357 44.5031 25.4654 44.929 25.6895C45.3549 25.9136 45.8381 26.0248 46.3767 26.0248C46.8064 26.0248 47.1827 25.9599 47.5074 25.834C47.8321 25.7062 48.1052 25.5376 48.3248 25.3265C48.5445 25.1171 48.7163 24.8875 48.8367 24.6374C48.957 24.3892 49.0258 24.1428 49.0449 23.902L47.431 23.8909C47.4119 24.0132 47.3756 24.1225 47.3202 24.2206C47.2667 24.3169 47.196 24.4003 47.1101 24.4688C47.0242 24.5374 46.9229 24.5892 46.8064 24.6263C46.6899 24.6633 46.5581 24.68 46.4111 24.68C46.1532 24.68 45.9336 24.6207 45.7502 24.504C45.5669 24.3873 45.4275 24.2114 45.3301 23.9761C45.2326 23.7427 45.1849 23.4501 45.1849 23.1037C45.1849 22.774 45.2326 22.4924 45.3262 22.2572C45.4198 22.022 45.565 21.8404 45.7483 21.7145Z" fill="#666766"/>
<path d="M52.9736 22.7926L54.9542 20.2605H53.0996L51.3349 22.5592H51.2547V20.2605H49.6637V25.9471H51.2547V24.4819L51.7818 23.8151L53.0996 25.9471H55L52.9736 22.7926Z" fill="#666766"/>
<path d="M16.0643 10.221C16.1598 10.1414 16.2649 10.0932 16.3756 10.0728C16.4883 10.0543 16.5953 10.0821 16.6965 10.1562L17.5904 9.41526C17.4089 9.2467 17.195 9.13001 16.9486 9.06888C16.7022 9.00775 16.4444 9.00961 16.177 9.07258C15.9096 9.13556 15.6518 9.26893 15.4054 9.47268C15.1858 9.65421 15.0234 9.85796 14.9127 10.0839C14.8038 10.3099 14.7503 10.5507 14.7522 10.8045C14.7541 11.0582 14.8133 11.3194 14.9298 11.5862C15.0463 11.8529 15.2182 12.1196 15.4493 12.3826C15.7072 12.6772 15.9669 12.8976 16.2248 13.0402C16.4845 13.1828 16.7385 13.2643 16.9868 13.281C17.2351 13.2977 17.4739 13.2643 17.7011 13.1791C17.9284 13.0939 18.1385 12.9717 18.3333 12.8087C18.5969 12.5901 18.786 12.3493 18.9044 12.0863C19.0228 11.8232 19.0591 11.5584 19.019 11.2898C18.9789 11.0212 18.8566 10.7711 18.6504 10.5396C18.4766 10.3396 18.2798 10.1988 18.0583 10.1154C17.8367 10.0321 17.6114 10.008 17.3822 10.045C17.153 10.0821 16.9353 10.184 16.7328 10.3525C16.6048 10.4581 16.5017 10.5767 16.4196 10.71C16.3394 10.8434 16.2859 10.9805 16.263 11.1212C16.24 11.2639 16.2496 11.4009 16.2954 11.5361L16.2763 11.5528C16.0471 11.2898 15.9077 11.0397 15.8542 10.8063C15.8065 10.5748 15.8753 10.3785 16.0643 10.221ZM16.7748 11.412C16.8111 11.3435 16.8627 11.2805 16.9276 11.225C17.0174 11.1509 17.1167 11.1027 17.2217 11.086C17.3268 11.0675 17.4299 11.0768 17.5312 11.1138C17.6324 11.1509 17.7221 11.2138 17.7985 11.3046C17.8788 11.3917 17.9284 11.488 17.9494 11.5899C17.9704 11.6917 17.9647 11.7936 17.9303 11.8918C17.8959 11.99 17.8329 12.077 17.7432 12.1511C17.6553 12.2233 17.5579 12.2697 17.4528 12.2863C17.3478 12.3048 17.2447 12.2937 17.1434 12.2585C17.0422 12.2233 16.9505 12.1604 16.8722 12.0733C16.8149 12.0066 16.7729 11.9344 16.7462 11.8584C16.7194 11.7825 16.7099 11.7066 16.7137 11.6306C16.7175 11.5547 16.7385 11.4824 16.7748 11.412Z" fill="#666766"/>
<path d="M22.0768 6.95356C21.7998 6.71091 21.4943 6.56643 21.1562 6.51827C20.8201 6.47011 20.4667 6.52198 20.1 6.67201C19.7314 6.82205 19.4487 7.03136 19.2501 7.29809C19.0515 7.56482 18.9464 7.87971 18.9331 8.23906C18.9197 8.60026 19.0075 8.99665 19.1947 9.43009C19.3819 9.86167 19.6149 10.2025 19.8937 10.4507C20.1726 10.6989 20.482 10.8508 20.822 10.9045C21.16 10.9582 21.5153 10.9101 21.8839 10.7619C22.2525 10.6119 22.5333 10.3988 22.73 10.1266C22.9267 9.85426 23.0298 9.53382 23.0394 9.16706C23.0489 8.8003 22.9611 8.39836 22.772 7.96492C22.5848 7.53333 22.3537 7.19621 22.0768 6.95356ZM21.8476 9.41527C21.8094 9.65792 21.6948 9.81722 21.5057 9.89501C21.3797 9.94688 21.2479 9.95058 21.1142 9.90613C20.9786 9.86167 20.8449 9.7635 20.7131 9.60791C20.5813 9.45417 20.4553 9.2393 20.3369 8.96331C20.163 8.55765 20.0962 8.23721 20.1344 8.00196C20.1726 7.76672 20.2872 7.60928 20.4763 7.53148C20.6023 7.47961 20.7322 7.47406 20.8659 7.51666C20.9996 7.55926 21.1314 7.65558 21.2613 7.80377C21.3911 7.95195 21.5153 8.16126 21.6337 8.4317C21.8132 8.84476 21.8858 9.17262 21.8476 9.41527Z" fill="#666766"/>
<path d="M26.0751 7.03506L24.0324 7.29968L24.1508 8.15893L26.1935 7.89431L26.0751 7.03506Z" fill="#666766"/>
<path d="M30.4728 5.84032C30.1672 5.63101 29.791 5.49765 29.3421 5.44208L27.6805 5.23462L27.1171 9.46527L28.7959 9.67643C29.239 9.732 29.6343 9.69496 29.9819 9.56715C30.3296 9.43934 30.6141 9.22818 30.8338 8.93551C31.0534 8.641 31.1928 8.27424 31.252 7.8334C31.3113 7.39255 31.2711 7.00356 31.1355 6.66459C30.9999 6.32562 30.7765 6.04963 30.4728 5.84032ZM30.0564 7.68151C30.0163 7.97602 29.9457 8.202 29.8444 8.35574C29.7413 8.51134 29.6095 8.61321 29.4491 8.66137C29.2867 8.70953 29.0996 8.72065 28.8837 8.69286L28.433 8.63544L28.7367 6.35526L29.155 6.40712C29.3822 6.43491 29.5694 6.49418 29.7184 6.58124C29.8654 6.6683 29.9705 6.79981 30.0297 6.97578C30.0851 7.15175 30.0965 7.38699 30.0564 7.68151Z" fill="#666766"/>
<path d="M35.2533 11.8418L35.8359 7.38514L34.3633 6.70349L31.1604 9.94872L32.3235 10.4859L32.9156 9.85425L34.2239 10.46L34.0902 11.3028L35.2533 11.8418ZM33.542 9.18742L34.5619 8.10013L34.5925 8.11494L34.3633 9.569L33.542 9.18742Z" fill="#666766"/>
<path d="M37.9616 8.52429L37.0964 11.7325L36.1548 12.716L37.0238 13.4977L37.9654 12.5141L41.1989 11.4361L40.2229 10.5581L38.378 11.262L38.3531 11.2379L38.9376 9.40228L37.9616 8.52429Z" fill="#666766"/>
<path d="M13.2376 33.9897C13.4306 34.2101 13.6445 34.3676 13.8832 34.4658C14.1219 34.5621 14.3664 34.5917 14.6204 34.551C14.8745 34.5102 15.1189 34.3935 15.3558 34.1972L15.7167 33.9008L14.7408 32.782L14.2384 33.1951L14.6376 33.6526C14.5631 33.71 14.4848 33.7471 14.4027 33.7582C14.3148 33.7711 14.2251 33.7563 14.1334 33.7119C14.0417 33.6674 13.9501 33.5933 13.8584 33.4896C13.7552 33.371 13.6979 33.2488 13.6865 33.121C13.675 32.9932 13.7056 32.8654 13.7782 32.7376C13.8507 32.6079 13.9634 32.4819 14.1162 32.356C14.2671 32.2319 14.4142 32.1485 14.5574 32.1022C14.7006 32.0578 14.8363 32.0522 14.9642 32.0855C15.0922 32.1207 15.2049 32.1948 15.3061 32.3097C15.3519 32.3634 15.3901 32.4171 15.4169 32.4727C15.4436 32.5282 15.4608 32.582 15.4646 32.6357C15.4684 32.6894 15.4665 32.7413 15.4512 32.7931C15.4379 32.845 15.4111 32.8931 15.3768 32.9413L15.9803 33.6341C16.0987 33.5137 16.1866 33.3784 16.2439 33.2284C16.2993 33.0784 16.3241 32.9209 16.3184 32.7561C16.3126 32.5912 16.2744 32.4264 16.2057 32.2634C16.1369 32.0985 16.0376 31.9429 15.9077 31.7929C15.7587 31.6225 15.5907 31.4873 15.4016 31.3872C15.2125 31.2872 15.012 31.2279 14.7981 31.2076C14.5841 31.189 14.3664 31.215 14.1449 31.2872C13.9233 31.3594 13.7056 31.4835 13.4898 31.6614C13.2147 31.8873 13.0237 32.1319 12.9149 32.4004C12.806 32.6672 12.7793 32.9376 12.8347 33.2117C12.8881 33.4859 13.0218 33.7452 13.2376 33.9897Z" fill="#666766"/>
<path d="M16.2458 36.7274C16.4788 36.8978 16.7156 37.0071 16.9524 37.0553C17.1912 37.1053 17.4166 37.0923 17.6286 37.0164C17.8406 36.9423 18.0258 36.8033 18.1805 36.6033L19.4926 34.9103L18.7535 34.3713L17.4891 36.0032C17.4261 36.0847 17.3497 36.1439 17.2638 36.181C17.1778 36.218 17.0861 36.231 16.9926 36.218C16.899 36.2069 16.8092 36.1699 16.7252 36.1069C16.6411 36.0458 16.58 35.9735 16.5418 35.8883C16.5036 35.8031 16.4902 35.716 16.5036 35.6253C16.5151 35.5345 16.5533 35.4475 16.6163 35.366L17.8807 33.7341L17.1415 33.1951L15.8294 34.8881C15.6728 35.09 15.5869 35.2993 15.5716 35.5179C15.5563 35.7364 15.606 35.9494 15.7205 36.1569C15.8351 36.3662 16.0109 36.557 16.2458 36.7274Z" fill="#666766"/>
<path d="M21.5535 39.4614L21.8896 35.9958L20.7303 35.5031L18.3333 38.0944L19.2482 38.4834L19.6894 37.9796L20.7188 38.4167L20.6367 39.0724L21.5535 39.4614ZM20.1592 37.4461L20.9213 36.5792L20.9461 36.5904L20.8067 37.7221L20.1592 37.4461Z" fill="#666766"/>
<path d="M25.6617 38.0721C25.7075 37.8424 25.6942 37.635 25.6235 37.4497C25.5528 37.2664 25.4325 37.1126 25.2644 36.9904C25.0964 36.8681 24.8863 36.7829 24.638 36.7366L23.1941 36.468L22.5504 39.7151L23.4596 39.8837L23.6716 38.8112L23.9867 38.8705L24.363 40.0522L25.3504 40.2356L24.9092 38.8964C25.0983 38.8482 25.2587 38.7593 25.3867 38.6297C25.5242 38.4907 25.6159 38.3055 25.6617 38.0721ZM23.9619 37.3423L24.2827 37.4016C24.3897 37.422 24.4776 37.4516 24.5482 37.4942C24.6189 37.5368 24.6685 37.5905 24.6972 37.6572C24.7258 37.7239 24.7316 37.8035 24.7125 37.8961C24.6934 37.9888 24.659 38.0591 24.6074 38.1092C24.5559 38.1592 24.489 38.1888 24.4088 38.2018C24.3286 38.2129 24.2331 38.2092 24.128 38.1888L23.8072 38.1295L23.9619 37.3423Z" fill="#666766"/>
<path d="M26.206 40.3301L27.2049 40.3005L27.3806 39.6614L28.5037 39.6281L28.7214 40.2541L29.7203 40.2245L28.4903 36.9552L27.2259 36.9941L26.206 40.3301ZM27.9001 37.8813L28.2745 38.9612L27.5697 38.9835L27.8734 37.8832L27.9001 37.8813Z" fill="#666766"/>
<path d="M32.8487 39.5021L33.5955 39.3095L32.7169 36.1143L31.8231 36.3458L32.2834 38.0184L32.2567 38.024L30.6275 36.6551L29.8673 36.8515L30.7459 40.0448L31.6397 39.8152L31.1795 38.137L31.1986 38.1314L32.8487 39.5021Z" fill="#666766"/>
<path d="M35.4692 38.4945L36.279 38.087L35.0566 35.7939L35.9676 35.3364L35.6258 34.6936L32.9939 36.0124L33.3358 36.6552L34.2468 36.1995L35.4692 38.4945Z" fill="#666766"/>
<path d="M39.9231 35.592L39.4571 35.027L38.2691 35.955L37.9005 35.5123L38.9949 34.6584L38.5288 34.0953L37.4345 34.9492L37.0658 34.5065L38.2595 33.5748L37.7916 33.0117L35.8779 34.5065L38.0151 37.0812L39.9231 35.592Z" fill="#666766"/>
<path d="M42.2914 33.0487L41.7222 32.58L40.7348 33.7062L40.2879 33.3376L41.1989 32.3003L40.6317 31.8317L39.7206 32.8709L39.2737 32.5022L40.2669 31.3705L39.6977 30.9019L38.1068 32.7171L40.7042 34.8584L42.2914 33.0487Z" fill="#666766"/>
</svg>
