<svg xmlns="http://www.w3.org/2000/svg" xmlns:xlink="http://www.w3.org/1999/xlink" width="50" height="28" viewBox="0 0 50 28"><title>icon_JP_FamilyMart</title><defs><path id="a" d="M0 23.678h18.945V.008H0z"/></defs><g fill="none" fill-rule="evenodd"><rect width="49" height="27" x=".5" y=".5" fill="#FFF" stroke="#E4E4E4" rx="4"/><path fill="#00AB4E" d="M16 12.612h18.927V6.303H16z"/><path fill="#0094D9" d="M16 20.323h18.927v-6.309H16zM16 22.267v2.963h.603v-1.296h1.254v-.572h-1.254v-.524h1.275v-.571z"/><g transform="translate(16 2.087)"><path fill="#0094D9" d="M2.48 22.432c0-.164.14-.274.34-.274a.52.52 0 01.25.057v.354a.44.44 0 01-.3.111c-.185 0-.29-.105-.29-.248m1.151.285v-.964c0-.317-.164-.72-.86-.72-.274 0-.497.06-.648.121v.526c.172-.108.363-.165.571-.165.188 0 .375.064.375.285v.014a1.023 1.023 0 00-.331-.055c-.475 0-.824.249-.824.736 0 .48.391.66.706.66a.765.765 0 00.474-.15.386.386 0 00.046.138h.62c-.075-.06-.129-.181-.129-.426M14.713 22.432c0-.164.14-.274.341-.274.103 0 .185.023.25.057v.354a.439.439 0 01-.3.111c-.186 0-.29-.105-.29-.248m1.152.285v-.964c0-.317-.164-.72-.86-.72-.275 0-.498.06-.649.121v.526a1.06 1.06 0 01.572-.165c.187 0 .374.064.374.285v.014a1.028 1.028 0 00-.331-.055c-.475 0-.824.249-.824.736 0 .48.392.66.705.66a.766.766 0 00.475-.15.422.422 0 00.045.138h.621c-.075-.06-.128-.181-.128-.426M6.133 21.054c-.245 0-.424.058-.592.237a.658.658 0 00-.53-.237.752.752 0 00-.515.19v-.17h-.527v2.069h.567v-1.395a.38.38 0 01.297-.155c.171 0 .268.116.268.327v1.223h.577v-1.41a.36.36 0 01.294-.14c.185 0 .268.13.268.327v1.223h.577v-1.434c0-.388-.249-.655-.684-.655"/><mask id="b" fill="#fff"><use xlink:href="#a"/></mask><path fill="#0094D9" d="M8.145 23.143h.566v-2.964h-.566zM12.531 21.1l-.749-.921h-.619v2.964h.619V21.1l.749.991.749-.991v2.043h.619v-2.964h-.619zM7.19 23.143h.567v-2.069H7.19zM7.473 20.134a.368.368 0 100 .736.368.368 0 000-.736M16.72 21.29v-.216h-.542v2.069h.567v-1.3a.5.5 0 01.406-.2c.149 0 .257.058.319.103v-.622a.512.512 0 00-.275-.075.578.578 0 00-.475.242M18.685 22.614c-.18 0-.248-.139-.248-.292v-.707h.482v-.541h-.482v-.782l-.558.238v.544h-.305v.541h.305v.79c0 .428.172.76.677.76.15 0 .283-.022.371-.058v-.572c-.042.048-.12.079-.242.079M9.394 23.678h.636l.954-2.604h-.62l-.393 1.118-.427-1.118h-.646l.78 1.875zM2.835.147a.38.38 0 01.147.019c.017.007.025.024.035.039.035.047.06.065.053.137-.004.032-.025.084-.006.113.02.03.06.028.09.037a.39.39 0 01.061.025c.01.004.022.008.03.017l.013.048c.006.017.021.028.02.05-.001.016-.011.026-.015.043-.006.022.002.066-.016.084-.014.013-.043.01-.062.015l-.062.02c-.032.005-.073 0-.106.001-.026.001-.059-.006-.077.011-.012.012-.014.031-.02.046-.016.036-.037.07-.048.109a1.61 1.61 0 00-.009.048c-.006.02-.02.031-.028.05l-.014.06a.713.713 0 01-.056.115c-.008.015-.004.037-.02.048-.024.014-.07.004-.097.01-.02.009-.04.016-.063.024-.04.007-.064-.026-.098-.036a.582.582 0 01-.032-.008c-.013-.004-.056-.033-.059-.043-.009-.024-.004-.06-.004-.087.002-.033-.005-.07.003-.102.004-.02.02-.035.026-.054.01-.037.022-.073.034-.11.008-.032.03-.073.022-.11C2.474.758 2.47.751 2.463.747c-.017-.01-.047-.006-.067-.01-.02-.004-.033-.016-.051-.023-.017-.006-.036-.007-.05-.02a.235.235 0 01-.053-.067c-.016-.042-.025-.141 0-.18.023-.035.11-.067.154-.067.035-.023.125-.008.172-.008.01-.005.024-.004.033-.011.014-.013.02-.03.03-.044l.053-.06c.025-.033.046-.071.083-.091.02-.012.045-.012.068-.02M14.148.141c.028 0 .057 0 .083.005.069.016.137.07.16.137.013.04.014.087.016.133.003.016.004.033.006.05 0 .037-.023.123.002.156.007.01.015.013.025.02.051.04.105.033.177.033a.49.49 0 01.16.022l.064.008c.02 0 .04-.001.056.005.015.004.023.02.035.031l.028.022c.008.01.012.025.015.038.021.06.016.081-.023.13-.09.112-.271.104-.412.091-.03-.003-.082-.026-.112-.014-.027.009-.019.044-.022.067a.821.821 0 00-.012.058c-.007.038-.004.08-.004.118.002.048-.004.097.004.145.003.025.02.055.038.075l.03.026c.01.008.017.02.029.025a.987.987 0 00.052.02c.014.009.02.026.036.03.024.01.051.007.076.013.036.01.073.026.11.027.02 0 .045 0 .065-.006.015-.005.028-.018.045-.024a.389.389 0 01.126.007l.049.03c.035.018.032.034.05.064.012.02.037.024.045.045a.193.193 0 01-.005.105.221.221 0 01-.084.08c-.027.01-.069.006-.096.01-.03.004-.058.014-.088.016-.038.002-.078-.011-.115-.015-.027-.003-.055-.005-.083-.006a4.29 4.29 0 00-.103-.017l-.066-.026c-.03-.01-.063-.013-.094-.023-.02-.006-.034-.016-.053-.025l-.03-.01-.043-.024c-.032-.016-.068-.028-.097-.048-.017-.012-.027-.028-.042-.043a3.65 3.65 0 01-.03-.026l-.032-.037c-.016-.013-.029-.03-.045-.042-.01-.009-.03-.015-.037-.028-.011-.02-.01-.05-.017-.073a.613.613 0 01-.029-.131v-.06c0-.017-.002-.034-.004-.05 0-.033.008-.058.01-.088l.003-.16V.866l.01-.058.001-.068.014-.134c.003-.037-.007-.075-.01-.11-.001-.03.001-.066.002-.095.001-.024 0-.043.003-.065.004-.02.013-.035.019-.053.005-.014.005-.032.013-.044L14.053.2c.01-.012.012-.03.027-.038.02-.013.044-.014.068-.02M5.504.202c.053 0 .065.01.104.033.014.007.027.016.042.023.01.01.015.03.031.035.03.012.079.005.112.01a.606.606 0 01.163.047c.018.009.033.024.05.038.008.008.02.014.027.025.011.017.008.053.002.072-.006.02-.038.09-.057.099l-.042.013c-.017.01-.028.027-.048.032-.054.018-.175-.007-.188.065l-.014.103c-.006.035-.02.07-.025.107-.005.051-.002.1-.01.149-.01.064-.023.13-.034.194-.01.06-.008.12-.02.179-.003.015-.014.023-.022.037l-.017.04a1.253 1.253 0 00-.01.041c-.005.02-.014.038-.02.058l-.007.048c-.007.023-.02.04-.028.062a2.303 2.303 0 00-.007.049c-.006.02-.021.032-.028.05l-.021.061-.012.049-.023.036c-.011.022-.014.055-.034.072-.011.01-.029.006-.043.01a.882.882 0 01-.175.018.119.119 0 01-.084-.04.138.138 0 01-.043-.069c-.008-.03.002-.06.007-.087.01-.05.025-.093.033-.145.003-.02.018-.036.027-.054.007-.019.003-.042.01-.06l.024-.046c.013-.046.013-.094.022-.141a4.87 4.87 0 00.036-.088c.007-.03 0-.068.006-.099.004-.014.01-.028.013-.042l.023-.122C5.234.99 5.23.92 5.23.847c0-.049.013-.096.004-.145C5.227.659 5.108.665 5.07.66 5.052.657 5.038.642 5.023.636a.794.794 0 01-.048-.012c-.018-.01-.016-.028-.028-.041a.406.406 0 00-.029-.024.62.62 0 01-.033-.087c-.001-.017.006-.036.01-.053C4.9.4 4.903.383 4.91.367c.018-.035.08-.037.113-.048.028-.01.046-.026.08-.026.02-.008.068 0 .092 0 .025-.01.065 0 .09 0 .023-.01.048-.008.069-.021.027-.02.056-.04.083-.062l.067-.008M7.336.262c.039 0 .075.004.111.004.023-.009.1.003.118.014a.212.212 0 01.09.1c.007.017.005.04.005.061l-.003.141c0 .046.016.09.021.134.004.033-.005.074.005.105.001.005.004.009.007.013l.04.025c.018.011.032.03.052.035l.042.001c.016-.007.042 0 .062 0a.766.766 0 01.041-.012c.04-.013.07-.03.119-.03a.098.098 0 01.072.004.283.283 0 00.021.02c.025.017.053.023.077.046.01.01.01.023.014.036.012.06.002.07-.014.122l-.01.04c-.013.024-.04.027-.06.036-.022.009-.036.025-.058.033l-.117.02a.266.266 0 00-.072.038l-.025.032-.027.02a.258.258 0 00-.07.096.273.273 0 00-.028.105c.001.015.006.023.013.035.021.05.065.072.124.072a5.34 5.34 0 01.049-.008.55.55 0 01.103-.028c.017-.002.03-.009.05-.009.02 0 .038.007.056.01.016.003.035.005.047.016.014.013.02.038.027.057a.15.15 0 01.003.092c-.014.036-.035.053-.055.085-.01.016-.015.038-.032.049-.016.01-.04.01-.058.016l-.066.023c-.033.007-.072.005-.11.006l-.102.003c-.036-.003-.071-.015-.104-.024-.028-.007-.056-.01-.082-.02l-.092-.043c-.015-.013-.018-.031-.033-.043-.02-.016-.048-.03-.064-.048-.018-.026-.025-.06-.042-.088-.013-.02-.038-.027-.046-.05-.01-.026-.007-.059-.007-.088 0-.058-.003-.118.015-.167l.03-.074.04-.043a.611.611 0 00.055-.118c-.008-.032-.039-.043-.062-.058a2.607 2.607 0 01-.056-.04C7.33.998 7.313.964 7.3.943c-.008-.02-.017-.038-.026-.056-.007-.014-.016-.024-.02-.04-.009-.046 0-.095-.002-.144L7.238.612V.57C7.235.542 7.231.514 7.23.487l.002-.042c-.002-.032-.01-.06.003-.09.008-.021.027-.03.042-.041.021-.018.037-.037.06-.052M3.803.285c.052 0 .078.015.118.037l.046.023.034.027c.026.017.056.025.082.042.03.02.084.107.08.145 0 .023-.014.04-.022.06-.01.022-.016.059-.037.073-.017.011-.04.003-.06.007C4.018.704 4 .725 3.97.72 3.95.714 3.94.697 3.92.688 3.897.676 3.853.675 3.826.665c-.02-.008-.03-.028-.047-.038C3.722.595 3.622.574 3.59.51a.166.166 0 01-.006-.102.28.28 0 01.093-.105c.013-.006.029-.006.045-.006.016-.006.038-.003.057-.003a.266.266 0 01.023-.008M16.542.239h.068l.054.017c.021.005.048.01.063.025.021.019.04.064.05.09.005.015.018.026.021.043.003.013 0 .028 0 .042-.004.061-.023.111-.033.168l-.014.136-.016.114c-.005.02-.01.039-.013.058-.006.048-.004.096-.01.144-.006.056-.014.108-.018.166l-.004.071a.582.582 0 00.043.13.465.465 0 01.034.11c0 .038.037.074.03.102-.005.013.013.079-.006.083-.017.016-.026.032-.052.045-.036.018-.045.056-.078.044l-.04-.023a.955.955 0 01-.055-.01.276.276 0 01-.077-.046c-.02-.015-.044-.018-.064-.035-.011-.009-.016-.021-.022-.032-.023-.034-.046-.063-.061-.1-.013-.031-.04-.055-.05-.09-.008-.033 0-.084-.002-.12-.002-.032-.013-.06-.014-.091-.004-.096.02-.188.028-.279.005-.043.001-.085.006-.126.005-.035.021-.063.025-.1l.004-.071.01-.043a6.5 6.5 0 00.016-.103c.002-.031.005-.063.006-.095l.02-.07c.006-.023.004-.052.017-.073l.027-.028.032-.028c.023-.013.05-.017.075-.025M10.191.4c.046 0 .082.01.123.02l.071.007.104.02c.027.003.059-.001.087.002.113.018.227.04.336.065.038.01.08.01.122.01.025 0 .053-.003.075.004.015.005.023.015.036.023.012.008.026.01.038.02l.025.035c.03.026.051.035.068.075.013.031-.005.073-.005.107l-.002.096a1.265 1.265 0 01-.006.048l.008.115c0 .053-.003.107.005.156.004.021.009.043.012.065l.002.118c.007.058.024.11.03.168.001.03-.002.063-.003.092 0 .03 0 .075-.016.097a.66.66 0 01-.025.026.294.294 0 01-.026.03c-.032.023-.099.02-.139.027l-.054.016c-.021.002-.032-.01-.048-.017l-.028-.006c-.024-.004-.049.001-.072 0-.048-.002-.093-.012-.138-.02-.063-.01-.132.005-.195 0-.015-.001-.03-.004-.045-.007l-.061.008a.294.294 0 01-.17-.04c-.026-.015-.026-.04-.039-.064-.033-.064-.071-.094-.025-.165.013-.021.027-.034.054-.034.029-.018.057-.041.092-.045l.073.003c.06 0 .115.007.17.011l.058.001c.042.004.085.023.13.017a.056.056 0 00.041-.033c.012-.026-.009-.07-.013-.1v-.113l.001-.046c0-.043-.011-.086-.02-.126a4.688 4.688 0 00-.008-.11c-.002-.035.024-.071.008-.102l-.004-.007c-.024-.029-.162-.02-.207-.022-.026-.001-.04-.017-.062-.025a22.94 22.94 0 00-.083-.012l-.084-.003c-.039 0-.078.007-.118 0a.243.243 0 01-.071-.016l-.048-.03c-.011-.006-.024-.01-.036-.015-.044-.023-.09-.056-.108-.105-.02-.052.011-.103.039-.143.01-.014.016-.03.031-.04.014-.007.03-.007.048-.007L10.19.4M17.461.59c.042 0 .08.011.118.017l.077.002c.019-.006.041.007.061.007a.43.43 0 01.137.023l.082.04c.02.01.048.015.065.031.02.018.042.07.047.098.003.018.01.04.005.059-.01.012-.017.025-.025.037-.01.02-.019.055-.042.064l-.066.009c-.027.004-.054.013-.084.007-.05-.01-.091-.03-.142-.032-.036 0-.073.002-.107.003-.036.002-.07 0-.106.001l-.112.015a.485.485 0 01-.208-.047c-.02-.013-.032-.031-.045-.05-.015-.02-.03-.032-.037-.054-.019-.06.01-.107.05-.147a.12.12 0 01.051-.037c.017-.006.04-.004.06-.004.027-.016.064-.016.1-.016a.111.111 0 01.045-.007l.03-.004a.12.12 0 01.046-.011V.59zM12.227.604c.037.001.062.016.096.021l.068.01c.02.008.03.03.049.038l.046.011c.025.01.045.027.072.036.018.005.039.007.054.015.02.011.036.04.053.057s.043.03.054.05c.005.012.004.024.004.037a.2.2 0 01-.052.13c-.014.015-.036.012-.053.018a1.504 1.504 0 01-.041.024.183.183 0 01-.105-.014l-.029-.018-.069-.016c-.05-.012-.108-.007-.158-.02-.021-.005-.035-.023-.054-.032l-.049-.02a.187.187 0 01-.093-.132c-.005-.025-.011-.055 0-.079.01-.022.027-.033.046-.045l.04-.026c.04-.019.084-.021.12-.045M6.099 1l.046.009c.054.011.105.012.153.035a.675.675 0 01.035.024l.05.014.04.029.04.017.03.028.032.013.049.03c.045.033.04.112.012.153-.018.025-.034.03-.063.039-.015.005-.027.019-.043.023-.055.011-.115-.014-.164-.024-.035-.007-.073-.006-.106-.02-.02-.008-.024-.03-.042-.04-.014-.003-.028-.008-.041-.012a1.398 1.398 0 00-.045-.022l-.046-.014a.318.318 0 01-.093-.085c-.008-.013-.008-.031-.008-.05 0-.014-.001-.03.003-.043.013-.042.085-.074.121-.088.013-.005.026-.013.04-.013V.999zM13.135 1.066c.176 0 .247.155.14.289-.01.011-.024.014-.036.021l-.097.055-.025.021-.035.025c-.01.01-.014.024-.025.033-.02.015-.049.017-.07.03-.034.024-.061.057-.097.082l-.025.013a.733.733 0 01-.223.103l-.033.005-.046.012-.073.002c-.032 0-.067.005-.096-.004-.023-.008-.042-.025-.065-.034-.018-.007-.04-.01-.055-.022l-.03-.03a1.294 1.294 0 00-.032-.023c-.036-.044-.03-.098-.014-.15.004-.017.007-.034.018-.046a.182.182 0 01.11-.043c.01-.001.02-.003.031-.003.013-.007.037-.004.053-.004.016-.007.056-.005.076-.005.024-.011.056-.008.079-.02.017-.014.035-.026.051-.04.049-.032.102-.062.15-.094.015-.01.028-.022.04-.033.019-.011.038-.015.057-.024l.069-.034c.044-.026.055-.067.115-.067l.03-.004a.325.325 0 01.03-.003l.028-.008M17.324 1.364c.075 0 .147.015.203.055.015.011.02.026.032.039l.066.042a.28.28 0 00.08.023c.027.004.054.009.082.012.049.017.084.077.089.127.002.023.009.055-.005.075-.02.03-.055.07-.091.08a6.422 6.422 0 01-.068.006.548.548 0 01-.187.006c-.022-.004-.044-.019-.065-.028l-.063-.024-.04-.029a.32.32 0 01-.14-.14c-.013-.025-.034-.054-.029-.087.013-.074.077-.117.136-.157M6.152 1.484c.05 0 .084.01.126.021.035.008.07.013.099.032.01.008.018.022.025.032a.184.184 0 00.052.043c.017.01.037.013.056.02l.036.02.035.014c.013.007.02.026.024.038.005.014.017.03.016.046-.002.025-.043.078-.062.098-.016.017-.031.018-.051.026-.02.006-.032.021-.054.023-.031.002-.064-.005-.092-.008-.026 0-.051-.002-.076-.004a.38.38 0 01-.124-.038l-.042-.025-.042-.018-.03-.029c-.012-.008-.028-.014-.036-.025-.016-.019-.018-.047-.021-.072-.007-.04.001-.116.03-.143.012-.012.03-.015.043-.022.029-.014.038-.022.077-.022l.011-.007M9.19 1.543c.086.002.19.11.215.187.008.023.004.05.01.075.002.011.011.019.017.03.013.022.03.066.017.096-.007.017-.023.028-.031.044-.012.02-.024.047-.05.056-.031.01-.073.007-.109.007-.038 0-.08.003-.109-.013l-.053-.042c-.022-.016-.043-.027-.059-.053-.02-.037-.03-.078-.043-.12-.013-.037-.036-.072-.036-.115 0-.066.075-.12.128-.137.015-.006.034-.004.05-.004l.023-.004.03-.007M18.658 1.574c.084.039.13.043.168.119.01.022.053.063.063.087.004.011.014.019.022.028.017.022.04.065.033.098-.005.018-.02.032-.025.05a.228.228 0 01-.076.085c-.03.016-.039.016-.075.022a.166.166 0 01-.093-.007c-.02-.011-.028-.027-.047-.04-.003-.033-.036-.06-.055-.084-.027-.036-.053-.056-.076-.097-.018-.037-.068-.055-.076-.1-.011-.069.056-.135.105-.163.014-.007.033-.008.049-.01.007-.004.015-.006.022-.008.01-.004.051.024.06.02M.948 1.216c-.009.012-.025.038-.037.048-.01.003-.04.01-.048.002-.017-.015-.029-.055-.027-.114a.08.08 0 01.062-.038c.025 0 .052-.007.072.027-.004.036-.015.06-.022.075m-.397.329a.166.166 0 01-.17.057C.286 1.58.406 1.4.435 1.365l.037-.031c.019.002.04 0 .053.01.026.016.018.058.017.085-.002.028.018.09.009.116m1.185-.07l-.016-.1c-.007-.028-.023-.047-.032-.072a.81.81 0 00-.006-.032l-.02-.043a.993.993 0 00-.016-.041l-.047-.046c-.01-.012-.016-.026-.027-.037l-.063-.06c-.03-.022-.076-.024-.092-.061-.03-.067.023-.143.03-.21.003-.017-.01-.038-.016-.053L1.414.664c-.017-.04-.055-.058-.092-.07-.03-.01-.08-.028-.114-.014l-.03.004c-.05 0-.077.015-.1.053-.014.021-.029.033-.035.057a1.296 1.296 0 00-.003.053c-.003.05 0 .082-.036.113C.964.86.9.863.874.838.87.833.851.825.85.818.845.794.837.786.833.763.829.744.82.727.82.706c0-.02.003-.041.001-.06L.808.552c0-.011.003-.022.008-.029C.831.507.896.514.918.51c.038-.008.094-.014.124-.037L1.08.429c.014-.015.029-.025.037-.043.008-.016.016-.073.007-.088L1.095.259C1.091.246 1.09.227 1.08.219A.43.43 0 00.872.19C.816.191.798.176.775.13.771.117.768.102.76.093.74.069.713.058.687.043L.662.025C.647.015.63.012.612.008l-.01.008C.582.016.568.024.55.029c-.032.01-.063.018-.08.05L.456.11C.446.125.435.135.429.153.42.18.426.21.402.233.386.25.354.25.332.258L.291.28C.238.293.157.298.127.35.117.367.118.421.118.445c0 .018 0 .043.008.057.031.047.143.06.2.057C.359.558.41.55.435.57.438.573.44.578.442.584l.002.037C.454.7.462.776.469.858c0 .015.009.06.006.071C.462.982.389.977.355 1a1.732 1.732 0 00-.039.04 1.167 1.167 0 00-.05.033c-.01.01-.017.023-.029.031-.023.015-.046.024-.064.048l-.048.077-.047.044-.018.045c-.02.044-.028.089-.04.14-.006.028-.015.06-.013.092.002.036.012.07.02.104.009.032.015.062.034.09.008.012.024.017.035.026l.026.025c.02.017.05.025.074.035.047.02.088.05.14.06.066.014.133-.004.193-.016l.11-.014a.467.467 0 00.128-.047l.034-.033c.02-.014.041-.028.062-.04.025-.015.051-.024.073-.043.014-.013.015-.032.028-.045l.074-.07c.022-.027.05-.046.074-.071.013-.014.03-.02.041-.034.01-.015.017-.03.025-.045l.041-.042c.01-.01.011-.026.022-.035.007-.005.01-.009.018-.003.022.017.031.059.045.083l.02.036c.006.019.007.042.011.063l.017.084c.006.089-.023.164-.047.237a9.093 9.093 0 01-.028.094c-.011.032-.037.06-.04.097-.006.035.001.083.022.108l.03.027c.01.012.015.027.03.036.029.017.066.026.098.035.024.006.05.016.077.013.013-.002.022-.007.032-.016.014-.012.019-.03.03-.043.018-.02.046-.028.06-.053.019-.029.024-.065.04-.095.009-.015.019-.03.023-.048.003-.018.004-.039.01-.056l.024-.054c.011-.05.015-.1.026-.148.005-.022.015-.042.017-.065.005-.075-.01-.143-.02-.21M3.545 1.708c-.02-.025-.042-.025-.066-.025-.027 0-.072.017-.082.03-.028.08.03.108.077.108.03-.001.071-.046.071-.113M3.75.833c.061 0 .148.048.17.105.018.048.003.11.002.163l.004.164a.576.576 0 00.024.14c.002.032-.018.066-.001.094.007.013.02.02.033.027l.044.034.052.03c.024.017.033.042.055.062.018.017.04.024.058.038.016.01.022.028.034.042.013.016.03.026.04.044.013.027.01.096.006.13-.002.018-.015.033-.022.05-.012.025-.016.07-.046.082a.263.263 0 01-.12-.01c-.02-.008-.039-.024-.06-.033-.03-.015-.06-.024-.09-.045-.023-.016-.026-.049-.057-.055-.034-.008-.052.03-.072.049-.016.014-.075.072-.095.079-.038.014-.109.054-.151.054-.048 0-.152.02-.201.012-.022-.003-.046-.004-.067-.009-.017-.004-.055-.033-.07-.042-.01-.012-.037-.035-.048-.047a.297.297 0 01-.052-.053c-.009-.014-.026-.024-.035-.039-.016-.02-.022-.068-.022-.097-.002-.017-.008-.037-.005-.052l.008-.05c.009-.03.008-.054.016-.084a.214.214 0 01.033-.052.543.543 0 01.127-.105c.02-.011.037-.024.058-.034.028-.013.206-.003.218-.036.01-.028.001-.067.004-.098.003-.03.013-.06.014-.091l.002-.118A.341.341 0 013.581.94c.008-.012.02-.02.028-.032.01-.013.01-.031.025-.04.032-.02.079-.024.115-.035M15.65.34l-.04-.05s-.013-.05-.037-.059c-.023-.01-.036-.073-.036-.073.01-.006.009-.073.02-.079l.031-.024a.203.203 0 01.058-.026l.06-.008a.29.29 0 01.11.014c.01.004.019.015.03.023.05.039.075.07.098.13l.006.06c.007.02.04.048.023.073l-.03.03a1.028 1.028 0 00-.024.042c-.021.029-.062.014-.094.02-.022.003-.046.014-.068.006-.02-.009-.05-.046-.075-.033L15.65.34zM15.502.244c-.002.033.042.046.039.069-.004.023.041.063.046.09.004.028.03.064.03.064l-.014.111a.222.222 0 01-.044.08c-.024.018-.08.017-.112.02l-.042.01c-.025.003-.046-.02-.066-.031a.718.718 0 01-.087-.066 1.916 1.916 0 01-.034-.027c-.012-.015-.012-.043-.02-.06-.008-.016-.025-.022-.031-.037l-.015-.052c-.009-.03-.029-.064-.027-.1.002-.027.02-.045.022-.073.002-.02-.002-.05.011-.063.014-.017.086-.035.11-.035.031-.019.058-.01.089-.002l.04.01c.02.007.031.022.058.022 0 0 .05.036.047.07" mask="url(#b)"/></g></g></svg>