<?xml version="1.0" encoding="utf-8"?>
<!-- Generator: Adobe Illustrator 23.1.1, SVG Export Plug-In . SVG Version: 6.00 Build 0)  -->
<svg version="1.1" id="Layer_3" xmlns="http://www.w3.org/2000/svg" xmlns:xlink="http://www.w3.org/1999/xlink" x="0px" y="0px"
	 viewBox="0 0 98 27" style="enable-background:new 0 0 98 27;" xml:space="preserve">
<style type="text/css">
	.st0{fill-rule:evenodd;clip-rule:evenodd;fill:#FDBB30;}
	.st1{fill-rule:evenodd;clip-rule:evenodd;fill:#FFFFFF;}
</style>
<g>
	<path class="st0" d="M8.3,5c-4.3,0-7.8,3.5-7.8,7.8c0,4.3,3.5,7.8,7.8,7.8c4.3,0,7.8-3.5,7.8-7.8C16.1,8.5,12.6,5,8.3,5z
		 M12.1,16.5c-1,1-2.3,1.6-3.8,1.6c-1.4,0-2.8-0.6-3.8-1.6c-1-1-1.6-2.3-1.6-3.8c0-1.4,0.6-2.7,1.6-3.7c1-1,2.3-1.6,3.8-1.6
		c1.4,0,2.8,0.6,3.8,1.6c1,1,1.6,2.3,1.6,3.7C13.7,14.2,13.1,15.5,12.1,16.5z"/>
	<rect x="16.8" y="3.8" class="st0" width="0.6" height="0.6"/>
	<rect x="16.8" y="2.6" class="st0" width="0.6" height="0.6"/>
	<rect x="15.1" y="4.4" class="st0" width="0.6" height="0.6"/>
</g>
<g>
	<rect x="14" y="5.6" class="st1" width="0.6" height="0.6"/>
	<rect x="15.7" y="5" class="st1" width="0.6" height="0.6"/>
	<rect x="13.4" y="5.1" class="st1" width="0.6" height="0.5"/>
	<rect x="15.1" y="5.6" class="st1" width="0.6" height="0.6"/>
	<rect x="16.2" y="3.2" class="st1" width="0.6" height="0.6"/>
	<rect x="15.1" y="3.8" class="st1" width="1.1" height="0.6"/>
	<rect x="14.5" y="4.4" class="st1" width="0.6" height="1.2"/>
	<path class="st1" d="M14.5,6.7H14V6.2H13v0.4h-0.5v0.5h0.6v0.6h-0.6V7.1h-0.6V8h-0.6v0.6H11v0.6h-0.4c-0.5,0.7-1.6,2.9-2,3.7
		c-1.3-1.8-2.3-2.5-3-2.7c-0.4-0.1-0.9,0.3-0.2,1.1c1.6,1.8,2.1,3.2,2.6,4.4c0.3,0.6,1.4,0.7,1.6,0.1c0.5-1.3,1.2-2.8,2.1-4V11H12
		v-0.6h0.5V9.7h0.6V9.1h-0.6V8.5h0.6v0.6h0.6l0-0.6h0.5V7.8h0.5V7.4h0.5V6.2h-0.6V6.7z"/>
	<path class="st1" d="M45.9,11.7c-0.3-0.3-0.6-0.5-1-0.6c-0.4-0.1-0.8-0.2-1.3-0.2c-0.5,0-0.9,0.1-1.3,0.2c-0.4,0.1-0.7,0.4-1,0.6
		c-0.3,0.3-0.5,0.6-0.6,1c-0.1,0.4-0.2,0.8-0.2,1.3c0,0.5,0.1,0.9,0.2,1.3c0.1,0.4,0.4,0.7,0.6,1c0.3,0.3,0.6,0.5,1,0.6
		c0.4,0.1,0.8,0.2,1.3,0.2c0.5,0,0.9-0.1,1.3-0.2c0.4-0.1,0.7-0.4,1-0.6c0.3-0.3,0.5-0.6,0.6-1c0.1-0.4,0.2-0.8,0.2-1.3
		c0-0.5-0.1-0.9-0.2-1.3C46.3,12.3,46.1,12,45.9,11.7z M45.1,14.7c0,0.2-0.1,0.4-0.2,0.6c-0.1,0.2-0.3,0.3-0.5,0.5
		c-0.2,0.1-0.4,0.2-0.7,0.2c-0.3,0-0.5-0.1-0.7-0.2c-0.2-0.1-0.4-0.3-0.5-0.5c-0.1-0.2-0.2-0.4-0.2-0.6c0-0.2-0.1-0.5-0.1-0.7
		c0-0.2,0-0.5,0.1-0.7c0-0.2,0.1-0.5,0.2-0.6c0.1-0.2,0.3-0.3,0.5-0.5c0.2-0.1,0.4-0.2,0.7-0.2c0.3,0,0.5,0.1,0.7,0.2
		c0.2,0.1,0.4,0.3,0.5,0.5c0.1,0.2,0.2,0.4,0.2,0.6c0,0.2,0.1,0.5,0.1,0.7C45.2,14.2,45.1,14.4,45.1,14.7z"/>
	<path class="st1" d="M52.5,11.5c-0.2-0.2-0.4-0.4-0.6-0.5c-0.3-0.1-0.6-0.2-1.1-0.2c-0.3,0-0.7,0.1-1,0.2c-0.3,0.2-0.7,0.4-0.9,0.7
		l0,0c0,0,0,0,0,0s0,0,0,0V11h-1.5v5.9h1.5v-3.1c0-0.6,0.1-1.1,0.3-1.4c0.2-0.3,0.6-0.4,1-0.4c0.4,0,0.7,0.1,0.9,0.4
		c0.2,0.3,0.2,0.6,0.2,1.1v3.3H53v-3.6c0-0.4,0-0.7-0.1-1C52.8,12,52.7,11.7,52.5,11.5z"/>
	<polygon class="st1" points="24,14.5 20.4,8.7 18.8,8.7 18.8,16.9 20.3,16.9 20.3,11.2 20.4,11.4 23.9,16.9 25.6,16.9 25.6,8.7 
		24,8.7 	"/>
	<path class="st1" d="M31.6,11.7c-0.3-0.3-0.6-0.5-1-0.6c-0.4-0.1-0.8-0.2-1.3-0.2c-0.5,0-0.9,0.1-1.3,0.2c-0.4,0.1-0.7,0.4-1,0.6
		c-0.3,0.3-0.5,0.6-0.6,1c-0.1,0.4-0.2,0.8-0.2,1.3c0,0.5,0.1,0.9,0.2,1.3c0.1,0.4,0.4,0.7,0.6,1c0.3,0.3,0.6,0.5,1,0.6
		c0.4,0.1,0.8,0.2,1.3,0.2c0.5,0,0.9-0.1,1.3-0.2c0.4-0.1,0.7-0.4,1-0.6c0.3-0.3,0.5-0.6,0.6-1c0.1-0.4,0.2-0.8,0.2-1.3
		c0-0.5-0.1-0.9-0.2-1.3C32.1,12.3,31.8,12,31.6,11.7z M30.8,14.7c0,0.2-0.1,0.4-0.2,0.6c-0.1,0.2-0.3,0.3-0.5,0.5
		c-0.2,0.1-0.5,0.2-0.7,0.2c-0.3,0-0.5-0.1-0.7-0.2c-0.2-0.1-0.4-0.3-0.5-0.5c-0.1-0.2-0.2-0.4-0.2-0.6c0-0.2-0.1-0.5-0.1-0.7
		c0-0.2,0-0.5,0.1-0.7c0-0.2,0.1-0.5,0.2-0.6c0.1-0.2,0.3-0.3,0.5-0.5C28.8,12,29,12,29.3,12c0.3,0,0.5,0.1,0.7,0.2
		c0.2,0.1,0.4,0.3,0.5,0.5c0.1,0.2,0.2,0.4,0.2,0.6c0,0.2,0.1,0.5,0.1,0.7C30.9,14.2,30.9,14.4,30.8,14.7z"/>
	<path class="st1" d="M39,9.2l-1.5,0l0,1.7H37c0,0-0.7,0-1.4,0.2c-0.4,0.1-0.7,0.4-0.9,0.8c0,0.1-0.1,0.2-0.1,0.2c0,0,0,0,0,0
		s0,0,0,0V11h-1.5v5.9h1.5v-2.6c0-0.3,0-0.5,0.1-0.8c0-0.2,0.1-0.3,0.2-0.4c0.3-0.4,0.9-0.9,2.2-0.9h0.4l0,3.4c0,0.3,0,0.5,0.1,0.7
		c0.1,0.2,0.2,0.3,0.4,0.4c0.2,0.1,0.4,0.2,0.6,0.2c0.2,0,0.5,0.1,0.7,0.1c0.2,0,0.3,0,0.5,0c0.1,0,0.3,0,0.4,0l0-1.2
		c-0.1,0-0.1,0-0.2,0c-0.1,0-0.2,0-0.3,0c-0.3,0-0.5-0.1-0.6-0.2c-0.1-0.1-0.2-0.3-0.2-0.6l0-2.9h1.2v-1.3H39L39,9.2z"/>
	<polygon class="st1" points="56.4,9.4 54.6,9.4 54.6,16.9 60.1,16.9 60.1,15.5 56.4,15.5 	"/>
	<rect x="60.9" y="11" class="st1" width="1.7" height="5.9"/>
	<rect x="60.9" y="8.7" class="st1" width="1.7" height="1.4"/>
	<path class="st1" d="M64.6,9.3c-0.3,0.2-0.4,0.6-0.4,1.4V11h-0.9v1.3h0.9v4.6H66v-4.6h1.2V11H66v-0.2c0-0.3,0-0.4,0.1-0.5
		c0.1-0.1,0.1-0.1,0.4-0.1h0.8V8.9h-1.4C65.2,8.9,64.9,9.1,64.6,9.3z"/>
	<path class="st1" d="M71.5,11h-2c-0.6,0-0.9,0.1-1.2,0.4c-0.4,0.4-0.5,0.9-0.5,2.6c0,1.7,0.2,2.2,0.5,2.6c0.3,0.3,0.6,0.4,1.2,0.4
		h2.2c0.6,0,0.9-0.2,1.1-0.3c0.3-0.3,0.4-0.6,0.4-1.5h-1.5c0,0.4,0,0.5-0.1,0.5c-0.1,0.1-0.2,0.1-0.5,0.1h-1c-0.3,0-0.5,0-0.5-0.1
		c-0.1-0.1-0.1-0.2-0.1-1.2h3.6c0.2,0,0.2-0.1,0.2-0.2v-0.3c0-1.7-0.1-2.2-0.5-2.5C72.4,11.1,72.1,11,71.5,11z M69.3,13.4
		c0-0.8,0.1-1,0.1-1.1c0.1-0.1,0.3-0.1,0.5-0.1h0.9c0.3,0,0.4,0,0.5,0.1c0.1,0.1,0.1,0.3,0.1,1.1H69.3z"/>
	<polygon class="st1" points="75,9.4 74.1,9.4 74.1,16.9 78.9,16.9 78.9,16.1 75,16.1 	"/>
	<path class="st1" d="M82.7,11.1h-1.5c-0.6,0-0.9,0.1-1.2,0.3c-0.4,0.4-0.5,0.8-0.5,2.5c0,1.7,0.1,2.2,0.5,2.6
		c0.3,0.2,0.6,0.3,1.2,0.3h1.5c0.6,0,0.9-0.1,1.2-0.3c0.4-0.4,0.5-0.8,0.5-2.6c0-1.7-0.1-2.2-0.5-2.5C83.6,11.2,83.2,11.1,82.7,11.1
		z M83.3,16c-0.1,0.1-0.3,0.2-0.7,0.2h-1.4c-0.4,0-0.6,0-0.7-0.2c-0.2-0.2-0.3-0.5-0.3-2c0-1.5,0.1-1.8,0.3-2
		c0.1-0.1,0.3-0.2,0.7-0.2h1.4c0.4,0,0.6,0,0.7,0.2c0.2,0.2,0.3,0.5,0.3,2C83.5,15.6,83.4,15.8,83.3,16z"/>
	<path class="st1" d="M88.9,16c-0.1,0.1-0.3,0.2-0.6,0.2H87c-0.4,0-0.6,0-0.7-0.2c-0.2-0.2-0.3-0.5-0.3-2c0-1.5,0.1-1.8,0.3-2
		c0.1-0.1,0.3-0.2,0.7-0.2h1.3c0.4,0,0.5,0,0.6,0.2c0.1,0.1,0.2,0.3,0.2,1h0.8c0-1-0.1-1.3-0.4-1.6c-0.2-0.2-0.5-0.3-1.1-0.3h-1.5
		c-0.6,0-0.9,0.1-1.2,0.3c-0.4,0.4-0.5,0.8-0.5,2.5c0,1.7,0.1,2.2,0.5,2.6c0.3,0.2,0.6,0.3,1.2,0.3h1.5c0.6,0,0.8-0.1,1-0.3
		c0.3-0.3,0.4-0.6,0.4-1.7h-0.8C89.1,15.7,89,15.9,88.9,16z"/>
	<polygon class="st1" points="95.4,11.1 94.4,11.1 92.2,13.6 91.6,13.6 91.6,9.1 90.8,9.1 90.8,16.9 91.6,16.9 91.6,14.3 92.2,14.3 
		94.4,16.9 95.5,16.9 92.9,13.9 	"/>
	<polygon class="st1" points="97.4,10.9 97.2,11.6 97,10.9 96.7,10.9 96.7,11.8 96.8,11.8 96.8,11.1 97.1,11.8 97.2,11.8 97.5,11.1 
		97.5,11.8 97.7,11.8 97.7,10.9 	"/>
	<polygon class="st1" points="95.7,11 96,11 96,11.8 96.2,11.8 96.2,11 96.4,11 96.4,10.9 95.7,10.9 	"/>
</g>
</svg>
