<svg height="28" viewBox="0 0 50 28" width="50" xmlns="http://www.w3.org/2000/svg"><g fill="none" fill-rule="evenodd"><rect fill="#fff" height="27" rx="3" stroke="#595959" width="49" x=".5" y=".5"/><g transform="translate(3.587986 5.936227)"><g fill="#70706e"><path d="m.34450234 12.9957407h.32048611l-.29780093 1.2444445c-.04421296.1844907-.03587963.3234954.02523148.4162037.06087963.0929398.17418982.1392361.33981482.1392361.16458333 0 .29953703-.0462963.40497685-.1392361.10555555-.0927083.18043981-.231713.22453704-.4162037l.29791666-1.2444445h.32476852l-.30520833 1.2751158c-.06631945.2770833-.18449074.4846065-.35370371.6219907-.16944444.1378472-.39131944.2065972-.66597222.2065972-.275 0-.46342592-.0686342-.56608796-.205787-.10277778-.1371528-.12071759-.3446759-.05416667-.6228009z"/><path d="m1.94133104 15.0448495.5099537-2.1302083.96909723 1.252662c.02581018.035301.05196759.0731482.07777777.1133102.02581019.0401621.05231482.085301.07928241.1357639l.34016204-1.4206018h.30011574l-.50960648 2.1287037-.98935185-1.2751158c-.02650463-.034375-.05115741-.0707176-.07418982-.1090278-.02314815-.0381944-.04421296-.0784722-.06342593-.1203703l-.34108796 1.4248842z"/><path d="m4.19119215 15.0448495.49039352-2.049074h.32465278l-.49039352 2.049074z"/><path d="m4.98250002 15.0448495.49050926-2.049074h1.11446759l-.06759259.2827546h-.78993056l-.12233796.5108796h.78993056l-.07002315.2923611h-.78993056l-.23043981.9630787z"/><path d="m6.4546991 15.0448495.49039351-2.049074h.32465278l-.49039352 2.049074z"/><path d="m7.24600697 15.0448495.49039351-2.049074h1.11458334l-.0675926.2827546h-.78993055l-.12303241.5135417h.78993056l-.07002315.2925926h-.78993056l-.15844907.662037h.78993056l-.0712963.2981481z"/><path d="m9.12980326 14.7438426h.27291667c.15 0 .26516204-.0101852.34502315-.0306713.07997685-.0206019.15335648-.0550926.22060185-.1037037.09131947-.066088.16759257-.1484954.22893517-.2469907.0612269-.0982639.1076389-.212963.1388889-.3436343s.0396991-.2451389.0255787-.3434028c-.0141204-.0984954-.0511574-.1809028-.1107639-.2472222-.0446759-.0483796-.1039352-.0829861-.177662-.103588-.07395835-.0204861-.19432872-.030787-.36168983-.030787h-.11724537-.11747686zm-.39664352.3010417.49050926-2.0491899h.43784722c.28472223 0 .48148148.0146991.59050928.0440973.1087963.0295139.1987268.0787037.2694444.1476852.0938658.090625.153588.2068287.1792824.3484953.0255787.1418982.016551.3037037-.0268518.4856482-.0435185.1819444-.1120371.3431713-.2053241.4836805-.0930555.1405093-.2084491.25625-.3457176.347801-.1038194.0689814-.21516202.118287-.33344906.1476851-.11851852.0292824-.29548611.0440973-.53113426.0440973h-.08726851z"/><path d="m12.2545718 13.8524074h.0833333c.1799769 0 .3049769-.0202546.3745371-.0603009.0697916-.0400463.1167824-.1109954.1409722-.2127315.0262731-.1091435.0126157-.1862269-.0408565-.2309028-.0534722-.0447916-.1659722-.0672453-.3378472-.0672453h-.0833334zm-.0857639.2728009-.2201389.919676h-.3041667l.490625-2.0491899h.491088c.1456019 0 .2506944.0082176.3155093.0244213.0645833.0164352.1179398.0432871.1600694.0806713.0512732.0475695.0849537.1116899.1012732.1924769.0160879.0806713.0125.1695602-.0106482.2664352-.0233796.0971065-.0625.1866898-.1175926.2688657-.0550926.0820602-.1196759.1464121-.1935185.1930556-.0599537.0373842-.1260417.0640046-.1984954.0798611-.0725694.0159722-.1814815.0237268-.3268518.0237268h-.0641204z"/><path d="m13.5932176 14.2401505h.5565972l-.092824-.4677084c-.0045139-.0296296-.0086806-.0638889-.0121528-.102662-.0034722-.0387732-.0057871-.0819445-.0072917-.1295139-.0215278.0446759-.0431713.0865741-.0646991.1253472-.0216435.0386574-.0425925.0743056-.0631944.1068287zm.7050926.8047453-.1003472-.5277777h-.7913195l-.3581018.5277777h-.3409722l1.4769676-2.130324.4561342 2.130324z"/><path d="m15.1060301 15.0448495.2244213-.9378472-.4065972-1.1112268h.341088l.2523148.6956018c.005787.0178241.0127314.041088.0207176.0700232.0081018.0289351.0159722.0600694.0233796.09375.0203704-.0326389.0413194-.0635417.0622685-.0924769s.0421296-.0553241.0634259-.0796296l.594213-.6872685h.3247685l-.9537037 1.1112268-.2244213.9378472z"/><path d="m18.2037037 14.0328472c.0001158-.0158565.0047454-.0596065.0137732-.1314815.0069444-.0597222.0123842-.1092592.0163194-.1484953-.0193287.0467592-.0421296.0934027-.068287.1400463-.0261574.0466435-.0563658.0942129-.0907408.142824l-.783912 1.0917824-.2556713-1.1141203c-.0109954-.0458334-.0193287-.0901621-.0248843-.1329861-.0055555-.0430556-.009375-.0854167-.0112268-.1275463-.0111111.0430555-.0252315.0879629-.0424769.1351852-.0172453.0471064-.0378472.096412-.0619213.1476851l-.4559027 1.0091436h-.2986111l.9832176-2.1359954.2798611 1.2934028c.0040509.0203703.0099537.0545139.0171296.1020833s.015625.1063657.025463.1763889c.0331018-.0587963.080787-.1334491.1435185-.2239583.0166666-.0243056.0293981-.0428241.0379629-.0559028l.8850695-1.2920139-.0282408 2.1359954h-.3017361z"/><path d="m18.7432523 15.0448495.490625-2.049074h1.1144676l-.0675926.2827546h-.7899305l-.1230324.5135417h.7899305l-.0699074.2925926h-.7900463l-.158449.662037h.7899305l-.071412.2981481z"/><path d="m20.2304051 15.0448495.5099537-2.1302083.9690972 1.252662c.0258102.035301.0519676.0731482.0777778.1133102.0258102.0401621.0523148.085301.0792824.1357639l.3401621-1.4206018h.3002314l-.5097222 2.1287037-.9893518-1.2751158c-.0265047-.034375-.0511574-.0707176-.0741898-.1090278-.0231482-.0381944-.044213-.0784722-.063426-.1203703l-.3410879 1.4248842z"/><path d="m23.5428588 13.2784838-.4229166 1.7663194h-.3246528l.4228009-1.7663194h-.5306713l.0677083-.2827546h1.3833334l-.0675926.2827546z"/><path d="m23.879757 14.6347222.2886574-.1231481c.0027778.0914352.0311342.1612268.0850694.2092592.0539352.0481482.1318287.0721065.2339121.0721065.0962963 0 .1796296-.0275463.249537-.0826389.0700231-.0549768.1162037-.1288194.1383102-.2210648.0288194-.1204861-.0429398-.2277778-.2149306-.321875-.0239583-.0141204-.0425926-.0243055-.0554398-.0309028-.19375-.1100694-.3166667-.2097222-.3685185-.2988426-.0517361-.0891203-.0623843-.1980324-.0315972-.3267361.0399305-.1670139.127662-.3024305.2629629-.4059027.135301-.103588.2925926-.1554399.4717593-.1554399.147338 0 .2636574.0291667.3487268.0875.085301.0584491.1337963.1420139.1458334.2512732l-.2857639.134375c-.0247685-.0644676-.0574074-.1114583-.0979167-.1414352-.040625-.0298611-.0918981-.0447917-.1537037-.0447917-.0872685 0-.1622685.0234954-.2248842.0700232-.0623843.0466435-.103125.1090278-.1219908.1875-.0293981.1232639.0559028.2379629.2560185.3443287.0152778.0083333.0274306.0150463.0361111.0196759.1752315.0931713.2888889.184375.3412037.2736111.0523149.0892361.0625.2003472.0306713.3336806-.0465277.1942129-.1429398.3483796-.2894675.4626157-.1466436.1143519-.3212963.1715278-.5239584.1715278-.1702546 0-.2998842-.040162-.3894676-.1204861-.0894676-.0802083-.1332176-.1949074-.1311342-.344213"/><path d="m26.2784028 15.0448495.490625-2.049074h.324537l-.4905092 2.049074z"/><path d="m27.0697107 15.0448495.5099537-2.1302083.9690972 1.252662c.0258102.035301.0519676.0731482.0777778.1133102.0258102.0401621.0523148.085301.0792824.1357639l.340162-1.4206018h.3002315l-.5097222 2.1287037-.9893519-1.2751158c-.0265046-.034375-.0511574-.0707176-.0741898-.1090278-.0231481-.0381944-.044213-.0784722-.0634259-.1203703l-.341088 1.4248842z"/><path d="m30.3821644 13.2784838-.4229167 1.7663194h-.3246528l.422801-1.7663194h-.5306713l.0677083-.2827546h1.3833333l-.0675926.2827546z"/><path d="m30.7355672 15.0448495.490625-2.049074h1.1144675l-.0675925.2827546h-.7899306l-.1230324.5135417h.7899305l-.0699074.2925926h-.7900463l-.158449.662037h.7899305l-.071412.2981481z"/><path d="m32.8288542 13.8690509h.0587963c.1717592 0 .2908565-.0203703.3570602-.061574.0663194-.0409723.1119213-.1136575.1369213-.2182871.0269676-.1128472.0158564-.1924768-.0336806-.2385417-.0494213-.046412-.1559028-.0694444-.3195602-.0694444h-.0587963zm-.0824074.2590278-.2195602.9167824h-.3041667l.490625-2.0490741h.4528935c.1327547 0 .2336806.0087963.3025463.0266204.0689815.0177083.1246528.0469907.166551.0881945.05.0493055.0822916.1133101.0973379.1917824.0148148.0782407.0111111.1642361-.0112268.2572916-.0392361.1642361-.1086806.2928241-.2082176.3857639-.099537.0927083-.2270833.1486111-.3824074.1672454l.4644676.9321759h-.3671297l-.4449074-.9167824z"/><path d="m33.7876621 15.0448495.490625-2.049074h1.1144676l-.0675926.2827546h-.7899306l-.122338.5108796h.7899306l-.0700232.2923611h-.7899305l-.2305556.9630787z"/><path d="m35.7690972 14.2401505h.5565973l-.0928241-.4677084c-.0045139-.0296296-.0086806-.0638889-.0121528-.102662-.0034722-.0387732-.005787-.0819445-.0072917-.1295139-.0215277.0446759-.0431712.0865741-.064699.1253472-.0216435.0386574-.0425926.0743056-.0631945.1068287zm.7050926.8047453-.1003472-.5277777h-.7913194l-.3581019.5277777h-.3409722l1.4769676-2.130324.4561342 2.130324z"/><path d="m38.9300232 13.4939699c-.0725695-.0802083-.1552084-.1402778-.2479167-.1804398-.0927083-.0400463-.1954861-.0603009-.3082176-.0603009-.2184028 0-.4131944.071875-.584375.2155092-.171412.1438658-.284375.3299769-.3391204.5586806-.0530092.2210648-.0298611.4034722.0689815.5469907.0988426.14375.2497685.2157408.4524306.2157408.1184028 0 .2358796-.0215278.3532407-.0644676.1170139-.0428241.2350695-.1077547.3540509-.1945602l-.090162.3765046c-.102662.0643519-.2092593.1125-.3195602.144213-.1105324.0317129-.2255787.0475694-.3456018.0475694-.1527778 0-.287963-.0256944-.4052084-.0770833-.1173611-.0512732-.2133101-.1266204-.2875-.2266204-.0739583-.0980324-.1211805-.2133102-.1414351-.346412-.0206019-.1328704-.0128473-.2746528.0230324-.4248843.0359953-.1502315.0960648-.2912037.1798611-.4233796.083912-.1319445.1873842-.2479167.3104166-.3478009.1233797-.1006945.2553241-.1769676.3958334-.2288195.140625-.0517361.2855324-.0777778.4348379-.0777778.1172454 0 .225.0175926.3230324.0526621.0979167.0349537.1885417.0878472.2717593.158912z"/><path d="m38.9614005 15.0448495.490625-2.049074h1.1144676l-.0675926.2827546h-.7899306l-.1230324.5135417h.7899306l-.0699074.2925926h-.7900463l-.1584491.662037h.7899306l-.0714121.2981481z"/></g><path d="m33.0396644 11.2101852h-2.2318287l3.1039352-11.2101852h2.2320601z" fill="#6d6e70"/><path d="m31.8810301.35451389c-.1547454-.21331019-.3935185-.32094908-.7175926-.32094908h-12.2726852l-.6079861 2.19560186h2.2332176v-.00127315h8.9314815l-.6496528 2.34629629h-8.9318287l.0008102-.00486111h-2.2321759l-1.8526621 6.6883102h2.2333334l1.243287-4.48923612h10.0400463c.3135417 0 .6086806-.10682871.8861111-.32071759.2770834-.21412038.459375-.478125.5467593-.79340278l1.2430555-4.4900463c.0908565-.32581018.0594908-.59618055-.0935185-.80972222" fill="#6d6e70"/><path d="m14.4814352 10.5103935c-.1232639.4438658-.5274305.7510417-.9881944.7510417h-11.51527782c-.3136574 0-.546875-.1069445-.70023148-.3207176-.15324074-.2138889-.18611111-.4784722-.09849537-.7936343l2.80972222-10.11423608h2.2337963l-2.50949074 9.03356482h8.93587959l2.5096065-9.03356482h2.2335648z" fill="#6d6e70"/><path d="m39.9983102.02106481 2.8256945 5.61956019-5.9399306 5.6180556z" fill="#0e8041"/><path d="m38.0175232.02106481 2.8234953 5.61956019-5.9423611 5.6180556z" fill="#e87626"/></g></g></svg>