<svg xmlns="http://www.w3.org/2000/svg" viewBox="0 0 50 28"><defs><style>.cls-3{isolation:isolate}</style></defs><g id="border"><rect x=".5" y=".5" width="49" height="27" rx="3.5" ry="3.5" fill="#fff"/><path d="M46 1a3 3 0 0 1 3 3v20a3 3 0 0 1-3 3H4a3 3 0 0 1-3-3V4a3 3 0 0 1 3-3h42m0-1H4a4 4 0 0 0-4 4v20a4 4 0 0 0 4 4h42a4 4 0 0 0 4-4V4a4 4 0 0 0-4-4z" fill="#dfe1dd"/></g><g id="Boleto"><path d="M30.81 18.36V3H30v14.9a4.17 4.17 0 0 1 .81.46zM28.42 17.58a4 4 0 0 1 .61.05V3h-2.55v15.05a4 4 0 0 1 1.94-.47zM34.28 15.73a1.19 1.19 0 0 1 .6 1v1a1.16 1.16 0 0 1 .85.53V3h-2.56v12.71a1.18 1.18 0 0 1 1.11.02zM42.16 20.7h.06V3h-.79v16.1a3.89 3.89 0 0 1 .73 1.6zM39.47 17.75V3h-.79v14.6a5 5 0 0 1 .79.15zM40.84 18.48V3h-.78v15a3.57 3.57 0 0 1 .78.48zM32.06 16.37l.32-.19V3h-.79v13.9a1.2 1.2 0 0 1 .47-.53zM13.68 15.59V3h-.78v12.43a5.65 5.65 0 0 1 .78.16zM8.93 15.39h1.41V3H7.78v13.31a1.18 1.18 0 0 1 1.15-.92zM16.5 18.55a4.44 4.44 0 0 1 .73-.49V3h-.79v15.61zM23.26 15.39h1a1.18 1.18 0 0 1 1.18 1.18v2.26l.19-.19V3h-2.5v12.4zM18.8 17.6V3H18v14.74a4.22 4.22 0 0 1 .8-.14zM22.08 18.74v-2.17a1.22 1.22 0 0 1 .07-.38V3h-2.56v14.6a3.83 3.83 0 0 1 2.49 1.14z"/><g id="Boleto_copy" data-name="Boleto copy" class="cls-3"><g class="cls-3"><path d="M8.93 25v-8.43h3.17a3.9 3.9 0 0 1 1.55.26 2 2 0 0 1 .92.79 2.08 2.08 0 0 1 .33 1.11 2 2 0 0 1-.29 1 2.19 2.19 0 0 1-.89.77 2.23 2.23 0 0 1 1.18.76 2.1 2.1 0 0 1 .41 1.28 2.44 2.44 0 0 1-.25 1.11 2.18 2.18 0 0 1-.62.79 2.6 2.6 0 0 1-.92.41 5.41 5.41 0 0 1-1.37.15zm1.12-4.91h1.82a4.41 4.41 0 0 0 1.07-.09 1.12 1.12 0 0 0 .86-1.16 1.39 1.39 0 0 0-.2-.74 1 1 0 0 0-.58-.44 4.73 4.73 0 0 0-1.28-.12h-1.69zm0 3.91h2.1a5.84 5.84 0 0 0 .76 0 2.06 2.06 0 0 0 .65-.23 1.4 1.4 0 0 0 .43-.47 1.53 1.53 0 0 0 .16-.72 1.44 1.44 0 0 0-.24-.82 1.34 1.34 0 0 0-.67-.49 4.35 4.35 0 0 0-1.24-.15h-1.95zM16.33 22a3.17 3.17 0 0 1 1-2.52 2.85 2.85 0 0 1 1.92-.68 2.76 2.76 0 0 1 2.07.83 3.16 3.16 0 0 1 .8 2.29 4 4 0 0 1-.36 1.86 2.48 2.48 0 0 1-1 1.05 3 3 0 0 1-1.48.37 2.76 2.76 0 0 1-2.08-.82 3.33 3.33 0 0 1-.87-2.38zm1.07 0a2.63 2.63 0 0 0 .51 1.77 1.71 1.71 0 0 0 2.58 0 2.67 2.67 0 0 0 .51-1.84 2.54 2.54 0 0 0-.51-1.72 1.71 1.71 0 0 0-2.58 0A2.62 2.62 0 0 0 17.4 22zM23.26 25v-8.43h1V25zM30.1 23.05l1.07.14a2.59 2.59 0 0 1-.94 1.45 2.78 2.78 0 0 1-1.75.52 2.82 2.82 0 0 1-2.13-.82 3.28 3.28 0 0 1-.79-2.34 3.39 3.39 0 0 1 .8-2.4 2.69 2.69 0 0 1 2.06-.86 2.62 2.62 0 0 1 2 .84 3.32 3.32 0 0 1 .79 2.42v.28h-4.57a2.25 2.25 0 0 0 .57 1.54 1.69 1.69 0 0 0 1.28.54 1.58 1.58 0 0 0 1-.3 2 2 0 0 0 .61-1.01zm-3.41-1.67h3.42a2 2 0 0 0-.39-1.16 1.59 1.59 0 0 0-1.29-.6 1.66 1.66 0 0 0-1.2.48 1.91 1.91 0 0 0-.54 1.28zM34.74 24.1l.15.91a3.33 3.33 0 0 1-.78.1 1.78 1.78 0 0 1-.88-.18 1 1 0 0 1-.44-.47 4 4 0 0 1-.12-1.23v-3.52h-.76v-.81h.76v-1.51l1-.63v2.14h1v.81h-1v3.58a2.05 2.05 0 0 0 0 .57.44.44 0 0 0 .18.2.71.71 0 0 0 .36.08zM35.37 22a3.17 3.17 0 0 1 1-2.52 2.85 2.85 0 0 1 1.92-.68 2.78 2.78 0 0 1 2.07.83 3.16 3.16 0 0 1 .8 2.29 4 4 0 0 1-.36 1.86 2.48 2.48 0 0 1-1 1.05 3 3 0 0 1-1.48.37 2.76 2.76 0 0 1-2.08-.82 3.33 3.33 0 0 1-.87-2.38zm1.07 0a2.63 2.63 0 0 0 .56 1.73 1.71 1.71 0 0 0 2.58 0 2.67 2.67 0 0 0 .42-1.8 2.54 2.54 0 0 0-.51-1.72 1.71 1.71 0 0 0-2.58 0 2.62 2.62 0 0 0-.47 1.79z"/></g></g></g></svg>