<svg xmlns="http://www.w3.org/2000/svg" xmlns:xlink="http://www.w3.org/1999/xlink" width="50" height="28" viewBox="0 0 50 28"><title>icon_JP_711</title><defs><path id="a" d="M.124.183h9.883v3.463H.124z"/><path id="c" d="M.15.176h1.148v.25H.15z"/><path id="e" d="M0 .046h17.909v18.182H0z"/></defs><g fill="none" fill-rule="evenodd"><rect width="49" height="27" x=".5" y=".5" fill="#FFF" stroke="#E4E4E4" rx="4"/><g transform="translate(19.19 4.045)"><mask id="b" fill="#fff"><use xlink:href="#a"/></mask><path fill="#F4811F" d="M5.671 3.646H.124V.182h9.883C8.494.835 6.423 2.375 5.67 3.646" mask="url(#b)"/></g><path fill="#EC1D24" d="M27.4 11.602c.195-.85.461-1.255.933-1.855.552-.703 1.298-1.277 2.227-1.678V4.228c-.591.078-2.516 1.066-3.88 2.262-1.536 1.346-2.54 2.565-3.282 4.881l-.07.23H27.4zM22.702 14.829c-.232 2.1-.166 3.937-.183 4.442h4.43c0-1.245.011-3.005.082-4.442h-4.329z"/><g transform="translate(32.633 4.729)"><mask id="d" fill="#fff"><use xlink:href="#c"/></mask><path fill="#231F20" d="M.15.301h1.148" mask="url(#d)"/></g><g transform="translate(16 4.957)"><mask id="f" fill="#fff"><use xlink:href="#e"/></mask><path fill="#00A550" d="M11.253 14.617v-.872h2.532c.287 0 .645-.143.897-.394.25-.251.286-.574.358-.897L16.69.046h1.219v18.182H-.001V.046h1.22l1.65 12.408c.072.323.107.646.358.897.251.25.61.394.897.394h2.119v.872h5.01z" mask="url(#f)"/></g><path fill="#00A550" d="M19.434 12.024v2.491l1.388.002v-.541h-.573v-.462h.562v-.488h-.562v-.461h.573v-.541zM22.04 12.024h-.815v2.491l1.388.002v-.541h-.573zM22.795 12.024v2.491l1.388.002v-.541h-.573v-.462h.562v-.488h-.562v-.461h.573v-.541zM26.665 12.024v2.491l1.388.002v-.541h-.573v-.462h.562v-.488h-.562v-.461h.573v-.541zM29.865 11.935c-.175-.01-.432.139-.603.253v-.164h-.814v2.491h.814v-1.813c.018-.084.069-.15.179-.143.148.008.19.106.186.263v1.693h.815v-1.812c0-.078.055-.73-.577-.768M25.528 13.607l-.297-1.583h-.764l.365 2.491h1.12l.459-2.491h-.603z"/></g></svg>