<svg id="Layer_1" data-name="Layer 1" xmlns="http://www.w3.org/2000/svg" viewBox="0 0 103 52"><defs><style>.cls-1{fill:#676767;}</style></defs><path class="cls-1" d="M94.36,24.15c-.12.62-.22,1.24-.36,1.85A14.31,14.31,0,0,1,79.92,37.27q-24.11,0-48.19,0a3.16,3.16,0,0,0-1.06.19,15.75,15.75,0,0,1-6,1,15.19,15.19,0,0,1-9.66-3.78A14.94,14.94,0,0,1,10,25.84a15.05,15.05,0,0,1,3-12.32,15.09,15.09,0,0,1,9.45-5.71,14.58,14.58,0,0,1,7.66.59,6.23,6.23,0,0,0,2.22.36c.91,0,1.82,0,2.78,0l0-1.16h1.19l0,1h1V6.38H38.5V5.17h2.18V4h1.21V2.8H43.2V4.09H42.07v1H43.2V6.46H41.91V5.33h-1V6.48H39.8V7.55h1.25v1.2h.74c12.8,0,25.59,0,38.38,0a14.27,14.27,0,0,1,14,12.09c0,.34.12.67.18,1ZM37.22,13.3A15.55,15.55,0,0,1,33.4,36.13H80.05A12.7,12.7,0,0,0,82,36,13.13,13.13,0,0,0,80.18,9.88H38.65v2.37l-.89.06C37.53,12.65,38,13.26,37.22,13.3Zm-6.06,1.16a10.46,10.46,0,1,0,2.67,14.47c3-4.33,1.84-9.8-.3-12v1.34l-1,0v1.13l-.79.07a3.83,3.83,0,0,1-.24,1.35,39.86,39.86,0,0,0-3.88,7.72,1.32,1.32,0,0,1-1,.89,2.11,2.11,0,0,1-2.52-1.24A25.2,25.2,0,0,0,20.83,22c-.55-.72-1.15-1.4-1.72-2.11A5.4,5.4,0,0,1,18.5,19a.91.91,0,0,1,.11-1.11,1,1,0,0,1,1.11-.19,8.72,8.72,0,0,1,3.49,2.43c.84.9,1.62,1.85,2.35,2.7,1.12-2.06,2.27-4.17,3.41-6.28.29-.53.54-1.11,1.3-.88C30.49,15.16,29.94,14.28,31.16,14.46Zm5.25-4.55v1h1v-1ZM38.7,7.72v.89h.87V7.72ZM33.55,9.9l0,.1.87.57,0-.67Z"/><path class="cls-1" d="M68.41,49.33l-.35-.11c-.63-.18-.66-.28-.29-.87.7.2,1.46.46,2.08-.13a2,2,0,0,0,.35-1,2,2,0,0,1-2.62-.25,2.58,2.58,0,0,1,0-3.08A1.83,1.83,0,0,1,70,43.62l1-.35V47c0,1.48-.27,1.87-1.65,2.34Zm-.44-4c0,.9.45,1.46,1.17,1.45s1.13-.62,1.07-1.53a1.08,1.08,0,0,0-.1-.52,1.62,1.62,0,0,0-.6-.64C68.66,43.74,68,44.32,68,45.36Z"/><path class="cls-1" d="M64.24,43.76V41.84c.77-.23.86-.17.86.57v5.16h-.78l-.12-.43a1.71,1.71,0,0,1-2.09.37,2,2,0,0,1-1-1.95,5.29,5.29,0,0,1,.06-.8A1.88,1.88,0,0,1,64.24,43.76Zm.06,1.71a6.57,6.57,0,0,0-.21-.76,1,1,0,0,0-1-.69,1.08,1.08,0,0,0-1,.7,1.9,1.9,0,0,0,0,1.63,1,1,0,0,0,1.06.58,1,1,0,0,0,.95-.7A4.77,4.77,0,0,0,64.3,45.47Z"/><path class="cls-1" d="M80.54,46.49c.42.61.39.73-.26,1a2.29,2.29,0,0,1-2.55-.33,2.2,2.2,0,0,1-.62-2.38,2.08,2.08,0,0,1,2.51-1.45,1.88,1.88,0,0,1,1.28,2.31h-3C78.08,46.94,79.14,47.28,80.54,46.49ZM78,44.93H80c-.05-.62-.29-.89-.8-.94A1.08,1.08,0,0,0,78,44.93Z"/><path class="cls-1" d="M50.72,42h.61v2.19c1.33-.73,2.08-.72,2.64,0a2.39,2.39,0,0,1-.12,3,1.67,1.67,0,0,1-2.32,0l-.81.52Zm3,3.59c0-.9-.45-1.46-1.17-1.45a1.32,1.32,0,0,0-1.24,1.49c0,.89.52,1.46,1.27,1.45S53.73,46.52,53.73,45.58Z"/><path class="cls-1" d="M46.42,44.18V42H47v5.47l-.53.05L46.36,47c-1,.74-1.81.75-2.48,0a2.31,2.31,0,0,1-.07-2.86C44.49,43.44,45.29,43.4,46.42,44.18Zm0,1.28a2.44,2.44,0,0,0,0-.32,1.17,1.17,0,0,0-.9-1,1.06,1.06,0,0,0-1.18.47,1.94,1.94,0,0,0,0,2A1.17,1.17,0,0,0,45,47C45.86,47.2,46.39,46.63,46.39,45.46Z"/><path class="cls-1" d="M17.09,47.05v2.06h-.65V43.78c.4-.13.69-.16.68.43.53-.41,1-.78,1.66-.57A2.05,2.05,0,0,1,19.64,47C19,47.76,18.35,47.79,17.09,47.05Zm2.37-1.43c0-.91-.43-1.48-1.15-1.49s-1.21.58-1.23,1.49.46,1.44,1.19,1.45S19.45,46.52,19.46,45.62Z"/><path class="cls-1" d="M25.56,43.79c.48-.18.65,0,.75.35a15.85,15.85,0,0,0,.89,2.49c.29-.84.57-1.69.87-2.53a.63.63,0,0,1,.3-.37.4.4,0,0,1,.57.31,16.36,16.36,0,0,0,1,2.58c.2-.64.39-1.28.59-1.92.06-.22.15-.45.19-.68s.28-.36.61-.24a6.25,6.25,0,0,1-.16.62c-.3.91-.6,1.82-.93,2.72-.06.16-.25.28-.39.42-.15-.14-.36-.27-.43-.44-.3-.8-.55-1.6-.88-2.57a4.1,4.1,0,0,0-.28.54c-.26.7-.49,1.4-.76,2.09-.06.15-.26.37-.36.36a.7.7,0,0,1-.43-.36C26.3,46.05,25.94,44.94,25.56,43.79Z"/><path class="cls-1" d="M76.5,44.43c-1.27-.53-1.87-.47-2.36.23a1.55,1.55,0,0,0,.16,1.86c.53.56,1.36.54,2.33-.08.43.58.42.68-.22,1a2.32,2.32,0,0,1-2.47-.13,2.14,2.14,0,0,1-.85-2.36,1.83,1.83,0,0,1,1.49-1.54,4,4,0,0,1,1.74.13C77,43.71,77,43.88,76.5,44.43Z"/><path class="cls-1" d="M23,43.59a2,2,0,1,1-2,2A1.91,1.91,0,0,1,23,43.59ZM23,47c.81,0,1.25-.51,1.26-1.42S23.71,44.1,23,44.1a1.35,1.35,0,0,0-1.29,1.51C21.66,46.54,22.12,47,23,47Z"/><path class="cls-1" d="M35.35,45.7c-.79,0-1.55,0-2.31,0-.54,0-.64.15-.44.65a1.38,1.38,0,0,0,1.7.71,8.59,8.59,0,0,0,.86-.32c0,.24,0,.45-.14.54a2.28,2.28,0,0,1-2.41,0,2.11,2.11,0,0,1-.67-2.4,1.85,1.85,0,0,1,1.84-1.25C34.77,43.63,35.39,44.43,35.35,45.7Zm-.66-.46c0-.72-.36-1.12-.92-1.14a1.1,1.1,0,0,0-1.16,1.14h2.08Z"/><path class="cls-1" d="M42.45,45.7c-.79,0-1.55,0-2.31,0-.56,0-.66.17-.43.69a1.34,1.34,0,0,0,1.56.69,7.34,7.34,0,0,0,1-.31c0,.2,0,.42-.11.5a2.24,2.24,0,0,1-2.5-.08,2.15,2.15,0,0,1-.43-2.67,1.82,1.82,0,0,1,2.2-.82C42.09,44,42.46,44.6,42.45,45.7Zm-.67-.51a1,1,0,0,0-.85-1.09,1.13,1.13,0,0,0-1.25,1.09Z"/><path class="cls-1" d="M84.83,42.26h.81V43.4l1,.05v.64l-.94.06a10.3,10.3,0,0,0,0,2.08c.06.31.55.53.85.79l.14-.12v.63a1.36,1.36,0,0,1-1.89-1.3c0-.52,0-1,0-1.57,0-.34,0-.67-.51-.53v-.66l.54-.08Z"/><path class="cls-1" d="M58.45,43.78c-.58,1.45-1.12,2.91-1.75,4.32a2.87,2.87,0,0,1-.91.89c-.1.08-.31,0-.47,0a1.94,1.94,0,0,1,.22-.4c.09-.1.25-.15.36-.25a1,1,0,0,0,.32-1.25c-.47-1.09-.91-2.2-1.37-3.32.43-.19.64,0,.78.36a18.54,18.54,0,0,0,1.11,2.53c.16-.4.32-.8.47-1.2s.33-.92.5-1.38S57.87,43.67,58.45,43.78Z"/><path class="cls-1" d="M82.35,47.58H81.5V43.45c.74-.16.76-.15.89.54.38-.38.75-.76,1.38-.64v.76c-1.11.29-1.33.54-1.41,1.7C82.32,46.39,82.35,47,82.35,47.58Z"/><path class="cls-1" d="M66.53,47.58h-.81V44.06c0-.74,0-.75.81-.63Z"/><path class="cls-1" d="M72.52,47.58H71.7V43.47c.72-.22.82-.16.82.58Z"/><path class="cls-1" d="M37,47.51h-.61V43.62l.7.33c.39-.11.79-.23,1.19-.31a2.34,2.34,0,0,1,.17.44c-1.28.19-1.44.38-1.45,1.61Z"/><path class="cls-1" d="M92.21,10.93l-.57-1.31h-.09v1.28c-.18-.2-.29-.27-.3-.33,0-.51,0-1,0-1.53,0-.09.12-.18.18-.27.1.07.23.12.27.22.17.37.31.76.48,1.18.43-.41.25-1.18.95-1.44v2l-.19,0-.15-1.09Z"/><path class="cls-1" d="M87.86,42.45c-.23.18-.44.46-.69.51s-.61-.19-.66-.56.31-.76.61-.68a2.56,2.56,0,0,1,.73.48Zm-.49.37c-.11-.16-.16-.24-.17-.23a1.62,1.62,0,0,0-.18.1Zm-.15-.57s0-.07,0-.07-.06,0-.09,0l.07.09Z"/><path class="cls-1" d="M90.09,9.06,89.52,9V8.83H91l0,.09-.59.17v1.62h-.25c0-.25-.05-.51-.06-.76S90.09,9.38,90.09,9.06Z"/><path class="cls-1" d="M72.44,42.57h-.75v-.75C72.5,41.63,72.61,41.73,72.44,42.57Z"/><path class="cls-1" d="M66.55,41.82v.73h-.81C65.59,41.71,65.7,41.62,66.55,41.82Z"/><path class="cls-1" d="M87.37,42.82,87,42.69a1.62,1.62,0,0,1,.18-.1S87.26,42.66,87.37,42.82Z"/><path class="cls-1" d="M87.22,42.25l-.06,0-.07-.09s.06,0,.09,0S87.21,42.22,87.22,42.25Z"/><path class="cls-1" d="M43.46,12.46c.78,0,1.52,0,2.26,0,.16,0,.36.22.45.39,1,1.8,1.9,3.61,2.85,5.42l.16.23v-6h2.09V22.63c-.7,0-1.42,0-2.14,0-.13,0-.28-.25-.36-.42-1-1.91-2-3.82-2.94-5.74a1.08,1.08,0,0,0-.3-.39V22.6H43.46Z"/><path class="cls-1" d="M62.1,16.61c.79-1.46,2.07-1.61,3.51-1.48L66,13h1.84v2.07c.43,0,.82,0,1.21,0s.46.12.44.45,0,.76,0,1.19H67.9c0,1.28,0,2.5,0,3.73,0,.44.4.64.86.55l.69-.09.26,1.48c-1.17.67-3.66.62-4-1.07a6.87,6.87,0,0,1-.14-1.28c0-1.09,0-2.17,0-3.24-2.26-.43-3.09.95-3.14,2.6,0,1,0,2.1,0,3.18H60.18a4.75,4.75,0,0,1,0-.53q0-3.18,0-6.37c0-.23-.1-.6.29-.57s.94-.29,1.21.28A12.77,12.77,0,0,1,62.1,16.61Z"/><path class="cls-1" d="M77.83,22.6c0-.22,0-.4,0-.58,0-2.09,0-4.18,0-6.27,0-.49.15-.61.64-.67.82-.1,1,.43,1.14.94a13.13,13.13,0,0,1,1.91-1,2.41,2.41,0,0,1,3.18,2.12c.1,1.79,0,3.59,0,5.42H82.41c0-.22,0-.43,0-.64,0-1.32,0-2.65,0-4,0-.73-.36-1.11-1-1.12A1.21,1.21,0,0,0,80.09,18V22.6Z"/><path class="cls-1" d="M73.55,15a3.91,3.91,0,1,1-4,3.86A3.9,3.9,0,0,1,73.55,15Zm-.1,5.79A1.9,1.9,0,0,0,73.62,17a1.94,1.94,0,0,0-2,1.87A1.9,1.9,0,0,0,73.45,20.76Z"/><path class="cls-1" d="M59.71,18.89a3.84,3.84,0,0,1-3.86,3.91,4,4,0,0,1-4-4,4,4,0,0,1,4-3.83A3.91,3.91,0,0,1,59.71,18.89Zm-2,0a1.89,1.89,0,1,0-1.88,1.89A1.84,1.84,0,0,0,57.71,18.88Z"/><path class="cls-1" d="M71.19,29.37l1.26,2.75c-1,.28-1.17.21-1.56-.66a9.45,9.45,0,0,1-.6-1.34c-.19-.64-.59-.74-1.22-.55,0,.7,0,1.42,0,2.14,0,.47-.2.52-.58.52s-.64,0-.63-.54c0-1.81,0-3.63,0-5.44,0-.36.08-.54.49-.52.72,0,1.45,0,2.17,0a1.75,1.75,0,0,1,1.77,1.33,1.81,1.81,0,0,1-1,2.15S71.27,29.3,71.19,29.37Zm-2.09-.81c.67,0,1.41.24,1.87-.39a1.15,1.15,0,0,0,0-1.05c-.45-.71-1.22-.38-1.91-.45Z"/><path class="cls-1" d="M80.08,32.26V25.69c1,.06,1.87,0,2.77.19a2.18,2.18,0,0,1,1.75,1.61,4.69,4.69,0,0,1,0,2.94,2.31,2.31,0,0,1-2,1.68C81.78,32.22,81,32.21,80.08,32.26Zm1.16-1.08c1.59.17,2.27-.38,2.33-1.86,0-.24,0-.47,0-.71-.06-1.51-.79-2.1-2.34-1.88Z"/><path class="cls-1" d="M61.3,25.78l.24,0c.85,0,.85,0,.86.83,0,1.22,0,2.43,0,3.65a1,1,0,0,0,.65,1,1.05,1.05,0,0,0,1.51-1c0-1.18,0-2.36,0-3.54s0-1.09,1.15-.87c0,.13,0,.27,0,.41,0,1.45,0,2.91-.11,4.35-.1,1.16-.93,1.73-2.19,1.73s-2.1-.56-2.18-1.73C61.22,29,61.3,27.39,61.3,25.78Z"/><path class="cls-1" d="M53.12,25.74v.92H50.47v1.68h2.07v.93H50.46v1.95h2.8v1H49.62c-.28,0-.38-.1-.38-.38,0-1.91,0-3.81,0-5.72,0-.12.17-.36.26-.36C50.7,25.73,51.89,25.74,53.12,25.74Z"/><path class="cls-1" d="M74.29,32.22V25.77h3.8v.88H75.44v1.69h2.09v.91H75.45v2c.75,0,1.52,0,2.3,0,.55,0,.66.13.55.69a.49.49,0,0,1-.29.29C76.78,32.23,75.55,32.22,74.29,32.22Z"/><path class="cls-1" d="M47.11,26.05l-.4.8c-.58-.07-1.11-.17-1.65-.2a.7.7,0,0,0-.81.56.75.75,0,0,0,.56.88l1,.37c1.24.46,1.71,1.14,1.56,2.28-.12.9-.77,1.44-2,1.54a3.67,3.67,0,0,1-2.55-.74l.48-.76c.54.17,1,.35,1.52.47a1.09,1.09,0,0,0,.74,0,1.55,1.55,0,0,0,.67-.67c.15-.35-.09-.67-.44-.83s-.7-.28-1-.43a5.64,5.64,0,0,1-.92-.46,1.68,1.68,0,0,1-.68-1.68,1.52,1.52,0,0,1,1-1.34A3.79,3.79,0,0,1,47.11,26.05Z"/><path class="cls-1" d="M59.39,26.47l-.55.65a5.81,5.81,0,0,0-1.22-.44,1.2,1.2,0,0,0-1.38.89,4.42,4.42,0,0,0-.08,2.57,1.39,1.39,0,0,0,2.27.79c.15-.1.28-.22.45-.35l.61.7a2.55,2.55,0,0,1-4.1,0,4.54,4.54,0,0,1,0-4.65A2.59,2.59,0,0,1,59.39,26.47Z"/></svg>