<svg width="46" height="47" viewBox="0 0 46 47" fill="none" xmlns="http://www.w3.org/2000/svg">
<path d="M10.0147 24.9281C9.88662 24.7966 9.72066 24.6815 9.51914 24.5852C9.31761 24.4865 9.07341 24.409 8.79127 24.3503L8.37163 24.261C8.25071 24.2352 8.14402 24.207 8.0563 24.1765C7.96857 24.1459 7.89508 24.1107 7.83818 24.0708C7.78127 24.0308 7.74097 23.9886 7.71489 23.9392C7.68881 23.8899 7.67696 23.8359 7.6817 23.7748C7.68407 23.6997 7.70541 23.6339 7.75045 23.5775C7.79313 23.5188 7.86188 23.4742 7.95198 23.4389C8.04207 23.4061 8.16062 23.3873 8.30287 23.3873C8.5281 23.3873 8.69644 23.4342 8.80787 23.5258C8.9193 23.6198 8.98094 23.7466 8.99517 23.9134H10.3276C10.3252 23.5799 10.2423 23.291 10.0787 23.042C9.91507 22.793 9.68036 22.6004 9.37925 22.4618C9.07578 22.3256 8.71778 22.2551 8.30524 22.2551C7.89982 22.2551 7.53944 22.3232 7.22649 22.4595C6.91353 22.5957 6.66933 22.7836 6.49151 23.0255C6.31606 23.2675 6.22834 23.5493 6.23071 23.8735C6.22834 24.2704 6.35874 24.5828 6.61954 24.813C6.88034 25.0432 7.23834 25.2053 7.69355 25.3039L8.20566 25.4119C8.39533 25.4542 8.54707 25.4965 8.6585 25.5435C8.76993 25.5905 8.85055 25.6445 8.90033 25.7032C8.95012 25.7619 8.9762 25.83 8.9762 25.9076C8.97383 25.9898 8.94775 26.0649 8.89559 26.1283C8.84343 26.1941 8.76756 26.2434 8.66799 26.2787C8.56841 26.3162 8.44275 26.3327 8.29576 26.3327C8.11794 26.3327 7.9662 26.3045 7.83818 26.2505C7.71015 26.1965 7.61057 26.1166 7.54181 26.0109C7.47069 25.9052 7.43275 25.7737 7.42327 25.6186H6.0932C6.09557 26.0438 6.18804 26.3914 6.37059 26.6639C6.55315 26.9363 6.81158 27.1383 7.14113 27.2675C7.47306 27.3991 7.86188 27.4625 8.30761 27.4625C8.74148 27.4625 9.11371 27.4014 9.4243 27.2816C9.73489 27.1618 9.97198 26.9857 10.1403 26.7531C10.3086 26.5206 10.3916 26.2387 10.394 25.9052C10.3916 25.7126 10.3608 25.5341 10.2992 25.3697C10.2375 25.2076 10.1427 25.0596 10.0147 24.9281Z" fill="#666766"/>
<path d="M13.9574 25.4612C13.9574 25.6186 13.9219 25.7595 13.8531 25.8817C13.782 26.0038 13.6872 26.1001 13.5615 26.1706C13.4382 26.2411 13.296 26.2739 13.1347 26.2739C12.9759 26.2739 12.8336 26.2387 12.7103 26.1706C12.5871 26.1001 12.4875 26.0038 12.4187 25.8817C12.35 25.7595 12.3144 25.6186 12.3144 25.4612V22.3256H10.9227V25.581C10.9227 25.9686 11.0152 26.3021 11.2001 26.584C11.385 26.8658 11.6434 27.0843 11.9754 27.237C12.3073 27.3896 12.6961 27.4671 13.1371 27.4671C13.5757 27.4671 13.9622 27.3896 14.2941 27.237C14.626 27.0843 14.8845 26.8658 15.0718 26.584C15.2591 26.3021 15.3515 25.9686 15.3515 25.581V22.3256H13.9598V25.4612H13.9574Z" fill="#666766"/>
<path d="M19.2255 22.5487C18.941 22.4007 18.6067 22.3256 18.225 22.3256H16.0106V27.4084H17.4023V25.9005H18.1729C18.5641 25.9005 18.9055 25.8277 19.1995 25.6844C19.4935 25.5411 19.7211 25.3344 19.8823 25.069C20.0459 24.8036 20.1265 24.4865 20.1265 24.1248C20.1265 23.763 20.0482 23.4483 19.8894 23.1805C19.7329 22.9057 19.5124 22.6967 19.2255 22.5487ZM18.583 24.4959C18.5214 24.6016 18.4313 24.6838 18.3151 24.7402C18.199 24.7965 18.0591 24.8247 17.8955 24.8247H17.4047V23.4248H17.8955C18.0591 23.4248 18.199 23.453 18.3151 23.507C18.4313 23.5634 18.5214 23.6409 18.583 23.7443C18.6447 23.8476 18.6779 23.9721 18.6779 24.1177C18.6779 24.2657 18.647 24.3902 18.583 24.4959Z" fill="#666766"/>
<path d="M23.8535 22.5487C23.569 22.4007 23.2347 22.3256 22.853 22.3256H20.6386V27.4084H22.0303V25.9005H22.8008C23.192 25.9005 23.5334 25.8277 23.8274 25.6844C24.1214 25.5411 24.349 25.3344 24.5102 25.069C24.6715 24.8036 24.7544 24.4865 24.7544 24.1248C24.7544 23.763 24.6762 23.4483 24.5174 23.1805C24.3632 22.9057 24.1404 22.6967 23.8535 22.5487ZM23.211 24.4959C23.1494 24.6016 23.0593 24.6838 22.9431 24.7402C22.8269 24.7965 22.687 24.8247 22.5234 24.8247H22.0327V23.4248H22.5234C22.687 23.4248 22.8269 23.453 22.9431 23.507C23.0593 23.5634 23.1494 23.6409 23.211 23.7443C23.2726 23.8476 23.3058 23.9721 23.3058 24.1177C23.3058 24.2657 23.275 24.3902 23.211 24.4959Z" fill="#666766"/>
<path d="M29.0078 22.5534C28.6309 22.3538 28.2088 22.2551 27.7465 22.2551C27.2795 22.2551 26.8574 22.3538 26.4805 22.5534C26.1035 22.7531 25.8048 23.0467 25.5843 23.4342C25.3638 23.8218 25.2523 24.2986 25.2523 24.8647C25.2523 25.426 25.3638 25.9029 25.5843 26.2904C25.8048 26.678 26.1035 26.9739 26.4805 27.1736C26.8574 27.3756 27.2795 27.4742 27.7465 27.4742C28.2112 27.4742 28.6309 27.3756 29.0078 27.1759C29.3848 26.9763 29.6859 26.6827 29.9064 26.2951C30.1293 25.9075 30.2407 25.4307 30.2407 24.8647C30.2407 24.2986 30.1293 23.8218 29.9064 23.4342C29.6835 23.0467 29.3848 22.7531 29.0078 22.5534ZM28.6854 25.6351C28.6048 25.8441 28.4839 26.0039 28.3274 26.1119C28.1685 26.2199 27.9765 26.274 27.7442 26.274C27.5142 26.274 27.3198 26.2199 27.1609 26.1119C27.0021 26.0039 26.8835 25.8441 26.8029 25.6351C26.7223 25.426 26.682 25.17 26.682 24.8647C26.682 24.5593 26.7223 24.3033 26.8029 24.0943C26.8835 23.8852 27.0044 23.7255 27.1609 23.6174C27.3198 23.5094 27.5118 23.4554 27.7442 23.4554C27.9741 23.4554 28.1685 23.5094 28.3274 23.6174C28.4862 23.7255 28.6048 23.8852 28.6854 24.0943C28.766 24.3033 28.8063 24.5593 28.8063 24.8647C28.8063 25.17 28.766 25.426 28.6854 25.6351Z" fill="#666766"/>
<path d="M34.7525 24.9727C34.9161 24.7237 34.9967 24.416 34.9967 24.0519C34.9967 23.6902 34.9185 23.3825 34.7596 23.1242C34.6008 22.8658 34.3779 22.6685 34.0934 22.5323C33.8089 22.396 33.4746 22.3256 33.0929 22.3256H30.8785V27.4084H32.2702V25.7314H32.7515L33.6524 27.4084H35.165L34.1219 25.5106C34.3898 25.3837 34.6008 25.2052 34.7525 24.9727ZM32.2726 23.4272H32.7633C32.9269 23.4272 33.0668 23.4483 33.183 23.4929C33.2992 23.5376 33.3892 23.6057 33.4509 23.6973C33.5125 23.7889 33.5457 23.9087 33.5457 24.0543C33.5457 24.1976 33.5149 24.315 33.4509 24.4043C33.3892 24.4935 33.2992 24.5593 33.183 24.5992C33.0668 24.6392 32.9269 24.6603 32.7633 24.6603H32.2726V23.4272Z" fill="#666766"/>
<path d="M35.4496 23.4366H36.9906V27.4061H38.3634V23.4366H39.9068V22.3256H35.4496V23.4366Z" fill="#666766"/>
<path d="M38.8067 0H7.19328C3.22678 0 0 3.19675 0 7.12634V29.9076C0 33.8372 3.22678 37.0339 7.19328 37.0339H7.78837V43.1738C7.78837 44.8626 8.87424 46.3282 10.4888 46.8191C10.503 46.8238 10.5173 46.8285 10.5315 46.8309L10.9796 46.9507C11.1005 46.9836 11.2238 47 11.3494 47H11.6648C12.8455 47 13.9361 46.4645 14.6711 45.5273L22.6159 37.0457H39.1624C42.3654 37.0457 45.9289 34.166 45.9929 30.0203C45.9953 29.9898 45.9953 29.9593 45.9953 29.9264V7.12634C46 3.19675 42.7732 0 38.8067 0ZM43.1858 29.8301C43.1834 29.8559 43.1834 29.8818 43.1834 29.9076C43.1834 32.5618 40.8054 34.2576 39.1671 34.2576H22.0066C21.6154 34.2576 21.2408 34.4197 20.9753 34.7039L12.5657 43.6811C12.5302 43.7187 12.4993 43.7563 12.4685 43.7985C12.2622 44.0734 11.992 44.2143 11.6695 44.2143H11.5415L11.302 44.1485C10.8729 44.0099 10.6074 43.6388 10.6074 43.1761V35.6434C10.6074 34.873 9.9767 34.2482 9.19905 34.2482H7.19565C4.78208 34.2482 2.81662 32.3034 2.81662 29.9099V7.12634C2.81662 4.73523 4.77971 2.78806 7.19565 2.78806H38.8091C41.2227 2.78806 43.1881 4.73288 43.1881 7.12634V29.8301H43.1858Z" fill="#666766"/>
<path d="M12.2907 17.1323L13.1608 16.416C13.8673 15.8334 14.4103 15.3308 14.7944 14.9104C15.1784 14.4876 15.444 14.1047 15.591 13.7547C15.738 13.4071 15.8138 13.0571 15.8138 12.7025C15.8138 12.1317 15.6645 11.6337 15.3681 11.2086C15.0718 10.7835 14.6497 10.4546 14.1044 10.2198C13.5591 9.98487 12.9166 9.86743 12.1745 9.86743C11.4561 9.86743 10.8302 9.99427 10.2968 10.2432C9.76333 10.4946 9.34843 10.8539 9.05681 11.319C8.76519 11.7841 8.61819 12.3407 8.61819 12.9867H11.0081C11.0081 12.7307 11.0555 12.5122 11.1527 12.3313C11.2499 12.1528 11.385 12.0166 11.5628 11.9227C11.7383 11.831 11.9446 11.7841 12.1769 11.7841C12.4092 11.7841 12.6131 11.8287 12.7933 11.9203C12.9711 12.0119 13.111 12.1411 13.213 12.3079C13.3149 12.4746 13.3647 12.6766 13.3647 12.9139C13.3647 13.13 13.3197 13.3249 13.2319 13.5011C13.1419 13.6772 13.0162 13.8487 12.8526 14.0155C12.689 14.1822 12.4922 14.3584 12.2623 14.5463L8.79838 17.3837V19.1782H15.9134V17.1864H12.2907V17.1323Z" fill="#666766"/>
<path d="M20.9776 19.1782H23.3865V17.743H24.4557V15.8053H23.3865V9.99426H21.9734H21.0322H20.2L16.4706 15.8053V17.743H20.9776V19.1782ZM18.9505 15.7324L20.961 12.5756H21.0345V15.8053H18.9529V15.7324H18.9505Z" fill="#666766"/>
<path d="M29.8353 9.56445H27.7157L24.7284 20.557H26.848L29.8353 9.56445Z" fill="#666766"/>
<path d="M34.7786 12.0377L31.1393 19.1782H33.7283L37.3842 11.9861V9.99426H30.5062V11.9861H34.7786V12.0377Z" fill="#666766"/>
</svg>
