<svg xmlns="http://www.w3.org/2000/svg" width="26" height="19" viewBox="0 0 26 19"><title>icon_adult_4A4A4A</title><path fill="#4A4A4A" fill-rule="nonzero" d="M7.792 9.557a4.373 4.373 0 0 0 4.375-4.375A4.373 4.373 0 0 0 7.792.807a4.373 4.373 0 0 0-4.375 4.375 4.373 4.373 0 0 0 4.375 4.375zm11.25 0a3.751 3.751 0 0 0 0-7.5 3.751 3.751 0 0 0 0 7.5zm-5.625 8.75c1.035 0 1.875-.84 1.875-1.875v-1.125c0-2.485-2.016-4.5-4.5-4.5h-.324a6.153 6.153 0 0 1-2.676.625c-.961 0-1.86-.235-2.676-.625h-.324a4.501 4.501 0 0 0-4.5 4.5v1.125c0 1.035.84 1.875 1.875 1.875h11.25zm10-1.25c1.035 0 1.875-.84 1.875-1.875a4.373 4.373 0 0 0-4.375-4.375h-.149a5.263 5.263 0 0 1-1.726.312c-.61 0-1.184-.125-1.727-.312h-.148c-.797 0-1.532.23-2.176.601a5.716 5.716 0 0 1 1.55 3.899v1.5c0 .086-.019.168-.023.25h6.899z"/></svg>