<svg xmlns="http://www.w3.org/2000/svg" xmlns:xlink="http://www.w3.org/1999/xlink" width="19" height="18" viewBox="0 0 19 18"><title>icon_chidren_4A4A4A</title><defs><path id="a" d="M6.426 4.334c.302 0 .587.151.745.425l2.486 4.304 2.24-3.877c.142-.246.431-.42.65-.42h2.53c.217 0 .506.174.649.42l2.972 5.145c.236.41.1.935-.307 1.173a.849.849 0 0 1-1.163-.31L15.954 8.99v7.591c0 .511-.42.923-.93.905-.486-.018-.864-.436-.864-.926v-4.571a.356.356 0 0 0-.379-.357.365.365 0 0 0-.33.37l.012 4.58c0 .5-.402.905-.897.905h-.013a.901.901 0 0 1-.897-.906l.012-7.59-1.274 2.205a.848.848 0 0 1-1.163.31c-.208-.123-.513-.66-.557-.737L7.381 8.53v.94l.587 4.264c.05.36-.227.68-.587.68v2.631c0 .511-.42.923-.93.905-.486-.017-.865-.436-.865-.926v-2.61h-.709v2.631c0 .511-.42.923-.93.905-.486-.017-.864-.436-.864-.926v-2.61a.596.596 0 0 1-.587-.68l.587-4.264V8.5l-1.311 2.27a.849.849 0 0 1-1.163.308.862.862 0 0 1-.307-1.172l2.972-5.146a.848.848 0 0 1 .754-.426h2.398zm7.44-4.145c1.125 0 2.037.928 2.037 2.072 0 1.145-.912 2.072-2.037 2.072s-2.038-.927-2.038-2.072c0-1.144.913-2.072 2.038-2.072zm-8.44 0c.726 0 1.355.455 1.668 1.12.397-.079 1.012-.073 1.51.505.336.391.347 1.377.283 2.034-.026.271-.244.468-.49.444l-.464-.046c-.268-.026-.456-.302-.404-.592.08-.444.107-1.06-.227-1.441l.001.048c0 1.144-.84 2.072-1.878 2.072-1.037 0-1.878-.928-1.878-2.072l.001-.048c-.334.381-.307.997-.227 1.441.053.29-.136.566-.403.592l-.465.046c-.246.024-.464-.173-.49-.444-.064-.657-.053-1.643.284-2.034.497-.578 1.112-.584 1.51-.504C4.069.644 4.699.189 5.425.189z"/></defs><g fill="none" fill-rule="evenodd"><mask id="b" fill="#fff"><use xlink:href="#a"/></mask><use fill="#9B9B9B" xlink:href="#a"/><g fill="#4A4A4A" fill-rule="nonzero" mask="url(#b)"><path d="M-14.157-15.116h47.314v47.994h-47.314z"/></g></g></svg>